<svg width="57" height="57" viewBox="0 0 57 57" fill="none" xmlns="http://www.w3.org/2000/svg" xmlns:xlink="http://www.w3.org/1999/xlink">
	<defs>
		<linearGradient id="paint_linear_1_1060_0" x1="33.930485" y1="17.644501" x2="25.787628" y2="36.643414" gradientUnits="userSpaceOnUse">
			<stop stop-color="#37AEE2"/>
			<stop offset="1" stop-color="#1E96C8"/>
		</linearGradient>
		<linearGradient id="paint_linear_1_1065_0" x1="17.047407" y1="17.050337" x2="40.050858" y2="40.053787" gradientUnits="userSpaceOnUse">
			<stop stop-color="#FAE100"/>
			<stop offset="0.150000" stop-color="#FCB720"/>
			<stop offset="0.300000" stop-color="#FF7950"/>
			<stop offset="0.500000" stop-color="#FF1C74"/>
			<stop offset="1" stop-color="#6C1CD1"/>
		</linearGradient>
	</defs>
	<g clip-path="url(#clip1_1058)">
		<path id="Background" d="M28.5488 12.2861C37.5332 12.2861 44.8145 19.5688 44.8145 28.5522C44.8145 37.5356 37.5332 44.8179 28.5488 44.8179C19.5664 44.8179 12.2832 37.5356 12.2832 28.5522C12.2832 19.5688 19.5664 12.2861 28.5488 12.2861Z" fill="url(#paint_linear_1_1065_0)" fill-opacity="1" fill-rule="evenodd"/>
		<g opacity="0.100000">
			<path id="Shade" d="M40.793 17.8511C38.4219 22.2041 35.0664 26.6943 30.877 30.8853C26.6855 35.0757 22.1953 38.4233 17.8496 40.7944C17.5762 40.5576 17.3125 40.311 17.0547 40.0542C15.502 38.5532 14.2637 36.7588 13.4121 34.7749C12.5605 32.7905 12.1133 30.6567 12.0938 28.498C12.0762 26.3389 12.4883 24.1978 13.3047 22.1992C14.123 20.2012 15.3301 18.3857 16.8555 16.8584C18.3828 15.3315 20.1973 14.124 22.1953 13.3057C24.1934 12.4878 26.3359 12.0757 28.4941 12.0933C30.6543 12.1113 32.7871 12.5586 34.7715 13.4097C36.7559 14.2607 38.5508 15.4985 40.0527 17.0508C40.3086 17.3076 40.5547 17.5742 40.793 17.8511Z" fill="#FFFFFF" fill-opacity="1" fill-rule="nonzero"/>
		</g>
		<path id="Vector" d="M32.4043 19.9932L24.6992 19.9932C23.4492 19.9932 22.252 20.4893 21.3691 21.3721C20.4863 22.2554 19.9902 23.4531 19.9902 24.7017L19.9902 32.4067C19.9902 33.6553 20.4863 34.853 21.3691 35.7363C22.252 36.6191 23.4492 37.1152 24.6992 37.1152L32.4043 37.1152C33.6523 37.1152 34.8496 36.6191 35.7324 35.7363C36.6152 34.853 37.1113 33.6553 37.1113 32.4067L37.1113 24.7017C37.1113 23.4531 36.6152 22.2554 35.7324 21.3721C34.8496 20.4893 33.6523 19.9932 32.4043 19.9932ZM35.6133 31.7305C35.6133 32.7612 35.2051 33.7495 34.4766 34.4785C33.7461 35.2075 32.7578 35.6172 31.7266 35.6172L25.375 35.6172C24.3438 35.6172 23.3555 35.2075 22.627 34.4785C21.8984 33.7495 21.4883 32.7612 21.4883 31.7305L21.4883 25.3779C21.4883 24.3472 21.8984 23.3584 22.627 22.6299C23.3555 21.9009 24.3438 21.4912 25.375 21.4912L31.7266 21.4912C32.7578 21.4912 33.7461 21.9009 34.4766 22.6299C35.2051 23.3584 35.6133 24.3472 35.6133 25.3779L35.6133 31.7305Z" fill="#FFFFFF" fill-opacity="1" fill-rule="nonzero"/>
		<path id="Vector" d="M31.6738 25.4634L31.6328 25.4224L31.5996 25.3882C30.7891 24.582 29.6934 24.1294 28.5508 24.1299C27.9746 24.1338 27.4043 24.2515 26.873 24.4761C26.3418 24.7002 25.8594 25.0273 25.4531 25.438C25.0488 25.8491 24.7285 26.3354 24.5117 26.8701C24.2949 27.4048 24.1855 27.9771 24.1895 28.5537C24.1895 29.7246 24.6504 30.8486 25.4746 31.6807C25.877 32.0889 26.3574 32.4126 26.8867 32.6333C27.418 32.854 27.9863 32.9663 28.5605 32.9648C29.4199 32.9468 30.2578 32.6787 30.9688 32.1929C31.6797 31.7075 32.2344 31.0254 32.5645 30.23C32.8945 29.4351 32.9863 28.5605 32.8281 27.7144C32.6699 26.8677 32.2695 26.0854 31.6738 25.4634ZM28.5508 31.4561C27.9766 31.4639 27.4102 31.3008 26.9277 30.9868C26.4453 30.6729 26.0664 30.2227 25.8418 29.6929C25.6152 29.1631 25.5527 28.5786 25.6602 28.0127C25.7676 27.4473 26.0391 26.9263 26.4434 26.5166C26.8477 26.1064 27.3652 25.8262 27.9297 25.7109C28.4941 25.5952 29.0781 25.6504 29.6113 25.8687C30.1445 26.0874 30.5996 26.459 30.9199 26.9375C31.2422 27.4155 31.4121 27.978 31.4121 28.5537C31.416 28.9321 31.3438 29.3076 31.2012 29.6582C31.0586 30.0093 30.8496 30.3281 30.584 30.5977C30.3184 30.8672 30.002 31.082 29.6523 31.229C29.3047 31.3765 28.9297 31.4536 28.5508 31.4561Z" fill="#FFFFFF" fill-opacity="1" fill-rule="nonzero"/>
		<path id="Vector" d="M34.207 23.9268C34.207 24.064 34.1816 24.2002 34.1309 24.3276C34.0781 24.4546 34.002 24.5708 33.9062 24.6685C33.8086 24.7661 33.6953 24.8442 33.5684 24.8975C33.4414 24.9507 33.3066 24.979 33.168 24.9795C33.0332 24.9795 32.8965 24.9526 32.7715 24.8999C32.6465 24.8477 32.5312 24.7705 32.4355 24.6738C32.291 24.5264 32.1934 24.3398 32.1523 24.1372C32.1133 23.9346 32.1328 23.7246 32.2109 23.5337C32.2891 23.3423 32.4219 23.1782 32.5918 23.062C32.7637 22.9453 32.9648 22.8813 33.1699 22.8779C33.4121 22.8779 33.6465 22.9629 33.832 23.1177L33.8535 23.1392C33.8887 23.167 33.9199 23.1987 33.9473 23.2334L33.9707 23.2588C34.125 23.4478 34.207 23.6836 34.207 23.9268Z" fill="#FFFFFF" fill-opacity="1" fill-rule="nonzero"/>
	</g>
</svg>
