<svg width="57" height="57" viewBox="0 0 57 57" fill="none" xmlns="http://www.w3.org/2000/svg">
<g clip-path="url(#clip0_553_4976)">
<mask id="mask0_553_4976" style="mask-type:luminance" maskUnits="userSpaceOnUse" x="10" y="10" width="37" height="37">
<path d="M46.0612 10H10V46.0612H46.0612V10Z" fill="white"/>
</mask>
<g mask="url(#mask0_553_4976)">
<path d="M40.807 15.2404C37.4171 11.8631 32.9094 10.0021 28.1068 10C18.2104 10 10.1566 18.0157 10.1527 27.8682C10.1515 31.0176 10.9781 34.0919 12.5491 36.8017L10.002 46.0612L19.5197 43.5765C22.142 45.0004 25.0945 45.7506 28.0991 45.7518H28.1068C38.0017 45.7518 46.0566 37.7347 46.0608 27.8827C46.0625 23.1077 44.1966 18.618 40.807 15.2404ZM28.1068 42.7338H28.101C25.4229 42.7324 22.7966 42.0166 20.5058 40.6632L19.9606 40.3415L14.3126 41.8158L15.8206 36.3353L15.4654 35.7734C13.9715 33.4085 13.1828 30.6756 13.1839 27.8694C13.1872 19.6803 19.8812 13.0181 28.1125 13.0181C32.0985 13.0198 35.8449 14.5666 38.6626 17.3738C41.48 20.181 43.0305 23.9127 43.0293 27.8814C43.0258 36.0707 36.3316 42.7338 28.1068 42.7338Z" fill="#E0E0E0"/>
<path d="M10.8262 45.0338L13.2569 36.1973C11.7573 33.6112 10.9687 30.6771 10.9696 27.6722C10.9736 18.27 18.6595 10.6206 28.1031 10.6206C32.6865 10.6227 36.9883 12.3986 40.2227 15.6218C43.4578 18.8449 45.2383 23.1292 45.2364 27.6855C45.2325 37.088 37.5461 44.738 28.1037 44.738C28.1042 44.738 28.1031 44.738 28.1037 44.738H28.0961C25.2287 44.7371 22.4113 44.0205 19.9089 42.6627L10.8262 45.0338Z" fill="url(#paint0_linear_553_4976)"/>
<path fill-rule="evenodd" clip-rule="evenodd" d="M33.4622 28.1669C34.2139 27.2853 34.4769 26.5571 34.4769 24.8908C34.4769 22.4366 32.7151 20.0108 30.0138 20.0108H23.0809C22.2015 20.0108 21.9385 20.5126 21.9385 21.1545V35.3134C21.9385 36.2426 22.433 36.6417 23.2914 36.6417H30.2664C32.4972 36.6417 34.9159 34.676 34.9159 31.6143C34.9129 29.9703 34.3401 28.9696 33.4622 28.1669ZM25.1749 23.1842H29.8079C30.1876 23.1854 30.5515 23.3352 30.8201 23.6011C31.0887 23.8669 31.2404 24.2272 31.242 24.6034V25.2765C31.2404 25.6525 31.0887 26.0126 30.82 26.2782C30.5513 26.5438 30.1875 26.6934 29.8079 26.6941H25.1749V23.1842ZM31.5817 32.0447C31.5809 32.4206 31.4299 32.7809 31.1618 33.0468C30.8936 33.3127 30.5301 33.4627 30.1506 33.4639H25.1749V29.9524H30.1551C30.5347 29.954 30.8982 30.1043 31.1664 30.3704C31.4345 30.6366 31.5854 30.9971 31.5862 31.3731L31.5817 32.0447ZM33.4653 28.1729C34.2169 27.2913 34.4799 26.5631 34.4799 24.8967C34.4799 22.4426 32.7181 20.0167 30.0168 20.0167H23.0809C22.2015 20.0167 21.9385 20.5186 21.9385 21.1604V35.3194C21.9385 36.2486 22.433 36.6477 23.2914 36.6477H30.2664C32.4972 36.6477 34.9159 34.682 34.9159 31.6203C34.9129 29.9703 34.3401 28.9696 33.4622 28.1669L33.4653 28.1729ZM25.1749 23.1842H29.8079C30.1876 23.1854 30.5515 23.3352 30.8201 23.6011C31.0887 23.8669 31.2404 24.2272 31.242 24.6034V25.2765C31.2404 25.6525 31.0887 26.0126 30.82 26.2782C30.5513 26.5438 30.1875 26.6934 29.8079 26.6941H25.1749V23.1842ZM31.5817 32.0447C31.5809 32.4206 31.4299 32.7809 31.1618 33.0468C30.8936 33.3127 30.5301 33.4627 30.1506 33.4639H25.1749V29.9524H30.1551C30.5347 29.954 30.8982 30.1043 31.1664 30.3704C31.4345 30.6366 31.5854 30.9971 31.5862 31.3731L31.5817 32.0447ZM33.4653 28.1729C34.2169 27.2913 34.4799 26.5631 34.4799 24.8967C34.4799 22.4426 32.7181 20.0167 30.0168 20.0167H23.0809C22.2015 20.0167 21.9385 20.5186 21.9385 21.1604V35.3194C21.9385 36.2486 22.433 36.6477 23.2914 36.6477H30.2664C32.4972 36.6477 34.9159 34.682 34.9159 31.6203C34.9129 29.9703 34.3401 28.9696 33.4622 28.1669L33.4653 28.1729ZM25.1749 23.1842H29.8079C30.1876 23.1854 30.5515 23.3352 30.8201 23.6011C31.0887 23.8669 31.2404 24.2272 31.242 24.6034V25.2765C31.2404 25.6525 31.0887 26.0126 30.82 26.2782C30.5513 26.5438 30.1875 26.6934 29.8079 26.6941H25.1749V23.1842ZM31.5817 32.0447C31.5809 32.4206 31.4299 32.7809 31.1618 33.0468C30.8936 33.3127 30.5301 33.4627 30.1506 33.4639H25.1749V29.9524H30.1551C30.5347 29.954 30.8982 30.1043 31.1664 30.3704C31.4345 30.6366 31.5854 30.9971 31.5862 31.3731L31.5817 32.0447ZM33.4653 28.1729C34.2169 27.2913 34.4799 26.5631 34.4799 24.8967C34.4799 22.4426 32.7181 20.0167 30.0168 20.0167H23.0809C22.2015 20.0167 21.9385 20.5186 21.9385 21.1604V35.3194C21.9385 36.2486 22.433 36.6477 23.2914 36.6477H30.2664C32.4972 36.6477 34.9159 34.682 34.9159 31.6203C34.9129 29.9703 34.3401 28.9696 33.4622 28.1669L33.4653 28.1729ZM25.1749 23.1842H29.8079C30.1876 23.1854 30.5515 23.3352 30.8201 23.6011C31.0887 23.8669 31.2404 24.2272 31.242 24.6034V25.2765C31.2404 25.6525 31.0887 26.0126 30.82 26.2782C30.5513 26.5438 30.1875 26.6934 29.8079 26.6941H25.1749V23.1842ZM31.5817 32.0447C31.5809 32.4206 31.4299 32.7809 31.1618 33.0468C30.8936 33.3127 30.5301 33.4627 30.1506 33.4639H25.1749V29.9524H30.1551C30.5347 29.954 30.8982 30.1043 31.1664 30.3704C31.4345 30.6366 31.5854 30.9971 31.5862 31.3731L31.5817 32.0447ZM28.3994 10.2017C28.2295 10.2017 28.0581 10.2017 27.8868 10.2017H27.8342C24.6745 10.2119 21.574 11.052 18.849 12.6363C16.1239 14.2207 13.8717 16.4925 12.3219 19.2203C10.7722 21.9481 9.98035 25.0342 10.0272 28.164C10.074 31.2938 10.9578 34.3553 12.5884 37.0364L9.49023 46.4806L19.2417 43.3772C21.8714 44.8207 24.8277 45.5801 27.8342 45.5842H27.8868C28.0581 45.5842 28.2295 45.5842 28.3994 45.5767C33.0496 45.4499 37.4665 43.5308 40.7103 40.2275C43.9542 36.9243 45.7692 32.4977 45.7692 27.8892C45.7692 23.2807 43.9542 18.8541 40.7103 15.5508C37.4665 12.2476 33.0496 10.3285 28.3994 10.2017ZM28.3994 42.6982C28.2115 42.7071 28.0236 42.7101 27.8342 42.7101C24.906 42.7144 22.0419 41.8605 19.6025 40.2559L13.9834 42.0638L15.8203 36.6894C14.1854 34.4887 13.1987 31.882 12.9698 29.159C12.7409 26.4361 13.2788 23.7036 14.5238 21.2653C15.7687 18.8271 17.6719 16.7787 20.0218 15.3479C22.3716 13.9171 25.0759 13.1599 27.8342 13.1606C28.0236 13.1606 28.2115 13.1606 28.3994 13.1725C32.2542 13.3161 35.9028 14.934 38.5788 17.6865C41.2548 20.4389 42.7498 24.1117 42.7498 27.9331C42.7498 31.7546 41.2548 35.4273 38.5788 38.1798C35.9028 40.9322 32.2542 42.5502 28.3994 42.6937V42.6982ZM33.4622 28.1669C34.2139 27.2853 34.4769 26.5571 34.4769 24.8908C34.4769 22.4366 32.7151 20.0108 30.0138 20.0108H23.0809C22.2015 20.0108 21.9385 20.5126 21.9385 21.1545V35.3134C21.9385 36.2426 22.433 36.6417 23.2914 36.6417H30.2664C32.4972 36.6417 34.9159 34.676 34.9159 31.6143C34.9129 29.9703 34.3401 28.9696 33.4622 28.1669ZM25.1749 23.1842H29.8079C30.1876 23.1854 30.5515 23.3352 30.8201 23.6011C31.0887 23.8669 31.2404 24.2272 31.242 24.6034V25.2765C31.2404 25.6525 31.0887 26.0126 30.82 26.2782C30.5513 26.5438 30.1875 26.6934 29.8079 26.6941H25.1749V23.1842ZM31.5817 32.0447C31.5809 32.4206 31.4299 32.7809 31.1618 33.0468C30.8936 33.3127 30.5301 33.4627 30.1506 33.4639H25.1749V29.9524H30.1551C30.5347 29.954 30.8982 30.1043 31.1664 30.3704C31.4345 30.6366 31.5854 30.9971 31.5862 31.3731L31.5817 32.0447ZM33.4653 28.1729C34.2169 27.2913 34.4799 26.5631 34.4799 24.8967C34.4799 22.4426 32.7181 20.0167 30.0168 20.0167H23.0809C22.2015 20.0167 21.9385 20.5186 21.9385 21.1604V35.3194C21.9385 36.2486 22.433 36.6477 23.2914 36.6477H30.2664C32.4972 36.6477 34.9159 34.682 34.9159 31.6203C34.9129 29.9703 34.3401 28.9696 33.4622 28.1669L33.4653 28.1729ZM25.1749 23.1842H29.8079C30.1876 23.1854 30.5515 23.3352 30.8201 23.6011C31.0887 23.8669 31.2404 24.2272 31.242 24.6034V25.2765C31.2404 25.6525 31.0887 26.0126 30.82 26.2782C30.5513 26.5438 30.1875 26.6934 29.8079 26.6941H25.1749V23.1842ZM31.5817 32.0447C31.5809 32.4206 31.4299 32.7809 31.1618 33.0468C30.8936 33.3127 30.5301 33.4627 30.1506 33.4639H25.1749V29.9524H30.1551C30.5347 29.954 30.8982 30.1043 31.1664 30.3704C31.4345 30.6366 31.5854 30.9971 31.5862 31.3731L31.5817 32.0447ZM33.4653 28.1729C34.2169 27.2913 34.4799 26.5631 34.4799 24.8967C34.4799 22.4426 32.7181 20.0167 30.0168 20.0167H23.0809C22.2015 20.0167 21.9385 20.5186 21.9385 21.1604V35.3194C21.9385 36.2486 22.433 36.6477 23.2914 36.6477H30.2664C32.4972 36.6477 34.9159 34.682 34.9159 31.6203C34.9129 29.9703 34.3401 28.9696 33.4622 28.1669L33.4653 28.1729ZM25.1749 23.1842H29.8079C30.1876 23.1854 30.5515 23.3352 30.8201 23.6011C31.0887 23.8669 31.2404 24.2272 31.242 24.6034V25.2765C31.2404 25.6525 31.0887 26.0126 30.82 26.2782C30.5513 26.5438 30.1875 26.6934 29.8079 26.6941H25.1749V23.1842ZM31.5817 32.0447C31.5809 32.4206 31.4299 32.7809 31.1618 33.0468C30.8936 33.3127 30.5301 33.4627 30.1506 33.4639H25.1749V29.9524H30.1551C30.5347 29.954 30.8982 30.1043 31.1664 30.3704C31.4345 30.6366 31.5854 30.9971 31.5862 31.3731L31.5817 32.0447Z" fill="white"/>
</g>
</g>
<defs>
<linearGradient id="paint0_linear_553_4976" x1="28.0313" y1="45.0338" x2="28.0313" y2="10.6207" gradientUnits="userSpaceOnUse">
<stop stop-color="#20B038"/>
<stop offset="1" stop-color="#60D66A"/>
</linearGradient>
<clipPath id="clip0_553_4976">
<rect width="37" height="37" fill="white" transform="translate(10 10)"/>
</clipPath>
</defs>
</svg>
