<svg width="57" height="57" viewBox="0 0 57 57" fill="none" xmlns="http://www.w3.org/2000/svg" xmlns:xlink="http://www.w3.org/1999/xlink">
	<defs>
		<linearGradient id="paint_linear_1_1035_0" x1="33.930485" y1="17.644501" x2="25.787628" y2="36.643414" gradientUnits="userSpaceOnUse">
			<stop stop-color="#37AEE2"/>
			<stop offset="1" stop-color="#1E96C8"/>
		</linearGradient>
	</defs>
	<g clip-path="url(#clip1_1033)">
		<path id="Vector" d="M44.7871 28.5005C44.7871 37.4951 37.4941 44.7861 28.5 44.7861C19.5059 44.7861 12.2148 37.4951 12.2148 28.5005C12.2148 19.5063 19.5059 12.2148 28.5 12.2148C37.4941 12.2148 44.7871 19.5063 44.7871 28.5005Z" fill="url(#paint_linear_1_1035_0)" fill-opacity="1" fill-rule="evenodd"/>
		<path id="Vector" d="M18.2812 29.2974C20.1855 28.249 22.3105 27.3735 24.2949 26.4941C27.7109 25.0532 31.1406 23.6372 34.6055 22.3188C35.2793 22.0942 36.4902 21.8745 36.6094 22.8735C36.5449 24.2876 36.2773 25.6929 36.0938 27.0986C35.627 30.1895 35.0898 33.27 34.5645 36.3511C34.3828 37.377 33.0977 37.9082 32.2754 37.2515C30.2988 35.9165 28.3066 34.5942 26.3555 33.2275C25.7168 32.5781 26.3086 31.6455 26.8789 31.1816C28.5078 29.5771 30.2344 28.2139 31.7773 26.5264C32.1934 25.521 30.9648 26.3682 30.5586 26.6279C28.3301 28.1641 26.1543 29.7935 23.8047 31.1436C22.6055 31.8042 21.2051 31.2397 20.0059 30.8706C18.9297 30.4258 17.3535 29.9766 18.2812 29.2979L18.2812 29.2974Z" fill="#FFFFFF" fill-opacity="1" fill-rule="nonzero"/>
	</g>
</svg>
