<svg width="57" height="57" viewBox="0 0 57 57" fill="none" xmlns="http://www.w3.org/2000/svg" xmlns:xlink="http://www.w3.org/1999/xlink">
	<defs>
		<linearGradient id="paint_linear_1_1041_0" x1="33.930485" y1="17.644501" x2="25.787628" y2="36.643414" gradientUnits="userSpaceOnUse">
			<stop stop-color="#37AEE2"/>
			<stop offset="1" stop-color="#1E96C8"/>
		</linearGradient>
	</defs>
	<g clip-path="url(#clip1_1039)">
		<path id="background" d="M44.8164 28.4551C44.8164 37.4907 37.4902 44.8159 28.4551 44.8159C19.418 44.8159 12.0938 37.4907 12.0938 28.4551C12.0938 19.4189 19.418 12.0938 28.4551 12.0938C37.4902 12.0938 44.8164 19.4189 44.8164 28.4551Z" fill="#4169E1" fill-opacity="1" fill-rule="evenodd"/>
		<path id="icon" d="M37.8848 34.8579C37.4082 34.9248 35.082 34.8579 34.9609 34.8579C34.3594 34.8657 33.7773 34.6357 33.3457 34.2183C32.8535 33.7461 32.416 33.2256 31.9355 32.731C31.793 32.5811 31.6406 32.4424 31.4766 32.3164C31.0938 32.021 30.7148 32.0879 30.5332 32.5396C30.3926 33.0278 30.2949 33.5273 30.2402 34.0322C30.209 34.4897 29.918 34.7759 29.4043 34.8076C29.0879 34.8242 28.7695 34.8301 28.4551 34.8228C27.3105 34.8154 26.1836 34.5366 25.166 34.0103C24.0664 33.397 23.1074 32.5591 22.3535 31.5503C21.1133 29.9663 20.123 28.2261 19.2363 26.4321C19.1914 26.3428 18.2832 24.4126 18.2617 24.3218C18.1797 24.0166 18.2617 23.7251 18.5117 23.6245C18.6719 23.563 21.6621 23.6245 21.7109 23.6245C21.9336 23.6226 22.1504 23.6914 22.332 23.8213C22.5117 23.9507 22.6465 24.1348 22.7148 24.3457C23.2676 25.7612 24.0254 27.0874 24.9609 28.2837C25.0918 28.4438 25.2461 28.584 25.418 28.7002C25.6602 28.8657 25.8906 28.8081 25.9922 28.5273C26.1113 28.1377 26.1797 27.7349 26.1992 27.3281C26.2168 26.521 26.1992 25.9893 26.1562 25.1846C26.125 24.6675 25.9434 24.2139 25.1816 24.0688C24.9473 24.0278 24.9258 23.8345 25.0762 23.6411C25.3906 23.2397 25.8203 23.1763 26.3027 23.1523C27.0195 23.1113 27.7383 23.1392 28.4551 23.1523L28.6113 23.1523C28.9238 23.1514 29.2344 23.1831 29.541 23.2471C29.7207 23.2837 29.8848 23.3774 30.0078 23.5151C30.1309 23.6523 30.207 23.8257 30.2227 24.0093C30.2598 24.2129 30.2754 24.4199 30.2695 24.6265C30.252 25.5078 30.209 26.3872 30.1992 27.2686C30.1914 27.6177 30.2227 27.9663 30.293 28.3081C30.3965 28.7764 30.7188 28.8936 31.0371 28.5552C31.4512 28.1177 31.832 27.6489 32.1738 27.1533C32.7793 26.25 33.2773 25.2798 33.6602 24.2622C33.8691 23.7397 34.0332 23.6245 34.5898 23.6245L37.7617 23.6245C37.9512 23.6211 38.1387 23.6465 38.3203 23.6987C38.3848 23.7158 38.4434 23.7456 38.4961 23.7866C38.5488 23.8276 38.5918 23.8794 38.623 23.9375C38.6543 23.9961 38.6719 24.0605 38.6777 24.1265C38.6836 24.1924 38.6738 24.2593 38.6523 24.3218C38.4961 25.0171 38.1211 25.6104 37.7227 26.1812C37.0781 27.0957 36.3984 27.9863 35.7383 28.8862C35.6543 29.0054 35.5781 29.1294 35.5098 29.2578C35.2598 29.7061 35.2793 29.957 35.6387 30.3306C36.2148 30.9219 36.8301 31.478 37.3867 32.0879C37.7949 32.5312 38.1641 33.0093 38.4883 33.5176C38.8945 34.1475 38.6445 34.75 37.8848 34.8579Z" fill="#FFFFFF" fill-opacity="1" fill-rule="nonzero"/>
	</g>
</svg>
