<svg width="57" height="57" viewBox="0 0 57 57" fill="none" xmlns="http://www.w3.org/2000/svg" xmlns:xlink="http://www.w3.org/1999/xlink">
	<defs>
		<linearGradient id="paint_linear_1_1022_0" x1="28.500069" y1="45.503536" x2="28.500069" y2="11.090389" gradientUnits="userSpaceOnUse">
			<stop stop-color="#20B038"/>
			<stop offset="1" stop-color="#60D66A"/>
		</linearGradient>
	</defs>
	<g clip-path="url(#clip1_1020)">
		<path d="M41.2773 15.71C37.8887 12.333 33.3809 10.4717 28.5781 10.4697C18.6816 10.4697 10.627 18.4854 10.623 28.3379C10.623 31.4873 11.4492 34.5615 13.0195 37.2715L10.4727 46.5308L19.9902 44.0464C22.6133 45.4702 25.5645 46.2202 28.5703 46.2217L28.5781 46.2217L28.5781 46.2217C38.4727 46.2217 46.5273 38.2046 46.5312 28.3525C46.5332 23.5776 44.668 19.0879 41.2773 15.71ZM28.5781 43.2036L28.5723 43.2036C25.8945 43.2021 23.2676 42.4863 20.9766 41.1328L20.4316 40.811L14.7832 42.2856L16.291 36.8052L15.9355 36.2432C14.4414 33.8784 13.6543 31.1455 13.6543 28.3389C13.6582 20.1499 20.3516 13.4878 28.584 13.4878C32.5684 13.4893 36.3164 15.0361 39.1328 17.8438C41.9512 20.6509 43.502 24.3823 43.5 28.3511C43.4961 36.5405 36.8027 43.2036 28.5781 43.2036Z" fill="#E0E0E0" fill-opacity="1" fill-rule="nonzero"/>
		<path d="M11.2949 45.5034L13.7266 36.667C12.2266 34.0811 11.4375 31.147 11.4375 28.1421C11.4414 18.7397 19.1289 11.0903 28.5723 11.0903C33.1543 11.0923 37.457 12.8682 40.6914 16.0913C43.9258 19.3145 45.707 23.5991 45.7051 28.1553C45.7012 37.5576 38.0156 45.2075 28.5723 45.2075L28.5645 45.2075C25.6973 45.207 22.8809 44.4902 20.377 43.1323L11.2949 45.5034Z" fill="url(#paint_linear_1_1022_0)" fill-opacity="1" fill-rule="nonzero"/>
		<path d="M24.1387 20.752C23.8066 20.0166 23.457 20.002 23.1406 19.9888C22.8828 19.978 22.5859 19.9785 22.291 19.9785C21.9961 19.9785 21.5156 20.0894 21.1094 20.5308C20.7031 20.9727 19.5566 22.0405 19.5566 24.2129C19.5566 26.3853 21.1465 28.4844 21.3672 28.7793C21.5898 29.0737 24.4355 33.6733 28.9434 35.4434C32.6895 36.9141 33.4512 36.6216 34.2637 36.5479C35.0781 36.4741 36.8887 35.48 37.2578 34.4492C37.627 33.4185 37.627 32.5347 37.5156 32.3501C37.4043 32.166 37.1094 32.0557 36.666 31.835C36.2227 31.6143 34.043 30.5459 33.6367 30.3984C33.2285 30.2515 32.9336 30.1777 32.6387 30.6201C32.3418 31.0615 31.4922 32.0557 31.2344 32.3501C30.9746 32.645 30.7168 32.6816 30.2734 32.4609C29.8301 32.2397 28.4023 31.7739 26.707 30.27C25.3887 29.0996 24.498 27.6543 24.2402 27.2124C23.9805 26.771 24.2129 26.5317 24.4355 26.3115C24.6348 26.1138 24.8789 25.7964 25.0996 25.5386C25.3223 25.2808 25.3945 25.0967 25.543 24.8022C25.6914 24.5073 25.6172 24.2495 25.5059 24.0288C25.3945 23.8081 24.5332 21.6245 24.1387 20.752Z" fill="#FFFFFF" fill-opacity="1" fill-rule="evenodd"/>
		<path d="M41.1289 15.6533C37.7773 12.3149 33.3223 10.4751 28.5742 10.4731C18.791 10.4731 10.8301 18.397 10.8262 28.1362C10.8262 31.2495 11.6426 34.2886 13.1953 36.9673L10.6777 46.1206L20.0859 43.6641C22.6777 45.0718 25.5977 45.8135 28.5664 45.8145L28.5742 45.8145L28.5742 45.8145C38.3555 45.8145 46.3184 37.8896 46.3223 28.1504C46.3242 23.4302 44.4805 18.9922 41.1289 15.6533ZM28.5742 42.8311L28.5684 42.8311C25.9219 42.8301 23.3262 42.1221 21.0605 40.7847L20.5215 40.4663L14.9395 41.9238L16.4297 36.5063L16.0781 35.9507C14.6016 33.6128 13.8223 30.9116 13.8223 28.1372C13.8262 20.0425 20.4434 13.4565 28.5801 13.4565C32.5215 13.4585 36.2246 14.9873 39.0098 17.7622C41.7949 20.5371 43.3281 24.2261 43.3262 28.1494C43.3223 36.2446 36.7051 42.8311 28.5742 42.8311Z" fill="#FFFFFF" fill-opacity="1" fill-rule="nonzero"/>
	</g>
</svg>
