<svg width="42" height="42" viewBox="0 0 42 42" fill="none" xmlns="http://www.w3.org/2000/svg">
<path d="M28.7126 7.50024H13.284C12.1912 7.50024 11.3555 8.33596 11.3555 9.42882V12.0002C11.3555 13.0931 12.1912 13.9288 13.284 13.9288H28.7126C29.8055 13.9288 30.6412 13.0931 30.6412 12.0002V9.42882C30.6412 8.33596 29.8055 7.50024 28.7126 7.50024ZM29.3555 12.0002C29.3555 12.386 29.0983 12.6431 28.7126 12.6431H13.284C12.8983 12.6431 12.6412 12.386 12.6412 12.0002V9.42882C12.6412 9.0431 12.8983 8.78596 13.284 8.78596H28.7126C29.0983 8.78596 29.3555 9.0431 29.3555 9.42882V12.0002Z" fill="#1AC954"/>
<path d="M31.2852 3.64307H10.7137C9.62087 3.64307 8.78516 4.47878 8.78516 5.57164V36.4288C8.78516 37.5216 9.62087 38.3574 10.7137 38.3574H31.2852C32.378 38.3574 33.2137 37.5216 33.2137 36.4288V5.57164C33.2137 4.47878 32.378 3.64307 31.2852 3.64307ZM31.928 36.4288C31.928 36.8145 31.6709 37.0716 31.2852 37.0716H10.7137C10.328 37.0716 10.0709 36.8145 10.0709 36.4288V5.57164C10.0709 5.18592 10.328 4.92878 10.7137 4.92878H31.2852C31.6709 4.92878 31.928 5.18592 31.928 5.57164V36.4288Z" fill="#1AC954"/>
<path d="M15.2143 16.5002H13.9286C12.8357 16.5002 12 17.336 12 18.4288V19.7145C12 20.8074 12.8357 21.6431 13.9286 21.6431H15.2143C16.3071 21.6431 17.1429 20.8074 17.1429 19.7145V18.4288C17.1429 17.336 16.3071 16.5002 15.2143 16.5002ZM15.8571 19.7145C15.8571 20.1002 15.6 20.3574 15.2143 20.3574H13.9286C13.5429 20.3574 13.2857 20.1002 13.2857 19.7145V18.4288C13.2857 18.0431 13.5429 17.786 13.9286 17.786H15.2143C15.6 17.786 15.8571 18.0431 15.8571 18.4288V19.7145ZM21.6429 16.5002H20.3571C19.2643 16.5002 18.4286 17.336 18.4286 18.4288V19.7145C18.4286 20.8074 19.2643 21.6431 20.3571 21.6431H21.6429C22.7357 21.6431 23.5714 20.8074 23.5714 19.7145V18.4288C23.5714 17.336 22.7357 16.5002 21.6429 16.5002ZM22.2857 19.7145C22.2857 20.1002 22.0286 20.3574 21.6429 20.3574H20.3571C19.9714 20.3574 19.7143 20.1002 19.7143 19.7145V18.4288C19.7143 18.0431 19.9714 17.786 20.3571 17.786H21.6429C22.0286 17.786 22.2857 18.0431 22.2857 18.4288V19.7145ZM28.0714 16.5002H26.7857C25.6929 16.5002 24.8571 17.336 24.8571 18.4288V19.7145C24.8571 20.8074 25.6929 21.6431 26.7857 21.6431H28.0714C29.1643 21.6431 30 20.8074 30 19.7145V18.4288C30 17.336 29.1643 16.5002 28.0714 16.5002ZM28.7143 19.7145C28.7143 20.1002 28.4571 20.3574 28.0714 20.3574H26.7857C26.4 20.3574 26.1429 20.1002 26.1429 19.7145V18.4288C26.1429 18.0431 26.4 17.786 26.7857 17.786H28.0714C28.4571 17.786 28.7143 18.0431 28.7143 18.4288V19.7145ZM15.2143 22.9288H13.9286C12.8357 22.9288 12 23.7645 12 24.8574V26.1431C12 27.236 12.8357 28.0717 13.9286 28.0717H15.2143C16.3071 28.0717 17.1429 27.236 17.1429 26.1431V24.8574C17.1429 23.7645 16.3071 22.9288 15.2143 22.9288ZM15.8571 26.1431C15.8571 26.5288 15.6 26.786 15.2143 26.786H13.9286C13.5429 26.786 13.2857 26.5288 13.2857 26.1431V24.8574C13.2857 24.4717 13.5429 24.2145 13.9286 24.2145H15.2143C15.6 24.2145 15.8571 24.4717 15.8571 24.8574V26.1431ZM21.6429 22.9288H20.3571C19.2643 22.9288 18.4286 23.7645 18.4286 24.8574V26.1431C18.4286 27.236 19.2643 28.0717 20.3571 28.0717H21.6429C22.7357 28.0717 23.5714 27.236 23.5714 26.1431V24.8574C23.5714 23.7645 22.7357 22.9288 21.6429 22.9288ZM22.2857 26.1431C22.2857 26.5288 22.0286 26.786 21.6429 26.786H20.3571C19.9714 26.786 19.7143 26.5288 19.7143 26.1431V24.8574C19.7143 24.4717 19.9714 24.2145 20.3571 24.2145H21.6429C22.0286 24.2145 22.2857 24.4717 22.2857 24.8574V26.1431ZM28.0714 22.9288H26.7857C25.6929 22.9288 24.8571 23.7645 24.8571 24.8574V32.5717C24.8571 33.6645 25.6929 34.5002 26.7857 34.5002H28.0714C29.1643 34.5002 30 33.6645 30 32.5717V24.8574C30 23.7645 29.1643 22.9288 28.0714 22.9288ZM28.7143 32.5717C28.7143 32.9574 28.4571 33.2145 28.0714 33.2145H26.7857C26.4 33.2145 26.1429 32.9574 26.1429 32.5717V24.8574C26.1429 24.4717 26.4 24.2145 26.7857 24.2145H28.0714C28.4571 24.2145 28.7143 24.4717 28.7143 24.8574V32.5717ZM15.2143 29.3574H13.9286C12.8357 29.3574 12 30.1931 12 31.286V32.5717C12 33.6645 12.8357 34.5002 13.9286 34.5002H15.2143C16.3071 34.5002 17.1429 33.6645 17.1429 32.5717V31.286C17.1429 30.1931 16.3071 29.3574 15.2143 29.3574ZM15.8571 32.5717C15.8571 32.9574 15.6 33.2145 15.2143 33.2145H13.9286C13.5429 33.2145 13.2857 32.9574 13.2857 32.5717V31.286C13.2857 30.9002 13.5429 30.6431 13.9286 30.6431H15.2143C15.6 30.6431 15.8571 30.9002 15.8571 31.286V32.5717ZM21.6429 29.3574H20.3571C19.2643 29.3574 18.4286 30.1931 18.4286 31.286V32.5717C18.4286 33.6645 19.2643 34.5002 20.3571 34.5002H21.6429C22.7357 34.5002 23.5714 33.6645 23.5714 32.5717V31.286C23.5714 30.1931 22.7357 29.3574 21.6429 29.3574ZM22.2857 32.5717C22.2857 32.9574 22.0286 33.2145 21.6429 33.2145H20.3571C19.9714 33.2145 19.7143 32.9574 19.7143 32.5717V31.286C19.7143 30.9002 19.9714 30.6431 20.3571 30.6431H21.6429C22.0286 30.6431 22.2857 30.9002 22.2857 31.286V32.5717Z" fill="#1AC954"/>
</svg>
