<svg width="48" height="48" viewBox="0 0 48 48" fill="none" xmlns="http://www.w3.org/2000/svg">
<path d="M18.1738 44C13.2198 44 11.4188 42.1845 11.0952 41.8095C8.79847 39.7311 7.25896 37.0576 6.51827 33.8644C5.89697 31.1829 5.83413 28.1121 6.33055 24.7363C7.29117 18.2085 10.0686 12.2878 11.2185 10.0449C14.2598 4.11072 17.7849 3.99313 18.1738 4.00028C18.5665 3.99234 22.0877 4.11072 25.1298 10.0449C26.2789 12.2878 29.0571 18.2093 30.017 24.7339C30.5142 28.1098 30.4505 31.1805 29.8292 33.862C29.0893 37.0576 27.5514 39.7311 25.2523 41.8071C24.9319 42.1845 23.1277 44 18.1738 44ZM12.0636 40.9697C12.1422 41.0595 13.5914 42.7097 18.1738 42.7097C22.8716 42.7097 24.2682 40.9912 24.2815 40.9737C24.3072 40.9387 24.3365 40.9065 24.3687 40.8776C28.3156 37.3293 29.7884 31.9616 28.7555 24.9238C27.8247 18.5907 25.1172 12.8241 23.9972 10.6392C22.5511 7.81871 21.0399 6.51332 20.0274 5.91426C18.9946 5.30408 18.2609 5.28977 18.2005 5.28977C18.1827 5.29216 18.1648 5.29216 18.147 5.28977C18.0866 5.28977 17.3529 5.30408 16.3208 5.91426C15.3076 6.51332 13.7964 7.82109 12.3511 10.6392C11.231 12.8241 8.52513 18.5907 7.59278 24.9238C6.55676 31.9616 8.03264 37.3293 11.9788 40.8776C12.011 40.9043 12.0396 40.9353 12.0636 40.9697Z" fill="#1AC954"/>
<path d="M22.5334 38.4701C22.4796 38.4701 22.4261 38.4637 22.3738 38.4511C22.2912 38.4302 22.2135 38.3933 22.1451 38.3425C22.0768 38.2917 22.0192 38.228 21.9756 38.155C21.9321 38.0821 21.9034 38.0012 21.8912 37.9172C21.879 37.8332 21.8836 37.7476 21.9047 37.6653C24.0685 29.1234 22.4767 16.3936 18.0469 6.21665C14.699 13.9886 12.9221 24.0361 13.487 32.2507C13.4943 32.3359 13.4844 32.4218 13.458 32.5032C13.4315 32.5846 13.3891 32.66 13.3332 32.725C13.2772 32.7899 13.2088 32.8431 13.132 32.8815C13.0552 32.9199 12.9715 32.9427 12.8857 32.9485C12.8 32.9544 12.7139 32.9432 12.6326 32.9156C12.5512 32.888 12.4762 32.8446 12.4119 32.7878C12.3475 32.7311 12.2952 32.6622 12.2579 32.5851C12.2205 32.508 12.199 32.4243 12.1945 32.3388C11.5817 23.4561 13.6474 12.4759 17.4605 4.37178C17.5127 4.26066 17.5956 4.16667 17.6995 4.10082C17.8035 4.03497 17.9241 4 18.0473 4C18.1705 4 18.2911 4.03497 18.3951 4.10082C18.499 4.16667 18.582 4.26066 18.6342 4.37178C20.948 9.2978 22.697 15.24 23.5595 21.1131C24.4906 27.4478 24.3574 33.2819 23.1605 37.9831C23.1251 38.1221 23.0443 38.2454 22.9307 38.3336C22.8172 38.4217 22.6774 38.4698 22.5334 38.4701ZM33.7795 44C30.2537 44 28.946 42.755 28.6651 42.43C27.6782 41.5519 26.8725 40.4908 26.293 39.306C26.2557 39.2298 26.2338 39.1471 26.2286 39.0625C26.2235 38.9779 26.235 38.8931 26.2628 38.813C26.2905 38.7329 26.3338 38.659 26.3901 38.5955C26.4465 38.5321 26.5149 38.4803 26.5914 38.4431C26.6679 38.406 26.751 38.3842 26.8359 38.379C26.9209 38.3739 27.006 38.3854 27.0865 38.413C27.1669 38.4406 27.2411 38.4837 27.3049 38.5399C27.3686 38.596 27.4206 38.6641 27.4579 38.7403C27.9708 39.7887 28.6863 40.7262 29.5635 41.4989C29.5956 41.5243 29.6239 41.5543 29.6473 41.5878C29.7231 41.6713 30.73 42.7097 33.7795 42.7097C36.9248 42.7097 37.8998 41.6053 37.9078 41.5974C37.9338 41.5633 37.9629 41.5316 37.9947 41.5028C44.7982 35.4685 38.9298 23.2511 37.6843 20.8628C35.8763 17.3971 33.9271 17.2787 33.8043 17.2756C33.7881 17.2779 33.7717 17.2779 33.7556 17.2756C33.6327 17.2756 31.6811 17.3971 29.8755 20.8628C29.7255 21.1433 29.5715 21.4579 29.3968 21.8226L29.3776 21.8623C29.3023 22.0161 29.1687 22.1339 29.0062 22.1896C28.8437 22.2453 28.6656 22.2345 28.5111 22.1595C28.3566 22.0845 28.2384 21.9514 28.1825 21.7896C28.1265 21.6278 28.1374 21.4504 28.2127 21.2966L28.2327 21.2569C28.4082 20.897 28.5749 20.5569 28.7321 20.263C30.8864 16.137 33.4157 15.9853 33.7747 15.9853H33.7931C34.1513 15.9853 36.6838 16.137 38.8381 20.2685C39.6495 21.8234 41.6091 25.9303 42.2881 30.4717C42.6408 32.8275 42.5953 34.9735 42.1549 36.8501C41.6275 39.0923 40.5328 40.9697 38.8987 42.4332C38.6147 42.7502 37.3069 44 33.7795 44Z" fill="#1AC954"/>
</svg>
