<svg width="48" height="48" viewBox="0 0 48 48" fill="none" xmlns="http://www.w3.org/2000/svg">
<g id="ant">
<path id="Vector" d="M41.3008 25.7281H37.3839L33.2647 20.2239C33.0421 19.927 32.6323 19.8473 32.3151 20.0378L27.7673 22.7725C27.7059 22.296 27.6061 21.844 27.4804 21.4182L33.1389 16.8787C33.3095 16.7411 33.4092 16.5332 33.4092 16.3131V10.8191L36.0882 8.13434C36.7472 7.47384 35.7254 6.44977 35.0663 7.11027L32.1756 10.0072C32.0397 10.1426 31.9639 10.3273 31.9639 10.5192V15.9655L26.9037 20.024C26.7209 19.6938 26.5149 19.3969 26.2887 19.1376C28.5297 18.3112 27.9306 15.4969 26.989 13.8717L28.9518 10.9212C29.0305 10.8024 29.0732 10.6619 29.0732 10.5192V6.47367L30.3068 5.23741C30.9659 4.57691 29.944 3.55285 29.2849 4.21335L27.8396 5.66181C27.7037 5.79724 27.6278 5.98192 27.6278 6.17384V10.2998L26.0531 12.6666C24.8202 11.4897 23.1827 11.5006 21.9577 12.6832L20.3722 10.2998V6.17384C20.3722 5.98192 20.2963 5.79724 20.1604 5.66181L18.7151 4.21335C18.056 3.55285 17.0341 4.57691 17.6932 5.23741L18.9268 6.47367V10.5192C18.9268 10.6619 18.9695 10.8024 19.0482 10.9212L21.0255 13.8941C20.0932 15.5201 19.5093 18.3149 21.7395 19.1376C21.5118 19.3998 21.303 19.6996 21.1187 20.0342L16.0361 15.964V10.5192C16.0361 10.3273 15.9603 10.1426 15.8244 10.0072L12.9337 7.11027C12.2746 6.44977 11.2528 7.47384 11.9118 8.13434L14.5908 10.8191V16.3131C14.5908 16.5332 14.6912 16.7411 14.8625 16.8787L20.5456 21.4298C20.4199 21.8564 20.3201 22.3083 20.2594 22.7855L15.6849 20.0371C15.3669 19.8473 14.9572 19.927 14.7353 20.2239L10.6161 25.7281H6.69919C5.76694 25.7281 5.76694 27.1766 6.69919 27.1766H10.9774C11.2043 27.1766 11.419 27.0694 11.5556 26.8869L15.5006 21.6152L20.1951 24.4353C20.2125 24.8684 20.2573 25.2863 20.3274 25.6875L16.49 27.228C16.2161 27.3381 16.0361 27.6046 16.0361 27.9001V34.7549L12.0217 37.4367C11.247 37.9531 12.0448 39.1611 12.8231 38.6419L17.1592 35.7449C17.3601 35.6102 17.4808 35.3843 17.4808 35.1424V28.3904L20.701 27.0976C20.9872 27.8762 21.3774 28.5425 21.8479 29.0436C19.0229 30.2502 18.6768 33.7432 18.8864 36.4286C19.1104 39.2973 19.8519 42.8837 21.9469 45.0115C22.718 45.7958 23.789 46.2593 24.8679 45.8451C26.0387 45.3961 26.8192 44.2177 27.3677 43.148C28.826 40.3025 29.5285 36.6271 29.0818 33.4506C28.8231 31.6067 27.9682 29.8077 26.1789 29.0436C26.6464 28.5454 27.0352 27.8841 27.3207 27.1121L30.5185 28.3911V35.1431C30.5185 35.385 30.6392 35.611 30.8401 35.7457L35.1762 38.6426C35.9545 39.1619 36.753 37.9538 35.9776 37.4375L31.9639 34.7556V27.9008C31.9639 27.6046 31.7839 27.3381 31.5093 27.228L27.7001 25.7035C27.7724 25.2936 27.8172 24.8641 27.8352 24.4209L32.5001 21.6152L36.4444 26.8869C36.5803 27.0694 36.7949 27.1766 37.0226 27.1766H41.3008C42.2331 27.1766 42.2331 25.7281 41.3008 25.7281ZM24.0145 13.1967C25.4425 13.1967 26.3256 15.473 26.3957 16.6216C26.4802 18.0121 25.084 17.9795 24.0145 17.9795C22.9449 17.9795 21.5487 18.0114 21.6332 16.6216C21.7033 15.473 22.5865 13.1967 24.0145 13.1967ZM27.7485 35.1431C27.7485 37.0913 27.398 39.0634 26.7577 40.9029C26.3465 42.087 25.7416 43.731 24.581 44.3923C23.565 44.9717 22.7014 43.8129 22.2417 43.0459C21.3297 41.5265 20.8282 39.7362 20.5326 38.0009C20.1062 35.4958 19.729 30.8658 23.0584 30.1662C24.2515 29.9156 25.6701 30.1017 26.5532 31.0092C27.5852 32.0702 27.7485 33.7374 27.7485 35.1431C27.7485 39.5428 27.7485 31.732 27.7485 35.1431ZM21.6275 24.029C21.6275 22.6262 22.0524 19.8169 23.7948 19.4519C25.7221 19.0485 26.361 22.5465 26.3971 23.7669C26.4397 25.1762 26.0365 28.415 24.1236 28.6185C23.3763 28.6982 22.7823 27.9964 22.4419 27.4199C21.8472 26.4096 21.6275 25.19 21.6275 24.029Z" fill="#1AC954"/>
</g>
</svg>
