<svg width="48" height="48" viewBox="0 0 48 48" fill="none" xmlns="http://www.w3.org/2000/svg">
<g id="eco-home">
<path id="Vector" d="M44.6401 18.4004L25.9849 4.67744C24.8214 3.78832 23.2476 3.77283 22.0656 4.64029L3.36058 18.3998C1.88916 19.4794 1.55957 21.5698 2.62577 23.0596C3.26966 23.9592 4.27725 24.4371 5.29868 24.4371C5.99181 24.4378 6.6673 24.2159 7.22809 23.8035L7.22878 23.803L8.21102 23.0805V43.3039C8.21102 43.4885 8.28345 43.6656 8.41239 43.7961C8.54133 43.9267 8.71621 44 8.89856 44H39.1016C39.2839 44 39.4588 43.9267 39.5877 43.7961C39.7167 43.6656 39.7891 43.4885 39.7891 43.3039V23.0805L40.772 23.8035C42.2436 24.8831 44.3081 24.5494 45.3743 23.0596C46.4404 21.5698 46.1107 19.4794 44.6401 18.4004ZM24 39.4169C26.1942 39.4169 28.1752 40.6709 29.1546 42.6077H18.8454C19.8247 40.671 21.8058 39.4169 24 39.4169ZM38.4139 42.6077H30.6628C29.7623 40.3045 27.7701 38.6486 25.4177 38.1681C25.8658 37.0886 26.4479 36.055 27.1416 35.0962C31.1532 35.0349 32.0561 33.6796 33.0936 32.1208C33.743 31.1449 34.4146 30.1358 36.0742 29.182C36.1969 29.1115 36.2952 29.0044 36.3558 28.8754C36.4163 28.7464 36.4362 28.6016 36.4127 28.4607C36.3892 28.3199 36.3235 28.1898 36.2245 28.088C36.1254 27.9863 35.9979 27.9178 35.8591 27.892C31.9804 27.1704 29.1779 27.5753 27.5294 29.0953C26.2387 30.2854 25.6894 32.0911 25.8968 34.4621L25.8971 34.4643C25.3551 35.2341 24.879 36.0494 24.4737 36.9011C24.1927 34.7911 23.6353 33.0511 22.7565 31.6035C22.9119 29.2195 22.3256 27.3942 21.0075 26.1787C19.2563 24.5641 16.2735 24.1351 12.141 24.9039C12.0022 24.9297 11.8746 24.9981 11.7755 25.0998C11.6765 25.2016 11.6107 25.3317 11.5872 25.4726C11.5637 25.6135 11.5836 25.7583 11.6442 25.8873C11.7048 26.0164 11.8032 26.1234 11.9259 26.1939C13.7102 27.2194 14.4316 28.3032 15.1291 29.3513C16.2512 31.0373 17.2247 32.4993 21.6941 32.5139C22.5386 33.979 23.0223 35.7892 23.2185 38.0688C20.5933 38.3598 18.318 40.0995 17.3374 42.6077H9.58619V22.0689L24 11.4659L38.4139 22.0689V42.6077ZM30.7137 30.6839C30.607 30.5342 30.4459 30.4335 30.2659 30.404C30.0859 30.3745 29.9017 30.4186 29.7538 30.5266C28.8551 31.1831 28.0218 31.9328 27.2695 32.7553C27.3895 31.6246 27.7852 30.7424 28.4552 30.1246C29.317 29.33 30.6487 28.9316 32.4321 28.9316C32.8945 28.9316 33.3873 28.9584 33.9101 29.0121C32.9652 29.8223 32.4195 30.6422 31.9532 31.3428C31.1602 32.5343 30.5875 33.3941 28.3374 33.6368C29.0122 32.9076 29.7566 32.2413 30.5584 31.6558C30.6316 31.6023 30.6937 31.5347 30.7411 31.4569C30.7886 31.3791 30.8204 31.2926 30.8348 31.2024C30.8492 31.1121 30.846 31.0199 30.8252 30.9309C30.8044 30.842 30.7665 30.758 30.7137 30.6839ZM18.2336 27.5719C18.0709 27.4903 17.883 27.4772 17.7108 27.5353C17.5387 27.5935 17.3962 27.7182 17.3145 27.8823C17.2328 28.0464 17.2185 28.2366 17.2747 28.4113C17.3309 28.586 17.4531 28.7312 17.6146 28.8151C18.8534 29.4472 19.8599 30.1897 20.664 31.0892C17.8236 30.9044 17.1801 29.942 16.2693 28.5733C15.7586 27.8061 15.1584 26.9043 14.0992 26.018C16.8868 25.7159 18.8948 26.1141 20.0813 27.2082C20.7517 27.8263 21.168 28.6877 21.3297 29.7784C20.4793 28.921 19.4537 28.1945 18.2336 27.5719ZM44.2607 22.2426C43.6394 23.1108 42.4363 23.3052 41.5795 22.6766L24.4041 10.0423C24.2867 9.9558 24.1452 9.90921 24 9.90921C23.8548 9.90921 23.7133 9.9558 23.5959 10.0423L6.42118 22.6762C5.56364 23.3052 4.36061 23.1107 3.73925 22.2427C3.11788 21.3745 3.30996 20.1563 4.1681 19.5267L22.8732 5.76714C23.5521 5.26889 24.4925 5.27889 25.16 5.79141L25.1713 5.79985L43.8325 19.5272C44.6899 20.1563 44.8821 21.3745 44.2607 22.2426Z" fill="#1AC954"/>
</g>
</svg>
