<svg id="q" viewBox="0 0 44 44" xmlns="http://www.w3.org/2000/svg">
<path d="M1.71303 23.7288C1.25648 23.2781 1 22.6669 1 22.0295C1 21.3922 1.25648 20.781 1.71303 20.3303L15.4897 6.73376C15.7143 6.5042 15.983 6.3211 16.2802 6.19513C16.5773 6.06917 16.8968 6.00286 17.2202 6.00009C17.5436 5.99732 17.8642 6.05813 18.1635 6.17898C18.4628 6.29983 18.7347 6.4783 18.9634 6.70397C19.1921 6.92963 19.3729 7.19799 19.4953 7.49337C19.6178 7.78875 19.6794 8.10524 19.6766 8.42437C19.6738 8.7435 19.6066 9.05889 19.479 9.35212C19.3513 9.64536 19.1658 9.91057 18.9332 10.1323L9.31368 19.626L41.5647 19.626C42.2106 19.626 42.83 19.8793 43.2867 20.33C43.7434 20.7808 44 21.3921 44 22.0295C44 22.667 43.7434 23.2783 43.2867 23.7291C42.83 24.1798 42.2106 24.433 41.5647 24.433L9.31368 24.433L18.9332 33.9268C19.3768 34.3801 19.6223 34.9872 19.6167 35.6174C19.6112 36.2476 19.3551 36.8504 18.9035 37.296C18.452 37.7417 17.8412 37.9944 17.2027 37.9999C16.5641 38.0054 15.949 37.7631 15.4897 37.3253L1.71303 23.7288Z"/>
</svg>
