<svg id="q" viewBox="0 0 28 28" xmlns="http://www.w3.org/2000/svg">
<path d="M12.4531 4.2803C12.103 3.93035 11.6283 3.73376 11.1333 3.73376C10.6384 3.73376 10.1637 3.93035 9.8136 4.2803L1.4136 12.6803C1.06365 13.0304 0.867065 13.5051 0.867065 14C0.867065 14.495 1.06365 14.9697 1.4136 15.3198L9.8136 23.7198C10.1657 24.0598 10.6372 24.2479 11.1266 24.2437C11.616 24.2394 12.0842 24.0431 12.4303 23.697C12.7764 23.3509 12.9727 22.8827 12.977 22.3933C12.9812 21.9039 12.7931 21.4324 12.4531 21.0803L7.4 15.8667H25.1333C25.6284 15.8667 26.1032 15.67 26.4533 15.32C26.8033 14.9699 27 14.4951 27 14C27 13.505 26.8033 13.0302 26.4533 12.6801C26.1032 12.33 25.6284 12.1334 25.1333 12.1334H7.4L12.4531 6.91977C12.803 6.56971 12.9996 6.09501 12.9996 5.60003C12.9996 5.10506 12.803 4.63035 12.4531 4.2803Z"/>
</svg>
