<svg id="q" viewBox="0 0 30 30" xmlns="http://www.w3.org/2000/svg">
<path d="M7.52174 26H18.4783C19.4123 26 20.3081 25.629 20.9685 24.9685C21.629 24.3081 22 23.4123 22 22.4783V11.5217C22 10.5877 21.629 9.69195 20.9685 9.03149C20.3081 8.37104 19.4123 8 18.4783 8H7.52174C6.58772 8 5.69195 8.37104 5.03149 9.03149C4.37104 9.69195 4 10.5877 4 11.5217V22.4783C4 23.4123 4.37104 24.3081 5.03149 24.9685C5.69195 25.629 6.58772 26 7.52174 26Z"/>
<path d="M19.6682 6.37441H8C8.24625 5.68051 8.70117 5.0798 9.30235 4.65469C9.90353 4.22958 10.6215 4.00089 11.3578 4H22.4384C23.383 4 24.2889 4.37524 24.9568 5.04317C25.6248 5.7111 26 6.61701 26 7.56161V18.6422C25.9991 19.3785 25.7704 20.0965 25.3453 20.6977C24.9202 21.2988 24.3195 21.7537 23.6256 22V10.3318C23.6256 9.2822 23.2087 8.27564 22.4665 7.53349C21.7244 6.79134 20.7178 6.37441 19.6682 6.37441Z"/>
</svg>
