<svg id="q" viewBox="0 0 22 22" fill="none" xmlns="http://www.w3.org/2000/svg">
<path d="M17.7343 3.15L17.7343 3.15C18.1085 3.14988 18.4694 3.29445 18.7447 3.55572C19.0194 3.81641 19.1886 4.17414 19.2175 4.55779L19.2214 4.67792V7.87632H18.5529H18.4029V8.02632V16.4035V16.4036C18.403 16.7894 18.2605 17.1605 18.005 17.4425C17.7503 17.7237 17.402 17.8955 17.0301 17.925L16.9131 17.9289H5.45571H5.45567C5.08154 17.9291 4.72058 17.7845 4.44526 17.5232C4.17057 17.2625 4.00141 16.9048 3.97248 16.5212L3.96857 16.4011V8.02632V7.87632H3.81857H3.15V4.67544L3.15 4.67539C3.14988 4.28951 3.29232 3.91842 3.54786 3.6364C3.8026 3.35527 4.15082 3.18342 4.52275 3.15399L4.6397 3.15H17.7343ZM17.0657 8.02632V7.87632H16.9157H5.45571H5.30571V8.02632V16.4035V16.5535H5.45571H16.9157H17.0657V16.4035V8.02632ZM17.8843 4.67544V4.52544H17.7343H4.63714H4.48714V4.67544V6.35088V6.50088H4.63714H17.7343H17.8843V6.35088V4.67544ZM12.8229 11.5272C12.999 11.5272 13.1687 11.5988 13.2944 11.7274C13.4202 11.8561 13.4914 12.0314 13.4914 12.2149C13.4914 12.3984 13.4202 12.5737 13.2944 12.7024C13.1687 12.831 12.999 12.9026 12.8229 12.9026H9.54857C9.37239 12.9026 9.2027 12.831 9.07704 12.7024C8.95126 12.5737 8.88 12.3984 8.88 12.2149C8.88 12.0314 8.95126 11.8561 9.07704 11.7274C9.2027 11.5988 9.37239 11.5272 9.54857 11.5272H12.8229Z" fill="white" stroke="#1AC954" stroke-width="0.3"/>
</svg>
