<svg id="q" viewBox="0 0 30 30" fill="none" xmlns="http://www.w3.org/2000/svg">
<path d="M2.04079 13.325C4.44061 18.551 8.70476 22.693 13.9983 24.94L14.8483 25.3188C15.7896 25.7379 16.8486 25.8114 17.8387 25.5262C18.8289 25.2411 19.6866 24.6156 20.2608 23.76L21.372 22.105C21.5459 21.8455 21.6163 21.5302 21.5694 21.2213C21.5224 20.9125 21.3615 20.6324 21.1183 20.4363L17.3533 17.3988C17.2222 17.293 17.071 17.2149 16.909 17.1691C16.7469 17.1232 16.5772 17.1106 16.4102 17.132C16.2431 17.1533 16.0821 17.2083 15.9368 17.2934C15.7914 17.3786 15.6648 17.4922 15.5645 17.6275L14.3995 19.1988C11.4091 17.7218 8.98845 15.3008 7.51204 12.31L9.08204 11.145C9.21735 11.0447 9.33099 10.9181 9.41614 10.7728C9.5013 10.6275 9.5562 10.4664 9.57757 10.2994C9.59893 10.1323 9.58632 9.96265 9.54047 9.80058C9.49463 9.63851 9.4165 9.48738 9.31079 9.35626L6.27329 5.59126C6.07716 5.34808 5.79708 5.18715 5.48821 5.14019C5.17935 5.09322 4.86409 5.16362 4.60454 5.33751L2.93829 6.45501C2.07754 7.03223 1.44965 7.89628 1.16648 8.89322C0.883308 9.89016 0.963242 10.9553 1.39204 11.8988L2.04079 13.325Z" fill="#CCDDE2"/>
</svg>
