<svg width="47" height="47" viewBox="0 0 47 47" fill="none" xmlns="http://www.w3.org/2000/svg">
<path d="M32.0922 5.875C28.7508 5.875 25.6005 7.41186 23.5 9.9092C21.3994 7.41186 18.2492 5.875 14.9078 5.875C8.98857 5.875 4.40625 10.4851 4.40625 16.4404C4.40625 23.7397 10.8979 29.5993 20.731 38.6271L23.5 41.125L26.269 38.6271C36.102 29.5992 42.5938 23.7396 42.5938 16.4404C42.5938 10.4851 38.0114 5.875 32.0922 5.875ZM24.6783 36.0998L24.291 36.4553L23.5 37.1688L22.7091 36.4554L22.3222 36.1002C17.694 31.8517 13.6969 28.1824 11.0545 24.9016C8.48818 21.715 7.34375 19.1055 7.34375 16.4404C7.34375 14.3414 8.11686 12.4076 9.52071 10.9953C10.9199 9.58772 12.833 8.8125 14.9078 8.8125C17.3068 8.8125 19.6785 9.92939 21.2519 11.8L23.5 14.4728L25.748 11.8C27.3215 9.92939 29.6931 8.8125 32.0922 8.8125C34.1671 8.8125 36.0801 9.58772 37.4794 10.9952C38.8831 12.4076 39.6562 14.3413 39.6562 16.4404C39.6562 19.1055 38.5118 21.7149 35.9456 24.9014C33.3034 28.1822 29.3064 31.8512 24.6783 36.0998Z" fill="black"/>
</svg>
