<svg width="47" height="47" viewBox="0 0 47 47" fill="none" xmlns="http://www.w3.org/2000/svg">
<path d="M38.2 7.3L38.2001 7.3C39.081 7.29971 39.9307 7.64012 40.5785 8.25496C41.2252 8.86863 41.623 9.71058 41.6909 10.6132L41.7 10.8939V18.3667H40.1H39.8V18.6667V38.1111V38.1112C39.8003 39.0187 39.4653 39.8916 38.864 40.5552C38.2644 41.217 37.4444 41.6216 36.5683 41.6907L36.2948 41.7H9.7H9.6999C8.81902 41.7003 7.96934 41.3599 7.32147 40.745L7.11496 40.9626L7.32147 40.745C6.67483 40.1314 6.27695 39.2894 6.20914 38.3868L6.2 38.1062V18.6667V18.3667H5.9H4.3L4.3 10.8889L4.3 10.8888C4.29972 9.98129 4.63469 9.10838 5.23595 8.44482C5.83562 7.78303 6.65566 7.37838 7.53177 7.30933L7.80511 7.3H38.2ZM36.6 18.6667V18.3667H36.3H9.7H9.4V18.6667V38.1111V38.4111H9.7H36.3H36.6V38.1111V18.6667ZM38.5 10.8889V10.5889H38.2H7.8H7.5V10.8889V14.7778V15.0778H7.8H38.2H38.5V14.7778V10.8889ZM26.8 26.7444C27.2221 26.7444 27.6283 26.916 27.9289 27.2236C28.2298 27.5315 28.4 27.9505 28.4 28.3889C28.4 28.8272 28.2298 29.2463 27.9289 29.5542C27.6283 29.8618 27.2221 30.0333 26.8 30.0333H19.2C18.7779 30.0333 18.3717 29.8618 18.0711 29.5542C17.7702 29.2463 17.6 28.8272 17.6 28.3889C17.6 27.9505 17.7702 27.5315 18.0711 27.2236C18.3717 26.916 18.7779 26.7444 19.2 26.7444H26.8Z" fill="black" stroke="#D1F4D8" stroke-width="0.6"/>
</svg>
