<svg width="80" height="80" viewBox="0 0 80 80" fill="none" xmlns="http://www.w3.org/2000/svg">
<path d="M40.346 46.2037C39.576 46.2036 38.8098 46.0938 38.0707 45.8777C37.0493 45.5751 36.0929 45.0861 35.2495 44.4354C32.6349 42.4352 31.0737 39.07 31.0737 35.4297C31.0722 34.3007 31.2249 33.1768 31.5278 32.0893C31.5604 31.9724 31.6158 31.8631 31.6907 31.7677C31.7656 31.6722 31.8585 31.5924 31.9643 31.5328C32.07 31.4733 32.1864 31.4352 32.3069 31.4206C32.4273 31.4061 32.5495 31.4154 32.6663 31.448C32.7832 31.4807 32.8925 31.536 32.988 31.6109C33.0834 31.6858 33.1632 31.7788 33.2228 31.8845C33.2823 31.9902 33.3205 32.1066 33.335 32.2271C33.3496 32.3476 33.3402 32.4697 33.3076 32.5866C33.0503 33.5121 32.9206 34.4685 32.9222 35.4291C32.9222 38.4972 34.2128 41.3137 36.3734 42.9683C37.0361 43.4811 37.788 43.8668 38.591 44.106C39.7391 44.4403 40.9587 44.4403 42.1068 44.106C42.9097 43.8671 43.6614 43.4816 44.3239 42.9689C46.4845 41.316 47.7751 38.4977 47.7751 35.4297C47.7767 34.469 47.647 33.5127 47.3897 32.5872C47.3281 32.3529 47.3611 32.1038 47.4816 31.8936C47.602 31.6834 47.8002 31.529 48.0335 31.4637C48.2668 31.3984 48.5163 31.4273 48.7284 31.5444C48.9405 31.6614 49.0981 31.8571 49.1672 32.0893C49.4701 33.1768 49.6228 34.3007 49.6212 35.4297C49.6212 39.0689 48.0601 42.4352 45.4455 44.4354C44.6023 45.086 43.646 45.575 42.6249 45.8777C41.8846 46.094 41.1173 46.2038 40.346 46.2037Z" fill="#1AC954"/>
<path d="M49.3311 33.2609H31.3611C29.7836 33.2589 28.2713 32.6314 27.1559 31.5159C26.0405 30.4004 25.4131 28.888 25.4113 27.3105C25.4113 27.0657 25.5085 26.8309 25.6816 26.6578C25.8547 26.4847 26.0895 26.3875 26.3343 26.3875H54.3584C54.6032 26.3875 54.838 26.4847 55.0111 26.6578C55.1842 26.8309 55.2814 27.0657 55.2814 27.3105C55.2796 28.8881 54.6521 30.4005 53.5366 31.5161C52.4211 32.6316 50.9086 33.2591 49.3311 33.2609ZM27.3653 28.2336C27.575 29.1373 28.0842 29.9435 28.8102 30.5211C29.5362 31.0987 30.4362 31.4136 31.3639 31.4148H49.3311C50.2588 31.4136 51.1589 31.0986 51.885 30.521C52.611 29.9435 53.1204 29.1373 53.3303 28.2336H27.3653Z" fill="#1AC954"/>
<path d="M30.775 28.2342C30.6917 28.2342 30.6088 28.2227 30.5287 28.2002C30.2927 28.135 30.0924 27.9787 29.9716 27.7658C29.8509 27.5529 29.8197 27.3007 29.8848 27.0648L32.7544 16.6802C32.8077 16.485 32.9236 16.3127 33.0843 16.1898C33.2451 16.0669 33.4417 16.0002 33.6441 16H47.0489C47.2508 16 47.4472 16.0663 47.6079 16.1886C47.7686 16.311 47.8847 16.4826 47.9385 16.6773L50.8081 27.0648C50.8733 27.3008 50.842 27.5531 50.7212 27.766C50.6004 27.979 50.4 28.1353 50.164 28.2005C49.9279 28.2657 49.6757 28.2344 49.4627 28.1136C49.2497 27.9928 49.0935 27.7924 49.0283 27.5563L46.3462 17.8462H34.3462L31.6646 27.5563C31.611 27.7511 31.4949 27.9229 31.3342 28.0454C31.1735 28.1678 30.9771 28.2342 30.775 28.2342ZM57.7692 64H22.9231C22.6783 64 22.4435 63.9027 22.2704 63.7296C22.0973 63.5565 22 63.3217 22 63.0769V62.3004C21.994 57.8002 23.6444 53.4551 26.6366 50.0938C29.6289 46.7324 33.7536 44.5899 38.2242 44.0748C38.3452 44.0599 38.4679 44.0691 38.5853 44.1018C38.7027 44.1346 38.8125 44.1902 38.9082 44.2656C39.004 44.341 39.0839 44.4346 39.1433 44.541C39.2027 44.6474 39.2404 44.7646 39.2543 44.8856C39.2683 45.0067 39.258 45.1294 39.2243 45.2465C39.1906 45.3636 39.134 45.4729 39.0578 45.568C38.9816 45.6631 38.8873 45.7422 38.7804 45.8007C38.6735 45.8592 38.556 45.896 38.4348 45.9088C37.6298 46.0013 36.8328 46.1535 36.0504 46.364C28.911 48.2835 23.9108 54.7635 23.8462 62.1538H56.8462C56.8157 58.1324 55.3156 54.2608 52.6286 51.2686C49.9416 48.2764 46.2532 46.3701 42.2581 45.9088C42.1369 45.896 42.0194 45.8592 41.9125 45.8007C41.8056 45.7422 41.7113 45.6631 41.6351 45.568C41.559 45.4729 41.5024 45.3636 41.4686 45.2465C41.4349 45.1294 41.4247 45.0067 41.4386 44.8856C41.4525 44.7646 41.4902 44.6474 41.5496 44.541C41.609 44.4346 41.6889 44.341 41.7847 44.2656C41.8804 44.1902 41.9902 44.1346 42.1076 44.1018C42.225 44.0691 42.3477 44.0599 42.4687 44.0748C46.9367 44.5961 51.0577 46.7404 54.0486 50.1004C57.0395 53.4604 58.6921 57.802 58.6923 62.3004V63.0769C58.6923 63.3217 58.5951 63.5565 58.422 63.7296C58.2488 63.9027 58.0141 64 57.7692 64Z" fill="#1AC954"/>
<path d="M29.3967 55.8532C29.1519 55.8532 28.9171 55.756 28.744 55.5829C28.5709 55.4097 28.4736 55.175 28.4736 54.9301V48.7461C28.4736 48.5013 28.5709 48.2665 28.744 48.0934C28.9171 47.9203 29.1519 47.823 29.3967 47.823C29.6415 47.823 29.8763 47.9203 30.0494 48.0934C30.2225 48.2665 30.3198 48.5013 30.3198 48.7461V54.9301C30.3198 55.175 30.2225 55.4097 30.0494 55.5829C29.8763 55.756 29.6415 55.8532 29.3967 55.8532ZM33.1531 55.8532C32.9082 55.8532 32.6735 55.756 32.5003 55.5829C32.3272 55.4097 32.23 55.175 32.23 54.9301V46.4257C32.23 46.1809 32.3272 45.9461 32.5003 45.773C32.6735 45.5999 32.9082 45.5026 33.1531 45.5026C33.3979 45.5026 33.6327 45.5999 33.8058 45.773C33.9789 45.9461 34.0761 46.1809 34.0761 46.4257V54.9301C34.0761 55.175 33.9789 55.4097 33.8058 55.5829C33.6327 55.756 33.3979 55.8532 33.1531 55.8532ZM47.4821 55.8532C47.2373 55.8532 47.0025 55.756 46.8294 55.5829C46.6563 55.4097 46.559 55.175 46.559 54.9301V46.3998C46.559 46.1549 46.6563 45.9202 46.8294 45.747C47.0025 45.5739 47.2373 45.4767 47.4821 45.4767C47.7269 45.4767 47.9617 45.5739 48.1348 45.747C48.3079 45.9202 48.4052 46.1549 48.4052 46.3998V54.9301C48.4052 55.175 48.3079 55.4097 48.1348 55.5829C47.9617 55.756 47.7269 55.8532 47.4821 55.8532ZM51.2384 55.8532C50.9936 55.8532 50.7588 55.756 50.5857 55.5829C50.4126 55.4097 50.3154 55.175 50.3154 54.9301V48.6994C50.3154 48.4546 50.4126 48.2198 50.5857 48.0467C50.7588 47.8736 50.9936 47.7763 51.2384 47.7763C51.4833 47.7763 51.718 47.8736 51.8912 48.0467C52.0643 48.2198 52.1615 48.4546 52.1615 48.6994V54.9301C52.1615 55.175 52.0643 55.4097 51.8912 55.5829C51.718 55.756 51.4833 55.8532 51.2384 55.8532Z" fill="#1AC954"/>
<path d="M51.7583 64H28.4725C28.2277 64 27.9929 63.9027 27.8198 63.7296C27.6467 63.5565 27.5494 63.3217 27.5494 63.0769V54.9302C27.5494 54.6853 27.6467 54.4506 27.8198 54.2774C27.9929 54.1043 28.2277 54.0071 28.4725 54.0071H51.7583C52.0031 54.0071 52.2379 54.1043 52.411 54.2774C52.5841 54.4506 52.6814 54.6853 52.6814 54.9302V63.0769C52.6814 63.3217 52.5841 63.5565 52.411 63.7296C52.2379 63.9027 52.0031 64 51.7583 64ZM29.3956 62.1538H50.8352V55.8532H29.3956V62.1538Z" fill="#1AC954"/>
</svg>
