<svg width="70" height="70" viewBox="0 0 70 70" fill="none" xmlns="http://www.w3.org/2000/svg">
<circle cx="35" cy="35" r="35" fill="white"/>
<path d="M41.85 32.7586V32.9086H42H53.1429H53.2929V32.7586V32.3208V32.2559L53.2455 32.2114L47.9813 27.2699L47.938 27.2293H47.8787H42H41.85V27.3793V32.7586ZM42 34.4017H41.85V34.5517V40.8271V41.2642L42.1184 40.9193C42.9375 39.8666 44.2425 39.1845 45.7143 39.1845C47.5594 39.1845 49.1421 40.2566 49.8342 41.786L49.8741 41.8741H49.9708H53.1429H53.2929V41.7241V34.5517V34.4017H53.1429H42ZM40.1429 41.8741H40.2929V41.7241V25.5862V23.7931V23.6431H40.1429H17.8571H17.7071V23.7931V41.7241V41.8741H17.8571H19.172H19.2688L19.3087 41.786C20.0008 40.2566 21.5835 39.1845 23.4286 39.1845C25.2737 39.1845 26.8563 40.2566 27.5484 41.786L27.5883 41.8741H27.6851H40.1429ZM41.85 25.5862V25.7362H42H48.5733L54.85 31.6281V41.7241C54.85 42.6267 54.0907 43.3672 53.1429 43.3672H50.3571H50.2071V43.5172C50.2071 45.9052 48.2006 47.85 45.7143 47.85C43.2279 47.85 41.2214 45.9052 41.2214 43.5172V43.3672H41.0714H28.0714H27.9214V43.5172C27.9214 45.9052 25.9149 47.85 23.4286 47.85C20.9422 47.85 18.9357 45.9052 18.9357 43.5172V43.3672H18.7857H17.8571C16.9093 43.3672 16.15 42.6267 16.15 41.7241V23.7931C16.15 22.8906 16.9093 22.15 17.8571 22.15H40.1429C41.0907 22.15 41.85 22.8906 41.85 23.7931V25.5862ZM23.4286 46.3569C25.0449 46.3569 26.3643 45.0905 26.3643 43.5172C26.3643 41.944 25.0449 40.6776 23.4286 40.6776C21.8122 40.6776 20.4929 41.944 20.4929 43.5172C20.4929 45.0905 21.8122 46.3569 23.4286 46.3569ZM45.7143 46.3569C47.3306 46.3569 48.65 45.0905 48.65 43.5172C48.65 41.944 47.3306 40.6776 45.7143 40.6776C44.0979 40.6776 42.7786 41.944 42.7786 43.5172C42.7786 45.0905 44.0979 46.3569 45.7143 46.3569Z" fill="#1AC954" stroke="#EDF3F5" stroke-width="0.3"/>
</svg>
