<svg id="q" viewBox="0 0 80 80" xmlns="http://www.w3.org/2000/svg">
<g>
<path id="Vector" d="M51.0936 5C51.05 5.00487 51.0068 5.01228 50.9641 5.0222C49.1682 5.30863 47.4372 5.91034 45.8625 6.80736C40.8592 9.68715 38.1051 15.0626 38.3039 20.5979C36.9448 18.847 35.2005 17.4285 33.2046 16.4514C31.2088 15.4742 29.0144 14.9642 26.7895 14.9605C26.7881 14.9605 26.7866 14.9605 26.7851 14.9605C25.0563 14.9605 23.3453 15.2824 21.7259 15.8886C21.4932 15.975 21.2961 16.1362 21.1658 16.3465C21.0355 16.5568 20.9795 16.8043 21.0067 17.0498C21.8421 24.4525 28.0984 30.0677 35.532 30.0744C35.5334 30.0744 35.5349 30.0744 35.5364 30.0744C36.7359 30.0744 37.9286 29.9101 39.0879 29.6148V42.6926H24.0154C23.5514 42.6984 23.1081 42.8845 22.7804 43.2111C22.4527 43.5376 22.2666 43.9788 22.262 44.44V49.8199C22.262 50.768 23.0594 51.5673 24.0154 51.5673H24.7837L27.5199 76H52.7823L55.5229 51.5673H56.2466C57.2026 51.5673 58 50.768 58 49.8199V44.4422C57.9954 43.981 57.8093 43.5399 57.4816 43.2133C57.1539 42.8867 56.7106 42.7006 56.2466 42.6948H41.3215V39.7506C42.0363 39.9083 42.7644 40.0171 43.4993 40.0193C43.5008 40.0193 43.5023 40.0193 43.5038 40.0193C48.6679 40.0193 53.0347 36.1848 53.6221 31.1201C53.6509 30.8724 53.5949 30.6222 53.4633 30.41C53.3316 30.1977 53.1318 30.0357 52.8962 29.95C51.7687 29.5378 50.5773 29.3251 49.376 29.3217C49.3745 29.3217 49.373 29.3217 49.3715 29.3217C47.8194 29.3208 46.2876 29.672 44.8926 30.3484C43.4976 31.0248 42.2763 32.0086 41.3215 33.225V28.1804C41.3258 28.1242 41.3258 28.0678 41.3215 28.0117V26.9193C42.9371 26.6108 44.4908 26.0407 45.9206 25.2318C45.922 25.2318 45.9235 25.2318 45.925 25.2318C52.6795 21.3462 55.3509 12.9089 52.1635 5.67054C52.0736 5.46519 51.9233 5.29168 51.7323 5.1728C51.5414 5.05392 51.3187 4.99523 51.0936 5.00444V5ZM50.3521 7.54008C52.4695 13.5439 50.2717 20.1516 44.8037 23.3001C44.0756 23.7131 43.2849 23.9684 42.4785 24.1927L47.9308 17.0809C48.065 16.9123 48.147 16.7086 48.1669 16.4945C48.1868 16.2804 48.1438 16.0652 48.043 15.875C47.9422 15.6848 47.7881 15.5278 47.5993 15.423C47.4104 15.3182 47.1951 15.2701 46.9793 15.2846C46.8166 15.2956 46.6583 15.3418 46.5156 15.4201C46.3728 15.4983 46.249 15.6067 46.1528 15.7376L40.9284 22.5585C39.8451 17.1186 42.0921 11.5434 46.9748 8.72796C48.0179 8.13513 49.1861 7.82428 50.3521 7.54008ZM26.7895 17.1808H26.794C31.9604 17.1808 36.3361 20.4225 38.1498 25.0564L31.7192 21.6593C31.5549 21.5694 31.3706 21.522 31.1831 21.5216C30.9324 21.5216 30.6891 21.6054 30.4921 21.7595C30.2952 21.9137 30.1562 22.1292 30.0974 22.3714C30.0386 22.6136 30.0635 22.8684 30.168 23.0949C30.2726 23.3213 30.4507 23.5062 30.6738 23.6198L37.9621 27.4721C37.1647 27.6764 36.3606 27.8496 35.532 27.854C29.5793 27.854 24.6676 23.5621 23.5217 17.7803C24.5939 17.4783 25.675 17.1853 26.7895 17.1808ZM49.3715 31.5398H49.376C49.8964 31.5398 50.3923 31.7108 50.9015 31.8129C50.0014 35.1967 47.1758 37.7923 43.5082 37.7967C43.3295 37.7967 43.1553 37.759 42.9789 37.7279L46.4924 35.663C46.7033 35.5421 46.8687 35.356 46.9634 35.133C47.0581 34.9101 47.0769 34.6625 47.017 34.4279C46.957 34.1933 46.8216 33.9846 46.6313 33.8336C46.4411 33.6826 46.2064 33.5976 45.963 33.5914V33.5958C45.7505 33.5893 45.5405 33.6432 45.3577 33.7513L43.0191 35.1257C44.3704 32.9875 46.6353 31.542 49.3715 31.5398ZM24.4956 44.9129H55.7664V49.3403H24.5313V49.3447H24.4956V44.9129ZM27.0263 51.5651H53.2759L50.7854 73.7774H29.5168L27.0263 51.5651Z"/>
</g>
</svg>
