<svg width="16" height="13" viewBox="0 0 16 13" fill="none" xmlns="http://www.w3.org/2000/svg">
<path d="M1.21605 1.09965C1.17985 1.10311 1.14477 1.10656 1.11085 1.10999C1.0697 1.39309 1.02964 1.75534 1.01095 2.17378C0.963343 3.2394 1.05618 4.62692 1.58585 5.99352C2.1087 7.34253 3.06428 8.69359 4.79442 9.72078C6.53881 10.7564 9.1368 11.5014 12.999 11.5014C13.6054 11.5014 14.2599 11.4676 14.9447 11.4226C15.1295 9.23197 14.8376 7.53896 14.2722 6.22637C13.6415 4.76211 12.6416 3.70383 11.4446 2.93302C9.00834 1.36419 5.77361 1 3.38082 1C2.48229 1 1.73514 1.05008 1.21605 1.09965Z" fill="white" stroke="#1AC954" stroke-width="2"/>
</svg>
