<svg width="57" height="57" viewBox="0 0 57 57" fill="none" xmlns="http://www.w3.org/2000/svg">
<path d="M16.473 33.6691L8.3125 40.375V13.5515C8.3125 13.1068 8.48627 12.6804 8.79557 12.366C9.10488 12.0516 9.52438 11.875 9.96181 11.875H36.3507C36.7881 11.875 37.2076 12.0516 37.5169 12.366C37.8262 12.6804 38 13.1068 38 13.5515V31.9926C38 32.4373 37.8262 32.8637 37.5169 33.1781C37.2076 33.4925 36.7881 33.6691 36.3507 33.6691H16.473Z" stroke="#1AC954" stroke-width="2" stroke-linecap="round" stroke-linejoin="round"/>
<path d="M19 33.8438V41.4926C19 41.9373 19.1738 42.3637 19.4831 42.6781C19.7924 42.9925 20.2119 43.1691 20.6493 43.1691H40.527L48.6875 49.875V23.0515C48.6875 22.6068 48.5137 22.1804 48.2044 21.866C47.8951 21.5516 47.4756 21.375 47.0382 21.375H38.7917" stroke="#1AC954" stroke-width="2" stroke-linecap="round" stroke-linejoin="round"/>
</svg>
