<svg width="57" height="57" viewBox="0 0 57 57" fill="none" xmlns="http://www.w3.org/2000/svg">
<path d="M48.5548 26.7804C48.5548 17.9715 43.2483 10.0295 35.1096 6.65851C26.9713 3.28752 17.6035 5.15063 11.3742 11.3799C3.90013 18.8604 2.87734 30.6282 8.94991 39.2856C15.0221 47.9429 26.4347 50.9889 36.0134 46.5082L35.8279 50.9076C35.8279 50.9184 35.8276 50.9292 35.8276 50.94C35.8264 51.3531 36.0656 51.7289 36.4399 51.9035C36.8134 52.0763 37.2537 52.0128 37.5627 51.7412L41.677 48.1963L45.7928 51.7423C46.1014 52.0132 46.5413 52.0766 46.9141 51.9035C47.2883 51.7289 47.5275 51.3527 47.5264 50.9397C47.5264 50.9292 47.5264 50.9184 47.526 50.9076L47.1316 41.5461C50.55 38.6356 51.072 33.5503 48.3167 30.0058C48.4749 28.9383 48.5544 27.8599 48.5548 26.7804ZM26.7751 47.0317C15.6083 47.0317 6.52372 37.9475 6.52372 26.7804C6.52372 15.6136 15.6083 6.52903 26.7751 6.52903C37.9418 6.52903 47.0264 15.6136 47.0264 26.7804C47.0264 27.3908 46.9977 28.002 46.9439 28.6091C45.4554 27.4043 43.5979 26.7475 41.6829 26.7494C40.9057 26.7509 40.1322 26.8591 39.3844 27.0707V20.9459C39.3818 20.6134 39.1657 20.3197 38.8485 20.2186L27.7773 16.6487C27.6243 16.5998 27.4598 16.5998 27.3068 16.6487L16.2311 20.2186C15.9135 20.3197 15.6971 20.613 15.6941 20.9459V36.0538C15.6967 36.3866 15.9128 36.6799 16.23 36.781L27.3012 40.3509C27.4545 40.4002 27.6195 40.4002 27.7725 40.3509L33.9107 38.3717C34.4212 39.5968 35.213 40.6845 36.2223 41.5465L36.0869 44.7671C33.2084 46.2548 30.0154 47.0317 26.7751 47.0317ZM33.2767 35.1556C33.2756 35.7459 33.3368 36.3347 33.4592 36.9124L27.9214 38.6975V25.1952L37.856 21.9952V27.6752C35.032 29.0957 33.2573 31.9947 33.2767 35.1556ZM17.2225 21.9955L26.393 24.949V38.4509L17.2225 35.4974V21.9955ZM27.5393 23.7127L18.9603 20.9459L27.5393 18.1794L36.1182 20.9459L27.5393 23.7127ZM45.9521 49.8624L42.3856 46.7892C41.9878 46.4134 41.3661 46.4134 40.9684 46.7892L37.4019 49.8624L37.7093 42.5648C40.1874 43.8943 43.1666 43.8943 45.6446 42.5648L45.9521 49.8624ZM41.677 42.0334C37.8784 42.0334 34.7992 38.9542 34.7992 35.1556C34.7992 31.357 37.8784 28.2778 41.677 28.2778C45.4756 28.2778 48.5548 31.357 48.5548 35.1556C48.5507 38.9524 45.4737 42.0293 41.677 42.0334Z" fill="#1AC954"/>
<path d="M45.0824 31.8365L40.5677 36.3508L38.2736 34.0343C37.9759 33.7395 37.496 33.7395 37.1982 34.0343C36.9004 34.3295 36.8956 34.809 37.1874 35.1097L40.0222 37.9945C40.1629 38.1453 40.3573 38.2348 40.5632 38.2434H40.5644C40.77 38.2352 40.9644 38.1468 41.1054 37.9971L46.163 32.9283C46.4649 32.6298 46.4671 32.1436 46.1686 31.8421C45.8705 31.5402 45.3839 31.538 45.0824 31.8365Z" fill="#1AC954"/>
</svg>
