<svg width="34" height="34" viewBox="0 0 34 34" fill="none" xmlns="http://www.w3.org/2000/svg">
<circle cx="17" cy="17" r="17" fill="#D1F4D8"/>
<path d="M25.4711 13.2046C25.4711 13.1991 25.4711 13.1937 25.4656 13.1937C25.4656 13.1827 25.4602 13.1772 25.4602 13.1663C25.4602 13.1608 25.4547 13.1499 25.4547 13.1444C25.4547 13.139 25.4492 13.1335 25.4492 13.128C25.4383 13.1007 25.4273 13.0788 25.4109 13.0569L21.8562 7.83428C21.7797 7.71943 21.6539 7.65381 21.5172 7.65381H18.0391H15.9664H12.4883C12.3516 7.65381 12.2258 7.71943 12.1492 7.83428L8.59453 13.0569C8.57813 13.0788 8.56719 13.1062 8.55625 13.128C8.55625 13.1335 8.55078 13.139 8.55078 13.1444C8.54531 13.1499 8.54531 13.1608 8.54531 13.1663C8.54531 13.1772 8.53984 13.1827 8.53984 13.1937C8.53984 13.1991 8.53984 13.2046 8.53437 13.2046C8.52891 13.2319 8.52344 13.2593 8.52344 13.2866V25.9358C8.52344 26.1601 8.70937 26.346 8.93359 26.346H25.0719C25.2961 26.346 25.482 26.1601 25.482 25.9358V13.2866C25.4766 13.2593 25.4766 13.2319 25.4711 13.2046ZM24.2898 12.8765H18.9906L18.493 8.47412H21.293L24.2898 12.8765ZM15.7805 13.6968H18.2141V16.7046L17.2352 16.0155C17.1641 15.9663 17.082 15.939 17 15.939C16.918 15.939 16.8359 15.9663 16.7648 16.0155L15.7859 16.7046V13.6968H15.7805ZM17.6672 8.47412L18.1648 12.8765H15.8297L16.3273 8.47412H17.6672ZM12.707 8.47412H15.507L15.0094 12.8765H9.71016L12.707 8.47412ZM24.6562 25.5257H9.34375V13.6968H14.9656V17.4921C14.9656 17.6452 15.0531 17.7874 15.1844 17.8585C15.3211 17.9296 15.4852 17.9187 15.6109 17.8312L17 16.8522L18.3891 17.8312C18.4602 17.8804 18.5422 17.9077 18.6242 17.9077C18.6898 17.9077 18.7555 17.8913 18.8156 17.864C18.9523 17.7929 19.0344 17.6507 19.0344 17.4976V13.7022H24.6562V25.5257Z" fill="#1AC954"/>
<path d="M13.9914 21.0686H11.082C10.8578 21.0686 10.6719 21.2545 10.6719 21.4788C10.6719 21.703 10.8578 21.8889 11.082 21.8889H13.9914C14.2156 21.8889 14.4016 21.703 14.4016 21.4788C14.4016 21.2545 14.2156 21.0686 13.9914 21.0686Z" fill="#1AC954"/>
<path d="M12.5367 22.7913H11.082C10.8578 22.7913 10.6719 22.9772 10.6719 23.2014C10.6719 23.4256 10.8578 23.6116 11.082 23.6116H12.5367C12.7609 23.6116 12.9469 23.4256 12.9469 23.2014C12.9469 22.9772 12.7609 22.7913 12.5367 22.7913Z" fill="#1AC954"/>
</svg>
