<svg id="q" viewBox="0 0 17 17" xmlns="http://www.w3.org/2000/svg">
<path d="M12.9365 5.50794L3.77976 14.6905C3.57341 14.8968 3.3282 15 3.04413 15C2.76005 15 2.51518 14.8968 2.30952 14.6905C2.10317 14.4841 2 14.2389 2 13.9548C2 13.6708 2.10317 13.4259 2.30952 13.2202L11.4921 4.06349H3.65079C3.35847 4.06349 3.11325 3.96445 2.91516 3.76635C2.71706 3.56826 2.61836 3.32339 2.61905 3.03175C2.61905 2.73942 2.7181 2.49421 2.91619 2.29611C3.11429 2.09802 3.35915 1.99932 3.65079 2H13.9683C14.2606 2 14.5058 2.09905 14.7039 2.29715C14.902 2.49524 15.0007 2.74011 15 3.03175V13.3492C15 13.6415 14.9009 13.8867 14.7029 14.0848C14.5048 14.2829 14.2599 14.3816 13.9683 14.381C13.6759 14.381 13.4307 14.2819 13.2326 14.0838C13.0345 13.8857 12.9358 13.6408 12.9365 13.3492V5.50794Z"/>
</svg>
