<svg id="q" viewBox="0 0 23 21" fill="none" xmlns="http://www.w3.org/2000/svg">
<path d="M8.10391 20.66C8.98756 20.66 9.70391 19.9436 9.70391 19.06C9.70391 18.1763 8.98756 17.46 8.10391 17.46C7.22025 17.46 6.50391 18.1763 6.50391 19.06C6.50391 19.9436 7.22025 20.66 8.10391 20.66Z" fill="white"/>
<path d="M18.3227 20.66C19.2063 20.66 19.9227 19.9436 19.9227 19.06C19.9227 18.1763 19.2063 17.46 18.3227 17.46C17.439 17.46 16.7227 18.1763 16.7227 19.06C16.7227 19.9436 17.439 20.66 18.3227 20.66Z" fill="white"/>
<path d="M4.36899 5.3H22L19.406 14.0776C19.3121 14.3952 19.1138 14.6746 18.8411 14.8735C18.5683 15.0724 18.236 15.18 17.8943 15.18H8.47468C8.13302 15.18 7.80067 15.0724 7.52791 14.8735C7.25515 14.6746 7.05684 14.3952 6.96298 14.0776L3.40889 2.05121C3.36196 1.89241 3.2628 1.75271 3.12642 1.65326C2.99004 1.5538 2.82386 1.5 2.65304 1.5H1" stroke="white" stroke-width="2" stroke-linecap="round" stroke-linejoin="round"/>
</svg>
