<svg width="86" height="86" viewBox="0 0 86 86" fill="none" xmlns="http://www.w3.org/2000/svg">
<circle cx="43" cy="43" r="43" fill="white"/>
<path d="M60.25 40.125H58.8125V37.25C58.8125 33.0563 57.1465 29.0343 54.1811 26.0689C51.2157 23.1035 47.1937 21.4375 43 21.4375C38.8063 21.4375 34.7843 23.1035 31.8189 26.0689C28.8535 29.0343 27.1875 33.0563 27.1875 37.25V40.125H25.75C24.6063 40.125 23.5094 40.5794 22.7006 41.3881C21.8919 42.1969 21.4375 43.2938 21.4375 44.4375V50.1875C21.4375 51.3312 21.8919 52.4281 22.7006 53.2369C23.5094 54.0457 24.6063 54.5 25.75 54.5H27.1875C27.1875 55.6437 27.6419 56.7406 28.4506 57.5494C29.2594 58.3582 30.3563 58.8125 31.5 58.8125C32.6437 58.8125 33.7406 58.3582 34.5494 57.5494C35.3581 56.7406 35.8125 55.6437 35.8125 54.5V40.125C35.8129 39.4349 35.6476 38.7548 35.3306 38.1418C35.0136 37.5288 34.5541 37.0008 33.9907 36.6023C33.4274 36.2037 32.7766 35.9461 32.093 35.8512C31.4095 35.7563 30.7131 35.8268 30.0625 36.0569C30.3658 32.8509 31.8538 29.8732 34.2357 27.706C36.6176 25.5388 39.7222 24.3378 42.9425 24.3378C46.1628 24.3378 49.2674 25.5388 51.6493 27.706C54.0312 29.8732 55.5192 32.8509 55.8225 36.0569C55.1785 35.8494 54.4948 35.7963 53.8265 35.9019C53.1582 36.0076 52.5241 36.269 51.9756 36.665C51.427 37.061 50.9793 37.5806 50.6687 38.1817C50.3581 38.7827 50.1932 39.4484 50.1875 40.125V54.5C50.1894 55.1889 50.3564 55.8673 50.6744 56.4784C50.9923 57.0895 51.4521 57.6156 52.0151 58.0125C52.5782 58.4095 53.2281 58.6658 53.9105 58.7599C54.5929 58.8541 55.288 58.7834 55.9375 58.5537V61.6875H51.4812C51.2757 62.7322 50.8331 63.7158 50.1875 64.5625H57.375C57.7562 64.5625 58.1219 64.411 58.3915 64.1415C58.661 63.8719 58.8125 63.5062 58.8125 63.125V54.5H60.25C61.3937 54.5 62.4906 54.0457 63.2994 53.2369C64.1082 52.4281 64.5625 51.3312 64.5625 50.1875V44.4375C64.5625 43.2938 64.1082 42.1969 63.2994 41.3881C62.4906 40.5794 61.3937 40.125 60.25 40.125Z" fill="#1AC954"/>
<path d="M44.4375 55.9375H41.5625C40.4188 55.9375 39.3219 56.3919 38.5131 57.2006C37.7044 58.0094 37.25 59.1063 37.25 60.25C37.25 61.3937 37.7044 62.4906 38.5131 63.2994C39.3219 64.1081 40.4188 64.5625 41.5625 64.5625H44.4375C45.5812 64.5625 46.6781 64.1081 47.4869 63.2994C48.2956 62.4906 48.75 61.3937 48.75 60.25C48.75 59.1063 48.2956 58.0094 47.4869 57.2006C46.6781 56.3919 45.5812 55.9375 44.4375 55.9375Z" fill="#1AC954"/>
</svg>
