<svg id="q" viewBox="0 0 23 21" xmlns="http://www.w3.org/2000/svg">
<path d="M8.10391 20.16C8.98756 20.16 9.70391 19.4436 9.70391 18.56C9.70391 17.6763 8.98756 16.96 8.10391 16.96C7.22025 16.96 6.50391 17.6763 6.50391 18.56C6.50391 19.4436 7.22025 20.16 8.10391 20.16Z" stroke="none"/>
<path d="M18.3227 20.16C19.2063 20.16 19.9227 19.4436 19.9227 18.56C19.9227 17.6763 19.2063 16.96 18.3227 16.96C17.439 16.96 16.7227 17.6763 16.7227 18.56C16.7227 19.4436 17.439 20.16 18.3227 20.16Z" stroke="none"/>
<path d="M4.36899 4.8H22L19.406 13.5776C19.3121 13.8952 19.1138 14.1746 18.8411 14.3735C18.5683 14.5724 18.236 14.68 17.8943 14.68H8.47468C8.13302 14.68 7.80067 14.5724 7.52791 14.3735C7.25515 14.1746 7.05684 13.8952 6.96298 13.5776L3.40889 1.55121C3.36196 1.39241 3.2628 1.25271 3.12642 1.15326C2.99004 1.0538 2.82386 1 2.65304 1H1" fill="none" stroke-width="1.8" stroke-linecap="round" stroke-linejoin="round"/>
</svg>
