<svg id="q" viewBox="0 0 20 20" xmlns="http://www.w3.org/2000/svg">
<path fill-rule="evenodd" clip-rule="evenodd" d="M11.3683 9.9999L17.3521 4.01739C17.442 3.92754 17.5133 3.82086 17.5619 3.70348C17.6105 3.5861 17.6355 3.46029 17.6355 3.33323C17.6355 3.20618 17.6105 3.08037 17.5619 2.96298C17.5133 2.8456 17.442 2.73894 17.3522 2.6491C17.2623 2.55926 17.1557 2.48799 17.0383 2.43937C16.9209 2.39075 16.7951 2.36572 16.668 2.36572C16.541 2.36572 16.4152 2.39075 16.2978 2.43937C16.1804 2.48799 16.0737 2.55928 15.9839 2.64912L10.0014 8.63292L4.01883 2.6491C3.92899 2.55926 3.82233 2.48799 3.70495 2.43937C3.58756 2.39075 3.46175 2.36572 3.3347 2.36572C3.20764 2.36572 3.08183 2.39075 2.96445 2.43937C2.84706 2.48799 2.74041 2.55926 2.65056 2.6491C2.56072 2.73894 2.48946 2.8456 2.44083 2.96298C2.39221 3.08037 2.36719 3.20618 2.36719 3.33323C2.36719 3.46029 2.39221 3.5861 2.44083 3.70348C2.48946 3.82086 2.56075 3.92754 2.65059 4.01739L8.63439 9.9999L2.65056 15.9824C2.46912 16.1639 2.36719 16.41 2.36719 16.6666C2.36719 16.9232 2.46912 17.1693 2.65056 17.3507C2.83201 17.5321 3.0781 17.6341 3.3347 17.6341C3.5913 17.6341 3.83741 17.5321 4.01885 17.3507L10.0014 11.3669L15.9839 17.3507C16.1653 17.5321 16.4114 17.6341 16.668 17.6341C16.9246 17.6341 17.1707 17.5321 17.3522 17.3507C17.5336 17.1693 17.6355 16.9232 17.6355 16.6666C17.6355 16.41 17.5336 16.1639 17.3521 15.9824L11.3683 9.9999Z"/>
</svg>
