<svg id="q" viewBox="0 0 18 18" xmlns="http://www.w3.org/2000/svg">
<path d="M8.99888 0.428677C13.7328 0.428677 17.5703 4.26624 17.5703 9.0001C17.5703 13.734 13.7328 17.5715 8.99888 17.5715C4.26502 17.5715 0.427456 13.734 0.427456 9.0001C0.427456 4.26624 4.26502 0.428677 8.99888 0.428677ZM8.99888 14.7144C9.78786 14.7144 10.4275 14.0748 10.4275 13.2858V9.0001C10.4275 8.21113 9.78786 7.57153 8.99888 7.57153C8.20991 7.57153 7.57031 8.21113 7.57031 9.0001L7.57031 13.2858C7.57031 14.0748 8.20991 14.7144 8.99888 14.7144ZM8.99888 6.14296C9.78786 6.14296 10.4275 5.50337 10.4275 4.71439C10.4275 3.92541 9.78786 3.28582 8.99888 3.28582C8.20991 3.28582 7.57031 3.92541 7.57031 4.71439C7.57031 5.50337 8.20991 6.14296 8.99888 6.14296Z"/>
</svg>
