<svg id="q" viewBox="0 0 64 64" fill="none" xmlns="http://www.w3.org/2000/svg">
<g clip-path="url(#clip0_1_3775)">
<path d="M15.074 22.2577L29.8272 36.0904C30.2637 36.4999 30.8466 36.7429 31.4633 36.7726C32.0799 36.8022 32.6864 36.6164 33.1652 36.2509L33.3547 36.0904L48.098 22.267C48.1462 22.4384 48.1778 22.613 48.1944 22.7922L48.2077 23.0649V41.7662C48.208 42.5526 47.8912 43.31 47.3208 43.8866C46.7505 44.4632 45.9688 44.8164 45.1324 44.8753L44.883 44.8831H18.2856C17.4468 44.8834 16.639 44.5864 16.0239 44.0517C15.4089 43.517 15.0322 42.7841 14.9692 42L14.9609 41.7662V23.0649C14.9609 22.8779 14.9776 22.6971 15.0108 22.5195L15.074 22.2577ZM44.883 19.9481C45.0842 19.9481 45.282 19.9636 45.4731 19.9964L45.7557 20.0572L31.5926 33.3351L17.4245 20.054C17.6074 20.0073 17.7969 19.9761 17.9897 19.9605L18.2856 19.9481H44.883Z" fill="#FF8C22"/>
</g>
<defs>
<clipPath id="clip0_1_3775">
<rect width="39.8961" height="39.8961" fill="white" transform="translate(11.6367 12.4675)"/>
</clipPath>
</defs>
</svg>
