<svg id="q" viewBox="0 0 64 64" fill="none" xmlns="http://www.w3.org/2000/svg">
<g clip-path="url(#clip0_1_3762)">
<path d="M45.7197 18.2653C41.9692 14.5287 36.9822 12.4698 31.6689 12.4675C20.72 12.4675 11.8098 21.3357 11.8054 32.2359C11.8042 35.7202 12.7186 39.1214 14.4567 42.1195L11.6387 52.3636L22.1685 49.6147C25.0697 51.19 28.3362 52.02 31.6604 52.0213H31.6688H31.6689C42.616 52.0213 51.5275 43.1516 51.5322 32.2519C51.534 26.9692 49.4697 22.0021 45.7197 18.2653ZM31.6689 48.6824H31.6625C28.6995 48.6808 25.7939 47.8888 23.2595 46.3916L22.6564 46.0356L16.4078 47.6667L18.0761 41.6034L17.6831 40.9818C16.0303 38.3654 15.1578 35.3418 15.159 32.2372C15.1627 23.1773 22.5685 15.8066 31.6751 15.8066C36.0851 15.8084 40.2299 17.5198 43.3472 20.6255C46.4642 23.7312 48.1796 27.8597 48.1783 32.2505C48.1744 41.3107 40.7684 48.6824 31.6689 48.6824Z" fill="#E0E0E0"/>
<path d="M12.5508 51.2269L15.24 41.4507C13.5809 38.5896 12.7085 35.3435 12.7095 32.019C12.7138 21.6169 21.2171 13.1541 31.6649 13.1541C36.7358 13.1564 41.4951 15.1211 45.0734 18.6871C48.6525 22.253 50.6224 26.9929 50.6204 32.0338C50.616 42.4361 42.1122 50.8997 31.6657 50.8997C31.6649 50.8997 31.6662 50.8997 31.6657 50.8997H31.6573C28.485 50.8987 25.3679 50.1059 22.5994 48.6037L12.5508 51.2269Z" fill="url(#paint0_linear_1_3762)"/>
<path fill-rule="evenodd" clip-rule="evenodd" d="M26.7593 23.8433C26.3918 23.0298 26.0049 23.0136 25.6552 22.9993C25.3693 22.9871 25.0419 22.9879 24.715 22.9879C24.3879 22.9879 23.8563 23.1103 23.4068 23.599C22.957 24.0878 21.6895 25.2694 21.6895 27.6725C21.6895 30.076 23.4477 32.3982 23.6928 32.7244C23.9381 33.0501 27.0869 38.1393 32.0736 40.0972C36.2181 41.7243 37.0614 41.4006 37.961 41.3192C38.8606 41.2378 40.8636 40.1379 41.2725 38.9972C41.6814 37.8568 41.6814 36.8793 41.5588 36.675C41.4361 36.4714 41.109 36.3493 40.6183 36.105C40.1276 35.8608 37.7157 34.6789 37.2659 34.5161C36.8161 34.3533 36.489 34.2718 36.1619 34.7609C35.8347 35.2494 34.895 36.3493 34.6088 36.675C34.3226 37.0014 34.0363 37.0421 33.5457 36.7979C33.055 36.5528 31.4748 36.0376 29.6003 34.3736C28.1418 33.079 27.1572 31.4801 26.8709 30.9911C26.5847 30.5026 26.8402 30.238 27.0864 29.9945C27.3067 29.7756 27.577 29.4243 27.8224 29.139C28.0672 28.8538 28.149 28.6503 28.3125 28.3246C28.4761 27.9984 28.3943 27.7132 28.2716 27.4689C28.149 27.2247 27.1955 24.8091 26.7593 23.8433Z" fill="white"/>
<path d="M45.557 18.2024C41.8495 14.5088 36.9198 12.4736 31.6675 12.4713C20.8443 12.4713 12.0364 21.2376 12.032 32.0127C12.0307 35.457 12.9347 38.8191 14.6528 41.7828L11.8672 51.9094L22.2762 49.192C25.1441 50.7491 28.3731 51.5697 31.6591 51.5709H31.6674H31.6675C42.489 51.5709 51.2981 42.8031 51.3027 32.0285C51.3045 26.8064 49.2639 21.8963 45.557 18.2024ZM31.6675 48.2704H31.6611C28.7322 48.2689 25.8599 47.486 23.3546 46.0059L22.7584 45.6541L16.5815 47.2664L18.2306 41.2727L17.8422 40.6582C16.2084 38.0719 15.3459 35.083 15.3472 32.014C15.3507 23.0581 22.6715 15.7721 31.6737 15.7721C36.033 15.7739 40.1302 17.4656 43.2117 20.5356C46.293 23.6057 47.9887 27.6868 47.9874 32.0273C47.9835 40.9834 40.6625 48.2704 31.6675 48.2704Z" fill="white"/>
</g>
<defs>
<linearGradient id="paint0_linear_1_3762" x1="31.5856" y1="51.2269" x2="31.5856" y2="13.1542" gradientUnits="userSpaceOnUse">
<stop stop-color="#20B038"/>
<stop offset="1" stop-color="#60D66A"/>
</linearGradient>
<clipPath id="clip0_1_3762">
<rect width="39.8961" height="39.8961" fill="white" transform="translate(11.6367 12.4675)"/>
</clipPath>
</defs>
</svg>
