<svg id="q" viewBox="0 0 22 22" fill="none" xmlns="http://www.w3.org/2000/svg">
<path d="M18.7748 14.196L17.2623 12.6835C16.8115 12.2362 16.2029 11.9841 15.5678 11.9814C14.9328 11.9787 14.3221 12.2256 13.8674 12.669C13.6248 12.913 13.3048 13.0648 12.9624 13.0983C12.6199 13.1318 12.2765 13.0449 11.9913 12.8526C10.8653 12.1011 9.89796 11.1357 9.14432 10.0112C8.95537 9.72269 8.87162 9.37791 8.90719 9.03491C8.94275 8.69191 9.09546 8.37165 9.33957 8.12809C9.77895 7.67301 10.0227 7.06402 10.0188 6.43147C10.0148 5.79891 9.76333 5.19304 9.31826 4.74353L7.80576 3.23103C7.35293 2.77976 6.73971 2.52637 6.10041 2.52637C5.46112 2.52637 4.84789 2.77976 4.39507 3.23103L3.95988 3.6669C1.69113 5.93565 1.86094 10.7055 6.58132 15.4232C9.42757 18.2701 12.2924 19.4622 14.6154 19.4622C15.2993 19.485 15.9808 19.3714 16.6203 19.1282C17.2598 18.8849 17.8445 18.5168 18.3403 18.0453L18.7762 17.6094C19.2283 17.1564 19.4821 16.5424 19.4818 15.9024C19.4816 15.2624 19.2273 14.6486 18.7748 14.196ZM17.8027 16.6373L17.3668 17.0732C15.5793 18.8607 11.6338 18.5341 7.55207 14.4517C3.47038 10.3693 3.14313 6.42103 4.93063 4.63353L5.36307 4.19834C5.55778 4.00434 5.82143 3.89541 6.09629 3.89541C6.37115 3.89541 6.6348 4.00434 6.82951 4.19834L8.34201 5.71084C8.53318 5.90297 8.64169 6.1622 8.64438 6.43322C8.64708 6.70423 8.54375 6.96557 8.35645 7.16147C7.89189 7.62899 7.6021 8.24195 7.53564 8.89768C7.46918 9.5534 7.63008 10.2121 7.99138 10.7633C8.8477 12.0447 9.94886 13.1442 11.2316 13.9987C11.7811 14.36 12.4381 14.5219 13.0926 14.4572C13.7472 14.3925 14.3597 14.1052 14.8279 13.6432C15.0234 13.4537 15.2855 13.3485 15.5578 13.3501C15.8301 13.3518 16.0908 13.4602 16.284 13.6522L17.7965 15.1647C17.894 15.2607 17.9715 15.3751 18.0246 15.5013C18.0777 15.6274 18.1053 15.7628 18.1059 15.8997C18.1065 16.0365 18.08 16.1722 18.028 16.2988C17.9759 16.4253 17.8994 16.5404 17.8027 16.6373Z" fill="black"/>
</svg>
