<svg width="46" height="46" viewBox="0 0 46 46" fill="none" xmlns="http://www.w3.org/2000/svg">
<g id="phone (4) 1">
<path id="Vector" d="M4 18.625C4 14.7462 5.52767 11.0263 8.24695 8.28356C10.9662 5.54084 14.6544 4 18.5 4C22.3456 4 26.0338 5.54084 28.753 8.28356C31.4723 11.0263 33 14.7462 33 18.625C33 28.375 18.5 43 18.5 43C18.5 43 4 28.375 4 18.625ZM12.4583 18.625C12.4583 20.2412 13.0949 21.7911 14.2279 22.9339C15.3609 24.0767 16.8977 24.7188 18.5 24.7188C20.1024 24.7188 21.6391 24.0767 22.7721 22.9339C23.9051 21.7911 24.5417 20.2412 24.5417 18.625C24.5417 17.0088 23.9051 15.4589 22.7721 14.3161C21.6391 13.1733 20.1024 12.5312 18.5 12.5312C16.8977 12.5312 15.3609 13.1733 14.2279 14.3161C13.0949 15.4589 12.4583 17.0088 12.4583 18.625Z" fill="black"/>
</g>
</svg>
