<svg width="28" height="26" viewBox="0 0 28 26" fill="none" xmlns="http://www.w3.org/2000/svg">
<path fill-rule="evenodd" clip-rule="evenodd" d="M20.0667 2.12849H7.93333V1.23087C7.93333 0.735129 7.51548 0.333252 7 0.333252C6.48452 0.333252 6.06667 0.735129 6.06667 1.23087V2.14427C2.6762 2.3744 0 5.09252 0 8.41182V19.1833C0 22.6534 2.92507 25.4666 6.53333 25.4666H20.5333C20.7561 25.4666 20.9716 25.3899 21.1407 25.2505L27.6741 19.8648C27.881 19.6942 28 19.4453 28 19.1833V8.41182C28 5.09252 25.3238 2.3744 21.9333 2.14427V1.23087C21.9333 0.735129 21.5155 0.333252 21 0.333252C20.4845 0.333252 20.0667 0.735129 20.0667 1.23087V2.12849ZM7 5.71897C6.48452 5.71897 6.06667 5.3171 6.06667 4.82135V3.9459C3.70845 4.17107 1.86667 6.08461 1.86667 8.41182V19.1833C1.86667 21.6619 3.95603 23.6713 6.53333 23.6713H19.6V20.9785C19.6 19.4913 20.8536 18.2856 22.4 18.2856H26.1333V8.41182C26.1333 6.08461 24.2915 4.17107 21.9333 3.9459V4.82135C21.9333 5.3171 21.5155 5.71897 21 5.71897C20.4845 5.71897 20.0667 5.3171 20.0667 4.82135V3.92373H7.93333V4.82135C7.93333 5.3171 7.51548 5.71897 7 5.71897ZM22.4 20.0809H24.5436L21.4667 22.6174V20.9785C21.4667 20.4827 21.8845 20.0809 22.4 20.0809Z" fill="black"/>
</svg>
