<svg width="28" height="28" viewBox="0 0 28 28" fill="none" xmlns="http://www.w3.org/2000/svg">
<path d="M3.54326 8.9008C3.21023 10.3991 3.06668 12.3708 3.06668 15C3.06668 17.6292 3.21028 19.6009 3.54326 21.0993L3.64088 21.0776L3.54326 21.0993C3.87106 22.5742 4.35424 23.4607 4.9468 24.0532C5.53935 24.6458 6.42581 25.129 7.90076 25.4567C9.3991 25.7898 11.3708 25.9333 14 25.9333C15.2495 25.9333 16.3501 25.9009 17.3216 25.8312L17.4163 25.8245L17.4144 25.7295C17.4106 25.5335 17.4003 25.3238 17.3888 25.0879L17.3888 25.0878C17.3822 24.9549 17.3752 24.8132 17.3688 24.6604C17.3487 24.1883 17.3362 23.653 17.3767 23.1052C17.4574 22.0153 17.7562 20.7615 18.7411 19.7736C19.7288 18.7829 21.0208 18.4756 22.1228 18.3849C22.6811 18.339 23.2243 18.3461 23.6986 18.3625C23.8758 18.3687 24.0355 18.3757 24.1825 18.3821L24.1975 18.3828L24.1976 18.3828C24.3934 18.3913 24.5677 18.399 24.7303 18.4023L24.8253 18.4043L24.8321 18.3095C24.9011 17.341 24.9333 16.2443 24.9333 15.0001C24.9333 12.3709 24.7898 10.3991 24.4567 8.9008C24.129 7.42591 23.6457 6.53945 23.0532 5.94685C22.4607 5.3543 21.5741 4.87107 20.0993 4.54331C18.6009 4.21033 16.6292 4.06673 14 4.06673C11.3708 4.06673 9.39905 4.21033 7.90075 4.54331C6.42586 4.87112 5.5394 5.3543 4.9468 5.94684C4.3542 6.5394 3.87102 7.42586 3.54326 8.9008ZM3.54326 8.9008L3.64088 8.9225L3.54326 8.90081C3.54326 8.90081 3.54326 8.9008 3.54326 8.9008ZM24.5987 20.3663L24.579 20.4796C24.5415 20.6947 24.5008 20.9011 24.4568 21.0993L24.4568 21.0993C24.129 22.5742 23.6458 23.4607 23.0532 24.0532C23.0532 24.0532 23.0532 24.0532 23.0532 24.0532M24.5987 20.3663L20.0777 25.3592C21.5406 25.0341 22.4076 24.5575 22.9825 23.9825L23.0532 24.0532M24.5987 20.3663L24.4839 20.3624C24.341 20.3576 24.1925 20.3512 24.0449 20.3448L24.0449 20.3448L24.0113 20.3434C23.8818 20.3378 23.7532 20.3323 23.6306 20.328L23.6305 20.328C23.1831 20.3125 22.7288 20.3084 22.2841 20.345C21.3796 20.4194 20.6421 20.6523 20.1339 21.1621C19.6228 21.6748 19.4024 22.3805 19.3381 23.2503C19.3061 23.6823 19.3145 24.1267 19.3337 24.577C19.3386 24.6922 19.3444 24.8123 19.3504 24.9337C19.3594 25.116 19.3685 25.302 19.3747 25.4819L19.3787 25.5968L19.492 25.577C19.7026 25.54 19.9049 25.5001 20.0994 25.4568M24.5987 20.3663L20.0994 25.4568M23.0532 24.0532C22.4607 24.6458 21.5742 25.129 20.0994 25.4568M23.0532 24.0532L20.0994 25.4568M14 27.9C11.3259 27.9 9.18388 27.7566 7.47406 27.3766C5.76538 26.9969 4.49447 26.3822 3.55615 25.4439C2.61782 24.5055 2.00315 23.2346 1.62341 21.5259C1.24341 19.8161 1.1 17.6741 1.1 15C1.1 12.3259 1.24341 10.1839 1.62341 8.47406C2.00315 6.76538 2.61782 5.49447 3.55615 4.55615C4.49447 3.61782 5.76538 3.00315 7.47406 2.62341C9.18388 2.24341 11.3259 2.1 14 2.1C16.6741 2.1 18.8161 2.24341 20.5259 2.62341C22.2346 3.00315 23.5055 3.61782 24.4439 4.55615C25.3822 5.49447 25.9969 6.76538 26.3766 8.47406C26.7566 10.1839 26.9 12.3259 26.9 15C26.9 17.6741 26.7566 19.8161 26.3766 21.5259C25.9969 23.2346 25.3822 24.5055 24.4439 25.4439C23.5055 26.3822 22.2346 26.9969 20.5259 27.3766C18.8161 27.7566 16.6741 27.9 14 27.9Z" fill="black" stroke="#F6F6F7" stroke-width="0.2"/>
<path d="M11.8333 10.5666H11.8333C11.2902 10.5667 10.85 10.1264 10.85 9.58332C10.85 9.04024 11.2902 8.6 11.8333 8.6H16.1666C16.7097 8.6 17.1499 9.04024 17.1499 9.58332C17.1499 10.1264 16.7097 10.5666 16.1666 10.5666H11.8333Z" fill="black" stroke="#F6F6F7" stroke-width="0.2"/>
<path d="M7.6 15.0003C7.6 14.4572 8.04024 14.017 8.58332 14.017H19.4166C19.9597 14.017 20.3999 14.4572 20.3999 15.0003C20.3999 15.5434 19.9597 15.9836 19.4166 15.9836H8.58332C8.04024 15.9836 7.6 15.5434 7.6 15.0003Z" fill="black" stroke="#F6F6F7" stroke-width="0.2"/>
</svg>
