<svg width="45" height="45" viewBox="0 0 45 45" fill="none" xmlns="http://www.w3.org/2000/svg">
<path d="M39.148 19.7251H37.7607V16.9504C37.7607 12.9029 36.1528 9.02124 33.2909 6.15927C30.4289 3.29729 26.5472 1.68945 22.4998 1.68945C18.4523 1.68945 14.5707 3.29729 11.7087 6.15927C8.84671 9.02124 7.23887 12.9029 7.23887 16.9504V19.7251H5.85152C4.74767 19.7251 3.68903 20.1636 2.90849 20.9441C2.12795 21.7246 1.68945 22.7833 1.68945 23.8871V29.4365C1.68945 30.5404 2.12795 31.599 2.90849 32.3796C3.68903 33.1601 4.74767 33.5986 5.85152 33.5986H7.23887C7.23887 34.7025 7.67737 35.7611 8.45791 36.5416C9.23845 37.3222 10.2971 37.7607 11.4009 37.7607C12.5048 37.7607 13.5634 37.3222 14.344 36.5416C15.1245 35.7611 15.563 34.7025 15.563 33.5986V19.7251C15.5633 19.059 15.4039 18.4026 15.0979 17.811C14.792 17.2194 14.3485 16.7099 13.8048 16.3252C13.2611 15.9405 12.633 15.6919 11.9733 15.6004C11.3136 15.5088 10.6415 15.5768 10.0136 15.7988C10.3063 12.7047 11.7424 9.83091 14.0412 7.73929C16.3401 5.64766 19.3363 4.48856 22.4443 4.48856C25.5522 4.48856 28.5485 5.64766 30.8473 7.73929C33.1461 9.83091 34.5823 12.7047 34.875 15.7988C34.2535 15.5986 33.5935 15.5474 32.9486 15.6493C32.3036 15.7513 31.6917 16.0036 31.1622 16.3858C30.6328 16.768 30.2007 17.2694 29.901 17.8495C29.6012 18.4296 29.4421 19.0721 29.4365 19.7251V33.5986C29.4384 34.2635 29.5995 34.9182 29.9064 35.508C30.2133 36.0978 30.657 36.6055 31.2004 36.9886C31.7438 37.3717 32.3711 37.619 33.0297 37.7099C33.6883 37.8008 34.3591 37.7326 34.986 37.5109V40.5354H30.6852C30.4868 41.5436 30.0596 42.4929 29.4365 43.3101H36.3733C36.7413 43.3101 37.0941 43.1639 37.3543 42.9037C37.6145 42.6436 37.7607 42.2907 37.7607 41.9227V33.5986H39.148C40.2519 33.5986 41.3105 33.1601 42.091 32.3796C42.8716 31.599 43.3101 30.5404 43.3101 29.4365V23.8871C43.3101 22.7833 42.8716 21.7246 42.091 20.9441C41.3105 20.1636 40.2519 19.7251 39.148 19.7251Z" fill="#1AC954"/>
<path d="M23.8879 34.9863H21.1132C20.0094 34.9863 18.9507 35.4248 18.1702 36.2054C17.3897 36.9859 16.9512 38.0445 16.9512 39.1484C16.9512 40.2522 17.3897 41.3109 18.1702 42.0914C18.9507 42.872 20.0094 43.3105 21.1132 43.3105H23.8879C24.9918 43.3105 26.0504 42.872 26.831 42.0914C27.6115 41.3109 28.05 40.2522 28.05 39.1484C28.05 38.0445 27.6115 36.9859 26.831 36.2054C26.0504 35.4248 24.9918 34.9863 23.8879 34.9863Z" fill="#1AC954"/>
</svg>
