<svg id="q" viewBox="0 0 61.4297 61.4287" fill="none" xmlns="http://www.w3.org/2000/svg" xmlns:xlink="http://www.w3.org/1999/xlink">
	<defs>
		<linearGradient id="paint_linear_1_5707_0" x1="39.287834" y1="13.573145" x2="26.430702" y2="43.571442" gradientUnits="userSpaceOnUse">
			<stop stop-color="#37AEE2"/>
			<stop offset="1" stop-color="#1E96C8"/>
		</linearGradient>
	</defs>
	<rect width="56.938774" height="56.938774" transform="translate(2.246094 2.244629)" fill="#FFFFFF" fill-opacity="0"/>
	<path d="M30.7148 56.4287C44.9141 56.4287 56.4297 44.916 56.4297 30.7144C56.4297 16.5127 44.9141 5 30.7148 5C16.5117 5 5 16.5127 5 30.7144C5 44.916 16.5117 56.4287 30.7148 56.4287Z" fill="url(#paint_linear_1_5707_0)" fill-opacity="1" fill-rule="nonzero"/>
	<path d="M18.9219 59.1797Q24.3516 61.4287 30.7148 61.4287Q37.0742 61.4287 42.5039 59.1797Q47.9336 56.9307 52.4336 52.4326Q56.9297 47.9346 59.1797 42.5049Q61.4297 37.0752 61.4297 30.7144Q61.4297 24.353 59.1797 18.9238Q56.9297 13.4941 52.4336 8.99609Q47.9336 4.49805 42.5039 2.24902Q37.0742 0 30.7148 0Q24.3516 0 18.9219 2.24902Q13.4922 4.49805 8.99609 8.99609Q4.49609 13.4941 2.25 18.9233Q0 24.353 0 30.7144Q0 37.0752 2.25 42.5049Q4.49609 47.9346 8.99609 52.4326Q13.4922 56.9307 18.9219 59.1797ZM56.4297 30.7144C56.4297 44.916 44.9141 56.4287 30.7148 56.4287C16.5117 56.4287 5 44.916 5 30.7144C5 16.5127 16.5117 5 30.7148 5C44.9141 5 56.4297 16.5127 56.4297 30.7144Z" fill="#FFFFFF" fill-opacity="1" fill-rule="evenodd"/>
	<path d="M14.5781 31.9727C17.582 30.3164 20.9375 28.9346 24.0742 27.5459C29.4688 25.2705 34.8828 23.0352 40.3516 20.9536C41.418 20.5991 43.3281 20.2524 43.5156 21.8296C43.4141 24.062 42.9922 26.2812 42.7031 28.5005C41.9648 33.3813 41.1172 38.2451 40.2891 43.1094C40 44.7295 37.9727 45.5688 36.6719 44.5317C33.5508 42.4233 30.4062 40.3354 27.3242 38.1782C26.3164 37.1523 27.2539 35.6797 28.1523 34.9473C30.7227 32.4136 33.4492 30.2612 35.8867 27.5967C36.543 26.0098 34.6016 27.3472 33.9609 27.7573C30.4414 30.1826 27.0078 32.7559 23.2969 34.8872C21.4023 35.9307 19.1953 35.0391 17.3008 34.4565C15.6016 33.7534 13.1133 33.0449 14.5781 31.9727L14.5781 31.9727Z" fill="#FFFFFF" fill-opacity="1" fill-rule="nonzero"/>
</svg>
