<svg id="q" viewBox="0 0 21 22" xmlns="http://www.w3.org/2000/svg">
<path d="M18.1212 8.62875L12.8713 3.37875C12.7906 3.30004 12.6955 3.23765 12.5913 3.195C12.4828 3.15091 12.3671 3.12719 12.25 3.125H5.25C4.55381 3.125 3.88613 3.40156 3.39384 3.89384C2.90156 4.38613 2.625 5.05381 2.625 5.75V16.25C2.625 16.9462 2.90156 17.6139 3.39384 18.1062C3.88613 18.5984 4.55381 18.875 5.25 18.875H15.75C16.4462 18.875 17.1139 18.5984 17.6062 18.1062C18.0984 17.6139 18.375 16.9462 18.375 16.25V9.25C18.3757 9.13484 18.3536 9.02069 18.3101 8.91408C18.2665 8.80747 18.2023 8.71051 18.1212 8.62875ZM7.875 4.875H11.375V6.625H7.875V4.875ZM13.125 17.125H7.875V14.5C7.875 14.2679 7.96719 14.0454 8.13128 13.8813C8.29538 13.7172 8.51794 13.625 8.75 13.625H12.25C12.4821 13.625 12.7046 13.7172 12.8687 13.8813C13.0328 14.0454 13.125 14.2679 13.125 14.5V17.125ZM16.625 16.25C16.625 16.4821 16.5328 16.7046 16.3687 16.8687C16.2046 17.0328 15.9821 17.125 15.75 17.125H14.875V14.5C14.875 13.8038 14.5984 13.1361 14.1062 12.6438C13.6139 12.1516 12.9462 11.875 12.25 11.875H8.75C8.05381 11.875 7.38613 12.1516 6.89384 12.6438C6.40156 13.1361 6.125 13.8038 6.125 14.5V17.125H5.25C5.01794 17.125 4.79538 17.0328 4.63128 16.8687C4.46719 16.7046 4.375 16.4821 4.375 16.25V5.75C4.375 5.51794 4.46719 5.29538 4.63128 5.13128C4.79538 4.96719 5.01794 4.875 5.25 4.875H6.125V7.5C6.125 7.73206 6.21719 7.95462 6.38128 8.11872C6.54538 8.28281 6.76794 8.375 7 8.375H12.25C12.4821 8.375 12.7046 8.28281 12.8687 8.11872C13.0328 7.95462 13.125 7.73206 13.125 7.5V6.10875L16.625 9.60875V16.25Z"/>
</svg>
