<svg id="q" viewBox="0 0 40 40" fill="none" xmlns="http://www.w3.org/2000/svg">
<g>
<path d="M40 20C40 8.9543 31.0457 0 20 0C8.9543 0 0 8.9543 0 20C0 31.0457 8.9543 40 20 40C31.0457 40 40 31.0457 40 20Z" fill="#0DC143"/>
<path d="M28.0007 12.0338C25.9162 9.90538 23.0348 8.75 20.092 8.75C13.8386 8.75 8.81133 13.7973 8.87266 19.9392C8.87266 21.8851 9.42444 23.7703 10.344 25.473L8.75 31.25L14.6969 29.7297C16.3522 30.6419 18.1914 31.0676 20.0306 31.0676C26.2228 31.0676 31.25 26.0203 31.25 19.8783C31.25 16.8986 30.0852 14.1014 28.0007 12.0338ZM20.092 29.1824C18.4367 29.1824 16.7813 28.7568 15.3713 27.9054L15.0034 27.723L11.4476 28.6351L12.3672 25.1689L12.122 24.8041C9.42444 20.4865 10.7118 14.7703 15.126 12.0946C19.5402 9.41892 25.2418 10.6959 27.9394 15.0743C30.6369 19.4527 29.3495 25.1081 24.9353 27.7838C23.5252 28.6959 21.8086 29.1824 20.092 29.1824ZM25.4871 22.4324L24.8127 22.1283C24.8127 22.1283 23.8317 21.7027 23.2187 21.3986C23.1574 21.3986 23.096 21.3379 23.0348 21.3379C22.8508 21.3379 22.7282 21.3986 22.6056 21.4594C22.6056 21.4594 22.5443 21.5203 21.686 22.4932C21.6247 22.6149 21.5021 22.6757 21.3794 22.6757H21.3181C21.2569 22.6757 21.1342 22.6149 21.0729 22.5541L20.7664 22.4324C20.092 22.1283 19.4789 21.7635 18.9885 21.277C18.8658 21.1554 18.6819 21.0338 18.5592 20.9121C18.1301 20.4865 17.701 20 17.3944 19.4527L17.3331 19.3311C17.2718 19.2703 17.2718 19.2094 17.2105 19.0879C17.2105 18.9662 17.2105 18.8446 17.2718 18.7838C17.2718 18.7838 17.517 18.4797 17.701 18.2973C17.8236 18.1757 17.8849 17.9932 18.0075 17.8717C18.1301 17.6892 18.1914 17.4459 18.1301 17.2635C18.0688 16.9594 17.3331 15.3176 17.1492 14.9527C17.0265 14.7703 16.904 14.7094 16.7201 14.6486H16.5361C16.4135 14.6486 16.2296 14.6486 16.0456 14.6486C15.9231 14.6486 15.8004 14.7094 15.6778 14.7094L15.6165 14.7703C15.4938 14.8311 15.3713 14.9527 15.2486 15.0135C15.126 15.1351 15.0647 15.2568 14.9421 15.3783C14.5129 15.9257 14.2677 16.5946 14.2677 17.2635C14.2677 17.75 14.3904 18.2365 14.5743 18.6621L14.6356 18.8446C15.1874 20 15.9231 21.0338 16.904 21.9459L17.1492 22.1892C17.3331 22.3717 17.517 22.4932 17.6397 22.6757C18.9271 23.7703 20.3985 24.5608 22.0538 24.9865C22.2378 25.0473 22.483 25.0473 22.6669 25.1081C22.8508 25.1081 23.096 25.1081 23.28 25.1081C23.5865 25.1081 23.9544 24.9865 24.1996 24.8649C24.3835 24.7432 24.5062 24.7432 24.6287 24.6217L24.7514 24.5C24.874 24.3783 24.9966 24.3176 25.1192 24.1959C25.2418 24.0743 25.3644 23.9527 25.4257 23.8311C25.5484 23.5879 25.6096 23.2838 25.671 22.9797C25.671 22.8581 25.671 22.6757 25.671 22.5541C25.671 22.5541 25.6096 22.4932 25.4871 22.4324Z" fill="white"/>
</g>
</svg>
