<svg id="q" viewBox="0 0 40 40" xmlns="http://www.w3.org/2000/svg">
<path d="M31.9357 19.0469L28.5071 10.2969L28.4536 10.1984L28.3893 10.1109C28.3786 10.1 28.3786 10.1 28.3786 10.0891L28.2929 10.0016H28.2821L28.2071 9.94687L28.1857 9.925L28.0893 9.87031H28.0786L27.9821 9.8375H27.9607L27.8536 9.81562H27.5321L20.8571 11.2812V8.875C20.8571 8.64294 20.7668 8.42038 20.6061 8.25628C20.4453 8.09219 20.2273 8 20 8C19.7727 8 19.5547 8.09219 19.3939 8.25628C19.2332 8.42038 19.1429 8.64294 19.1429 8.875V11.675L12.1036 13.2719H12.0286L11.9214 13.3156H11.9L11.8143 13.3594C11.8143 13.3608 11.814 13.3622 11.8135 13.3636C11.8129 13.3649 11.8121 13.3661 11.8111 13.3671C11.8102 13.3681 11.809 13.3689 11.8077 13.3695C11.8064 13.37 11.805 13.3703 11.8036 13.3703L11.7071 13.4469C11.7071 13.4498 11.706 13.4526 11.704 13.4546C11.702 13.4567 11.6993 13.4578 11.6964 13.4578L11.6321 13.5344H11.6214C11.5929 13.5618 11.571 13.5954 11.5571 13.6328L11.5357 13.6547L11.4929 13.7531H11.4821L8.06429 22.5469C8.02238 22.651 8.00055 22.7624 8 22.875C8 25.4234 10.625 26.375 12.2857 26.375C13.9464 26.375 16.5714 25.4234 16.5714 22.875C16.5709 22.7624 16.5491 22.651 16.5071 22.5469L13.4536 14.7594L19.1429 13.4688V27.25H17.4286C17.2012 27.25 16.9832 27.3422 16.8225 27.5063C16.6617 27.6704 16.5714 27.8929 16.5714 28.125C16.5714 28.3571 16.6617 28.5796 16.8225 28.7437C16.9832 28.9078 17.2012 29 17.4286 29H22.5714C22.7988 29 23.0168 28.9078 23.1775 28.7437C23.3383 28.5796 23.4286 28.3571 23.4286 28.125C23.4286 27.8929 23.3383 27.6704 23.1775 27.5063C23.0168 27.3422 22.7988 27.25 22.5714 27.25H20.8571V13.075L26.3107 11.8391L23.4929 19.0469C23.451 19.151 23.4291 19.2624 23.4286 19.375C23.4286 21.9234 26.0536 22.875 27.7143 22.875C29.375 22.875 32 21.9234 32 19.375C31.9994 19.2624 31.9776 19.151 31.9357 19.0469ZM12.2857 24.625C11.4821 24.625 9.84286 24.2312 9.725 23.0281L12.2857 16.4766L14.8464 23.0281C14.7286 24.2312 13.0893 24.625 12.2857 24.625ZM27.7143 21.125C26.9107 21.125 25.2714 20.7312 25.1536 19.5281L27.7143 12.9766L30.275 19.5281C30.1571 20.7312 28.5179 21.125 27.7143 21.125Z"/>
</svg>
