<svg id="q" viewBox="0 0 28 28" xmlns="http://www.w3.org/2000/svg">
<path d="M26.9304 15.099L23.2161 5.51562L23.158 5.40781L23.0884 5.31198C23.0768 5.3 23.0768 5.3 23.0768 5.28802L22.9839 5.19219H22.9723L22.8911 5.13229L22.8679 5.10833L22.7634 5.04844H22.7518L22.6473 5.0125H22.6241L22.508 4.98854H22.1598L14.9286 6.59375V3.95833C14.9286 3.70417 14.8307 3.46041 14.6566 3.28069C14.4825 3.10097 14.2463 3 14 3C13.7537 3 13.5175 3.10097 13.3434 3.28069C13.1693 3.46041 13.0714 3.70417 13.0714 3.95833V7.025L5.44554 8.77396H5.36429L5.24821 8.82187H5.225L5.13214 8.86979C5.13214 8.87136 5.13184 8.87292 5.13126 8.87438C5.13068 8.87583 5.12982 8.87715 5.12874 8.87826C5.12767 8.87937 5.12639 8.88026 5.12498 8.88086C5.12357 8.88146 5.12206 8.88177 5.12054 8.88177L5.01607 8.96563C5.01607 8.9688 5.01485 8.97185 5.01267 8.9741C5.01049 8.97634 5.00754 8.9776 5.00446 8.9776L4.93482 9.06146H4.92321C4.89235 9.09146 4.86853 9.12833 4.85357 9.16927L4.83036 9.19323L4.78393 9.30104H4.77232L1.06964 18.9323C1.02424 19.0463 1.0006 19.1684 1 19.2917C1 22.0828 3.84375 23.125 5.64286 23.125C7.44196 23.125 10.2857 22.0828 10.2857 19.2917C10.2851 19.1684 10.2615 19.0463 10.2161 18.9323L6.90804 10.4031L13.0714 8.98958V24.0833H11.2143C10.968 24.0833 10.7318 24.1843 10.5577 24.364C10.3835 24.5437 10.2857 24.7875 10.2857 25.0417C10.2857 25.2958 10.3835 25.5396 10.5577 25.7193C10.7318 25.899 10.968 26 11.2143 26H16.7857C17.032 26 17.2682 25.899 17.4423 25.7193C17.6165 25.5396 17.7143 25.2958 17.7143 25.0417C17.7143 24.7875 17.6165 24.5437 17.4423 24.364C17.2682 24.1843 17.032 24.0833 16.7857 24.0833H14.9286V8.55833L20.8366 7.20469L17.7839 15.099C17.7385 15.213 17.7149 15.335 17.7143 15.4583C17.7143 18.2495 20.558 19.2917 22.3571 19.2917C24.1562 19.2917 27 18.2495 27 15.4583C26.9994 15.335 26.9758 15.213 26.9304 15.099ZM5.64286 21.2083C4.77232 21.2083 2.99643 20.7771 2.86875 19.4594L5.64286 12.2839L8.41696 19.4594C8.28929 20.7771 6.51339 21.2083 5.64286 21.2083ZM22.3571 17.375C21.4866 17.375 19.7107 16.9437 19.583 15.626L22.3571 8.45052L25.1312 15.626C25.0036 16.9437 23.2277 17.375 22.3571 17.375Z"/>
</svg>
