<svg width="64" height="64" viewBox="0 0 64 64" fill="none" xmlns="http://www.w3.org/2000/svg">
<g clip-path="url(#clip0_368_6485)">
<path d="M7.45142 58H56.5486C56.8747 58 57.1872 57.8693 57.4162 57.6372C57.6452 57.405 57.7717 57.0908 57.7672 56.7647L57.6148 45.5323C57.6142 45.4891 57.6113 45.4461 57.6061 45.4032C57.2293 42.2735 55.8271 39.9844 53.3194 38.4052C51.1979 37.0694 48.6268 36.4207 45.9047 35.7339C43.6242 35.1586 41.2661 34.5637 39.2653 33.5371C38.8913 33.3453 38.445 33.3596 38.0844 33.575C37.7235 33.7904 37.4991 34.1764 37.4905 34.5965C37.4306 37.5089 36.793 40.45 35.5888 43.3969L34.8831 40.7314C35.0466 40.5896 35.1733 40.404 35.2435 40.1881L36.5317 36.2233C36.6948 35.7211 36.5162 35.1711 36.089 34.8607L34.4028 33.6356C34.1946 33.4842 33.9437 33.4028 33.6863 33.4028H30.3138C30.0564 33.4028 29.8056 33.4842 29.5973 33.6356L27.9111 34.8607C27.4839 35.1711 27.3053 35.7211 27.4684 36.2233L28.7566 40.1881C28.8268 40.404 28.9535 40.5896 29.1169 40.7314L28.4113 43.3969C27.2072 40.45 26.5695 37.5089 26.5097 34.5965C26.5011 34.1765 26.2766 33.7904 25.9158 33.575C25.5551 33.3597 25.1088 33.3454 24.7349 33.5371C22.734 34.5636 20.376 35.1586 18.0955 35.7339C15.3734 36.4207 12.8022 37.0693 10.6808 38.4052C8.17313 39.9844 6.77085 42.2735 6.39406 45.4032C6.38888 45.4461 6.38603 45.4892 6.38542 45.5323L6.23278 56.7647C6.22841 57.0908 6.35475 57.405 6.58378 57.6372C6.8128 57.8693 7.12531 58 7.45142 58ZM30.7096 35.8402H33.2902L33.9398 36.312L33.1989 38.5925H30.8011L30.0603 36.312L30.7096 35.8402ZM31.5592 41.03H32.4407L33.9614 46.7741C33.3786 47.8239 32.7255 48.8735 31.9999 49.9216C31.2743 48.8735 30.6212 47.8239 30.0384 46.7741L31.5592 41.03ZM8.82171 45.6319C9.44672 40.6738 12.9842 39.5373 18.6915 38.0973C20.5204 37.6359 22.3964 37.1626 24.1763 36.4583C24.6863 41.8921 26.9852 47.3591 31.0257 52.7358C31.2559 53.0422 31.6168 53.2224 32 53.2224C32.3832 53.2224 32.7441 53.0422 32.9743 52.7358C37.0147 47.3591 39.3136 41.8921 39.8237 36.4583C41.6035 37.1626 43.4796 37.6359 45.3084 38.0973C51.0157 39.5372 54.5533 40.6738 55.1783 45.6319L55.3132 55.5625H8.68683L8.82171 45.6319ZM32 30.521C38.7604 30.521 44.2605 25.021 44.2605 18.2605C44.2605 11.5 38.7605 6 32 6C25.2395 6 19.7395 11.5 19.7395 18.2605C19.7395 25.021 25.2396 30.521 32 30.521ZM32 8.4375C37.4164 8.4375 41.823 12.8441 41.823 18.2605C41.823 23.677 37.4165 28.0835 32 28.0835C26.5835 28.0835 22.177 23.677 22.177 18.2605C22.177 12.8441 26.5836 8.4375 32 8.4375Z" fill="black"/>
</g>
<defs>
<clipPath id="clip0_368_6485">
<rect width="52" height="52" fill="white" transform="translate(6 6)"/>
</clipPath>
</defs>
</svg>
