<svg width="76" height="76" viewBox="0 0 76 76" fill="none" xmlns="http://www.w3.org/2000/svg">
<path d="M52.417 20.3775C52.8827 20.1401 53.3311 19.8703 53.7589 19.57C57.2264 17.1357 58.2952 12.6588 56.1339 9.59502C53.9727 6.53128 49.4126 6.03253 45.9452 8.49065C42.4777 10.9488 40.6964 15.295 38.7608 20.3657L52.417 20.3775ZM10.332 36.1713H65.6814V64.315C65.6814 65.5748 65.181 66.783 64.2902 67.6738C63.3994 68.5646 62.1912 69.065 60.9314 69.065H15.082C13.8223 69.065 12.6141 68.5646 11.7233 67.6738C10.8325 66.783 10.332 65.5748 10.332 64.315V36.1713Z" stroke="#1AC954" stroke-width="3" stroke-linecap="round" stroke-linejoin="round"/>
<path d="M44.9465 36.1713H31.0527V69.065H44.9465V36.1713Z" stroke="#1AC954" stroke-width="3" stroke-linecap="round" stroke-linejoin="round"/>
<path d="M23.5841 20.3775C23.1208 20.1427 22.6761 19.8727 22.2541 19.57C18.7866 17.1357 17.7059 12.6588 19.8791 9.59502C22.0522 6.53128 26.6003 6.03253 30.0797 8.49065C33.5591 10.9488 35.3166 15.295 37.2641 20.3657L23.5841 20.3775Z" stroke="#1AC954" stroke-width="3" stroke-linecap="round" stroke-linejoin="round"/>
<path d="M64.7188 20.3775H11.2812C9.31374 20.3775 7.71875 21.9725 7.71875 23.94V32.6088C7.71875 34.5763 9.31374 36.1713 11.2812 36.1713H64.7188C66.6863 36.1713 68.2812 34.5763 68.2812 32.6088V23.94C68.2812 21.9725 66.6863 20.3775 64.7188 20.3775Z" stroke="#1AC954" stroke-width="3" stroke-linecap="round" stroke-linejoin="round"/>
<path d="M46.218 20.3775H29.7949V36.1713H46.218V20.3775Z" stroke="#1AC954" stroke-width="3" stroke-linecap="round" stroke-linejoin="round"/>
</svg>
