<svg width="78" height="78" viewBox="0 0 78 78" fill="none" xmlns="http://www.w3.org/2000/svg">
<path d="M74.9726 19.791C74.2741 19.2089 73.3427 18.9761 72.4114 19.2089L67.1726 20.2567C63.5636 20.9552 61.8173 22.9343 58.2084 27.0089C56.4621 28.988 54.3666 31.4328 51.3397 34.4597H49.2442C49.2442 34.3432 49.2442 34.3432 49.2442 34.2268C49.2442 29.2209 44.5875 25.8447 40.0472 26.7761C38.883 23.1671 35.2741 21.3044 31.7815 21.6537C30.8502 20.3731 29.686 19.4418 26.3099 15.9492C24.9129 14.5522 22.5845 14.5522 21.1875 15.9492L19.9069 17.2298L11.7576 9.08056L12.4562 8.38205C13.6203 7.21787 13.6203 5.35518 12.4562 4.19101C11.292 3.02683 9.31287 3.02683 8.26511 4.19101L2.56063 9.89548C1.39646 11.0597 1.39646 12.9223 2.56063 14.0865C3.72481 15.2507 5.5875 15.2507 6.75168 14.0865L7.45019 13.388L15.5994 21.5373C15.1338 22.2358 12.3397 23.7492 13.5039 26.6597C10.1278 27.4746 7.5666 30.6179 7.68302 34.3432C6.75168 34.4597 4.42332 33.7612 3.02631 35.8567C2.44422 36.788 2.3278 38.0686 2.79347 39.1164L11.4084 59.1403C11.5248 59.3731 11.6412 59.6059 11.8741 59.8388L10.4771 61.7015C9.77854 61.4686 9.08004 61.3522 8.38153 61.3522C4.77257 61.3522 1.86213 64.2627 1.86213 67.8716C1.86213 71.4806 4.77257 74.391 8.38153 74.391C11.9905 74.391 14.9009 71.4806 14.9009 67.8716C14.9009 65.7761 13.9696 63.9134 12.3397 62.7492L13.6203 61.1194C13.9696 61.2358 14.2024 61.2358 14.5517 61.2358H34.1099L45.4024 73.8089C45.7517 74.2746 46.3338 74.5074 46.9159 74.5074C47.1487 74.5074 47.3815 74.5074 47.6144 74.391C48.4293 74.1582 48.895 73.3433 48.895 72.5283V60.5373C48.895 60.5373 48.895 60.5373 48.895 60.4209L54.8323 40.0477C58.4412 36.2059 60.886 33.5283 62.7487 31.4328C66.1248 27.591 66.9397 26.7761 68.9188 26.4268L73.2263 25.6119C74.9726 25.2626 76.1367 23.7492 76.0203 22.1194C76.1367 21.188 75.6711 20.3731 74.9726 19.791ZM8.49795 72.2955C6.05317 72.2955 4.19048 70.3164 4.19048 67.988C4.19048 65.6597 6.16959 63.6806 8.49795 63.6806C10.8263 63.6806 12.8054 65.6597 12.8054 67.988C12.8054 70.3164 10.9427 72.2955 8.49795 72.2955ZM4.19048 12.5731C3.84123 12.2238 3.84123 11.7582 4.19048 11.4089L9.77854 5.82086C10.1278 5.4716 10.5935 5.4716 10.9427 5.82086C11.292 6.17011 11.292 6.63578 10.9427 6.98504L5.23825 12.6895C5.00541 12.9223 4.42332 12.8059 4.19048 12.5731ZM9.08004 11.8746L10.3606 10.594L18.5099 18.7432L17.2293 20.0238L9.08004 11.8746ZM15.9487 24.4477L22.9338 17.4626C23.5159 16.8806 24.4472 16.8806 24.9129 17.4626C26.892 19.5582 28.9875 21.5373 29.686 22.2358C29.3368 22.4686 28.8711 22.585 28.5218 22.9343C24.4472 20.0238 18.5099 21.8865 16.88 26.6597C16.5308 26.5432 16.2979 26.5432 15.9487 26.5432L15.8323 26.4268C15.3666 25.9612 15.3666 25.0298 15.9487 24.4477ZM17.3457 29.1044C18.0442 29.3373 18.7427 28.988 18.8591 28.2895C19.5576 23.982 24.7965 22.3522 27.8233 25.1462C29.3368 26.5432 30.3845 22.585 34.692 23.9821C36.5547 24.6806 37.9517 26.194 38.3009 28.1731C38.4173 28.8716 39.1159 29.2209 39.8144 28.988C43.1905 27.7074 47.1487 30.1522 47.1487 34.1104C47.1487 34.2268 47.1487 34.2268 47.1487 34.3432H10.0114C9.77854 30.6179 13.7368 27.7074 17.3457 29.1044ZM37.3696 61.2358H46.9159V71.9462L37.3696 61.2358ZM47.2651 59.1403H14.7845C14.2024 59.1403 13.7368 58.791 13.5039 58.3253C4.88899 37.7194 4.3069 38.185 5.00541 37.2537C5.5875 36.4388 2.44421 36.6716 53.3188 36.6716C54.3666 36.6716 53.3188 37.4865 47.2651 59.1403ZM73.1099 23.5164L68.686 24.3313C65.892 24.9134 64.7278 26.194 61.2353 30.0358C59.8382 31.5492 58.092 33.6447 55.6472 36.2059C55.4144 35.5074 54.9487 34.9253 54.1338 34.5761C56.5785 32.0149 58.3248 30.0358 59.8382 28.2895C63.2144 24.4477 64.7278 22.8179 67.5218 22.2358L72.7606 21.188C73.1099 21.188 73.3427 21.188 73.5756 21.4209C73.8084 21.6537 73.9248 21.8865 74.0412 22.2358C74.1576 22.9343 73.692 23.4 73.1099 23.5164Z" fill="#1CCA56"/>
<path d="M48.3143 42.3761H30.8516C30.2695 42.3761 29.8038 42.8418 29.8038 43.4239C29.8038 44.0059 30.2695 44.4716 30.8516 44.4716H48.3143C48.8964 44.4716 49.362 44.0059 49.362 43.4239C49.362 42.8418 48.8964 42.3761 48.3143 42.3761ZM32.7143 50.6418H15.9501C15.368 50.6418 14.9023 51.1074 14.9023 51.6895C14.9023 52.2716 15.368 52.7373 15.9501 52.7373H32.8307C33.4128 52.7373 33.8785 52.2716 33.8785 51.6895C33.8785 51.1074 33.2964 50.6418 32.7143 50.6418Z" fill="#1CCA56"/>
</svg>
