<svg width="48" height="48" viewBox="0 0 48 48" fill="none" xmlns="http://www.w3.org/2000/svg">
<path d="M26.4004 39.6C28.8004 39.36 30.9604 38.4 32.8804 36.48C35.0404 34.32 36.0004 31.44 36.0004 28.8C36.0004 28.08 35.5204 27.6 34.8004 27.6C31.9204 27.6 29.2804 28.56 27.1204 30.72L26.4004 31.44" stroke="#1AC954" stroke-width="1.7" stroke-miterlimit="10"/>
<path d="M21.1195 39.6C18.7195 39.36 16.5595 38.4 14.6395 36.48C12.4795 34.32 11.5195 31.44 11.5195 28.8C11.5195 28.08 11.9995 27.6 12.7195 27.6C15.5995 27.6 18.2395 28.56 20.3995 30.72L21.1195 31.44" stroke="#1AC954" stroke-width="1.7" stroke-miterlimit="10" stroke-linecap="round" stroke-linejoin="round"/>
<path d="M26.6397 26.4C28.5597 26.16 30.2397 25.2 31.6797 23.76C33.3597 22.08 34.3197 19.92 34.3197 17.52C34.3197 16.8 33.5997 16.08 32.8797 16.08C30.7197 16.08 28.3197 17.04 26.6397 18.72C25.1997 20.16 24.4797 21.84 23.9997 23.76M21.3597 26.4C19.4397 26.16 17.7597 25.2 16.3197 23.76C14.6397 22.08 13.6797 19.92 13.6797 17.76C13.6797 16.8 14.3997 16.32 15.1197 16.32C17.2797 16.32 19.6797 17.28 21.3597 18.96C22.7997 20.4 23.5197 22.08 23.9997 24M19.1997 11.04C19.9197 13.44 21.5997 15.12 23.5197 16.32C23.9997 16.56 24.7197 16.32 24.9597 15.84C25.9197 13.92 26.3997 11.52 25.6797 9.12C24.9597 6.72 23.2797 5.04 21.3597 3.84C20.8797 3.6 20.1597 3.84 19.9197 4.32C18.7197 6.24 18.4797 8.64 19.1997 11.04Z" stroke="#1AC954" stroke-width="1.7" stroke-miterlimit="10"/>
<path d="M26.3996 42C26.3996 43.44 25.4396 44.4 23.9996 44.4C22.5596 44.4 21.5996 43.44 21.5996 42V25.2C21.5996 23.76 22.5596 22.8 23.9996 22.8C25.4396 22.8 26.3996 23.76 26.3996 25.2V42Z" stroke="#1AC954" stroke-width="1.7" stroke-miterlimit="10"/>
<path d="M26.3996 42C26.3996 43.44 25.4396 44.4 23.9996 44.4C22.5596 44.4 21.5996 43.44 21.5996 42V25.2C21.5996 23.76 22.5596 22.8 23.9996 22.8C25.4396 22.8 26.3996 23.76 26.3996 25.2V42Z" stroke="#1AC954" stroke-width="1.7" stroke-miterlimit="10"/>
</svg>
