<svg width="48" height="48" viewBox="0 0 48 48" fill="none" xmlns="http://www.w3.org/2000/svg">
<g id="delivery">
<path id="Vector" d="M20.1522 46C19.363 46 18.3662 45.7181 16.37 44.5586C15.2366 43.8987 14.142 43.1672 13.0921 42.3682L8.45688 43.8344C8.33052 43.8742 8.19704 43.8821 8.06723 43.8575C7.93743 43.8329 7.81495 43.7764 7.70969 43.6925C5.21104 41.7086 3.26169 39.0551 2.06417 36.0078C2.013 35.8777 1.99195 35.7367 2.00276 35.5963C2.01357 35.4559 2.05593 35.3203 2.12633 35.2007C2.19674 35.081 2.29316 34.9808 2.4076 34.9082C2.52205 34.8357 2.65124 34.793 2.78446 34.7836C5.21797 34.6233 7.60202 33.9872 9.8151 32.9078C10.5836 32.53 11.3276 32.0991 12.0424 31.618C13.0319 30.886 14.0784 30.2437 15.1707 29.698C15.8443 29.3882 16.5341 29.1189 17.2366 28.8913C17.2996 28.8735 17.4055 28.8434 17.5425 28.8009L17.6829 28.7548C17.8182 28.7104 17.9434 28.6688 18.2418 28.5863C18.525 28.5092 18.9058 28.4117 19.3764 28.3098C20.4425 28.0402 21.5416 27.9457 22.635 28.0296C23.1235 28.0675 23.6069 28.1593 24.0773 28.3036C24.7009 28.5003 25.2598 28.7406 25.8002 28.9719C26.3808 29.2343 26.9748 29.4622 27.5795 29.6545C28.1009 29.8119 28.6359 29.9138 29.1765 29.9586C29.7118 30.0126 30.3784 30.08 30.6675 30.8264C30.7539 31.0788 30.7846 31.3487 30.7574 31.6154C30.7301 31.8822 30.6457 32.139 30.5103 32.3662C30.1417 33.1227 29.5416 33.7257 28.8073 34.0773C28.073 34.4289 27.2476 34.5085 26.4651 34.3031C26.2331 34.2659 26.0221 34.2233 25.828 34.1755C26.1169 34.3943 26.4196 34.5922 26.734 34.7676C27.9244 35.4292 29.2551 35.7597 30.6002 35.7277L33.1385 35.7268C33.3464 35.727 33.547 35.8084 33.7013 35.9555C33.8556 36.1025 33.9527 36.3046 33.9739 36.5228C34.0575 37.2392 33.9391 37.9656 33.6335 38.6113C32.8351 40.2442 30.8347 41.0739 28.5806 40.7371C26.8607 42.1505 25.0946 43.5002 23.2855 44.7838C22.4341 45.4742 21.4136 45.8943 20.3438 45.9947C20.28 45.9981 20.2161 45.9999 20.1522 46ZM13.251 40.5057C13.4311 40.5059 13.6064 40.5671 13.7511 40.6803C14.8436 41.5353 15.9892 42.3121 17.1802 43.0055C19.3655 44.2741 19.9664 44.2395 20.2547 44.2244C21.0208 44.1375 21.7471 43.8206 22.3475 43.3114C24.2253 41.9792 26.056 40.5747 27.8359 39.1007C27.9306 39.0221 28.0404 38.966 28.1576 38.9363C28.2748 38.9066 28.3967 38.904 28.515 38.9287C30.1321 39.2602 31.6567 38.7851 32.1392 37.7993C32.1858 37.7037 32.223 37.6033 32.2501 37.4997H30.6204C29.0508 37.5366 27.4968 37.1643 26.0964 36.4158C24.6959 35.6674 23.4922 34.5659 22.5921 33.2092C22.2325 33.1836 21.8717 33.1839 21.5121 33.2101C21.3608 33.2216 21.2347 33.2349 21.1507 33.2456C20.9292 33.2726 20.7067 33.2058 20.5319 33.0597C20.3572 32.9137 20.2446 32.7004 20.219 32.4668C20.1934 32.2332 20.2568 31.9985 20.3952 31.8142C20.5337 31.6299 20.7359 31.5112 20.9574 31.4842C21.0582 31.4718 21.2095 31.4558 21.3961 31.4416C21.9828 31.3996 22.5718 31.4136 23.1561 31.4833L23.1721 31.4851C23.792 31.5683 24.3971 31.7466 24.9682 32.0143C25.5278 32.2724 26.1169 32.4527 26.7206 32.5506C27.0207 32.6314 27.3324 32.6534 27.6401 32.6153C28.1519 32.4768 28.6038 32.1589 28.9218 31.7138C28.3106 31.6568 27.7061 31.538 27.1164 31.3592C26.4538 31.1494 25.8028 30.9008 25.1665 30.6146C24.6395 30.3876 24.142 30.1749 23.5948 30.002C23.2363 29.8927 22.8678 29.8238 22.4955 29.7964C21.5611 29.7291 20.6226 29.8138 19.7126 30.0472C19.2773 30.1412 18.9251 30.2316 18.6637 30.3025C18.4074 30.3734 18.3006 30.4089 18.1846 30.4461L18.0241 30.4993C17.8644 30.549 17.7409 30.5844 17.6904 30.5977C17.0692 30.8021 16.4587 31.0412 15.8615 31.314C14.8572 31.82 13.8943 32.413 12.9829 33.0869C12.1945 33.6199 11.3732 34.0967 10.5245 34.5141C8.49155 35.5088 6.32193 36.1572 4.09645 36.4351C5.12691 38.598 6.59129 40.4985 8.38796 42.0047L13.0098 40.5438C13.088 40.5191 13.1693 40.5057 13.251 40.5057Z" fill="#1AC954"/>
<path id="Vector_2" d="M39.1622 38H33.2066C32.9844 38 32.7713 37.9097 32.6142 37.7489C32.457 37.5882 32.3688 37.3702 32.3688 37.1429C32.3688 36.9155 32.457 36.6975 32.6142 36.5368C32.7713 36.376 32.9844 36.2857 33.2066 36.2857H38.3243V9.71429H10.6757V33.7143C10.6757 33.9416 10.5874 34.1596 10.4303 34.3204C10.2732 34.4811 10.06 34.5714 9.83784 34.5714C9.61563 34.5714 9.40252 34.4811 9.2454 34.3204C9.08827 34.1596 9 33.9416 9 33.7143V8.85714C9 8.62981 9.08827 8.4118 9.2454 8.25105C9.40252 8.09031 9.61563 8 9.83784 8H39.1622C39.3844 8 39.5975 8.09031 39.7546 8.25105C39.9117 8.4118 40 8.62981 40 8.85714V37.1429C40 37.3702 39.9117 37.5882 39.7546 37.7489C39.5975 37.9097 39.3844 38 39.1622 38Z" fill="#1AC954"/>
<path id="Vector_3" d="M27.2 16H20.8C20.5878 16 20.3843 15.9157 20.2343 15.7657C20.0843 15.6157 20 15.4122 20 15.2V8.8C20 8.58783 20.0843 8.38434 20.2343 8.23431C20.3843 8.08429 20.5878 8 20.8 8H27.2C27.4122 8 27.6157 8.08429 27.7657 8.23431C27.9157 8.38434 28 8.58783 28 8.8V15.2C28 15.4122 27.9157 15.6157 27.7657 15.7657C27.6157 15.9157 27.4122 16 27.2 16ZM21.6 14.4H26.4V9.6H21.6V14.4Z" fill="#1AC954"/>
</g>
</svg>
