<svg width="48" height="48" viewBox="0 0 48 48" fill="none" xmlns="http://www.w3.org/2000/svg">
<g id="chats 1">
<path id="Vector" d="M13.872 28.3529L7 34V11.4118C7 11.0373 7.14633 10.6783 7.4068 10.4135C7.66726 10.1487 8.02053 10 8.38889 10H30.6111C30.9795 10 31.3327 10.1487 31.5932 10.4135C31.8537 10.6783 32 11.0373 32 11.4118V26.9412C32 27.3156 31.8537 27.6747 31.5932 27.9394C31.3327 28.2042 30.9795 28.3529 30.6111 28.3529H13.872Z" stroke="#1AC954" stroke-width="1.5" stroke-linecap="round" stroke-linejoin="round"/>
<path id="Vector_2" d="M16 28.5V34.9412C16 35.3156 16.1463 35.6747 16.4068 35.9394C16.6673 36.2042 17.0205 36.3529 17.3889 36.3529H34.128L41 42V19.4118C41 19.0373 40.8537 18.6783 40.5932 18.4135C40.3327 18.1487 39.9795 18 39.6111 18H32.6667" stroke="#1AC954" stroke-width="1.5" stroke-linecap="round" stroke-linejoin="round"/>
</g>
</svg>
