<svg width="69.160645" height="59.245117" viewBox="0 0 69.1606 59.2451" fill="none" xmlns="http://www.w3.org/2000/svg" xmlns:xlink="http://www.w3.org/1999/xlink">
	<desc>
			Created with Pixso.
	</desc>
	<defs/>
	<path id="Vector" d="M66.7458 23.9351C65.7742 22.936 64.5581 22.1313 63.1836 21.5786C61.8093 21.0259 60.3101 20.7383 58.7917 20.7358L43.0217 20.7358L44.9583 16.5C45.7639 14.645 46.0322 12.6509 45.7402 10.6875C45.448 8.72461 44.6045 6.85156 43.2817 5.229C41.959 3.60693 40.1963 2.2832 38.1453 1.37256C36.0942 0.461914 33.8157 -0.00927734 31.5054 0C30.8401 0.00146484 30.1895 0.166992 29.6313 0.477051C29.073 0.786621 28.6311 1.22803 28.3584 1.74805L18.5022 20.7358L10.375 20.7358C7.62329 20.7358 4.98438 21.6724 3.03882 23.3389C1.09302 25.0054 0 27.2656 0 29.6226L0 50.3584C0 52.7153 1.09302 54.9761 3.03882 56.6426C4.98438 58.3091 7.62329 59.2451 10.375 59.2451L54.3997 59.2451C56.8267 59.2446 59.1768 58.5151 61.0408 57.1836C62.9048 55.8521 64.1648 54.0034 64.6016 51.958L68.9937 31.2222C69.2654 29.9409 69.2048 28.624 68.8164 27.3647C68.428 26.1055 67.7212 24.9346 66.7458 23.9351ZM17.2917 53.3208L10.375 53.3208C9.45776 53.3208 8.57812 53.0088 7.92969 52.4531C7.28101 51.8975 6.91675 51.144 6.91675 50.3584L6.91675 29.6226C6.91675 28.8369 7.28101 28.0835 7.92969 27.5283C8.57812 26.9727 9.45776 26.6606 10.375 26.6606L17.2917 26.6606L17.2917 53.3208ZM62.25 30.1558L57.8579 50.8916C57.7107 51.582 57.2822 52.2046 56.6489 52.6494C56.0156 53.0942 55.2185 53.332 54.3997 53.3208L24.2083 53.3208L24.2083 24.3203L33.615 6.19141C34.5833 6.43311 35.4824 6.84424 36.2559 7.39844C37.0295 7.95312 37.6604 8.63867 38.1086 9.4126C38.5571 10.1865 38.8135 11.0317 38.8616 11.8945C38.9094 12.7573 38.748 13.6196 38.3875 14.4263L36.5547 18.6626C36.1641 19.5576 36.0322 20.5205 36.1702 21.4692C36.3083 22.4175 36.7124 23.3232 37.3477 24.1094C37.9832 24.895 38.8308 25.5376 39.8188 25.9814C40.8069 26.4258 41.9058 26.6587 43.0217 26.6606L58.7917 26.6606C59.2998 26.6597 59.8018 26.7549 60.262 26.9395C60.7222 27.1235 61.1294 27.3926 61.4546 27.7271C61.7878 28.0566 62.0317 28.4453 62.1692 28.8652C62.3069 29.2852 62.3342 29.7261 62.25 30.1558Z" fill="#1AC954" fill-opacity="1.000000" fill-rule="nonzero"/>
	<path id="Vector" d="M18.5022 20.7358L10.375 20.7358C7.62329 20.7358 4.98438 21.6724 3.03882 23.3389C1.09302 25.0054 0 27.2656 0 29.6226L0 50.3584C0 52.7153 1.09302 54.9761 3.03882 56.6426C4.98438 58.3091 7.62329 59.2451 10.375 59.2451L54.3997 59.2451C56.8267 59.2446 59.1768 58.5151 61.0408 57.1836C62.9048 55.8521 64.1648 54.0034 64.6016 51.958L68.9937 31.2222C69.2654 29.9409 69.2048 28.624 68.8164 27.3647C68.428 26.1055 67.7212 24.9346 66.7458 23.9351C65.7742 22.936 64.5581 22.1313 63.1836 21.5786C61.8093 21.0259 60.3101 20.7383 58.7917 20.7358L43.0217 20.7358L43.8447 18.936L44.9583 16.5C45.7639 14.645 46.0322 12.6509 45.7402 10.6875C45.448 8.72461 44.6045 6.85156 43.2817 5.229C41.959 3.60693 40.1963 2.2832 38.1453 1.37256C36.0942 0.461914 33.8157 -0.00927734 31.5054 0C30.8401 0.00146484 30.1895 0.166992 29.6313 0.477051C29.073 0.786621 28.6311 1.22803 28.3584 1.74805L18.5022 20.7358ZM61.4419 22.8882Q61.9856 23.0371 62.512 23.2485Q64.0854 23.8813 65.2292 24.9668Q65.3457 25.0771 65.4575 25.1924Q66.429 26.188 66.9131 27.3809Q67.0156 27.6338 67.0964 27.895Q67.3359 28.6719 67.3599 29.4556Q67.3811 30.1499 67.2329 30.8496L62.8413 51.582Q62.6899 52.2905 62.3931 52.9316Q61.6499 54.5366 59.9944 55.7188Q59.2261 56.2676 58.3806 56.6421Q56.5676 57.4448 54.3997 57.4453L10.375 57.4453Q7.92529 57.4453 5.97534 56.458Q5.03418 55.9819 4.20972 55.2754Q2.64331 53.9336 2.09521 52.2588Q1.80005 51.3569 1.80005 50.3584L1.80005 29.6226Q1.80005 28.6245 2.09521 27.7227Q2.64331 26.0474 4.20972 24.7061Q5.03418 23.9995 5.97534 23.5234Q7.92529 22.5361 10.375 22.5361L19.5957 22.5361L29.9521 2.58447Q30.1201 2.26416 30.5051 2.05029Q30.5828 2.00732 30.6638 1.97168Q31.0508 1.80078 31.5127 1.80029Q33.6584 1.7915 35.6345 2.36621Q36.5425 2.63037 37.4148 3.01758Q39.7634 4.06055 41.3811 5.78809Q41.6433 6.06836 41.8867 6.3667Q43.1165 7.875 43.6514 9.59863Q43.8567 10.2598 43.9597 10.9526Q44.1331 12.1182 44.0024 13.2485Q43.855 14.5225 43.3213 15.7515L40.2195 22.5361L58.7891 22.5361Q60.1631 22.5381 61.4419 22.8882ZM59.1392 52.5503Q59.4705 51.9604 59.6182 51.2676L59.6189 51.2646L64.0164 30.5024Q64.1216 29.9663 64.0938 29.437Q64.064 28.8672 63.8799 28.3052Q63.717 27.8076 63.4541 27.3706Q63.1616 26.8843 62.7451 26.4722Q62.54 26.2612 62.314 26.0767Q61.7009 25.5767 60.9312 25.2681Q60.5232 25.105 60.0999 25.0068Q59.4629 24.8594 58.7917 24.8604L43.0244 24.8604Q42.0803 24.8589 41.2192 24.5908Q40.8818 24.4858 40.5571 24.3398Q39.5278 23.877 38.854 23.1045Q38.7996 23.042 38.7473 22.9775Q38.2378 22.3472 38.0398 21.6309Q37.9827 21.4238 37.9514 21.21Q37.8989 20.8491 37.9248 20.4941Q37.9661 19.9282 38.2065 19.377L40.0308 15.1606Q40.4478 14.228 40.5928 13.2544Q40.7 12.5356 40.6587 11.7944Q40.6218 11.1323 40.469 10.498Q40.2207 9.46729 39.666 8.51025Q39.4666 8.16602 39.2351 7.84473Q38.4526 6.7583 37.3047 5.93555Q36.9729 5.69775 36.623 5.49072Q35.4412 4.79199 34.051 4.44482L32.6719 4.10059L22.4084 23.8813L22.4084 55.1206L54.3745 55.1206Q55.4868 55.1362 56.457 54.7725Q57.1016 54.5312 57.6833 54.1226Q58.6289 53.4585 59.1392 52.5503ZM33.615 6.19141C34.5833 6.43311 35.4824 6.84424 36.2559 7.39844C37.0295 7.95312 37.6604 8.63867 38.1086 9.4126C38.5571 10.1865 38.8135 11.0317 38.8616 11.8945C38.9094 12.7573 38.748 13.6196 38.3875 14.4263L36.5547 18.6626C36.1641 19.5576 36.0322 20.5205 36.1702 21.4692C36.3083 22.4175 36.7124 23.3232 37.3477 24.1094C37.9832 24.895 38.8308 25.5376 39.8188 25.9814C40.8069 26.4258 41.9058 26.6587 43.0217 26.6606L58.7917 26.6606C59.2998 26.6597 59.8018 26.7549 60.262 26.9395C60.7222 27.1235 61.1294 27.3926 61.4546 27.7271C61.7878 28.0566 62.0317 28.4453 62.1692 28.8652C62.3069 29.2852 62.3342 29.7261 62.25 30.1558L57.8579 50.8916C57.7107 51.582 57.2822 52.2046 56.6489 52.6494C56.0156 53.0942 55.2185 53.332 54.3997 53.3208L24.2083 53.3208L24.2083 24.3203L33.615 6.19141ZM8.06665 54.6528Q9.1167 55.1206 10.375 55.1206L19.0916 55.1206L19.0916 24.8604L10.375 24.8604Q9.1167 24.8604 8.06665 25.3286Q7.36621 25.6406 6.75854 26.1611Q5.81909 26.9658 5.41724 27.9829Q5.1167 28.7437 5.1167 29.6226L5.1167 50.3584Q5.1167 51.2378 5.41724 51.9985Q5.81909 53.0156 6.75854 53.8203Q7.36621 54.3408 8.06665 54.6528ZM15.4917 53.3208L10.375 53.3208C9.45776 53.3208 8.57812 53.0088 7.92969 52.4531C7.28101 51.8975 6.91675 51.144 6.91675 50.3584L6.91675 29.6226C6.91675 28.8369 7.28101 28.0835 7.92969 27.5283C8.57812 26.9727 9.45776 26.6606 10.375 26.6606L15.4917 26.6606L17.2917 26.6606L17.2917 53.3208L15.4917 53.3208Z" fill="#EDF3F5" fill-opacity="1.000000" fill-rule="evenodd"/>
</svg>
