<svg width="63" height="84" viewBox="0 0 63 84" fill="none" xmlns="http://www.w3.org/2000/svg">
<path d="M61.5033 17.6628L31.4358 1.16202C30.9897 0.916833 30.4551 0.920274 30.0124 1.17062L0.776852 17.6714C0.297375 17.9424 0 18.4603 0 19.0238V40.5779C0.0175419 58.296 10.2102 74.3253 25.9727 81.4237L30.0308 83.245C30.41 83.4153 30.8419 83.4162 31.2219 83.2467L35.7945 81.2129C51.8494 74.2685 62.2943 58.0844 62.296 40.1504V19.0238C62.296 18.4542 61.9911 17.9303 61.5033 17.6628ZM59.3022 40.1504C59.2989 56.8481 49.5715 71.9147 34.6225 78.3765L34.6125 78.3816L30.6305 80.1522L27.1706 78.5976C12.4981 71.9904 3.00967 57.0709 2.99297 40.5779V19.9365L30.7416 4.27376L59.3022 19.9477V40.1504Z" fill="#1AC954"/>
<path d="M19.6984 39.5783C19.1613 38.9305 18.2166 38.8539 17.5876 39.4071C16.9586 39.9594 16.8842 40.9333 17.4213 41.5802L25.3285 51.1168C25.8564 51.7534 26.7811 51.8403 27.411 51.312L45.8265 35.8815C46.4681 35.3447 46.565 34.3734 46.0429 33.7127C45.5216 33.0528 44.5786 32.9522 43.937 33.4899L26.6558 47.9689L19.6984 39.5783Z" fill="#1AC954"/>
</svg>
