<svg width="70" height="70" viewBox="0 0 70 70" fill="none" xmlns="http://www.w3.org/2000/svg">
<path d="M50.6711 42.6417C50.309 42.6417 50.0155 42.9364 50.0155 43.2999V45.7091C50.0155 46.7996 49.1351 47.6837 48.049 47.6837H21.2776C20.1915 47.6837 19.311 46.7996 19.311 45.7091V24.6456C19.311 23.5551 20.1915 22.671 21.2776 22.671H27.7148C28.0768 22.671 28.3703 22.3763 28.3703 22.0127C28.3703 21.6492 28.0768 21.3545 27.7148 21.3545H21.2776C19.4674 21.3545 18 22.828 18 24.6456V45.7091C18 47.5267 19.4674 49.0002 21.2776 49.0002H48.049C49.8562 48.993 51.3194 47.5237 51.3266 45.7091V43.2999C51.3266 42.9364 51.0331 42.6417 50.6711 42.6417Z" fill="#1AC954"/>
<path d="M51.4315 31.6358H51.3266V24.6454C51.3194 22.8307 49.8562 21.3614 48.049 21.3542C47.687 21.3542 47.3935 21.6489 47.3935 22.0124C47.3935 22.376 47.687 22.6707 48.049 22.6707C49.1351 22.6707 50.0155 23.5548 50.0155 24.6454V25.014H49.2814L45.3482 21.0646L42.4902 18.1947C42.3671 18.0701 42.1996 18 42.0248 18C41.85 18 41.6824 18.0701 41.5593 18.1947L38.0982 21.6702L34.624 18.1947C34.3646 17.9422 33.9525 17.9422 33.6931 18.1947L26.9019 25.014H24.5552C24.1932 25.014 23.8997 25.3087 23.8997 25.6722C23.8997 26.0357 24.1932 26.3304 24.5552 26.3304H50.0155V31.5963H46.1873C43.6531 31.5963 41.5987 33.6592 41.5987 36.2039V36.7042C41.5987 39.2489 43.6531 41.3118 46.1873 41.3118H51.4315C52.5176 41.3118 53.398 40.4277 53.398 39.3371V33.6105C53.398 32.5199 52.5176 31.6358 51.4315 31.6358ZM42.0313 19.5902L43.9323 21.499C42.7827 22.2746 41.28 22.2746 40.1303 21.499L42.0313 19.5902ZM39.1995 22.4337C40.8717 23.7154 43.191 23.7154 44.8632 22.4337L47.4852 25.0666H41.4151L39.0159 22.6049L39.1995 22.4337ZM31.5955 25.0666L35.5286 21.1173L36.4463 22.0388L33.4309 25.014L31.5955 25.0666ZM37.4296 22.9208L39.6321 25.014H35.2795L37.4296 22.9208ZM34.1651 19.5902L34.6502 20.0772L29.7338 25.014H28.7636L34.1651 19.5902ZM52.087 39.3371C52.087 39.7006 51.7935 39.9953 51.4315 39.9953H46.1873C45.318 39.9953 44.4844 39.6486 43.8697 39.0314C43.255 38.4142 42.9097 37.577 42.9097 36.7042V36.2039C42.9097 34.3863 44.3771 32.9128 46.1873 32.9128H51.4315C51.7935 32.9128 52.087 33.2075 52.087 33.571V39.3371Z" fill="#1AC954"/>
<path d="M46.2928 37.8102C47.0169 37.8102 47.6038 37.2208 47.6038 36.4937C47.6038 35.7666 47.0169 35.1772 46.2928 35.1772C45.5687 35.1772 44.9818 35.7666 44.9818 36.4937C44.9818 37.2208 45.5687 37.8102 46.2928 37.8102Z" fill="#1AC954"/>
</svg>
