<svg width="70" height="70" viewBox="0 0 70 70" fill="none" xmlns="http://www.w3.org/2000/svg">
<path d="M25.1617 56H44.2289C45.9719 56 47.3906 54.5813 47.3906 52.8383V49.5846V17.2944V14.1617C47.3906 12.4187 45.9719 11 44.2289 11H25.1617C23.4187 11 22 12.4187 22 14.1617V17.2944V49.5797V52.8334C22 54.5813 23.4187 56 25.1617 56ZM44.2289 54.5475H25.1617C24.2176 54.5475 23.4526 53.7824 23.4526 52.8383V52.2379C23.9464 52.5575 24.5323 52.7463 25.1617 52.7463H44.2289C44.8583 52.7463 45.4442 52.5575 45.938 52.2379V52.8334C45.938 53.7776 45.173 54.5475 44.2289 54.5475ZM23.4526 17.2944C23.4526 16.3502 24.2176 15.5852 25.1617 15.5852H44.2289C45.173 15.5852 45.938 16.3551 45.938 17.2944V49.5797C45.938 50.5239 45.173 51.2889 44.2289 51.2889H25.1617C24.2176 51.2889 23.4526 50.519 23.4526 49.5797V17.2944ZM25.1617 12.4526H44.2289C45.173 12.4526 45.938 13.2176 45.938 14.1617V14.6362C45.4442 14.3215 44.8583 14.1327 44.2289 14.1327H25.1617C24.5323 14.1327 23.9464 14.3215 23.4526 14.6411V14.1666C23.4526 13.2224 24.2176 12.4526 25.1617 12.4526Z" fill="#1AC954"/>
<path d="M30.4892 36.5411C30.6732 36.5411 30.862 36.4685 31.0024 36.3281L37.5873 29.7432C37.873 29.4575 37.873 28.9975 37.5873 28.7167C37.3017 28.431 36.8417 28.431 36.5609 28.7167L29.976 35.3016C29.6903 35.5873 29.6903 36.0472 29.976 36.3281C30.1164 36.4733 30.3052 36.5411 30.4892 36.5411Z" fill="#1AC954"/>
<path d="M37.0155 31.8927L33.1518 35.7565C32.8661 36.0422 32.8661 36.5022 33.1518 36.783C33.2922 36.9234 33.481 36.996 33.665 36.996C33.849 36.996 34.0378 36.9234 34.1782 36.783L38.042 32.9192C38.3277 32.6335 38.3277 32.1736 38.042 31.8927C37.7563 31.6119 37.3012 31.6119 37.0155 31.8927Z" fill="#1AC954"/>
</svg>
