<svg width="74" height="74" viewBox="0 0 74 74" fill="none" xmlns="http://www.w3.org/2000/svg">
<path d="M37.1141 9.25C26.9275 9.25 18.6141 17.3206 18.6141 27.2852C18.6141 32.2108 20.6491 36.6647 23.9328 39.9184L18.4244 61.8224C18.3686 62.0418 18.3783 62.2728 18.4526 62.4867C18.5268 62.7007 18.6622 62.8881 18.842 63.0258C19.0217 63.1634 19.238 63.2453 19.4639 63.2611C19.6897 63.277 19.9153 63.2262 20.1126 63.1151L26.9252 59.2856L30.9212 66.0242C31.0377 66.222 31.2105 66.3806 31.4175 66.4799C31.6245 66.5792 31.8564 66.6146 32.0836 66.5816C32.3108 66.5486 32.523 66.4487 32.6932 66.2947C32.8635 66.1406 32.984 65.9394 33.0394 65.7166L37.0008 49.9801L40.9621 65.7166C41.0175 65.9394 41.138 66.1406 41.3083 66.2947C41.4785 66.4487 41.6907 66.5486 41.9179 66.5816C42.1451 66.6146 42.377 66.5792 42.584 66.4799C42.791 66.3806 42.9638 66.222 43.0803 66.0242L47.0763 59.2856L53.8889 63.1151C54.0862 63.2262 54.3118 63.277 54.5377 63.2611C54.7635 63.2453 54.9798 63.1634 55.1596 63.0258C55.3393 62.8881 55.4747 62.7007 55.549 62.4867C55.6232 62.2728 55.633 62.0418 55.5771 61.8224L50.1126 40.0988C53.5051 36.8312 55.6141 32.301 55.6141 27.2852C55.6141 17.3206 47.3006 9.25 37.1141 9.25ZM37.1141 11.5625C46.0843 11.5625 53.3016 18.6064 53.3016 27.2852C53.3016 35.964 46.0843 43.0079 37.1141 43.0079C28.1416 43.0079 20.9266 35.964 20.9266 27.2829C20.9266 18.6064 28.1416 11.5625 37.1141 11.5625ZM37.0447 19.9916C36.868 20.0014 36.696 20.05 36.5414 20.1337C36.3868 20.2174 36.2537 20.334 36.1521 20.4749L33.7633 23.7725L29.7927 24.9704C29.6142 25.0247 29.4516 25.1197 29.3186 25.2476C29.1856 25.3754 29.0859 25.5323 29.028 25.7052C28.97 25.8782 28.9555 26.0621 28.9855 26.2416C29.0156 26.4211 29.0893 26.591 29.2007 26.7371L31.6843 29.9746L31.6265 34.0123C31.6248 34.166 31.6551 34.3185 31.7156 34.4606C31.7762 34.6027 31.8656 34.7314 31.9786 34.8389C32.0916 34.9465 32.2258 35.0308 32.3731 35.0866C32.5204 35.1425 32.6779 35.1687 32.8359 35.1639C32.9534 35.16 33.0695 35.1389 33.1805 35.1014L37.1118 33.7995L41.043 35.1014C41.2205 35.1609 41.4101 35.178 41.5958 35.1513C41.7815 35.1247 41.9579 35.055 42.1102 34.9483C42.2625 34.8416 42.3862 34.7008 42.4709 34.538C42.5556 34.3751 42.5988 34.1948 42.597 34.0123L42.5415 29.9746L45.0274 26.7371C45.1387 26.5907 45.2123 26.4205 45.2421 26.2407C45.2718 26.061 45.2569 25.8769 45.1984 25.7039C45.14 25.5309 45.0399 25.374 44.9063 25.2464C44.7728 25.1188 44.6097 25.0242 44.4308 24.9704L40.4649 23.7725L38.0714 20.4726C37.9573 20.3136 37.8032 20.1855 37.624 20.1006C37.4447 20.0156 37.2461 19.9765 37.047 19.9869L37.0447 19.9916ZM37.1141 23.1065L38.7791 25.4005C38.9276 25.607 39.1422 25.7599 39.3896 25.8352L42.1553 26.6701L40.4209 28.9201C40.2662 29.1199 40.1833 29.3637 40.1851 29.6139L40.2313 32.4236L37.4933 31.5217C37.2475 31.44 36.9807 31.44 36.7348 31.5217L33.9968 32.4236L34.0431 29.6162C34.044 29.3647 33.9595 29.12 33.8026 28.9201L32.0682 26.6701L34.8363 25.8352C35.0819 25.7591 35.2948 25.6063 35.4421 25.4005L37.1141 23.1065ZM25.8984 41.5926C28.7789 43.7401 32.2181 45.0104 35.8029 45.251L31.4808 62.4282L28.3358 57.1349C28.1823 56.876 27.9337 56.6871 27.6431 56.6085C27.3525 56.5299 27.0427 56.5678 26.7795 56.7141L21.322 59.7827L25.8984 41.5926ZM48.1378 41.7314L52.6818 59.7827L47.222 56.7141C46.9586 56.5671 46.6483 56.5288 46.3571 56.6074C46.0659 56.6861 45.817 56.8754 45.6634 57.1349L42.5184 62.4306L38.2033 45.2649C41.7852 45.0667 45.2343 43.8407 48.1378 41.7337V41.7314Z" fill="#1AC954"/>
</svg>
