<svg width="42" height="42" viewBox="0 0 42 42" fill="none" xmlns="http://www.w3.org/2000/svg">
<g id="calculator (3) 1">
<path id="Vector" d="M28.7155 7.5H13.287C12.1941 7.5 11.3584 8.33571 11.3584 9.42857V12C11.3584 13.0929 12.1941 13.9286 13.287 13.9286H28.7155C29.8084 13.9286 30.6441 13.0929 30.6441 12V9.42857C30.6441 8.33571 29.8084 7.5 28.7155 7.5ZM29.3584 12C29.3584 12.3857 29.1013 12.6429 28.7155 12.6429H13.287C12.9013 12.6429 12.6441 12.3857 12.6441 12V9.42857C12.6441 9.04286 12.9013 8.78571 13.287 8.78571H28.7155C29.1013 8.78571 29.3584 9.04286 29.3584 9.42857V12Z" fill="#1AC954"/>
<path id="Vector_2" d="M31.2871 3.64307H10.7157C9.62282 3.64307 8.78711 4.47878 8.78711 5.57164V36.4288C8.78711 37.5216 9.62282 38.3574 10.7157 38.3574H31.2871C32.38 38.3574 33.2157 37.5216 33.2157 36.4288V5.57164C33.2157 4.47878 32.38 3.64307 31.2871 3.64307ZM31.93 36.4288C31.93 36.8145 31.6728 37.0716 31.2871 37.0716H10.7157C10.33 37.0716 10.0728 36.8145 10.0728 36.4288V5.57164C10.0728 5.18592 10.33 4.92878 10.7157 4.92878H31.2871C31.6728 4.92878 31.93 5.18592 31.93 5.57164V36.4288Z" fill="#1AC954"/>
<path id="Vector_3" d="M15.2153 16.5H13.9295C12.8367 16.5 12.001 17.3357 12.001 18.4286V19.7143C12.001 20.8071 12.8367 21.6429 13.9295 21.6429H15.2153C16.3081 21.6429 17.1438 20.8071 17.1438 19.7143V18.4286C17.1438 17.3357 16.3081 16.5 15.2153 16.5ZM15.8581 19.7143C15.8581 20.1 15.601 20.3571 15.2153 20.3571H13.9295C13.5438 20.3571 13.2867 20.1 13.2867 19.7143V18.4286C13.2867 18.0429 13.5438 17.7857 13.9295 17.7857H15.2153C15.601 17.7857 15.8581 18.0429 15.8581 18.4286V19.7143ZM21.6438 16.5H20.3581C19.2653 16.5 18.4295 17.3357 18.4295 18.4286V19.7143C18.4295 20.8071 19.2653 21.6429 20.3581 21.6429H21.6438C22.7367 21.6429 23.5724 20.8071 23.5724 19.7143V18.4286C23.5724 17.3357 22.7367 16.5 21.6438 16.5ZM22.2867 19.7143C22.2867 20.1 22.0295 20.3571 21.6438 20.3571H20.3581C19.9724 20.3571 19.7153 20.1 19.7153 19.7143V18.4286C19.7153 18.0429 19.9724 17.7857 20.3581 17.7857H21.6438C22.0295 17.7857 22.2867 18.0429 22.2867 18.4286V19.7143ZM28.0724 16.5H26.7867C25.6938 16.5 24.8581 17.3357 24.8581 18.4286V19.7143C24.8581 20.8071 25.6938 21.6429 26.7867 21.6429H28.0724C29.1653 21.6429 30.001 20.8071 30.001 19.7143V18.4286C30.001 17.3357 29.1653 16.5 28.0724 16.5ZM28.7153 19.7143C28.7153 20.1 28.4581 20.3571 28.0724 20.3571H26.7867C26.401 20.3571 26.1438 20.1 26.1438 19.7143V18.4286C26.1438 18.0429 26.401 17.7857 26.7867 17.7857H28.0724C28.4581 17.7857 28.7153 18.0429 28.7153 18.4286V19.7143ZM15.2153 22.9286H13.9295C12.8367 22.9286 12.001 23.7643 12.001 24.8571V26.1429C12.001 27.2357 12.8367 28.0714 13.9295 28.0714H15.2153C16.3081 28.0714 17.1438 27.2357 17.1438 26.1429V24.8571C17.1438 23.7643 16.3081 22.9286 15.2153 22.9286ZM15.8581 26.1429C15.8581 26.5286 15.601 26.7857 15.2153 26.7857H13.9295C13.5438 26.7857 13.2867 26.5286 13.2867 26.1429V24.8571C13.2867 24.4714 13.5438 24.2143 13.9295 24.2143H15.2153C15.601 24.2143 15.8581 24.4714 15.8581 24.8571V26.1429ZM21.6438 22.9286H20.3581C19.2653 22.9286 18.4295 23.7643 18.4295 24.8571V26.1429C18.4295 27.2357 19.2653 28.0714 20.3581 28.0714H21.6438C22.7367 28.0714 23.5724 27.2357 23.5724 26.1429V24.8571C23.5724 23.7643 22.7367 22.9286 21.6438 22.9286ZM22.2867 26.1429C22.2867 26.5286 22.0295 26.7857 21.6438 26.7857H20.3581C19.9724 26.7857 19.7153 26.5286 19.7153 26.1429V24.8571C19.7153 24.4714 19.9724 24.2143 20.3581 24.2143H21.6438C22.0295 24.2143 22.2867 24.4714 22.2867 24.8571V26.1429ZM28.0724 22.9286H26.7867C25.6938 22.9286 24.8581 23.7643 24.8581 24.8571V32.5714C24.8581 33.6643 25.6938 34.5 26.7867 34.5H28.0724C29.1653 34.5 30.001 33.6643 30.001 32.5714V24.8571C30.001 23.7643 29.1653 22.9286 28.0724 22.9286ZM28.7153 32.5714C28.7153 32.9571 28.4581 33.2143 28.0724 33.2143H26.7867C26.401 33.2143 26.1438 32.9571 26.1438 32.5714V24.8571C26.1438 24.4714 26.401 24.2143 26.7867 24.2143H28.0724C28.4581 24.2143 28.7153 24.4714 28.7153 24.8571V32.5714ZM15.2153 29.3571H13.9295C12.8367 29.3571 12.001 30.1929 12.001 31.2857V32.5714C12.001 33.6643 12.8367 34.5 13.9295 34.5H15.2153C16.3081 34.5 17.1438 33.6643 17.1438 32.5714V31.2857C17.1438 30.1929 16.3081 29.3571 15.2153 29.3571ZM15.8581 32.5714C15.8581 32.9571 15.601 33.2143 15.2153 33.2143H13.9295C13.5438 33.2143 13.2867 32.9571 13.2867 32.5714V31.2857C13.2867 30.9 13.5438 30.6429 13.9295 30.6429H15.2153C15.601 30.6429 15.8581 30.9 15.8581 31.2857V32.5714ZM21.6438 29.3571H20.3581C19.2653 29.3571 18.4295 30.1929 18.4295 31.2857V32.5714C18.4295 33.6643 19.2653 34.5 20.3581 34.5H21.6438C22.7367 34.5 23.5724 33.6643 23.5724 32.5714V31.2857C23.5724 30.1929 22.7367 29.3571 21.6438 29.3571ZM22.2867 32.5714C22.2867 32.9571 22.0295 33.2143 21.6438 33.2143H20.3581C19.9724 33.2143 19.7153 32.9571 19.7153 32.5714V31.2857C19.7153 30.9 19.9724 30.6429 20.3581 30.6429H21.6438C22.0295 30.6429 22.2867 30.9 22.2867 31.2857V32.5714Z" fill="#1AC954"/>
</g>
</svg>
