<svg width="48" height="48" viewBox="0 0 48 48" fill="none" xmlns="http://www.w3.org/2000/svg">
<g id="shovel (1)">
<g id="Layer 5">
<path id="Vector" d="M21 31H27V43C27 43.7956 26.6839 44.5587 26.1213 45.1213C25.5587 45.6839 24.7956 46 24 46C23.2044 46 22.4413 45.6839 21.8787 45.1213C21.3161 44.5587 21 43.7956 21 43V31ZM22.5 26.5H25.5V31H22.5V26.5ZM33.75 26.5H14.25C13.8522 26.5 13.4706 26.342 13.1893 26.0607C12.908 25.7794 12.75 25.3978 12.75 25C12.75 24.6022 12.908 24.2206 13.1893 23.9393C13.4706 23.658 13.8522 23.5 14.25 23.5H20.25C20.6478 23.5 21.0294 23.342 21.3107 23.0607C21.592 22.7794 21.75 22.3978 21.75 22C21.75 21.6022 21.908 21.2206 22.1893 20.9393C22.4706 20.658 22.8522 20.5 23.25 20.5H24.75C25.1478 20.5 25.5294 20.658 25.8107 20.9393C26.092 21.2206 26.25 21.6022 26.25 22C26.25 22.3978 26.408 22.7794 26.6893 23.0607C26.9706 23.342 27.3522 23.5 27.75 23.5H33.75C34.1478 23.5 34.5294 23.658 34.8107 23.9393C35.092 24.2206 35.25 24.6022 35.25 25C35.25 25.3978 35.092 25.7794 34.8107 26.0607C34.5294 26.342 34.1478 26.5 33.75 26.5Z" stroke="#1AC954" stroke-width="1.5" stroke-linecap="round" stroke-linejoin="round"/>
<path id="Vector_2" d="M21.75 22C21.75 21.6022 21.908 21.2206 22.1893 20.9393C22.4706 20.658 22.8522 20.5 23.25 20.5H24.75C25.1478 20.5 25.5294 20.658 25.8107 20.9393C26.092 21.2206 26.25 21.6022 26.25 22C26.25 22.3978 26.408 22.7794 26.6893 23.0607C26.9706 23.342 27.3522 23.5 27.75 23.5H33V13C33 10.6131 32.0518 8.32387 30.364 6.63604C28.6761 4.94821 26.3869 4 24 4C21.6131 4 19.3239 4.94821 17.636 6.63604C15.9482 8.32387 15 10.6131 15 13V23.5H20.25C20.6478 23.5 21.0294 23.342 21.3107 23.0607C21.592 22.7794 21.75 22.3978 21.75 22ZM21 37H27V40H21V37Z" stroke="#1AC954" stroke-width="1.5" stroke-linecap="round" stroke-linejoin="round"/>
</g>
</g>
</svg>
