<svg width="48" height="48" viewBox="0 0 48 48" fill="none" xmlns="http://www.w3.org/2000/svg">
<g id="fertilizer">
<path id="Vector" d="M10.7746 40.724L9.99026 41.4953C9.62809 41.8523 9.42471 42.336 9.42471 42.8403C9.42471 43.3446 9.62809 43.8283 9.99026 44.1853L10.2532 44.4438C10.6163 44.8 11.1082 44.9999 11.621 44.9999C12.1339 44.9999 12.6258 44.8 12.9889 44.4438L13.744 43.7014C20.1905 44.5802 27.0794 44.5716 34.2302 43.676L35.0111 44.4438C35.1906 44.6206 35.4038 44.7607 35.6386 44.8561C35.8733 44.9516 36.1249 45.0005 36.379 45C36.633 45.0004 36.8846 44.9515 37.1193 44.8561C37.354 44.7606 37.5673 44.6205 37.7468 44.4438L38.0097 44.1853C38.3719 43.8283 38.5753 43.3446 38.5753 42.8403C38.5753 42.336 38.3719 41.8523 38.0097 41.4953L37.2254 40.724C39.5915 30.147 39.5915 19.853 37.2254 9.27599L38.0097 8.50476C38.3719 8.14771 38.5753 7.66401 38.5753 7.15973C38.5753 6.65544 38.3719 6.17174 38.0097 5.81469L37.7468 5.55618C37.3837 5.20006 36.8918 5.00008 36.379 5.00008C35.8661 5.00008 35.3742 5.20006 35.0111 5.55618L34.2561 6.2986C27.809 5.4194 20.9202 5.428 13.7698 6.32354L12.9889 5.55575C12.6257 5.19984 12.1338 5 11.621 5C11.1083 5 10.6164 5.19984 10.2532 5.55575L9.99026 5.81426C9.62809 6.17131 9.42471 6.65501 9.42471 7.1593C9.42471 7.66358 9.62809 8.14728 9.99026 8.50433L10.7746 9.27556C8.40847 19.853 8.40847 30.147 10.7746 40.724ZM11.9574 8.61401L10.9185 7.59244C10.8019 7.47761 10.7365 7.32198 10.7365 7.15973C10.7365 6.99747 10.8019 6.84185 10.9185 6.72701L11.1814 6.46893C11.2982 6.3543 11.4565 6.28992 11.6215 6.28992C11.7865 6.28992 11.9448 6.3543 12.0615 6.46893L13.0703 7.46082C13.2142 7.60277 13.4181 7.66987 13.6193 7.64449C20.8869 6.70852 27.8768 6.70034 34.3952 7.62126C34.4961 7.63553 34.599 7.62647 34.6957 7.59481C34.7925 7.56315 34.8804 7.50977 34.9525 7.43888L35.9389 6.46893C36.0557 6.3543 36.2139 6.28992 36.379 6.28992C36.544 6.28992 36.7022 6.3543 36.819 6.46893L37.0819 6.72744C37.1984 6.84233 37.2638 6.99794 37.2638 7.16016C37.2638 7.32238 37.1984 7.47798 37.0819 7.59287L36.043 8.61444C35.9647 8.69128 35.9074 8.78637 35.8766 8.89085C35.8458 8.99533 35.8424 9.10578 35.8667 9.2119C38.2941 19.8358 38.2941 30.1651 35.8667 40.789C35.8424 40.8951 35.8458 41.0056 35.8766 41.11C35.9074 41.2145 35.9647 41.3096 36.043 41.3864L37.0819 42.408C37.1985 42.5228 37.264 42.6785 37.264 42.8407C37.264 43.003 37.1985 43.1586 37.0819 43.2734L36.819 43.5315C36.7023 43.6462 36.544 43.7107 36.379 43.7107C36.2139 43.7107 36.0556 43.6462 35.9389 43.5315L34.9301 42.5396C34.859 42.4697 34.7724 42.4169 34.6771 42.3851C34.5819 42.3533 34.4805 42.3435 34.3807 42.3564C27.1126 43.2924 20.1232 43.3005 13.6048 42.3796C13.3997 42.3504 13.1936 42.4183 13.0475 42.562L12.0611 43.5315C11.9442 43.6459 11.786 43.7102 11.621 43.7102C11.4561 43.7102 11.2979 43.6459 11.181 43.5315L10.9181 43.273C10.8016 43.1581 10.7362 43.0025 10.7362 42.8403C10.7362 42.6781 10.8016 42.5225 10.9181 42.4076L11.957 41.386C12.1162 41.2299 12.1827 41.004 12.1333 40.7885C9.70592 30.1646 9.70592 19.8354 12.1333 9.21147C12.1576 9.10538 12.1542 8.99497 12.1235 8.89051C12.0927 8.78605 12.0356 8.69094 11.9574 8.61401Z" fill="#1AC954"/>
<path id="Vector_2" d="M19.1978 20.5851C20.2138 21.0922 21.305 21.2301 22.1942 21.2301C22.5715 21.2301 22.9116 21.2049 23.1946 21.1727V29.4985C21.2733 29.6985 19.7114 30.744 19.284 32.1819C19.2557 32.2775 19.2509 32.378 19.2699 32.4756C19.289 32.5733 19.3314 32.6654 19.3939 32.7446C19.4564 32.8239 19.5372 32.8882 19.6299 32.9325C19.7227 32.9769 19.825 32.9999 19.9286 33H27.8016C27.9053 33 28.0076 32.977 28.1005 32.9327C28.1933 32.8884 28.2742 32.8241 28.3367 32.7448C28.3992 32.6655 28.4417 32.5734 28.4608 32.4757C28.4799 32.3781 28.475 32.2775 28.4467 32.1819C28.0193 30.744 26.457 29.6985 24.5357 29.4985V24.5968C24.9523 24.673 25.4816 24.7411 26.0766 24.7411C26.8311 24.7411 27.6818 24.6327 28.5048 24.2974C30.7775 23.3705 31.8919 21.0978 31.9384 21.0014C31.9776 20.92 31.9985 20.8316 31.9999 20.742C32.0013 20.6523 31.9831 20.5634 31.9465 20.4809C31.9099 20.3984 31.8556 20.3242 31.7872 20.2629C31.7189 20.2017 31.6379 20.1549 31.5495 20.1255C31.4453 20.0908 28.9634 19.2838 26.6899 20.2107C25.7918 20.577 25.0775 21.1526 24.5357 21.7219V20.4095H24.5325C24.5325 20.3341 24.5218 20.2587 24.4941 20.1868C24.4561 20.0874 23.529 17.7385 21.3377 16.6454C19.1464 15.5523 16.6068 16.1725 16.5 16.1995C16.4096 16.2224 16.3251 16.2631 16.2521 16.3191C16.1791 16.375 16.119 16.445 16.0759 16.5245C16.0327 16.6039 16.0073 16.6912 16.0014 16.7806C15.9954 16.87 16.009 16.9596 16.0413 17.0437C16.0798 17.1435 17.0064 19.4924 19.1978 20.5851ZM27.2151 21.3933C28.3121 20.9462 29.5204 21.025 30.296 21.1539C29.8557 21.7793 29.0765 22.668 27.98 23.1152C26.8817 23.5632 25.6725 23.484 24.8964 23.3542C25.3341 22.7301 26.111 21.8435 27.2151 21.3933ZM21.0927 31.7155C21.7033 31.1252 22.7301 30.7462 23.8656 30.7462C25.001 30.7462 26.0278 31.1252 26.6385 31.7155H21.0927ZM20.7185 17.7856C21.7757 18.3128 22.4803 19.2569 22.8692 19.9126C22.0851 19.9837 20.8741 19.9726 19.8169 19.4453C18.7597 18.9181 18.0547 17.9736 17.6663 17.3183C18.4499 17.2468 19.6609 17.2583 20.7185 17.7856Z" fill="#1AC954"/>
</g>
</svg>
