<svg width="48" height="48" viewBox="0 0 48 48" fill="none" xmlns="http://www.w3.org/2000/svg">
<g clip-path="url(#clip0_573_2460)">
<mask id="mask0_573_2460" style="mask-type:luminance" maskUnits="userSpaceOnUse" x="9" y="5" width="31" height="39">
<path d="M40 5H9V44H40V5Z" fill="white"/>
</mask>
<g mask="url(#mask0_573_2460)">
<path d="M28.3457 20.4621L28.3493 20.4549L28.355 20.4435L28.3622 20.4329L31.9911 15.0457L32.157 14.7995L32.3229 15.0457L35.9517 20.4328L35.959 20.4435L35.9647 20.4551L35.9686 20.4628L36.0173 20.5288C36.6285 21.3567 36.9519 22.3409 36.9519 23.3736C36.9519 26.0178 34.8011 28.1685 32.157 28.1685C29.5129 28.1685 27.3621 26.0177 27.3621 23.3737C27.3621 22.3411 27.6852 21.357 28.2963 20.5293L28.3457 20.4621ZM37.5573 19.4167L37.5618 19.4231C38.4054 20.5754 38.8511 21.9404 38.8511 23.3737C38.8511 25.2928 38.0391 27.0257 36.74 28.248L36.6669 28.3168L36.6784 28.4166C36.7396 28.9452 36.7711 29.4802 36.7711 30.014C36.7711 37.6154 30.5866 43.7999 22.9851 43.7999C15.3837 43.7999 9.19922 37.6154 9.19922 30.014C9.19922 27.0547 10.1225 24.2356 11.8701 21.8574L11.8748 21.8507L22.9851 5.35791L29.4404 14.9402L29.6063 15.1863L29.7721 14.9402L32.1569 11.3999L37.5573 19.4167ZM13.482 22.8645L13.4748 22.8752L13.469 22.8868L13.4655 22.8938L13.4162 22.9611C11.9002 25.0151 11.0985 27.4546 11.0985 30.014C11.0985 36.5684 16.4306 41.9006 22.9851 41.9006C29.5397 41.9006 34.8718 36.5684 34.8718 30.014C34.8718 29.939 34.8709 29.8643 34.8696 29.7903L34.8645 29.5024L34.5965 29.6077C33.8404 29.9045 33.0176 30.0679 32.1569 30.0679C28.4659 30.0679 25.4627 27.0648 25.4627 23.3737C25.4627 21.9405 25.9083 20.5756 26.752 19.4231L26.7565 19.4167L28.3859 16.9979L28.4611 16.8862L28.3859 16.7744L23.151 9.00362L22.9851 8.75739L22.8193 9.00362L13.482 22.8645Z" fill="#1AC954" stroke="white" stroke-width="0.4"/>
<path d="M28 21L32 15L32.5 15.5L35 19L36.5 21.5L37 23.5L36.5 25L36 26L34.5 27.5L32.5 28H31L29 27L28 25.5L27.5 24.5V23L28 21Z" fill="white"/>
</g>
</g>
<defs>
<clipPath id="clip0_573_2460">
<rect width="31" height="39" fill="white" transform="translate(9 5)"/>
</clipPath>
</defs>
</svg>
