<svg width="63" height="63" viewBox="0 0 63 63" fill="none" xmlns="http://www.w3.org/2000/svg">
<path d="M6.00987 56.4961H16.4153C18.831 56.4961 20.9065 55.0537 21.8603 52.9918C22.4525 53.0309 23.7971 53.5567 25.822 55.8394C30.972 61.6441 34.4763 62.16 43.1793 62.16L44.7351 62.164C45.2628 62.1679 45.7787 62.1699 46.2908 62.1699C51.6108 62.1699 56.1041 61.9275 58.2579 58.9547C59.3992 57.3795 59.6435 55.3527 58.9927 52.7865C60.2924 51.2366 62.3933 47.8985 61.2266 43.4893C62.4441 41.4508 63.4233 37.794 61.2188 33.8187C61.68 32.2728 62.3171 29.214 61.1777 26.5911C60.4838 24.9904 59.2155 23.7924 57.5131 23.1298C55.1131 22.1956 52.8557 22.3735 50.8641 22.5337C47.8328 22.7761 46.3142 22.7839 44.7605 20.3838C43.7773 18.8671 43.1051 16.2482 42.3955 13.4749C40.7538 7.07211 38.5004 -1.68185 29.7405 0.280478L29.3457 0.370318L29.0173 0.610743C28.6499 0.878478 25.47 3.41532 26.4062 9.83177C27.2584 15.6696 25.4251 20.6438 22.0419 22.3989C21.1976 20.0985 19.0068 18.4431 16.4171 18.4431H6.00987C2.69713 18.4432 0 21.1403 0 24.4551V50.4843C0 53.799 2.69713 56.4961 6.00987 56.4961ZM30.2723 9.26721C29.8111 6.10301 30.6984 4.53935 31.1205 3.9961C35.1174 3.38431 36.6164 6.6737 38.6081 14.4485C39.3997 17.5384 40.1481 20.4583 41.481 22.5124C44.3716 26.9705 48.1398 26.6734 51.175 26.4311C52.9028 26.2962 54.5328 26.1633 56.0943 26.7731C56.8311 27.0603 57.3061 27.4963 57.5915 28.1432C58.3283 29.8279 57.6013 32.4644 57.2612 33.3302L56.8821 34.282L57.4488 35.1381C59.9172 38.8496 57.8241 41.6072 57.5915 41.8926L56.8468 42.7604L57.2417 43.8352C58.7231 47.8653 55.645 50.6816 55.5218 50.7911L54.5387 51.6472L54.9491 52.8843C55.3634 54.1293 55.7231 55.7944 55.0937 56.6661C53.9112 58.3001 49.0446 58.2785 44.7527 58.259L43.1793 58.255C34.9531 58.255 32.8052 57.8231 28.7458 53.2477C26.1561 50.3258 24.0238 49.3232 22.4271 49.1199V26.4662C28.1557 24.5449 31.4782 17.5227 30.2723 9.26721ZM3.90883 24.4551C3.90883 23.2961 4.85088 22.3541 6.00987 22.3541H16.4153C17.5743 22.3541 18.5163 23.2961 18.5163 24.4551V50.4843C18.5163 51.6452 17.5743 52.5873 16.4153 52.5873H6.00987C4.85088 52.5873 3.90883 51.6452 3.90883 50.4843V24.4551Z" fill="#1AC954"/>
</svg>
