<svg id="q" viewBox="0 0 13 13" xmlns="http://www.w3.org/2000/svg"><path d="M5.68248e-07 6.5C5.94509e-07 6.19961 0.108923 5.94651 0.326768 5.74069L6.07609 0.308729C6.30571 0.102909 6.5736 -5.61814e-07 6.87976 -5.35049e-07C7.18003 -5.08798e-07 7.44497 0.102909 7.67459 0.308729L8.33696 0.934531C8.56069 1.14591 8.67256 1.39902 8.67256 1.69384C8.67256 1.98866 8.56069 2.24176 8.33696 2.45314L5.74932 4.89795L11.9667 4.89795C12.2729 4.89795 12.5216 5.00225 12.713 5.21085C12.9043 5.41945 13 5.67116 13 5.96598L13 7.03402C13 7.32884 12.9043 7.58055 12.713 7.78915C12.5216 7.99775 12.2729 8.10205 11.9667 8.10205L5.74932 8.10205L8.33696 10.5552C8.56069 10.7555 8.67255 11.0058 8.67255 11.3062C8.67255 11.6065 8.56069 11.8569 8.33696 12.0571L7.67459 12.6829C7.45086 12.8943 7.18591 13 6.87976 13C6.56771 13 6.29982 12.8943 6.07609 12.6829L0.326767 7.25096C0.108923 7.05627 5.41501e-07 6.80595 5.68248e-07 6.5Z"/></svg>