<svg width="46" height="46" viewBox="0 0 46 46" fill="none" xmlns="http://www.w3.org/2000/svg">
<path d="M0.1224 15.5009L16.0974 30.4791C16.57 30.9225 17.2012 31.1857 17.8689 31.2178C18.5366 31.2499 19.1933 31.0486 19.7118 30.6529L19.917 30.4791L35.8812 15.511C35.9334 15.6966 35.9676 15.8856 35.9856 16.0797L36 16.375V36.625C36.0003 37.4765 35.6573 38.2966 35.0397 38.9209C34.4221 39.5453 33.5757 39.9277 32.67 39.9916L32.4 40H3.6C2.69176 40.0003 1.81698 39.6787 1.15101 39.0997C0.485047 38.5208 0.077118 37.7272 0.00900021 36.8781L0 36.625V16.375C0 16.1725 0.0179999 15.9768 0.0539999 15.7844L0.1224 15.5009ZM32.4 13C32.6178 13 32.832 13.0169 33.039 13.0523L33.345 13.1181L18.009 27.4956L2.6676 13.1147C2.8656 13.0641 3.0708 13.0304 3.2796 13.0135L3.6 13H32.4Z" fill="black"/>
</svg>
