<svg id="q" viewBox="0 0 28 28" xmlns="http://www.w3.org/2000/svg">
<path d="M19.1187 3.5C17.1281 3.5 15.2514 4.41558 14 5.90335C12.7486 4.41558 10.8719 3.5 8.88125 3.5C5.35489 3.5 2.625 6.24646 2.625 9.79426C2.625 14.1428 6.49239 17.6336 12.3504 23.0119L14 24.5L15.6496 23.0119C21.5076 17.6335 25.375 14.1427 25.375 9.79426C25.375 6.24646 22.6451 3.5 19.1187 3.5ZM14.702 21.5062L14.4712 21.718L14 22.1431L13.5288 21.7181L13.2984 21.5065C10.5411 18.9755 8.15987 16.7895 6.58569 14.835C5.05679 12.9366 4.375 11.382 4.375 9.79426C4.375 8.54383 4.83558 7.39178 5.67191 6.55041C6.50546 5.71184 7.6452 5.25 8.88125 5.25C10.3105 5.25 11.7234 5.91538 12.6607 7.0298L14 8.62209L15.3392 7.0298C16.2766 5.91538 17.6895 5.25 19.1187 5.25C20.3549 5.25 21.4945 5.71184 22.3281 6.55036C23.1644 7.39178 23.625 8.54377 23.625 9.79426C23.625 11.382 22.9432 12.9365 21.4144 14.8349C19.8403 16.7894 17.4591 18.9752 14.702 21.5062Z"/>
</svg>
