<svg width="37" height="37" viewBox="0 0 37 37" fill="none" xmlns="http://www.w3.org/2000/svg">
<g id="Group 289491">
<path id="Vector" d="M21.1426 23.125H22.464V24.4464H21.1426V23.125Z" fill="#1AC954"/>
<path id="Vector_2" d="M14.54 17.8389H15.8615V19.1603H14.54V17.8389Z" fill="#1AC954"/>
<path id="Vector_3" d="M37.0045 37.0004V3.80839L23.79 0.204102V13.2144H26.4329C26.7979 13.2144 27.0936 13.5102 27.0936 13.8751V37.0004H37.0045Z" fill="#1AC954"/>
<path id="Vector_4" d="M21.1426 28.4102H22.464V29.7316H21.1426V28.4102Z" fill="#1AC954"/>
<path id="Vector_5" d="M0 21.1426H9.91083V36.9999H0V21.1426Z" fill="#1AC954"/>
<path id="Vector_6" d="M9.91052 13.8747C9.91052 13.5098 10.2063 13.214 10.5712 13.214H13.2141V3.96387H2.64258V19.8212H9.91052V13.8747ZM9.2498 5.94603H10.5712C10.9362 5.94603 11.232 6.24181 11.232 6.60676C11.232 6.9717 10.9362 7.26748 10.5712 7.26748H9.2498C8.88485 7.26748 8.58908 6.9717 8.58908 6.60676C8.58908 6.24181 8.88485 5.94603 9.2498 5.94603ZM9.2498 8.58892H10.5712C10.9362 8.58892 11.232 8.8847 11.232 9.24964C11.232 9.61459 10.9362 9.91037 10.5712 9.91037H9.2498C8.88485 9.91037 8.58908 9.61459 8.58908 9.24964C8.58908 8.8847 8.88485 8.58892 9.2498 8.58892ZM6.60691 12.5533H5.28547C4.92052 12.5533 4.62474 12.2575 4.62474 11.8925C4.62474 11.5276 4.92052 11.2318 5.28547 11.2318H6.60691C6.97186 11.2318 7.26763 11.5276 7.26763 11.8925C7.26763 12.2575 6.97186 12.5533 6.60691 12.5533ZM6.60691 9.91037H5.28547C4.92052 9.91037 4.62474 9.61459 4.62474 9.24964C4.62474 8.8847 4.92052 8.58892 5.28547 8.58892H6.60691C6.97186 8.58892 7.26763 8.8847 7.26763 9.24964C7.26763 9.61459 6.97186 9.91037 6.60691 9.91037ZM6.60691 7.26748H5.28547C4.92052 7.26748 4.62474 6.9717 4.62474 6.60676C4.62474 6.24181 4.92052 5.94603 5.28547 5.94603H6.60691C6.97186 5.94603 7.26763 6.24181 7.26763 6.60676C7.26763 6.9717 6.97186 7.26748 6.60691 7.26748ZM8.58908 11.8925C8.58908 11.5276 8.88485 11.2318 9.2498 11.2318H10.5712C10.9362 11.2318 11.232 11.5276 11.232 11.8925C11.232 12.2575 10.9362 12.5533 10.5712 12.5533H9.2498C8.88485 12.5533 8.58908 12.2575 8.58908 11.8925Z" fill="#1AC954"/>
<path id="Vector_7" d="M21.1426 17.8389H22.464V19.1603H21.1426V17.8389Z" fill="#1AC954"/>
<path id="Vector_8" d="M14.54 28.4102H15.8615V29.7316H14.54V28.4102Z" fill="#1AC954"/>
<path id="Vector_9" d="M14.54 23.125H15.8615V24.4464H14.54V23.125Z" fill="#1AC954"/>
<path id="Vector_10" d="M11.2324 36.9997H25.7683V14.5352H11.2324V36.9997ZM19.8218 17.178C19.8218 16.8131 20.1176 16.5173 20.4825 16.5173H23.1254C23.4904 16.5173 23.7861 16.8131 23.7861 17.178V19.8209C23.7861 20.1859 23.4904 20.4817 23.1254 20.4817H20.4825C20.1176 20.4817 19.8218 20.1859 19.8218 19.8209V17.178ZM19.8218 22.4638C19.8218 22.0989 20.1176 21.8031 20.4825 21.8031H23.1254C23.4904 21.8031 23.7861 22.0989 23.7861 22.4638V25.1067C23.7861 25.4717 23.4904 25.7674 23.1254 25.7674H20.4825C20.1176 25.7674 19.8218 25.4717 19.8218 25.1067V22.4638ZM19.8218 27.7496C19.8218 27.3847 20.1176 27.0889 20.4825 27.0889H23.1254C23.4904 27.0889 23.7861 27.3847 23.7861 27.7496V30.3925C23.7861 30.7574 23.4904 31.0532 23.1254 31.0532H20.4825C20.1176 31.0532 19.8218 30.7574 19.8218 30.3925V27.7496ZM13.2146 17.178C13.2146 16.8131 13.5104 16.5173 13.8753 16.5173H16.5182C16.8831 16.5173 17.1789 16.8131 17.1789 17.178V19.8209C17.1789 20.1859 16.8831 20.4817 16.5182 20.4817H13.8753C13.5104 20.4817 13.2146 20.1859 13.2146 19.8209V17.178ZM13.2146 22.4638C13.2146 22.0989 13.5104 21.8031 13.8753 21.8031H16.5182C16.8831 21.8031 17.1789 22.0989 17.1789 22.4638V25.1067C17.1789 25.4717 16.8831 25.7674 16.5182 25.7674H13.8753C13.5104 25.7674 13.2146 25.4717 13.2146 25.1067V22.4638ZM13.2146 27.7496C13.2146 27.3847 13.5104 27.0889 13.8753 27.0889H16.5182C16.8831 27.0889 17.1789 27.3847 17.1789 27.7496V30.3925C17.1789 30.7574 16.8831 31.0532 16.5182 31.0532H13.8753C13.5104 31.0532 13.2146 30.7574 13.2146 30.3925V27.7496Z" fill="#1AC954"/>
<path id="Vector_11" d="M5.95076 0C6.31571 0 6.61148 0.295776 6.61148 0.660722V2.64289H5.29004V0.660722C5.29004 0.295776 5.58582 0 5.95076 0Z" fill="#1AC954"/>
</g>
</svg>
