<svg width="38" height="37" viewBox="0 0 38 37" fill="none" xmlns="http://www.w3.org/2000/svg">
<g id="Group 289493">
<path id="Vector" d="M37.9999 26.1016H23.8105L34.0743 36.01H37.9999V26.1016Z" fill="#1AC954"/>
<path id="Vector_2" d="M20.5693 26.1017H20.5618C20.5632 26.1005 20.5644 26.0993 20.5658 26.0981C20.9993 25.7122 21.5643 25.1876 22.2001 24.5449C22.9017 23.8356 23.6889 22.9837 24.4792 22.016C27.7208 18.0473 29.3646 14.2181 29.3646 10.6353C29.3646 4.77092 24.7161 0 19.002 0C13.2879 0 8.63935 4.77092 8.63935 10.6353C8.63935 14.2181 10.2832 18.0473 13.5245 22.016C14.3151 22.9837 15.102 23.8356 15.8039 24.5449C16.4397 25.1876 17.0047 25.7122 17.4382 26.0981C17.4393 26.0993 17.4408 26.1005 17.4419 26.1017H17.4344L7.1709 36.0101H30.8334L20.5693 26.1017ZM14.9208 9.31511L19.002 5.2226L23.0832 9.31511V15.0022H14.9208V9.31511Z" fill="#1AC954"/>
<path id="Vector_3" d="M14.1893 26.1016H0V36.01H3.92553L14.1893 26.1016Z" fill="#1AC954"/>
<path id="Vector_4" d="M17.1426 10.2753V12.7214H20.8605V10.2753L19.0016 8.41113L17.1426 10.2753Z" fill="#1AC954"/>
</g>
</svg>
