<svg id="q" viewBox="0 0 64 64" fill="none" xmlns="http://www.w3.org/2000/svg">
<path d="M31.584 50.4332C41.5348 50.4332 49.6016 42.3664 49.6016 32.4156C49.6016 22.4648 41.5348 14.398 31.584 14.398C21.6332 14.398 13.5664 22.4648 13.5664 32.4156C13.5664 42.3664 21.6332 50.4332 31.584 50.4332Z" fill="url(#paint0_linear_1_3769)"/>
<path d="M20.2758 33.2974C22.3821 32.1372 24.7332 31.1689 26.93 30.1957C30.7094 28.6016 34.5037 27.0351 38.3364 25.5767C39.082 25.3282 40.4219 25.0853 40.5533 26.1904C40.4812 27.7546 40.1854 29.3097 39.9824 30.8647C39.4673 34.2845 38.8716 37.6925 38.291 41.101C38.0909 42.2363 36.6687 42.8241 35.7587 42.0975C33.5716 40.6201 31.3678 39.1573 29.2087 37.6457C28.5015 36.9271 29.1573 35.895 29.7888 35.3818C31.5901 33.6066 33.5004 32.0984 35.2076 30.2314C35.6681 29.1194 34.3075 30.0567 33.8587 30.3439C31.3927 32.0432 28.987 33.8464 26.3871 35.3399C25.0591 36.0709 23.5112 35.4462 22.1837 35.0381C20.9935 34.5454 19.2494 34.0489 20.2757 33.2976L20.2758 33.2974Z" fill="white"/>
<defs>
<linearGradient id="paint0_linear_1_3769" x1="37.5914" y1="20.4051" x2="28.5826" y2="41.4244" gradientUnits="userSpaceOnUse">
<stop stop-color="#37AEE2"/>
<stop offset="1" stop-color="#1E96C8"/>
</linearGradient>
</defs>
</svg>
