<svg width="38" height="38" viewBox="0 0 38 38" fill="none" xmlns="http://www.w3.org/2000/svg">
<circle cx="19" cy="19" r="19" fill="#FDFDFF"/>
<path d="M8 13V25.3482H29.6094V13H8ZM12.6754 14.1319C12.8261 14.1352 12.9623 14.22 13.0319 14.3534C13.1015 14.4867 13.0924 14.6473 13.0088 14.7724C12.9253 14.8971 12.7804 14.9667 12.6306 14.9535H11.3155C11.2196 15.2931 11.1422 15.6491 10.8957 15.8957C10.6491 16.1422 10.2939 16.2188 9.95431 16.3147V17.6306C9.95431 17.8582 9.76991 18.0426 9.54229 18.0426C9.31467 18.0426 9.13027 17.8582 9.13027 17.6306V15.6771H9.54353C9.79214 15.6771 10.0881 15.5367 10.3128 15.312C10.5376 15.0873 10.6738 14.7921 10.6738 14.5435V14.1336H12.6306C12.6454 14.1323 12.6606 14.1315 12.6754 14.1319ZM24.9368 14.1336C24.9512 14.1327 24.9652 14.1327 24.9796 14.1336H26.9331V14.5435C26.9331 14.7921 27.0702 15.0873 27.2949 15.312C27.5196 15.5367 27.8181 15.6771 28.0667 15.6771H28.4766V17.6306C28.4799 17.78 28.4025 17.9191 28.2737 17.9949C28.1449 18.0706 27.9852 18.0706 27.8563 17.9949C27.7279 17.9191 27.6501 17.78 27.6534 17.6306V16.3122C27.3155 16.2159 26.9603 16.1414 26.7145 15.8957C26.4676 15.6491 26.3877 15.2931 26.2914 14.9535H24.9796C24.7639 14.949 24.5882 14.7786 24.5771 14.5633C24.566 14.348 24.7228 14.1603 24.9368 14.1336ZM18.8047 15.291C20.945 15.291 22.6886 17.0338 22.6886 19.1741C22.6886 21.3145 20.945 23.0572 18.8047 23.0572C16.6643 23.0572 14.9187 21.3145 14.9187 19.1741C14.9187 17.0338 16.6643 15.291 18.8047 15.291ZM18.8047 16.1113C17.1093 16.1113 15.7427 17.4787 15.7427 19.1741C15.7427 20.8695 17.1093 22.2369 18.8047 22.2369C20.5001 22.2369 21.8646 20.8695 21.8646 19.1741C21.8646 17.4787 20.5001 16.1113 18.8047 16.1113ZM9.53776 20.2986C9.64931 20.2974 9.75633 20.3414 9.83453 20.42C9.91315 20.4991 9.95637 20.6065 9.95431 20.7176V22.0335C10.2939 22.1294 10.6491 22.206 10.8957 22.4526C11.1422 22.6991 11.2196 23.0552 11.3155 23.3947H12.6306C12.7858 23.3807 12.9356 23.4556 13.0175 23.5882C13.0994 23.7211 13.0994 23.8882 13.0175 24.0212C12.9356 24.1537 12.7858 24.2286 12.6306 24.2146H10.6738V23.8047C10.6738 23.5561 10.5376 23.261 10.3128 23.0362C10.0881 22.8115 9.79214 22.6711 9.54353 22.6711H9.13027V20.7176C9.12657 20.5057 9.28463 20.3254 9.49537 20.3011C9.50936 20.2999 9.52377 20.299 9.53776 20.2986ZM28.0601 20.2986C28.1716 20.2974 28.2787 20.3414 28.3569 20.42C28.4355 20.4991 28.4787 20.6065 28.4766 20.7176V22.6711H28.0667C27.8181 22.6711 27.5196 22.8115 27.2949 23.0362C27.0702 23.261 26.9331 23.5561 26.9331 23.8047V24.2146H24.9796C24.8244 24.2286 24.6746 24.1537 24.5927 24.0212C24.5108 23.8882 24.5108 23.7211 24.5927 23.5882C24.6746 23.4556 24.8244 23.3807 24.9796 23.3947H26.2914C26.3873 23.0552 26.4676 22.6991 26.7145 22.4526C26.9603 22.2068 27.3155 22.1323 27.6534 22.036V20.7176C27.6497 20.5057 27.8069 20.3258 28.0177 20.3011C28.0317 20.2999 28.0461 20.299 28.0601 20.2986Z" fill="#0CBCA7"/>
</svg>
