<svg width="38" height="38" viewBox="0 0 38 38" fill="none" xmlns="http://www.w3.org/2000/svg">
<circle cx="19" cy="19" r="19" fill="#FDFDFF"/>
<path d="M9.00011 15.6667H10.0001V22.3334H12.0001V15.6667H15.3335V22.3334H17.3335V15.6667H20.6668V22.3334H22.6668V15.6667H26.0002V22.3334H28.0002V15.6667H29.0002C29.4408 15.6667 29.8296 15.3782 29.9573 14.9565C30.085 14.5347 29.9216 14.0791 29.5549 13.8346L19.5548 7.1679C19.219 6.94403 18.7813 6.94403 18.4454 7.1679L8.44538 13.8346C8.07871 14.0791 7.91531 14.5347 8.04297 14.9565C8.17071 15.3782 8.55951 15.6667 9.00011 15.6667Z" fill="#41D0FD"/>
<path d="M29.0001 24.3335H28.0001H26.0001H22.6667H20.6667H17.3334H15.3334H12H10H9.00001C8.44774 24.3335 8 24.7812 8 25.3335V28.0002C8 28.5525 8.44774 29.0002 9.00001 29.0002H29.0001C29.5524 29.0002 30.0001 28.5525 30.0001 28.0002V25.3335C30.0001 24.7812 29.5524 24.3335 29.0001 24.3335Z" fill="#41D0FD"/>
</svg>
