<svg id="q" viewBox="0 0 46 46" fill="none" xmlns="http://www.w3.org/2000/svg">
<g clip-path="url(#clip0_1_5143)">
<mask id="mask0_1_5143" style="mask-type:luminance" maskUnits="userSpaceOnUse" x="-4" y="4" width="42" height="42">
<g id="a">
<path id="Vector" d="M-3.77344 4.22602H37.775V45.7744H-3.77344V4.22602Z" fill="white"/>
</g>
</mask>
<g mask="url(#mask0_1_5143)">
<g id="Group">
<path id="Vector_2" d="M32.156 34.6321L29.005 31.0314C28.4348 30.3798 27.6983 29.8953 26.8743 29.6294C26.0502 29.3636 25.1694 29.3265 24.3259 29.522C23.4824 29.7175 22.7078 30.1384 22.0847 30.7397C21.4617 31.3409 21.0135 32.1001 20.7881 32.9361C15.2906 31.5244 10.2354 25.7717 10.2194 20.9298C11.1775 20.8183 12.0792 20.4184 12.8049 19.7829C13.7596 18.9472 14.3433 17.7666 14.4276 16.5006C14.5119 15.2347 14.0899 13.9871 13.2545 13.0322L10.1044 9.43252C9.26889 8.47791 8.0884 7.89426 6.8226 7.80996C5.5568 7.72566 4.30935 8.1476 3.35462 8.98298C-7.44441 18.4343 20.9075 50.8322 31.7066 41.3809C32.6611 40.5456 33.2447 39.3652 33.329 38.0996C33.4133 36.834 32.9914 35.5867 32.156 34.6321Z" fill="black"/>
</g>
</g>
</g>
<defs>
<clipPath id="clip0_1_5143">
<rect width="46" height="46" fill="white"/>
</clipPath>
</defs>
</svg>
