<svg width="20" height="24" viewBox="0 0 20 24" fill="none" xmlns="http://www.w3.org/2000/svg">
<path d="M16.3179 2.87314C15.4413 1.97325 14.4196 1.26642 13.2815 0.772289C12.1011 0.259839 10.8474 0 9.55544 0C8.26344 0 7.00984 0.259839 5.82944 0.772315C4.6913 1.26644 3.66966 1.97325 2.79293 2.87316C1.91771 3.77151 1.23068 4.81736 0.750884 5.9817C0.257185 7.17974 0.00558465 8.45126 0.00293117 9.76132C-0.00136494 9.86294 -0.00778377 10.1708 0.0400042 10.6419C0.122237 11.608 0.343234 12.5519 0.697006 13.4477C1.26288 15.0415 2.13537 16.6222 3.29057 18.1462C4.76957 20.0975 6.70818 21.9449 9.05251 23.6371L9.55541 24L10.0583 23.637C12.4026 21.9449 14.3412 20.0975 15.8202 18.1463C16.9754 16.6223 17.8479 15.0415 18.4138 13.4478C18.7676 12.552 18.9886 11.6081 19.0708 10.6418C19.1188 10.1683 19.1125 9.86519 19.1079 9.76013C19.1051 8.45048 18.8535 7.17936 18.3599 5.98168C17.8802 4.81733 17.1932 3.77148 16.3179 2.87314ZM17.3605 10.4745L17.3591 10.4897C17.2911 11.2961 17.1065 12.0832 16.8105 12.8291L16.7991 12.8595C15.4001 16.8136 12.1876 19.8917 9.55541 21.873C6.92321 19.8917 3.71073 16.8136 2.31171 12.8594L2.30032 12.8291C2.00429 12.0831 1.81971 11.2961 1.75173 10.4898L1.75029 10.4746C1.71084 10.0892 1.71865 9.86147 1.71976 9.83473L1.72133 9.81469V9.78235C1.72133 7.62421 2.539 5.59634 4.02374 4.07239C5.50261 2.55439 7.46712 1.71844 9.55544 1.71844C11.6438 1.71844 13.6083 2.55439 15.0871 4.07233C16.5718 5.59629 17.3895 7.62416 17.3895 9.78232V9.80984L17.391 9.83334C17.3918 9.85225 17.4008 10.0813 17.3605 10.4745Z" fill="white"/>
<path d="M9.55481 3.55786C8.01577 3.55786 6.56884 4.15719 5.48058 5.24548C4.3923 6.33376 3.79297 7.78069 3.79297 9.31971C3.79297 10.8587 4.3923 12.3057 5.48058 13.394C6.56884 14.4822 8.01574 15.0815 9.55481 15.0815C11.0939 15.0815 12.5408 14.4822 13.629 13.394C14.7173 12.3057 15.3167 10.8588 15.3167 9.31971C15.3167 7.78069 14.7173 6.33376 13.629 5.24548C12.5408 4.15719 11.0939 3.55786 9.55481 3.55786ZM9.55481 13.3631C7.32528 13.3631 5.51141 11.5493 5.51141 9.31971C5.51141 7.09015 7.32528 5.27631 9.55481 5.27631C11.7843 5.27631 13.5982 7.09015 13.5982 9.31971C13.5982 11.5493 11.7843 13.3631 9.55481 13.3631Z" fill="white"/>
</svg>
