<svg id="q" viewBox="0 0 40 40" xmlns="http://www.w3.org/2000/svg">
<path d="M25.2 32H14.67C12.525 32 10.835 30.245 10.835 28.165V16.4C10.835 16.01 11.095 15.75 11.485 15.75C11.875 15.75 12.135 16.01 12.135 16.4V28.165C12.135 29.595 13.305 30.7 14.67 30.7H25.2C26.63 30.7 27.735 29.53 27.735 28.165V16.4C27.735 16.01 27.995 15.75 28.385 15.75C28.775 15.75 29.035 16.01 29.035 16.4V28.165C29.035 30.245 27.28 32 25.2 32Z"/>
<path d="M28.6446 9.185H23.7046C23.3796 7.365 21.8196 6 19.9346 6C18.0496 6 16.4896 7.365 16.1646 9.185H11.2246C9.72957 9.185 8.55957 10.355 8.55957 11.85C8.55957 13.345 9.72957 14.45 11.2246 14.45H28.7096C30.2046 14.45 31.3746 13.28 31.3746 11.785C31.3746 10.29 30.1396 9.185 28.6446 9.185ZM19.9346 7.3C21.1046 7.3 22.0796 8.08 22.3396 9.185H17.4646C17.7896 8.08 18.7646 7.3 19.9346 7.3ZM28.6446 13.15H11.2246C10.5096 13.15 9.85957 12.565 9.85957 11.785C9.85957 11.07 10.4446 10.42 11.2246 10.42H28.7096C29.4246 10.42 30.0746 11.005 30.0746 11.785C30.0096 12.565 29.4246 13.15 28.6446 13.15Z"/>
<path d="M15.3854 28.8152C14.9954 28.8152 14.7354 28.5552 14.7354 28.1652V17.3102C14.7354 16.9202 14.9954 16.6602 15.3854 16.6602C15.7754 16.6602 16.0354 16.9202 16.0354 17.3102V28.1652C16.0354 28.4902 15.7104 28.8152 15.3854 28.8152Z"/>
<path d="M24.485 28.8152C24.095 28.8152 23.835 28.5552 23.835 28.1652V17.3102C23.835 16.9202 24.095 16.6602 24.485 16.6602C24.875 16.6602 25.135 16.9202 25.135 17.3102V28.1652C25.135 28.4902 24.81 28.8152 24.485 28.8152Z"/>
<path d="M19.9352 28.8152C19.5452 28.8152 19.2852 28.5552 19.2852 28.1652V17.3102C19.2852 16.9202 19.5452 16.6602 19.9352 16.6602C20.3252 16.6602 20.5852 16.9202 20.5852 17.3102V28.1652C20.5852 28.4902 20.2602 28.8152 19.9352 28.8152Z"/>
</svg>
