<svg width="26" height="26" viewBox="0 0 26 26" fill="none" xmlns="http://www.w3.org/2000/svg">
<path d="M23.2143 2.12849H19.5V1.23087C19.5 0.992808 19.4022 0.764495 19.228 0.596158C19.0539 0.427822 18.8177 0.333252 18.5714 0.333252C18.3252 0.333252 18.089 0.427822 17.9148 0.596158C17.7407 0.764495 17.6429 0.992808 17.6429 1.23087V2.12849H8.35714V1.23087C8.35714 0.992808 8.25931 0.764495 8.08517 0.596158C7.91103 0.427822 7.67484 0.333252 7.42857 0.333252C7.1823 0.333252 6.94611 0.427822 6.77197 0.596158C6.59783 0.764495 6.5 0.992808 6.5 1.23087V2.12849H2.78571C2.0469 2.12849 1.33834 2.4122 0.815917 2.91721C0.293494 3.42222 0 4.10716 0 4.82135V22.7737C0 23.4879 0.293494 24.1729 0.815917 24.6779C1.33834 25.1829 2.0469 25.4666 2.78571 25.4666H23.2143C23.9531 25.4666 24.6617 25.1829 25.1841 24.6779C25.7065 24.1729 26 23.4879 26 22.7737V4.82135C26 4.10716 25.7065 3.42222 25.1841 2.91721C24.6617 2.4122 23.9531 2.12849 23.2143 2.12849ZM2.78571 3.92373H6.5V4.82135C6.5 5.05941 6.59783 5.28772 6.77197 5.45606C6.94611 5.6244 7.1823 5.71897 7.42857 5.71897C7.67484 5.71897 7.91103 5.6244 8.08517 5.45606C8.25931 5.28772 8.35714 5.05941 8.35714 4.82135V3.92373H17.6429V4.82135C17.6429 5.05941 17.7407 5.28772 17.9148 5.45606C18.089 5.6244 18.3252 5.71897 18.5714 5.71897C18.8177 5.71897 19.0539 5.6244 19.228 5.45606C19.4022 5.28772 19.5 5.05941 19.5 4.82135V3.92373H23.2143C23.4606 3.92373 23.6967 4.0183 23.8709 4.18664C24.045 4.35497 24.1429 4.58328 24.1429 4.82135V9.30944H1.85714V4.82135C1.85714 4.58328 1.95497 4.35497 2.12912 4.18664C2.30326 4.0183 2.53944 3.92373 2.78571 3.92373ZM23.2143 23.6713H2.78571C2.53944 23.6713 2.30326 23.5768 2.12912 23.4084C1.95497 23.2401 1.85714 23.0118 1.85714 22.7737V11.1047H24.1429V22.7737C24.1429 23.0118 24.045 23.2401 23.8709 23.4084C23.6967 23.5768 23.4606 23.6713 23.2143 23.6713Z" fill="black"/>
</svg>
