<svg id="q" viewBox="0 0 57 57" xmlns="http://www.w3.org/2000/svg">
<path d="M36.897 33.8699C35.667 33.8699 34.5373 34.288 33.632 34.9839L24.2904 29.3791C24.3373 29.0924 24.368 28.7999 24.368 28.5003C24.368 28.2 24.3373 27.9082 24.2904 27.6211L33.632 22.0164C34.5373 22.713 35.667 23.1307 36.897 23.1307C39.8621 23.1307 42.2666 20.7262 42.2666 17.7612C42.2666 14.7961 39.8621 12.3916 36.897 12.3916C33.9319 12.3916 31.5275 14.7961 31.5275 17.7612C31.5275 18.0608 31.5582 18.3533 31.6059 18.64L22.2642 24.2447C21.3589 23.5488 20.2292 23.1307 18.9985 23.1307C16.0334 23.1307 13.6289 25.5352 13.6289 28.5003C13.6289 31.4654 16.0334 33.8699 18.9985 33.8699C20.2292 33.8699 21.3589 33.4521 22.2642 32.7555L31.6059 38.3603C31.5582 38.6473 31.5275 38.9391 31.5275 39.2394C31.5275 42.2045 33.9319 44.609 36.897 44.609C39.8621 44.609 42.2666 42.2045 42.2666 39.2394C42.2666 36.2744 39.8621 33.8699 36.897 33.8699Z"/>
</svg>
