<svg id="q" viewBox="0 0 40 40" fill="none" xmlns="http://www.w3.org/2000/svg">
<g>
<path d="M20 40C31.0457 40 40 31.0457 40 20C40 8.95431 31.0457 0 20 0C8.95431 0 0 8.95431 0 20C0 31.0457 8.95431 40 20 40Z" fill="#37AEE2"/>
<path d="M7.82098 20.6402C9.99492 19.4495 12.4216 18.4557 14.689 17.4568C18.5898 15.8208 22.5061 14.2131 26.4619 12.7163C27.2314 12.4613 28.6144 12.212 28.75 13.3461C28.6756 14.9515 28.3703 16.5475 28.1608 18.1435C27.6291 21.6532 27.0143 25.1509 26.4151 28.6491C26.2085 29.8142 24.7406 30.4175 23.8013 29.6718C21.544 28.1555 19.2693 26.6543 17.0408 25.1028C16.3109 24.3653 16.9878 23.3061 17.6396 22.7793C19.4988 20.9575 21.4705 19.4095 23.2326 17.4935C23.7079 16.3522 22.3035 17.3141 21.8403 17.6089C19.2951 19.353 16.8121 21.2035 14.1286 22.7364C12.7579 23.4867 11.1603 22.8455 9.7902 22.4266C8.56174 21.921 6.7616 21.4114 7.82083 20.6403L7.82098 20.6402Z" fill="white"/>
</g>
</svg>
