<svg width="22" height="22" viewBox="0 0 22 22" fill="none" xmlns="http://www.w3.org/2000/svg">
<path d="M11 11.8335H12.8333V13.6668H11V11.8335ZM14.6667 11.8335H16.5V13.6668H14.6667V11.8335Z" fill="#8B8B8B"/>
<path d="M1.9359 19.0168L2.93675 0.983496H7.10634L7.86158 7.81664L7.88965 8.07059L8.09772 7.92232L11.8329 5.26069L13.7264 8.00453L13.7993 8.11019L13.915 8.05446L20.0157 5.11478V19.0168H1.9359ZM3.57091 17.3252L3.5621 17.4835H3.72068H7.22234H7.38996L7.37142 17.3169L5.73976 2.65024L5.72491 2.51683H5.59068H4.53651H4.39462L4.38674 2.6585L3.57091 17.3252ZM18.3323 17.4835H18.4823V17.3335V7.791V7.5516L18.2669 7.65602L13.2949 10.0659L11.5347 7.53127L11.4486 7.40724L11.3251 7.49419L8.16263 9.72169L8.09021 9.7727L8.09991 9.86075L8.92491 17.3499L8.93963 17.4835H9.07401H18.3323Z" fill="#8B8B8B" stroke="white" stroke-width="0.3"/>
</svg>
