<svg width="58" height="58" viewBox="0 0 58 58" fill="none" xmlns="http://www.w3.org/2000/svg">
<g id="whatsapp (4)" clip-path="url(#clip0_1_3602)">
<path id="Vector" d="M49.1728 8.80514C43.8202 3.47244 36.7029 0.534015 29.1199 0.530762C13.4939 0.530762 0.777461 13.1872 0.771206 28.7437C0.769385 33.7164 2.07443 38.5705 4.55497 42.8493L0.533203 57.4695L15.5612 53.5463C19.7016 55.7945 24.3636 56.9791 29.1077 56.981H29.1197H29.1199C44.7433 56.981 57.4617 44.3224 57.4683 28.7666C57.4709 21.2272 54.5247 14.1382 49.1728 8.80514ZM29.1199 52.2158H29.1107C24.882 52.2135 20.7352 51.0832 17.1182 48.9464L16.2574 48.4384L7.33952 50.7662L9.72048 42.1128L9.15965 41.2256C6.80086 37.4916 5.55562 33.1764 5.5574 28.7455C5.56258 15.8154 16.132 5.29622 29.1288 5.29622C35.4225 5.29882 41.3379 7.74125 45.7868 12.1736C50.2354 16.606 52.6835 22.4982 52.6817 28.7646C52.6762 41.6951 42.1064 52.2158 29.1199 52.2158Z" fill="#E0E0E0"/>
<path id="Vector_2" d="M1.83398 55.8474L5.67204 41.895C3.3042 37.8116 2.05901 33.1789 2.0605 28.4343C2.06671 13.5887 14.2024 1.51074 29.1133 1.51074C36.3503 1.514 43.1426 4.31804 48.2495 9.40728C53.3576 14.4965 56.1689 21.2611 56.166 28.4554C56.1598 43.3014 44.0234 55.3803 29.1143 55.3803C29.1133 55.3803 29.1151 55.3803 29.1143 55.3803H29.1023C24.5749 55.3789 20.1263 54.2474 16.1752 52.1035L1.83398 55.8474Z" fill="url(#paint0_linear_1_3602)"/>
<path id="Vector_3" fill-rule="evenodd" clip-rule="evenodd" d="M22.1144 16.7658C21.5899 15.6048 21.0377 15.5816 20.5388 15.5613C20.1306 15.5439 19.6634 15.5449 19.1969 15.5449C18.7301 15.5449 17.9714 15.7196 17.3299 16.4172C16.688 17.1148 14.8789 18.8011 14.8789 22.2308C14.8789 25.6609 17.3882 28.9752 17.738 29.4406C18.0882 29.9054 22.582 37.1687 29.699 39.9629C35.6138 42.2851 36.8174 41.8232 38.1013 41.707C39.3851 41.5908 42.2439 40.021 42.8274 38.3931C43.411 36.7656 43.411 35.3705 43.2359 35.0789C43.0609 34.7884 42.594 34.6141 41.8937 34.2655C41.1934 33.9169 37.7511 32.2301 37.1092 31.9977C36.4673 31.7653 36.0004 31.6491 35.5336 32.3471C35.0667 33.0443 33.7256 34.6141 33.3171 35.0789C32.9086 35.5447 32.5001 35.6028 31.7998 35.2542C31.0995 34.9046 28.8444 34.1692 26.1691 31.7943C24.0876 29.9468 22.6823 27.6649 22.2738 26.967C21.8653 26.2698 22.23 25.8921 22.5813 25.5446C22.8956 25.2323 23.2815 24.7308 23.6317 24.3238C23.9811 23.9167 24.0978 23.6262 24.3312 23.1614C24.5646 22.6958 24.4479 22.2888 24.2729 21.9402C24.0978 21.5916 22.737 18.1442 22.1144 16.7658Z" fill="white"/>
<path id="Vector_4" d="M48.9406 8.71555C43.6495 3.44406 36.6138 0.539433 29.1179 0.536133C13.6713 0.536133 1.10083 13.0473 1.09462 28.4252C1.0928 33.3409 2.38286 38.1392 4.83492 42.3689L0.859375 56.8213L15.7148 52.9431C19.8078 55.1654 24.4162 56.3365 29.1059 56.3383H29.1178H29.1179C44.562 56.3383 57.1343 43.825 57.1409 28.4477C57.1434 20.995 54.2311 13.9874 48.9406 8.71555ZM29.1179 51.6279H29.1088C24.9287 51.6257 20.8294 50.5083 17.254 48.3961L16.4031 47.8938L7.58754 50.195L9.94114 41.6408L9.38675 40.7639C7.05505 37.0727 5.82409 32.8071 5.82591 28.4271C5.831 15.6454 16.2791 5.24698 29.1267 5.24698C35.3483 5.24953 41.1956 7.66394 45.5936 12.0454C49.9911 16.4269 52.4111 22.2514 52.4093 28.446C52.4037 41.228 41.9553 51.6279 29.1179 51.6279Z" fill="white"/>
</g>
<defs>
<linearGradient id="paint0_linear_1_3602" x1="29" y1="55.8474" x2="29" y2="1.51083" gradientUnits="userSpaceOnUse">
<stop stop-color="#20B038"/>
<stop offset="1" stop-color="#60D66A"/>
</linearGradient>
<clipPath id="clip0_1_3602">
<rect width="56.9388" height="56.9388" fill="white" transform="translate(0.53125 0.530762)"/>
</clipPath>
</defs>
</svg>
