<svg id="q" viewBox="0 0 24 24" fill="none" xmlns="http://www.w3.org/2000/svg">
<path d="M3.62447 15.9228C5.00921 17.3095 6.85324 18.1419 8.80917 18.2633C10.7651 18.3847 12.6979 17.7866 14.2435 16.5818L19.5615 21.8998C19.7501 22.0819 20.0027 22.1827 20.2649 22.1805C20.5271 22.1782 20.7779 22.073 20.9633 21.8876C21.1487 21.7022 21.2539 21.4514 21.2561 21.1892C21.2584 20.927 21.1576 20.6744 20.9755 20.4858L15.6575 15.1678C16.9158 13.5529 17.5107 11.5189 17.3209 9.48055C17.131 7.44218 16.1708 5.55298 14.636 4.19825C13.1011 2.84352 11.1073 2.1253 9.06113 2.19006C7.01496 2.25483 5.07056 3.0977 3.62447 4.54679C2.87727 5.29361 2.28453 6.18033 1.88013 7.1563C1.47573 8.13227 1.26758 9.17835 1.26758 10.2348C1.26758 11.2912 1.47573 12.3373 1.88013 13.3133C2.28453 14.2892 2.87727 15.176 3.62447 15.9228ZM5.03847 5.96279C6.02705 4.97423 7.32779 4.35903 8.7191 4.22198C10.1104 4.08494 11.5062 4.43453 12.6686 5.21121C13.8311 5.98788 14.6883 7.14358 15.0942 8.4814C15.5001 9.81922 15.4296 11.2564 14.8946 12.548C14.3597 13.8397 13.3935 14.9059 12.1606 15.5651C10.9277 16.2242 9.5044 16.4355 8.13319 16.1629C6.76199 15.8903 5.52772 15.1507 4.64067 14.0701C3.75362 12.9895 3.26868 11.6348 3.26847 10.2368C3.26573 9.44236 3.42078 8.6553 3.72462 7.92127C4.02846 7.18724 4.47505 6.52085 5.03847 5.96079V5.96279Z" fill="black"/>
</svg>
