<svg width="64" height="64" viewBox="0 0 64 64" fill="none" xmlns="http://www.w3.org/2000/svg">
<path d="M19.6181 3C8.94589 3 0.236137 11.4445 0.236137 21.8707C0.236137 27.0245 2.36815 31.6847 5.80844 35.0891L0.0374732 58.0078C-0.0210758 58.2374 -0.0108352 58.4791 0.0669241 58.7029C0.144683 58.9268 0.28654 59.1229 0.474889 59.2669C0.663238 59.4109 0.88979 59.4966 1.12644 59.5132C1.36308 59.5298 1.5994 59.4767 1.80607 59.3603L8.94347 55.3534L13.13 62.4042C13.252 62.6112 13.4331 62.7772 13.6499 62.8811C13.8668 62.9849 14.1097 63.022 14.3478 62.9874C14.5858 62.9529 14.8081 62.8484 14.9865 62.6872C15.1648 62.5261 15.2911 62.3155 15.3492 62.0824L19.4994 45.6169L23.6495 62.0824C23.7076 62.3155 23.8339 62.5261 24.0122 62.6872C24.1906 62.8484 24.4129 62.9529 24.6509 62.9874C24.889 63.022 25.1319 62.9849 25.3488 62.8811C25.5657 62.7772 25.7467 62.6112 25.8687 62.4042L30.0552 55.3534L37.1926 59.3603C37.3993 59.4767 37.6356 59.5298 37.8723 59.5132C38.1089 59.4966 38.3355 59.4109 38.5238 59.2669C38.7122 59.1229 38.854 58.9268 38.9318 58.7029C39.0095 58.4791 39.0198 58.2374 38.9612 58.0078L33.2363 35.2778C36.7905 31.8589 39 27.1188 39 21.8707C39 11.4445 30.2902 3 19.6181 3ZM19.6181 5.41963C29.0159 5.41963 36.5773 12.7898 36.5773 21.8707C36.5773 30.9515 29.0159 38.3217 19.6181 38.3217C10.2178 38.3217 2.65888 30.9515 2.65888 21.8682C2.65888 12.7898 10.2178 5.41963 19.6181 5.41963ZM19.5454 14.2392C19.3603 14.2495 19.18 14.3003 19.0181 14.3879C18.8561 14.4755 18.7167 14.5975 18.6102 14.7449L16.1075 18.1953L11.9477 19.4486C11.7607 19.5054 11.5904 19.6049 11.451 19.7386C11.3116 19.8724 11.2072 20.0366 11.1465 20.2175C11.0858 20.3985 11.0706 20.5909 11.102 20.7787C11.1335 20.9665 11.2108 21.1443 11.3274 21.2972L13.9295 24.6847L13.8689 28.9094C13.8671 29.0702 13.8989 29.2298 13.9623 29.3785C14.0257 29.5271 14.1194 29.6618 14.2378 29.7743C14.3561 29.8869 14.4967 29.9751 14.6511 30.0335C14.8055 30.0919 14.9704 30.1194 15.136 30.1143C15.259 30.1102 15.3807 30.0882 15.497 30.049L19.6156 28.6868L23.7343 30.049C23.9203 30.1112 24.1189 30.1291 24.3134 30.1012C24.508 30.0733 24.6928 30.0005 24.8524 29.8888C25.0119 29.7771 25.1415 29.6299 25.2303 29.4594C25.319 29.289 25.3643 29.1003 25.3624 28.9094L25.3042 24.6847L27.9087 21.2972C28.0253 21.144 28.1024 20.9659 28.1336 20.7778C28.1647 20.5897 28.149 20.3971 28.0878 20.2161C28.0266 20.0351 27.9217 19.871 27.7818 19.7375C27.6419 19.6039 27.471 19.5049 27.2836 19.4486L23.1286 18.1953L20.6211 14.7424C20.5015 14.5761 20.3401 14.4421 20.1523 14.3532C19.9645 14.2643 19.7564 14.2234 19.5478 14.2343L19.5454 14.2392ZM19.6181 17.4984L21.3624 19.8987C21.518 20.1148 21.7429 20.2747 22.0021 20.3536L24.8996 21.227L23.0826 23.5813C22.9204 23.7904 22.8336 24.0455 22.8355 24.3072L22.8839 27.2471L20.0154 26.3034C19.7578 26.2179 19.4783 26.2179 19.2207 26.3034L16.3522 27.2471L16.4007 24.3096C16.4017 24.0465 16.3131 23.7905 16.1487 23.5813L14.3316 21.227L17.2317 20.3536C17.489 20.2738 17.7121 20.114 17.8664 19.8987L19.6181 17.4984ZM7.86777 36.8409C10.8856 39.0878 14.4887 40.417 18.2444 40.6687L13.7163 58.6417L10.4213 53.1032C10.2605 52.8322 10.0001 52.6346 9.69562 52.5524C9.39113 52.4702 9.06653 52.5098 8.79084 52.6628L3.07317 55.8737L7.86777 36.8409ZM31.1673 36.9861L35.928 55.8737L30.2079 52.6628C29.9319 52.509 29.6068 52.469 29.3017 52.5513C28.9966 52.6335 28.7358 52.8316 28.5749 53.1032L25.28 58.6441L20.7592 40.6833C24.5119 40.4759 28.1254 39.1931 31.1673 36.9885V36.9861Z" fill="black"/>
</svg>
