<svg width="64" height="64" viewBox="0 0 64 64" fill="none" xmlns="http://www.w3.org/2000/svg">
<path d="M18.5456 59C21.1564 59 23.2729 56.8835 23.2729 54.2727C23.2729 51.6619 21.1564 49.5454 18.5456 49.5454C15.9348 49.5454 13.8184 51.6619 13.8184 54.2727C13.8184 56.8835 15.9348 59 18.5456 59Z" stroke="black" stroke-width="3" stroke-linecap="round" stroke-linejoin="round"/>
<path d="M46.9089 59C49.5197 59 51.6362 56.8835 51.6362 54.2727C51.6362 51.6619 49.5197 49.5454 46.9089 49.5454C44.2981 49.5454 42.1816 51.6619 42.1816 54.2727C42.1816 56.8835 44.2981 59 46.9089 59Z" stroke="black" stroke-width="3" stroke-linecap="round" stroke-linejoin="round"/>
<path d="M13.0382 18.8182H54L50.0291 38.6491C49.8129 39.7373 49.2209 40.7148 48.3567 41.4105C47.4925 42.1062 46.4111 42.4758 45.3018 42.4545H20.3182C19.164 42.4643 18.0461 42.0515 17.1753 41.2939C16.3045 40.5363 15.7409 39.4863 15.5909 38.3418L11.9982 11.1127C11.8492 9.97638 11.2925 8.93285 10.4316 8.17631C9.57067 7.41976 8.46426 7.00174 7.31818 7L2 7" stroke="black" stroke-width="3" stroke-linecap="round" stroke-linejoin="round"/>
</svg>
