<svg width="64" height="64" viewBox="0 0 64 64" fill="none" xmlns="http://www.w3.org/2000/svg">
<path d="M43.1833 30.3793V30.5293H43.3333H61.0476H61.1976V30.3793V29.672V29.6078L61.1511 29.5635L52.7825 21.5811L52.739 21.5397H52.6789H43.3333H43.1833V21.6897V30.3793ZM43.3333 33.1259H43.1833V33.2759V43.4131V43.8557L43.4524 43.5043C44.7715 41.7818 46.8716 40.6672 49.2381 40.6672C52.2046 40.6672 54.7526 42.4189 55.8679 44.9231L55.9075 45.0121H56.0049H61.0476H61.1976V44.8621V33.2759V33.1259H61.0476H43.3333ZM40.381 45.0121H40.531V44.8621V18.7931V15.8966V15.7466H40.381H4.95238H4.80238V15.8966V44.8621V45.0121H4.95238H7.04273H7.14013L7.17976 44.9231C8.29498 42.4189 10.843 40.6672 13.8095 40.6672C16.7761 40.6672 19.3241 42.4189 20.4393 44.9231L20.4789 45.0121H20.5763H40.381ZM43.1833 18.7931V18.9431H43.3333H53.8175L63.85 28.5125V44.8621C63.85 46.3763 62.598 47.6086 61.0476 47.6086H56.619H56.469V47.7586C56.469 51.6724 53.2344 54.85 49.2381 54.85C45.2418 54.85 42.0071 51.6724 42.0071 47.7586V47.6086H41.8571H21.1905H21.0405V47.7586C21.0405 51.6724 17.8058 54.85 13.8095 54.85C9.81327 54.85 6.57857 51.6724 6.57857 47.7586V47.6086H6.42857H4.95238C3.40196 47.6086 2.15 46.3763 2.15 44.8621V15.8966C2.15 14.3824 3.40196 13.15 4.95238 13.15H40.381C41.9314 13.15 43.1833 14.3824 43.1833 15.8966V18.7931ZM13.8095 52.2534C16.3355 52.2534 18.3881 50.2437 18.3881 47.7586C18.3881 45.2735 16.3355 43.2638 13.8095 43.2638C11.2836 43.2638 9.23095 45.2735 9.23095 47.7586C9.23095 50.2437 11.2836 52.2534 13.8095 52.2534ZM49.2381 52.2534C51.7641 52.2534 53.8167 50.2437 53.8167 47.7586C53.8167 45.2735 51.7641 43.2638 49.2381 43.2638C46.7121 43.2638 44.6595 45.2735 44.6595 47.7586C44.6595 50.2437 46.7121 52.2534 49.2381 52.2534Z" fill="black" stroke="#EDF3F5" stroke-width="0.3"/>
</svg>
