<svg width="64" height="64" viewBox="0 0 64 64" fill="none" xmlns="http://www.w3.org/2000/svg">
<path d="M55.3778 47.9847C54.7641 47.9847 54.2667 48.4842 54.2667 49.1004V53.1839C54.2667 55.0325 52.7743 56.531 50.9333 56.531H5.55556C3.71461 56.531 2.22222 55.0325 2.22222 53.1839V17.4812C2.22222 15.6326 3.71461 14.1341 5.55556 14.1341H16.4667C17.0803 14.1341 17.5778 13.6345 17.5778 13.0184C17.5778 12.4022 17.0803 11.9026 16.4667 11.9026H5.55556C2.48731 11.9026 0 14.4002 0 17.4812V53.1839C0 56.2648 2.48731 58.7624 5.55556 58.7624H50.9333C53.9965 58.7502 56.4767 56.2598 56.4889 53.1839V49.1004C56.4889 48.4842 55.9914 47.9847 55.3778 47.9847Z" fill="black"/>
<path d="M56.6667 29.33H56.4889V17.4811C56.4767 14.4053 53.9965 11.9148 50.9333 11.9026C50.3197 11.9026 49.8222 12.4021 49.8222 13.0183C49.8222 13.6345 50.3197 14.134 50.9333 14.134C52.7743 14.134 54.2667 15.6326 54.2667 17.4811V18.1059H53.0222L46.3556 11.4117L41.5111 6.54719C41.3025 6.33597 41.0185 6.21716 40.7222 6.21716C40.426 6.21716 40.142 6.33597 39.9333 6.54719L34.0667 12.4381L28.1778 6.54719C27.7382 6.11924 27.0396 6.11924 26.6 6.54719L15.0889 18.1059H11.1111C10.4975 18.1059 10 18.6055 10 19.2216C10 19.8378 10.4975 20.3374 11.1111 20.3374H54.2667V29.263H47.7778C43.4822 29.263 40 32.7597 40 37.073V37.9209C40 42.2343 43.4822 45.7309 47.7778 45.7309H56.6667C58.5076 45.7309 60 44.2323 60 42.3838V32.6771C60 30.8285 58.5076 29.33 56.6667 29.33ZM40.7333 8.91249L43.9556 12.148C42.0069 13.4627 39.4598 13.4627 37.5111 12.148L40.7333 8.91249ZM35.9333 13.7324C38.7677 15.9047 42.699 15.9047 45.5333 13.7324L49.9778 18.1952H39.6889L35.6222 14.0224L35.9333 13.7324ZM23.0444 18.1952L29.7111 11.5009L31.2667 13.0629L26.1556 18.1059L23.0444 18.1952ZM32.9333 14.558L36.6667 18.1059H29.2889L32.9333 14.558ZM27.4 8.91249L28.2222 9.73812L19.8889 18.1059H18.2444L27.4 8.91249ZM57.7778 42.3838C57.7778 43 57.2803 43.4995 56.6667 43.4995H47.7778C46.3044 43.4995 44.8913 42.9117 43.8494 41.8656C42.8075 40.8194 42.2222 39.4005 42.2222 37.9209V37.073C42.2222 33.992 44.7095 31.4944 47.7778 31.4944H56.6667C57.2803 31.4944 57.7778 31.994 57.7778 32.6102V42.3838Z" fill="black"/>
<path d="M47.9546 39.7954C49.1819 39.7954 50.1769 38.7963 50.1769 37.5639C50.1769 36.3316 49.1819 35.3325 47.9546 35.3325C46.7273 35.3325 45.7324 36.3316 45.7324 37.5639C45.7324 38.7963 46.7273 39.7954 47.9546 39.7954Z" fill="black"/>
</svg>
