<svg id="q" viewBox="0 0 80 80" xmlns="http://www.w3.org/2000/svg">
<g>
<path d="M49.85 36.9655V37.1155H50H67.1429H67.2929V36.9655V36.2751V36.2112L67.2469 36.167L59.1481 28.3747L59.1046 28.3328H59.0441H50H49.85V28.4828V36.9655ZM50 39.6431H49.85V39.7931V49.689V50.1346L50.1195 49.7797C51.3953 48.0991 53.4262 47.0121 55.7143 47.0121C58.5825 47.0121 61.0468 48.7204 62.1256 51.164L62.1651 51.2534H62.2628H67.1429H67.2929V51.1034V39.7931V39.6431H67.1429H50ZM47.1429 51.2534H47.2929V51.1034V25.6552V22.8276V22.6776H47.1429H12.8571H12.7071V22.8276V51.1034V51.2534H12.8571H14.8801H14.9778L15.0173 51.164C16.0961 48.7204 18.5604 47.0121 21.4286 47.0121C24.2967 47.0121 26.761 48.7204 27.8399 51.164L27.8793 51.2534H27.9771H47.1429ZM49.85 25.6552V25.8052H50H60.1436L69.85 35.1443V51.1034C69.85 52.5808 68.6394 53.781 67.1429 53.781H62.8571H62.7071V53.931C62.7071 57.7508 59.5778 60.85 55.7143 60.85C51.8508 60.85 48.7214 57.7508 48.7214 53.931V53.781H48.5714H28.5714H28.4214V53.931C28.4214 57.7508 25.2921 60.85 21.4286 60.85C17.565 60.85 14.4357 57.7508 14.4357 53.931V53.781H14.2857H12.8571C11.3606 53.781 10.15 52.5808 10.15 51.1034V22.8276C10.15 21.3503 11.3606 20.15 12.8571 20.15H47.1429C48.6394 20.15 49.85 21.3503 49.85 22.8276V25.6552ZM21.4286 58.3224C23.8769 58.3224 25.8643 56.3578 25.8643 53.931C25.8643 51.5043 23.8769 49.5397 21.4286 49.5397C18.9803 49.5397 16.9929 51.5043 16.9929 53.931C16.9929 56.3578 18.9803 58.3224 21.4286 58.3224ZM55.7143 58.3224C58.1626 58.3224 60.15 56.3578 60.15 53.931C60.15 51.5043 58.1626 49.5397 55.7143 49.5397C53.266 49.5397 51.2786 51.5043 51.2786 53.931C51.2786 56.3578 53.266 58.3224 55.7143 58.3224Z"/>
</g>
</svg>
