<svg id="q" viewBox="0 0 80 80" xmlns="http://www.w3.org/2000/svg">
<g>
<path d="M35.7467 72.5688C34.5729 72.5688 33.0904 72.1713 30.1217 70.5363C28.436 69.6057 26.8081 68.5743 25.2467 67.4475L18.3529 69.515C18.165 69.5712 17.9665 69.5824 17.7734 69.5477C17.5804 69.5129 17.3982 69.4332 17.2417 69.315C13.5256 66.5174 10.6264 62.7758 8.84543 58.4788C8.76933 58.2954 8.73803 58.0965 8.7541 57.8986C8.77018 57.7006 8.83318 57.5094 8.93789 57.3407C9.0426 57.1719 9.18599 57.0306 9.35621 56.9283C9.52642 56.826 9.71855 56.7658 9.91668 56.7525C13.5359 56.5265 17.0815 55.6296 20.3729 54.1076C21.5158 53.5747 22.6224 52.9671 23.6854 52.2888C25.1571 51.2566 26.7135 50.3509 28.3379 49.5813C29.3398 49.1445 30.3656 48.7647 31.4104 48.4438C31.5042 48.4188 31.6617 48.3763 31.8654 48.3163L32.0742 48.2513C32.2754 48.1888 32.4617 48.1301 32.9054 48.0138C33.3267 47.9051 33.8929 47.7676 34.5929 47.6238C36.1784 47.2437 37.8131 47.1105 39.4392 47.2288C40.1657 47.2822 40.8847 47.4116 41.5842 47.6151C42.5117 47.8926 43.3429 48.2313 44.1467 48.5575C45.0101 48.9275 45.8936 49.2488 46.7929 49.52C47.5683 49.742 48.3639 49.8857 49.1679 49.9488C49.9642 50.025 50.9554 50.12 51.3854 51.1725C51.5139 51.5284 51.5596 51.9089 51.5191 52.2852C51.4786 52.6614 51.353 53.0234 51.1517 53.3438C50.6035 54.4106 49.711 55.2608 48.6189 55.7566C47.5269 56.2524 46.2993 56.3646 45.1354 56.075C44.7904 56.0225 44.4767 55.9626 44.1879 55.8951C44.6176 56.2037 45.0678 56.4827 45.5354 56.7301C47.3058 57.663 49.2848 58.1289 51.2854 58.0838L55.0604 58.0826C55.3697 58.0828 55.6679 58.1977 55.8974 58.405C56.1269 58.6123 56.2714 58.8974 56.3029 59.205C56.4272 60.2151 56.2511 61.2394 55.7967 62.15C54.6092 64.4525 51.6342 65.6225 48.2817 65.1475C45.7238 67.1406 43.0972 69.0439 40.4067 70.8538C39.1404 71.8274 37.6227 72.4197 36.0317 72.5613C35.9368 72.5661 35.8417 72.5686 35.7467 72.5688ZM25.4829 64.8213C25.7508 64.8216 26.0116 64.9079 26.2267 65.0675C27.8515 66.2731 29.5554 67.3685 31.3267 68.3463C34.5767 70.135 35.4704 70.0863 35.8992 70.065C37.0385 69.9425 38.1187 69.4956 39.0117 68.7775C41.8043 66.899 44.527 64.9185 47.1742 62.8401C47.3151 62.7292 47.4783 62.6502 47.6527 62.6083C47.827 62.5665 48.0083 62.5628 48.1842 62.5976C50.5892 63.0651 52.8567 62.395 53.5742 61.005C53.6436 60.8703 53.6988 60.7287 53.7392 60.5826H51.3154C48.9811 60.6345 46.6699 60.1095 44.5871 59.0541C42.5043 57.9988 40.7141 56.4457 39.3754 54.5326C38.8406 54.4964 38.3039 54.4968 37.7692 54.5338C37.5442 54.5501 37.3567 54.5688 37.2317 54.5838C36.9023 54.6219 36.5713 54.5276 36.3114 54.3217C36.0516 54.1158 35.8842 53.815 35.8461 53.4857C35.8079 53.1563 35.9022 52.8253 36.1081 52.5654C36.3141 52.3056 36.6148 52.1382 36.9442 52.1C37.0942 52.0825 37.3192 52.06 37.5967 52.04C38.4692 51.9808 39.3452 52.0005 40.2142 52.0988L40.2379 52.1013C41.1599 52.2187 42.0598 52.4701 42.9092 52.8475C43.7415 53.2116 44.6176 53.4658 45.5154 53.6038C45.9618 53.7178 46.4254 53.7487 46.8829 53.695C47.6441 53.4997 48.3163 53.0515 48.7892 52.4238C47.8802 52.3434 46.9811 52.176 46.1042 51.9238C45.1187 51.628 44.1506 51.2775 43.2042 50.8738C42.4204 50.5538 41.6804 50.2538 40.8667 50.0101C40.3335 49.8559 39.7854 49.7587 39.2317 49.72C37.8421 49.6253 36.4463 49.7446 35.0929 50.0738C34.4454 50.2063 33.9217 50.3338 33.5329 50.4338C33.1517 50.5338 32.9929 50.5838 32.8204 50.6363L32.5817 50.7113C32.3442 50.7813 32.1604 50.8313 32.0854 50.85C31.1615 51.1382 30.2535 51.4754 29.3654 51.8601C27.8717 52.5736 26.4397 53.4098 25.0842 54.3601C23.9117 55.1117 22.6902 55.784 21.4279 56.3726C18.4045 57.7752 15.1778 58.6894 11.8679 59.0813C13.4005 62.1312 15.5784 64.8112 18.2504 66.935L25.1242 64.875C25.2406 64.8402 25.3614 64.8212 25.4829 64.8213Z"/>
<path d="M63.75 60.5H49.4875C49.156 60.5 48.838 60.3683 48.6036 60.1339C48.3692 59.8995 48.2375 59.5815 48.2375 59.25C48.2375 58.9185 48.3692 58.6005 48.6036 58.3661C48.838 58.1317 49.156 58 49.4875 58H62.5V19.25H21.25V55.65C21.25 55.9815 21.1183 56.2995 20.8839 56.5339C20.6495 56.7683 20.3315 56.9 20 56.9C19.6685 56.9 19.3505 56.7683 19.1161 56.5339C18.8817 56.2995 18.75 55.9815 18.75 55.65V18C18.75 17.6685 18.8817 17.3505 19.1161 17.1161C19.3505 16.8817 19.6685 16.75 20 16.75H63.75C64.0815 16.75 64.3995 16.8817 64.6339 17.1161C64.8683 17.3505 65 17.6685 65 18V59.25C65 59.5815 64.8683 59.8995 64.6339 60.1339C64.3995 60.3683 64.0815 60.5 63.75 60.5Z"/>
<path d="M46.875 29.5H36.875C36.5435 29.5 36.2255 29.3683 35.9911 29.1339C35.7567 28.8995 35.625 28.5815 35.625 28.25V18.25C35.625 17.9185 35.7567 17.6005 35.9911 17.3661C36.2255 17.1317 36.5435 17 36.875 17H46.875C47.2065 17 47.5245 17.1317 47.7589 17.3661C47.9933 17.6005 48.125 17.9185 48.125 18.25V28.25C48.125 28.5815 47.9933 28.8995 47.7589 29.1339C47.5245 29.3683 47.2065 29.5 46.875 29.5ZM38.125 27H45.625V19.5H38.125V27Z"/>
</g>
</svg>
