<svg id="q" viewBox="0 0 80 80" xmlns="http://www.w3.org/2000/svg">
<g>
<path d="M20.776 14.0005V14.0051C20.5399 14.0144 20.3124 14.0956 20.1242 14.2377C19.9359 14.3798 19.7961 14.5759 19.7235 14.7997L18.1193 19.7602C17.1061 18.1228 15.5735 17.071 13.9278 16.7058C13.0625 16.5105 12.1642 16.5105 11.2989 16.7058C9.56777 17.1077 7.97979 18.3088 7.08424 20.1851C6.19792 22.0407 5.97634 24.5095 6.69186 27.5111L9.53084 46.2555L6.56953 55.4003L5.46625 55.1041C5.35471 55.0708 5.23876 55.0546 5.12234 55.0559V55.0604C4.84423 55.0681 4.57825 55.1754 4.37336 55.3626C4.16847 55.5499 4.03846 55.8045 4.00728 56.0796C3.97609 56.3546 4.04582 56.6317 4.20364 56.8596C4.36145 57.0876 4.59672 57.2512 4.86614 57.3202L7.00807 57.8898L7.0173 57.8944C7.02114 57.8959 7.02499 57.8975 7.02884 57.899L38.8578 66.3824L41.0205 66.9612C41.3165 67.0397 41.6317 66.9981 41.8968 66.8454C42.1619 66.6927 42.3552 66.4415 42.4342 66.147C42.5132 65.8525 42.4713 65.5389 42.3179 65.2751C42.1644 65.0113 41.912 64.819 41.616 64.7404L40.5104 64.4418L41.886 58.0873L63.677 44.4389L64.1547 45.2588C64.23 45.3904 64.3306 45.506 64.4509 45.5987C64.5712 45.6915 64.7087 45.7597 64.8556 45.7994C65.0025 45.8391 65.1558 45.8495 65.3067 45.8299C65.4577 45.8104 65.6032 45.7614 65.735 45.6857C65.8668 45.61 65.9823 45.509 66.0747 45.3887C66.1672 45.2684 66.2348 45.1311 66.2737 44.9847C66.3126 44.8383 66.322 44.6857 66.3014 44.5357C66.2808 44.3856 66.2305 44.2411 66.1536 44.1105L65.0918 42.2848C65.0866 42.2747 65.0812 42.2648 65.0757 42.2549L62.8807 38.4725C62.8791 38.4709 62.8776 38.4694 62.876 38.4679L61.7566 36.5388C61.6527 36.3545 61.4996 36.2023 61.3143 36.0989C61.129 35.9956 60.9187 35.9452 60.7064 35.9532C60.5067 35.9611 60.3124 36.0205 60.1426 36.1255C59.9729 36.2306 59.8335 36.3778 59.7381 36.5526C59.6427 36.7274 59.5945 36.9238 59.5984 37.1227C59.6023 37.3216 59.658 37.5161 59.7601 37.6871L60.284 38.585L44.2888 46.9674L49.5282 22.7434C49.5903 22.4552 49.5387 22.1543 49.3841 21.903C49.2294 21.6516 48.9835 21.469 48.6973 21.3931L21.1176 14.0418C21.0064 14.0111 20.8913 13.9972 20.776 14.0005ZM21.5838 16.5427L47.0424 23.3267L38.2831 63.8516L8.80148 55.9928L21.5838 16.5427ZM12.6353 18.8462C14.5418 18.8048 16.5406 20.1391 16.9584 23.3336L11.1188 41.3524L8.97228 27.1735C8.96771 27.1388 8.96155 27.1043 8.95381 27.0701C8.30292 24.4015 8.54989 22.4678 9.16616 21.1772C9.78243 19.8865 10.7565 19.1953 11.8205 18.9495C12.0882 18.8852 12.3629 18.8508 12.6376 18.8439L12.6353 18.8462ZM70.2251 34.2285L70.022 34.2514L68.554 34.5201L68.3601 34.5729H68.3555L68.7641 35.6684L68.9718 36.7753L70.3474 36.5227H71.0468L71.0329 34.2262L70.2251 34.2285ZM73.7104 34.5821L72.9256 36.7409L74.1604 37.1887L74.8413 37.5791L76 35.5949L75.2245 35.1471L75.0398 35.0575L73.7104 34.5821ZM66.0705 35.5926L65.4427 35.9647L65.2765 36.0795L64.0809 37.1083L65.5881 38.8468L66.7098 37.8777L67.2453 37.5699L66.0682 35.5903L66.0705 35.5926ZM69.4542 38.8698L68.4848 39.0145L68.4178 39.0374L68.3555 39.0604L67.3907 39.336L67.3261 39.3589L67.2638 39.3865L66.3267 39.7815L67.2268 41.8943L68.1109 41.52L68.9279 41.288L69.8327 41.1342L69.4542 38.8698ZM72.1593 38.9203L71.7277 41.1939L72.3186 41.3064L73.1656 41.5705L74.0196 41.9518L74.9683 39.8573L74.0404 39.4439L73.9758 39.4164L73.9135 39.3911L72.9579 39.0903L72.8887 39.0673L72.8263 39.0443L72.1593 38.9203ZM61.4358 40.5784L62.5206 42.4501L42.5646 54.9502L43.6564 49.8978L61.4358 40.5784Z"/>
</g>
</svg>
