<svg id="q" viewBox="0 0 34 34" xmlns="http://www.w3.org/2000/svg">
<path d="M16.7527 12.5L21.3636 16.9767V16.75C21.3636 15.6228 20.9039 14.5418 20.0856 13.7448C19.2672 12.9478 18.1573 12.5 17 12.5H16.7527ZM10.4982 13.6333L12.7527 15.8292C12.68 16.1267 12.6364 16.4242 12.6364 16.75C12.6364 17.8772 13.0961 18.9582 13.9144 19.7552C14.7328 20.5522 15.8427 21 17 21C17.32 21 17.64 20.9575 17.9455 20.8867L20.2 23.0825C19.2255 23.55 18.1491 23.8333 17 23.8333C15.0712 23.8333 13.2213 23.0871 11.8574 21.7587C10.4935 20.4303 9.72727 18.6286 9.72727 16.75C9.72727 15.6308 10.0182 14.5825 10.4982 13.6333ZM2.45455 5.79917L5.77091 9.02917L6.42545 9.66667C4.02545 11.5083 2.13455 13.9167 1 16.75C3.51636 22.9692 9.72727 27.375 17 27.375C19.2545 27.375 21.4073 26.95 23.3709 26.185L23.9964 26.78L28.2436 30.9167L30.0909 29.1175L4.30182 4M17 9.66667C18.9288 9.66667 20.7787 10.4129 22.1426 11.7413C23.5065 13.0697 24.2727 14.8714 24.2727 16.75C24.2727 17.6567 24.0836 18.535 23.7491 19.3283L28.0109 23.4792C30.1927 21.7083 31.9382 19.385 33 16.75C30.4836 10.5308 24.2727 6.125 17 6.125C14.9636 6.125 13.0145 6.47917 11.1818 7.11667L14.3382 10.1625C15.1673 9.85083 16.0545 9.66667 17 9.66667Z"/>
</svg>
