<svg id="q" viewBox="0 0 34 34" xmlns="http://www.w3.org/2000/svg">
<path d="M16.9996 20.4C17.9013 20.4 18.7661 20.0418 19.4038 19.4041C20.0414 18.7665 20.3996 17.9017 20.3996 17C20.3996 16.0982 20.0414 15.2334 19.4038 14.5958C18.7661 13.9582 17.9013 13.6 16.9996 13.6C16.0979 13.6 15.2331 13.9582 14.5954 14.5958C13.9578 15.2334 13.5996 16.0982 13.5996 17C13.5996 17.9017 13.9578 18.7665 14.5954 19.4041C15.2331 20.0418 16.0979 20.4 16.9996 20.4Z"/>
<path fill-rule="evenodd" clip-rule="evenodd" d="M0.77832 17C2.94412 10.1031 9.38712 5.09998 16.9997 5.09998C24.6123 5.09998 31.0553 10.1031 33.2211 17C31.0553 23.8969 24.6123 28.9 16.9997 28.9C9.38712 28.9 2.94412 23.8969 0.77832 17ZM23.7997 17C23.7997 18.8034 23.0833 20.5331 21.808 21.8083C20.5328 23.0835 18.8032 23.8 16.9997 23.8C15.1962 23.8 13.4666 23.0835 12.1914 21.8083C10.9161 20.5331 10.1997 18.8034 10.1997 17C10.1997 15.1965 10.9161 13.4669 12.1914 12.1916C13.4666 10.9164 15.1962 10.2 16.9997 10.2C18.8032 10.2 20.5328 10.9164 21.808 12.1916C23.0833 13.4669 23.7997 15.1965 23.7997 17Z"/>
</svg>
