<svg width="57.000000" height="57.000000" viewBox="0 0 57 57" fill="none" xmlns="http://www.w3.org/2000/svg" xmlns:xlink="http://www.w3.org/1999/xlink">
	<desc>
			Created with Pixso.
	</desc>
	<defs>
		<clipPath id="clip46_2962">
			<rect id="фрейм 1" width="57.000000" height="57.000000" fill="white" fill-opacity="0"/>
		</clipPath>
	</defs>
	<rect id="фрейм 1" width="57.000000" height="57.000000" fill="#FFFFFF" fill-opacity="0"/>
	<g clip-path="url(#clip46_2962)">
		<path id="Vector" d="M39.7598 16.1343C40.5576 15.2773 41.0547 14.1113 41.0547 12.8257C41.0547 10.1431 38.9111 8 36.3145 8C34.3428 8 29.7998 10.9487 27.9824 13.5972C26.1055 10.9487 21.5801 8.08594 19.6855 8.08594C17.0967 8.08594 14.9453 10.2285 14.9453 12.9116C14.9453 14.1543 15.4082 15.2773 16.1543 16.1255L7 16.1255L7 27.6543L9.50293 27.6543L9.50293 50L22.6426 50L33.3652 50L46.5059 50L46.5059 27.6631L49 27.6631L49 16.1343L39.7598 16.1343ZM36.3145 9.7915C37.9258 9.7915 39.2627 11.1284 39.2627 12.9199C39.2627 14.4287 38.209 15.7227 36.8457 15.9971L29.5947 15.9971C29.1318 15.8599 28.9854 15.6973 28.9854 15.603C28.9854 14.0771 34.3428 9.7915 36.3145 9.7915ZM19.6855 9.7915C21.5625 9.7915 27.0146 14.0771 27.0146 15.603C27.0146 15.7402 26.6973 15.894 26.4658 15.9971L19.1631 15.9971C17.7998 15.7227 16.7461 14.4287 16.7461 12.9199C16.7373 11.2144 18.083 9.7915 19.6855 9.7915ZM22.6348 48.2085L11.2861 48.2085L11.2861 27.6631L22.6348 27.6631L22.6348 48.2085ZM22.6348 25.9658L8.79102 25.9658L8.79102 17.9258L22.6426 17.9258L22.6426 25.9658L22.6348 25.9658ZM31.5654 48.2085L24.417 48.2085L24.417 17.917L31.5654 17.917L31.5654 48.2085ZM44.7061 48.2085L33.3574 48.2085L33.3574 27.6631L44.7061 27.6631L44.7061 48.2085ZM47.2002 25.9658L33.3574 25.9658L33.3574 17.9258L47.209 17.9258L47.209 25.9658L47.2002 25.9658Z" fill="#1AC954" fill-opacity="1.000000" fill-rule="nonzero"/>
	</g>
</svg>
