<svg width="70" height="70" viewBox="0 0 70 70" fill="none" xmlns="http://www.w3.org/2000/svg">
<path d="M48.375 20H20.625C18.0757 20 16 22.0739 16 24.625V44.975C16 47.5261 18.0757 49.6 20.625 49.6H48.375C50.9243 49.6 53 47.5261 53 44.975V24.625C53 22.0739 50.9243 20 48.375 20ZM20.625 21.85H48.375C49.9049 21.85 51.15 23.0951 51.15 24.625V27.4H17.85V24.625C17.85 23.0951 19.0951 21.85 20.625 21.85ZM48.375 47.75H20.625C19.0951 47.75 17.85 46.5049 17.85 44.975V29.25H51.15V44.975C51.15 46.5049 49.9049 47.75 48.375 47.75Z" fill="#1AC954"/>
<path d="M24.3242 42.2002H20.6242C20.1136 42.2002 19.6992 42.6146 19.6992 43.1252C19.6992 43.6358 20.1136 44.0502 20.6242 44.0502H24.3242C24.8348 44.0502 25.2492 43.6358 25.2492 43.1252C25.2492 42.6146 24.8348 42.2002 24.3242 42.2002Z" fill="#1AC954"/>
<path d="M31.7266 42.2002H28.0266C27.516 42.2002 27.1016 42.6146 27.1016 43.1252C27.1016 43.6358 27.516 44.0502 28.0266 44.0502H31.7266C32.2372 44.0502 32.6516 43.6358 32.6516 43.1252C32.6516 42.6146 32.2372 42.2002 31.7266 42.2002Z" fill="#1AC954"/>
<path d="M39.125 42.2002H35.425C34.9144 42.2002 34.5 42.6146 34.5 43.1252C34.5 43.6358 34.9144 44.0502 35.425 44.0502H39.125C39.6356 44.0502 40.05 43.6358 40.05 43.1252C40.05 42.6146 39.6356 42.2002 39.125 42.2002Z" fill="#1AC954"/>
</svg>
