<svg width="70" height="70" viewBox="0 0 70 70" fill="none" xmlns="http://www.w3.org/2000/svg">
<g clip-path="url(#clip0_1_8680)">
<path d="M51.5279 25.2604L35.6059 15.1276C35.3742 14.9819 35.0828 14.976 34.8467 15.113L17.3613 25.3128C17.0772 25.4804 16.9387 25.8155 17.0262 26.1332C17.1107 26.4523 17.4007 26.6723 17.7285 26.6723H51.2423C51.2539 26.6738 51.2655 26.6723 51.2714 26.6723C51.6736 26.6723 52 26.3459 52 25.9438C52 25.632 51.8033 25.3653 51.5279 25.2604ZM20.4242 25.2152L35.198 16.5964L48.7418 25.2152H20.4242Z" fill="#1AC954"/>
<path d="M51.2423 44.1577H17.7286C17.3264 44.1577 17 44.4841 17 44.8863V49.2577C17 49.6598 17.3264 49.9862 17.7286 49.9862H51.2423C51.6459 49.9862 51.9709 49.6598 51.9709 49.2577V44.8863C51.9708 44.4841 51.6444 44.1577 51.2423 44.1577ZM50.5137 48.5291H18.4571V45.6148H50.5137V48.5291H50.5137Z" fill="#1AC954"/>
<path d="M26.4713 28.1294H22.0999C21.6978 28.1294 21.3714 28.4558 21.3714 28.858V41.972C21.3714 42.3742 21.6978 42.7006 22.0999 42.7006H26.4713C26.8749 42.7006 27.1999 42.3742 27.1999 41.972V28.858C27.1998 28.4558 26.8735 28.1294 26.4713 28.1294ZM25.7427 41.2435H22.8284V29.5866H25.7427V41.2435Z" fill="#1AC954"/>
<path d="M22.0999 28.1294H20.6428C20.2406 28.1294 19.9142 28.4558 19.9142 28.858C19.9142 29.2601 20.2406 29.5866 20.6428 29.5866H22.0999C22.5035 29.5866 22.8284 29.2601 22.8284 28.858C22.8284 28.4558 22.5021 28.1294 22.0999 28.1294Z" fill="#1AC954"/>
<path d="M22.0999 41.2432H20.6428C20.2406 41.2432 19.9142 41.5696 19.9142 41.9717C19.9142 42.3739 20.2406 42.7003 20.6428 42.7003H22.0999C22.5035 42.7003 22.8284 42.3739 22.8284 41.9717C22.8284 41.5696 22.5021 41.2432 22.0999 41.2432Z" fill="#1AC954"/>
<path d="M27.9284 41.2432H26.4713C26.0691 41.2432 25.7427 41.5696 25.7427 41.9717C25.7427 42.3739 26.0691 42.7003 26.4713 42.7003H27.9284C28.332 42.7003 28.657 42.3739 28.657 41.9717C28.657 41.5696 28.3305 41.2432 27.9284 41.2432Z" fill="#1AC954"/>
<path d="M27.9284 28.1294H26.4713C26.0691 28.1294 25.7427 28.4558 25.7427 28.858C25.7427 29.2601 26.0691 29.5866 26.4713 29.5866H27.9284C28.332 29.5866 28.657 29.2601 28.657 28.858C28.657 28.4558 28.3305 28.1294 27.9284 28.1294Z" fill="#1AC954"/>
<path d="M36.6711 28.1294H32.2997C31.8976 28.1294 31.5712 28.4558 31.5712 28.858V41.972C31.5712 42.3742 31.8976 42.7006 32.2997 42.7006H36.6711C37.0747 42.7006 37.3997 42.3742 37.3997 41.972V28.858C37.3997 28.4558 37.0733 28.1294 36.6711 28.1294ZM35.9425 41.2435H33.0282V29.5866H35.9425V41.2435Z" fill="#1AC954"/>
<path d="M32.2997 28.1294H30.8426C30.4405 28.1294 30.1141 28.4558 30.1141 28.858C30.1141 29.2601 30.4405 29.5866 30.8426 29.5866H32.2997C32.7033 29.5866 33.0283 29.2601 33.0283 28.858C33.0283 28.4558 32.7019 28.1294 32.2997 28.1294Z" fill="#1AC954"/>
<path d="M32.2997 41.2432H30.8426C30.4405 41.2432 30.1141 41.5696 30.1141 41.9717C30.1141 42.3739 30.4405 42.7003 30.8426 42.7003H32.2997C32.7033 42.7003 33.0283 42.3739 33.0283 41.9717C33.0283 41.5696 32.7019 41.2432 32.2997 41.2432Z" fill="#1AC954"/>
<path d="M38.1282 41.2432H36.6711C36.2689 41.2432 35.9425 41.5696 35.9425 41.9717C35.9425 42.3739 36.2689 42.7003 36.6711 42.7003H38.1282C38.5318 42.7003 38.8568 42.3739 38.8568 41.9717C38.8568 41.5696 38.5303 41.2432 38.1282 41.2432Z" fill="#1AC954"/>
<path d="M38.1282 28.1294H36.6711C36.2689 28.1294 35.9425 28.4558 35.9425 28.858C35.9425 29.2601 36.2689 29.5866 36.6711 29.5866H38.1282C38.5318 29.5866 38.8568 29.2601 38.8568 28.858C38.8568 28.4558 38.5303 28.1294 38.1282 28.1294Z" fill="#1AC954"/>
<path d="M46.8709 28.1294H42.4995C42.0974 28.1294 41.771 28.4558 41.771 28.858V41.972C41.771 42.3742 42.0974 42.7006 42.4995 42.7006H46.8709C47.2745 42.7006 47.5995 42.3742 47.5995 41.972V28.858C47.5995 28.4558 47.2731 28.1294 46.8709 28.1294ZM46.1424 41.2435H43.2281V29.5866H46.1424V41.2435Z" fill="#1AC954"/>
<path d="M42.4996 28.1294H41.0425C40.6403 28.1294 40.3139 28.4558 40.3139 28.858C40.3139 29.2601 40.6403 29.5866 41.0425 29.5866H42.4996C42.9031 29.5866 43.2281 29.2601 43.2281 28.858C43.2281 28.4558 42.9017 28.1294 42.4996 28.1294Z" fill="#1AC954"/>
<path d="M42.4996 41.2432H41.0425C40.6403 41.2432 40.3139 41.5696 40.3139 41.9717C40.3139 42.3739 40.6403 42.7003 41.0425 42.7003H42.4996C42.9031 42.7003 43.2281 42.3739 43.2281 41.9717C43.2281 41.5696 42.9017 41.2432 42.4996 41.2432Z" fill="#1AC954"/>
<path d="M48.3281 41.2432H46.871C46.4688 41.2432 46.1424 41.5696 46.1424 41.9717C46.1424 42.3739 46.4688 42.7003 46.871 42.7003H48.3281C48.7317 42.7003 49.0566 42.3739 49.0566 41.9717C49.0566 41.5696 48.7302 41.2432 48.3281 41.2432Z" fill="#1AC954"/>
<path d="M48.3281 28.1294H46.871C46.4688 28.1294 46.1424 28.4558 46.1424 28.858C46.1424 29.2601 46.4688 29.5866 46.871 29.5866H48.3281C48.7317 29.5866 49.0566 29.2601 49.0566 28.858C49.0566 28.4558 48.7302 28.1294 48.3281 28.1294Z" fill="#1AC954"/>
</g>
<defs>
<clipPath id="clip0_1_8680">
<rect width="35" height="35" fill="white" transform="translate(17 15)"/>
</clipPath>
</defs>
</svg>
