<svg width="70" height="70" viewBox="0 0 70 70" fill="none" xmlns="http://www.w3.org/2000/svg">
<path d="M46.4807 49.6548H22.5193C20.5789 49.6548 19 47.943 19 45.8394V23.8154C19 21.7117 20.5789 20 22.5193 20H46.4807C48.4211 20 50 21.7117 50 23.8154V45.8394C50 47.943 48.4211 49.6548 46.4807 49.6548ZM22.5193 21.1365C21.1569 21.1365 20.0483 22.3383 20.0483 23.8154V45.8394C20.0483 47.3164 21.1569 48.5183 22.5193 48.5183H46.4807C47.8431 48.5183 48.9517 47.3164 48.9517 45.8394V23.8154C48.9517 22.3383 47.8431 21.1365 46.4807 21.1365H22.5193Z" fill="#1AC954"/>
<path d="M49.4758 27.6087H19.5242C19.2346 27.6087 19 27.3543 19 27.0404C19 26.7265 19.2346 26.4722 19.5242 26.4722H49.4758C49.7654 26.4722 50 26.7265 50 27.0404C50 27.3543 49.7654 27.6087 49.4758 27.6087Z" fill="#1AC954"/>
<path d="M26.5565 25.5832C25.6571 25.5832 24.9253 24.7901 24.9253 23.815C24.9253 22.8399 25.6571 22.0469 26.5565 22.0469C27.456 22.0469 28.1875 22.8399 28.1875 23.815C28.1875 24.7901 27.456 25.5832 26.5565 25.5832ZM26.5565 23.1834C26.2351 23.1834 25.9736 23.4669 25.9736 23.815C25.9736 24.1632 26.2351 24.4467 26.5565 24.4467C26.8777 24.4467 27.1392 24.1632 27.1392 23.815C27.1392 23.4669 26.8777 23.1834 26.5565 23.1834Z" fill="#1AC954"/>
<path d="M22.7814 25.5832C21.8822 25.5832 21.1504 24.7901 21.1504 23.815C21.1504 22.8399 21.8822 22.0469 22.7814 22.0469C23.6808 22.0469 24.4126 22.8399 24.4126 23.815C24.4126 24.7901 23.6808 25.5832 22.7814 25.5832ZM22.7814 23.1834C22.4602 23.1834 22.1987 23.4669 22.1987 23.815C22.1987 24.1632 22.4602 24.4467 22.7814 24.4467C23.1028 24.4467 23.3643 24.1632 23.3643 23.815C23.3643 23.4669 23.1028 23.1834 22.7814 23.1834Z" fill="#1AC954"/>
<path d="M30.3312 25.5832C29.4317 25.5832 28.7002 24.7901 28.7002 23.815C28.7002 22.8399 29.4317 22.0469 30.3312 22.0469C31.2306 22.0469 31.9624 22.8399 31.9624 23.815C31.9624 24.7901 31.2306 25.5832 30.3312 25.5832ZM30.3312 23.1834C30.0097 23.1834 29.7485 23.4669 29.7485 23.815C29.7485 24.1632 30.01 24.4467 30.3312 24.4467C30.6526 24.4467 30.9141 24.1632 30.9141 23.815C30.9141 23.4669 30.6526 23.1834 30.3312 23.1834Z" fill="#1AC954"/>
</svg>
