<svg width="70" height="70" viewBox="0 0 70 70" fill="none" xmlns="http://www.w3.org/2000/svg">
<path d="M35 18C25.0752 18 17 25.5521 17 34.8357C17.0374 39.0746 18.6831 43.1156 21.5599 46.033L20.7628 50.7264C20.723 50.9601 20.7823 51.2005 20.9246 51.3832C21.0669 51.5658 21.2778 51.6712 21.5 51.6715C21.592 51.6715 21.6832 51.6536 21.7692 51.6186L26.4944 49.6753C29.1588 50.9971 32.0623 51.6785 35 51.6715C44.9248 51.6715 53 44.1194 53 34.8357C53 25.5521 44.9248 18 35 18ZM35 50.0682C32.1806 50.0758 29.3967 49.3967 26.8594 48.0823C26.6721 47.9837 26.4546 47.9734 26.2596 48.0535L22.475 49.6096L23.1081 45.8992C23.1537 45.6311 23.0688 45.3566 22.8829 45.1705C20.1341 42.5322 18.5447 38.7843 18.4999 34.8357C18.4999 26.4364 25.9017 19.6033 35 19.6033C44.0983 19.6033 51.5001 26.4364 51.5001 34.8357C51.5001 43.2351 44.0983 50.0682 35 50.0682Z" fill="#1AC954"/>
<path d="M42.5748 29.6937L37.2029 35.2748L34.0407 31.9895C33.7532 31.6907 33.2868 31.6907 32.9993 31.9895L27.1068 38.1117C26.9153 38.3037 26.8384 38.5884 26.9059 38.8558C26.9733 39.1234 27.1745 39.3325 27.4319 39.4026C27.6895 39.4723 27.9632 39.3928 28.1483 39.1938L33.5201 33.6127L36.682 36.898C36.9698 37.1967 37.436 37.1967 37.7238 36.898L43.6162 30.776C43.8954 30.4756 43.8914 29.9983 43.6073 29.7032C43.323 29.4079 42.8637 29.4039 42.5748 29.6937Z" fill="#1AC954"/>
</svg>
