<svg width="64" height="64" viewBox="0 0 64 64" fill="none" xmlns="http://www.w3.org/2000/svg">
<path d="M55.2113 21.4629C55.2113 21.4477 55.2113 21.4324 55.1961 21.4324C55.1961 21.402 55.1809 21.3867 55.1809 21.3562C55.1809 21.341 55.1656 21.3105 55.1656 21.2953C55.1656 21.2801 55.1504 21.2648 55.1504 21.2496C55.1199 21.1734 55.0895 21.1125 55.0437 21.0516L45.1414 6.50273C44.9281 6.18281 44.5777 6 44.1969 6H34.5078H28.734H19.0449C18.6641 6 18.3137 6.18281 18.1004 6.50273L8.19805 21.0516C8.15234 21.1125 8.12187 21.1887 8.09141 21.2496C8.09141 21.2648 8.07617 21.2801 8.07617 21.2953C8.06094 21.3105 8.06094 21.341 8.06094 21.3562C8.06094 21.3867 8.0457 21.402 8.0457 21.4324C8.0457 21.4477 8.0457 21.4629 8.03047 21.4629C8.01523 21.5391 8 21.6152 8 21.6914V56.9285C8 57.5531 8.51797 58.0711 9.14258 58.0711H54.0992C54.7238 58.0711 55.2418 57.5531 55.2418 56.9285V21.6914C55.2266 21.6152 55.2266 21.5391 55.2113 21.4629ZM51.9207 20.5488H37.1586L35.7723 8.28516H43.5723L51.9207 20.5488ZM28.216 22.834H34.9953V31.2129L32.2684 29.2934C32.0703 29.1562 31.8418 29.0801 31.6133 29.0801C31.3848 29.0801 31.1562 29.1562 30.9582 29.2934L28.2313 31.2129V22.834H28.216ZM33.4719 8.28516L34.8582 20.5488H28.3531L29.7395 8.28516H33.4719ZM19.6543 8.28516H27.4543L26.068 20.5488H11.3059L19.6543 8.28516ZM52.9414 55.7859H10.2852V22.834H25.9461V33.4066C25.9461 33.8332 26.1898 34.2293 26.5555 34.4273C26.9363 34.6254 27.3934 34.5949 27.7438 34.3512L31.6133 31.6242L35.4828 34.3512C35.6809 34.4883 35.9094 34.5645 36.1379 34.5645C36.3207 34.5645 36.5035 34.5187 36.6711 34.4426C37.052 34.2445 37.2805 33.8484 37.2805 33.4219V22.8492H52.9414V55.7859Z" fill="black"/>
<path d="M23.2343 43.3701H15.1296C14.505 43.3701 13.9871 43.8881 13.9871 44.5127C13.9871 45.1373 14.505 45.6553 15.1296 45.6553H23.2343C23.8589 45.6553 24.3769 45.1373 24.3769 44.5127C24.3769 43.8881 23.8589 43.3701 23.2343 43.3701Z" fill="black"/>
<path d="M19.182 48.1689H15.1296C14.505 48.1689 13.9871 48.6869 13.9871 49.3115C13.9871 49.9361 14.505 50.4541 15.1296 50.4541H19.182C19.8066 50.4541 20.3246 49.9361 20.3246 49.3115C20.3246 48.6869 19.8066 48.1689 19.182 48.1689Z" fill="black"/>
</svg>
