<svg width="70" height="70" viewBox="0 0 70 70" fill="none" xmlns="http://www.w3.org/2000/svg">
<circle cx="35" cy="35" r="35" fill="white"/>
<path d="M24.4678 38.1557L18 43.4706V22.211C18 21.8586 18.1377 21.5207 18.3829 21.2715C18.628 21.0223 18.9605 20.8823 19.3072 20.8823H40.2222C40.5689 20.8823 40.9014 21.0223 41.1465 21.2715C41.3917 21.5207 41.5294 21.8586 41.5294 22.211V36.827C41.5294 37.1794 41.3917 37.5173 41.1465 37.7665C40.9014 38.0157 40.5689 38.1557 40.2222 38.1557H24.4678Z" stroke="#1AC954" stroke-width="1.5" stroke-linecap="round" stroke-linejoin="round"/>
<path d="M26.4707 38.294V44.3563C26.4707 44.7087 26.6084 45.0466 26.8536 45.2958C27.0987 45.545 27.4312 45.685 27.7779 45.685H43.5323L50.0001 50.9999V29.7403C50.0001 29.3879 49.8624 29.05 49.6172 28.8008C49.3721 28.5516 49.0396 28.4116 48.6929 28.4116H42.157" stroke="#1AC954" stroke-width="1.5" stroke-linecap="round" stroke-linejoin="round"/>
</svg>
