<svg width="70" height="70" viewBox="0 0 70 70" fill="none" xmlns="http://www.w3.org/2000/svg">
<circle cx="35" cy="35" r="35" fill="white"/>
<path d="M36.0787 15C28.9639 15 23.1574 20.6297 23.1574 27.5804C23.1574 31.0163 24.5788 34.1231 26.8723 36.3927L23.025 51.6719C22.9859 51.8249 22.9928 51.9861 23.0446 52.1353C23.0965 52.2845 23.191 52.4152 23.3166 52.5113C23.4422 52.6073 23.5932 52.6644 23.751 52.6755C23.9087 52.6865 24.0663 52.6511 24.204 52.5736L28.9623 49.9023L31.7533 54.6028C31.8347 54.7408 31.9554 54.8515 32.1 54.9207C32.2445 54.99 32.4065 55.0146 32.5652 54.9916C32.7239 54.9686 32.8721 54.8989 32.991 54.7915C33.1099 54.6841 33.1941 54.5437 33.2328 54.3883L35.9996 43.4113L38.7663 54.3883C38.8051 54.5437 38.8893 54.6841 39.0081 54.7915C39.127 54.8989 39.2753 54.9686 39.434 54.9916C39.5926 55.0146 39.7546 54.99 39.8992 54.9207C40.0438 54.8515 40.1644 54.7408 40.2458 54.6028L43.0368 49.9023L47.7951 52.5736C47.9329 52.6511 48.0904 52.6865 48.2482 52.6755C48.4059 52.6644 48.557 52.6073 48.6825 52.5113C48.8081 52.4152 48.9027 52.2845 48.9545 52.1353C49.0064 51.9861 49.0132 51.8249 48.9742 51.6719L45.1575 36.5185C47.527 34.2393 49 31.0792 49 27.5804C49 20.6297 43.1935 15 36.0787 15ZM36.0787 16.6131C42.3439 16.6131 47.3848 21.5265 47.3848 27.5804C47.3848 33.6343 42.3439 38.5478 36.0787 38.5478C29.8119 38.5478 24.7726 33.6343 24.7726 27.5788C24.7726 21.5265 29.8119 16.6131 36.0787 16.6131ZM36.0303 22.4928C35.9069 22.4996 35.7867 22.5335 35.6787 22.5919C35.5708 22.6503 35.4778 22.7317 35.4068 22.8299L33.7383 25.1302L30.9651 25.9657C30.8404 26.0036 30.7269 26.0699 30.634 26.1591C30.5411 26.2483 30.4715 26.3577 30.431 26.4784C30.3905 26.599 30.3804 26.7273 30.4014 26.8525C30.4223 26.9777 30.4739 27.0962 30.5516 27.1981L32.2863 29.4565L32.2459 32.2729C32.2448 32.3802 32.2659 32.4865 32.3082 32.5856C32.3505 32.6847 32.4129 32.7745 32.4918 32.8496C32.5708 32.9246 32.6645 32.9834 32.7674 33.0223C32.8703 33.0613 32.9803 33.0796 33.0907 33.0762C33.1727 33.0735 33.2538 33.0588 33.3313 33.0327L36.0771 32.1245L38.8229 33.0327C38.9468 33.0741 39.0792 33.086 39.209 33.0675C39.3387 33.0489 39.4619 33.0003 39.5682 32.9259C39.6746 32.8514 39.761 32.7532 39.8202 32.6396C39.8793 32.526 39.9095 32.4002 39.9083 32.2729L39.8695 29.4565L41.6058 27.1981C41.6835 27.096 41.7349 26.9773 41.7557 26.8519C41.7765 26.7265 41.766 26.5981 41.7252 26.4774C41.6844 26.3567 41.6145 26.2473 41.5212 26.1583C41.4279 26.0693 41.314 26.0033 41.1891 25.9657L38.4191 25.1302L36.7474 22.8283C36.6676 22.7174 36.5601 22.6281 36.4349 22.5688C36.3097 22.5095 36.171 22.4823 36.0319 22.4895L36.0303 22.4928ZM36.0787 24.6656L37.2416 26.2658C37.3453 26.4099 37.4953 26.5165 37.668 26.569L39.5998 27.1514L38.3884 28.7209C38.2803 28.8603 38.2224 29.0303 38.2236 29.2048L38.2559 31.1647L36.3436 30.5356C36.1719 30.4786 35.9855 30.4786 35.8138 30.5356L33.9015 31.1647L33.9338 29.2064C33.9345 29.031 33.8754 28.8603 33.7658 28.7209L32.5544 27.1514L34.4878 26.569C34.6593 26.5159 34.8081 26.4093 34.911 26.2658L36.0787 24.6656ZM28.2452 37.5606C30.257 39.0586 32.6591 39.9447 35.1629 40.1125L32.1442 52.0945L29.9476 48.4021C29.8403 48.2215 29.6667 48.0898 29.4637 48.0349C29.2608 47.9801 29.0444 48.0065 28.8606 48.1086L25.0488 50.2491L28.2452 37.5606ZM43.7782 37.6574L46.952 50.2491L43.1386 48.1086C42.9546 48.006 42.7379 47.9793 42.5345 48.0342C42.3311 48.089 42.1572 48.2211 42.05 48.4021L39.8533 52.0961L36.8395 40.1222C39.3413 39.9839 41.7502 39.1287 43.7782 37.659V37.6574Z" fill="#1AC954"/>
</svg>
