<svg width="51" height="51" viewBox="0 0 51 51" fill="none" xmlns="http://www.w3.org/2000/svg">
<path d="M31.725 23.5655V23.7155H31.875H42.8036H42.9536V23.5655V23.1254V23.0615L42.9076 23.0173L37.7446 18.0497L37.7011 18.0078H37.6406H31.875H31.725V18.1578V23.5655ZM31.875 25.2181H31.725V25.3681V31.6767V32.1224L31.9945 31.7674C32.7979 30.7091 34.0768 30.0246 35.5179 30.0246C37.3243 30.0246 38.876 31.1005 39.5553 32.639L39.5948 32.7284H39.6925H42.8036H42.9536V32.5784V25.3681V25.2181H42.8036H31.875ZM30.0536 32.7284H30.2036V32.5784V16.3552V14.5526V14.4026H30.0536H8.19643H8.04643V14.5526V32.5784V32.7284H8.19643H9.48604H9.58378L9.62326 32.639C10.3025 31.1005 11.8543 30.0246 13.6607 30.0246C15.4671 30.0246 17.0189 31.1005 17.6982 32.639L17.7376 32.7284H17.8354H30.0536ZM31.725 16.3552V16.5052H31.875H38.3197L44.475 22.4276V32.5784C44.475 33.4897 43.7281 34.231 42.8036 34.231H40.0714H39.9214V34.381C39.9214 36.7856 37.9514 38.7375 35.5179 38.7375C33.0844 38.7375 31.1143 36.7856 31.1143 34.381V34.231H30.9643H18.2143H18.0643V34.381C18.0643 36.7856 16.0942 38.7375 13.6607 38.7375C11.2272 38.7375 9.25714 36.7856 9.25714 34.381V34.231H9.10714H8.19643C7.27185 34.231 6.525 33.4897 6.525 32.5784V14.5526C6.525 13.6414 7.27185 12.9 8.19643 12.9H30.0536C30.9782 12.9 31.725 13.6414 31.725 14.5526V16.3552ZM13.6607 37.2349C15.251 37.2349 16.5429 35.9587 16.5429 34.381C16.5429 32.8034 15.251 31.5272 13.6607 31.5272C12.0704 31.5272 10.7786 32.8034 10.7786 34.381C10.7786 35.9587 12.0704 37.2349 13.6607 37.2349ZM35.5179 37.2349C37.1081 37.2349 38.4 35.9587 38.4 34.381C38.4 32.8034 37.1081 31.5272 35.5179 31.5272C33.9276 31.5272 32.6357 32.8034 32.6357 34.381C32.6357 35.9587 33.9276 37.2349 35.5179 37.2349Z" fill="#1AC954" stroke="#EDF3F5" stroke-width="0.3"/>
</svg>
