<svg width="70" height="70" viewBox="0 0 70 70" fill="none" xmlns="http://www.w3.org/2000/svg">
<circle cx="35" cy="35" r="35" fill="white"/>
<path d="M50 41V23C50 21.3431 48.6569 20 47 20H25C23.3431 20 22 21.3431 22 23V49C22 50.6569 23.3431 52 25 52H39C40.6569 52 42 50.6569 42 49C42 46.2386 44.2386 44 47 44C48.6569 44 50 42.6569 50 41ZM49.0029 45.5827C48.3897 45.8511 47.7122 46 47 46C45.3431 46 44 47.3431 44 49C44 49.7122 43.8511 50.3897 43.5827 51.0029C45.9747 49.9052 47.9052 47.9747 49.0029 45.5827ZM20 23C20 20.2386 22.2386 18 25 18H47C49.7614 18 52 20.2386 52 23V41C52 48.1797 46.1797 54 39 54H25C22.2386 54 20 51.7614 20 49V23ZM29 30C28.4477 30 28 29.5523 28 29C28 28.4477 28.4477 28 29 28H43C43.5523 28 44 28.4477 44 29C44 29.5523 43.5523 30 43 30H29ZM29 36C28.4477 36 28 35.5523 28 35C28 34.4477 28.4477 34 29 34H43C43.5523 34 44 34.4477 44 35C44 35.5523 43.5523 36 43 36H29ZM29 42C28.4477 42 28 41.5523 28 41C28 40.4477 28.4477 40 29 40H39C39.5523 40 40 40.4477 40 41C40 41.5523 39.5523 42 39 42H29Z" fill="#1AC954"/>
</svg>
