<svg width="51" height="51" viewBox="0 0 51 51" fill="none" xmlns="http://www.w3.org/2000/svg">
<path d="M38.5633 33.0515C38.2246 33.0515 37.95 33.3272 37.95 33.6673V35.921C37.95 36.9412 37.1264 37.7683 36.1104 37.7683H11.0661C10.0501 37.7683 9.22646 36.9412 9.22646 35.921V16.2165C9.22646 15.1963 10.0501 14.3692 11.0661 14.3692H17.088C17.4267 14.3692 17.7013 14.0935 17.7013 13.7535C17.7013 13.4134 17.4267 13.1377 17.088 13.1377H11.0661C9.37276 13.1377 8 14.5161 8 16.2165V35.921C8 37.6214 9.37276 38.9998 11.0661 38.9998H36.1104C37.8009 38.9931 39.1698 37.6186 39.1765 35.921V33.6673C39.1765 33.3272 38.9019 33.0515 38.5633 33.0515Z" fill="#1AC954"/>
<path d="M39.2751 22.7561H39.177V16.2166C39.1703 14.5191 37.8014 13.1446 36.1108 13.1378C35.7722 13.1378 35.4976 13.4135 35.4976 13.7536C35.4976 14.0937 35.7722 14.3693 36.1108 14.3693C37.1269 14.3693 37.9505 15.1964 37.9505 16.2166V16.5615H37.2637L33.5843 12.8669L30.9107 10.1821C30.7955 10.0656 30.6388 10 30.4753 10C30.3118 10 30.155 10.0656 30.0399 10.1821L26.802 13.4334L23.5519 10.1821C23.3093 9.94596 22.9238 9.94596 22.6812 10.1821L16.3281 16.5615H14.1328C13.7941 16.5615 13.5195 16.8372 13.5195 17.1772C13.5195 17.5173 13.7941 17.793 14.1328 17.793H37.9505V22.7191H34.3693C31.9985 22.7191 30.0767 24.6489 30.0767 27.0295V27.4975C30.0767 29.878 31.9985 31.8078 34.3693 31.8078H39.2751C40.2911 31.8078 41.1148 30.9808 41.1148 29.9605V24.6034C41.1148 23.5831 40.2911 22.7561 39.2751 22.7561ZM30.4814 11.4876L32.2598 13.2733C31.1843 13.9989 29.7785 13.9989 28.703 13.2733L30.4814 11.4876ZM27.8323 14.1477C29.3966 15.3466 31.5663 15.3466 33.1306 14.1477L35.5835 16.6107H29.905L27.6606 14.3078L27.8323 14.1477ZM20.7188 16.6107L24.3982 12.9161L25.2567 13.7782L22.4359 16.5615L20.7188 16.6107ZM26.1765 14.6033L28.237 16.5615H24.1652L26.1765 14.6033ZM23.1227 11.4876L23.5765 11.9432L18.9773 16.5615H18.0697L23.1227 11.4876ZM39.8883 29.9605C39.8883 30.3006 39.6138 30.5763 39.2751 30.5763H34.3693C33.5561 30.5763 32.7762 30.2519 32.2012 29.6745C31.6262 29.0971 31.3031 28.314 31.3031 27.4975V27.0295C31.3031 25.3291 32.6759 23.9507 34.3693 23.9507H39.2751C39.6138 23.9507 39.8883 24.2263 39.8883 24.5664V29.9605Z" fill="#1AC954"/>
<path d="M34.4667 28.5319C35.144 28.5319 35.6931 27.9805 35.6931 27.3004C35.6931 26.6202 35.144 26.0688 34.4667 26.0688C33.7893 26.0688 33.2402 26.6202 33.2402 27.3004C33.2402 27.9805 33.7893 28.5319 34.4667 28.5319Z" fill="#1AC954"/>
</svg>
