<svg width="55" height="55" viewBox="0 0 55 55" fill="none" xmlns="http://www.w3.org/2000/svg">
<path fill-rule="evenodd" clip-rule="evenodd" d="M27.7265 7.5679V1.01946C27.7265 0.45688 27.2783 0 26.7258 0C26.1733 0 25.7246 0.45688 25.7246 1.01946V7.5679C25.7246 8.13048 26.1733 8.58736 26.7258 8.58736C27.2783 8.58736 27.7265 8.13048 27.7265 7.5679Z" fill="#9CA5AC"/>
<path fill-rule="evenodd" clip-rule="evenodd" d="M27.3886 53.7837V47.2353C27.3886 46.6727 26.9404 46.2158 26.3879 46.2158C25.8354 46.2158 25.3867 46.6727 25.3867 47.2353V53.7837C25.3867 54.3463 25.8354 54.8032 26.3879 54.8032C26.9404 54.8032 27.3886 54.3463 27.3886 53.7837Z" fill="#9CA5AC"/>
<path fill-rule="evenodd" clip-rule="evenodd" d="M7.43231 26.1943H1.00119C0.448694 26.1943 0 26.6512 0 27.2138C0 27.7764 0.448694 28.2328 1.00119 28.2328H7.43231C7.98481 28.2328 8.43351 27.7764 8.43351 27.2138C8.43351 26.6512 7.98481 26.1943 7.43231 26.1943Z" fill="#9CA5AC"/>
<path fill-rule="evenodd" clip-rule="evenodd" d="M52.4518 26.1943H46.0202C45.4677 26.1943 45.0195 26.6512 45.0195 27.2138C45.0195 27.7764 45.4677 28.2328 46.0202 28.2328H52.4518C53.0043 28.2328 53.4526 27.7764 53.4526 27.2138C53.4526 26.6512 53.0043 26.1943 52.4518 26.1943Z" fill="#9CA5AC"/>
<path fill-rule="evenodd" clip-rule="evenodd" d="M13.7915 12.6011L9.24395 7.97057C8.85347 7.57296 8.21899 7.57296 7.82802 7.97057C7.43753 8.36867 7.43753 9.01472 7.82802 9.41233L12.3756 14.0429C12.7666 14.4405 13.401 14.4405 13.7915 14.0429C14.182 13.6453 14.182 12.9992 13.7915 12.6011Z" fill="#9CA5AC"/>
<path fill-rule="evenodd" clip-rule="evenodd" d="M45.6236 45.0147L41.076 40.3841C40.6855 39.9865 40.051 39.9865 39.6601 40.3841C39.2696 40.7822 39.2696 41.4283 39.6601 41.8259L44.2076 46.4564C44.5986 46.8541 45.2331 46.8541 45.6236 46.4564C46.014 46.0588 46.014 45.4128 45.6236 45.0147Z" fill="#9CA5AC"/>
<path fill-rule="evenodd" clip-rule="evenodd" d="M12.3756 40.3841L7.82802 45.0147C7.43753 45.4128 7.43753 46.0588 7.82802 46.4564C8.21899 46.8541 8.85347 46.8541 9.24395 46.4564L13.7915 41.8259C14.182 41.4283 14.182 40.7822 13.7915 40.3841C13.401 39.9865 12.7666 39.9865 12.3756 40.3841Z" fill="#9CA5AC"/>
<path fill-rule="evenodd" clip-rule="evenodd" d="M44.2076 7.97057L39.6601 12.6011C39.2696 12.9992 39.2696 13.6453 39.6601 14.0429C40.051 14.4405 40.6855 14.4405 41.076 14.0429L45.6236 9.41233C46.014 9.01472 46.014 8.36867 45.6236 7.97057C45.2331 7.57296 44.5986 7.57296 44.2076 7.97057Z" fill="#9CA5AC"/>
<path d="M41.5367 27.378C41.5367 35.6397 34.9633 42.3107 26.8867 42.3107C18.8102 42.3107 12.2367 35.6397 12.2367 27.378C12.2367 19.1163 18.8102 12.4452 26.8867 12.4452C34.9633 12.4452 41.5367 19.1163 41.5367 27.378Z" stroke="#9CA5AC" stroke-width="1.7"/>
</svg>
