<svg width="80" height="80" viewBox="0 0 80 80" fill="none" xmlns="http://www.w3.org/2000/svg">
<g id="garden-wheelbarrow">
<path id="Vector" d="M76.8946 20.2984C76.1782 19.7013 75.223 19.4625 74.2678 19.7013L68.8946 20.776C65.1932 21.4924 63.4021 23.5222 59.7006 27.7013C57.9096 29.7312 55.7603 32.2387 52.6558 35.3431H50.5066C50.5066 35.2237 50.5066 35.2237 50.5066 35.1043C50.5066 29.97 45.7305 26.5073 41.0738 27.4625C39.8797 23.761 36.1782 21.8506 32.5961 22.2088C31.6409 20.8954 30.4469 19.9401 26.9842 16.3581C25.5514 14.9252 23.1633 14.9252 21.7305 16.3581L20.417 17.6715L12.0588 9.31328L12.7752 8.59686C13.9693 7.40283 13.9693 5.49238 12.7752 4.29835C11.5812 3.10432 9.55136 3.10432 8.47674 4.29835L2.62599 10.1491C1.43196 11.3431 1.43196 13.2536 2.62599 14.4476C3.82002 15.6416 5.73047 15.6416 6.9245 14.4476L7.64092 13.7312L15.9991 22.0894C15.5215 22.8058 12.6558 24.3581 13.8499 27.3431C10.3872 28.179 7.76032 31.4028 7.87972 35.2237C6.9245 35.3431 4.53644 34.6267 3.1036 36.776C2.50659 37.7312 2.38719 39.0446 2.8648 40.1193L11.7006 60.6566C11.82 60.8954 11.9394 61.1342 12.1782 61.373L10.7454 63.2834C10.029 63.0446 9.31256 62.9252 8.59614 62.9252C4.89465 62.9252 1.90957 65.9103 1.90957 69.6118C1.90957 73.3133 4.89465 76.2984 8.59614 76.2984C12.2976 76.2984 15.2827 73.3133 15.2827 69.6118C15.2827 67.4625 14.3275 65.5521 12.6558 64.3581L13.9693 62.6864C14.3275 62.8058 14.5663 62.8058 14.9245 62.8058H34.9842L46.5663 75.7013C46.9245 76.179 47.5215 76.4178 48.1185 76.4178C48.3573 76.4178 48.5961 76.4178 48.8349 76.2984C49.6708 76.0596 50.1484 75.2237 50.1484 74.3879V62.0894C50.1484 62.0894 50.1484 62.0894 50.1484 61.97L56.2379 41.0745C59.9394 37.1342 62.4469 34.3879 64.3573 32.2387C67.82 28.2984 68.6558 27.4625 70.6857 27.1043L75.1036 26.2685C76.8946 25.9103 78.0887 24.3581 77.9693 22.6864C78.0887 21.7312 77.6111 20.8954 76.8946 20.2984ZM8.71554 74.1491C6.20808 74.1491 4.29763 72.1193 4.29763 69.7312C4.29763 67.3431 6.32748 65.3133 8.71554 65.3133C11.1036 65.3133 13.1335 67.3431 13.1335 69.7312C13.1335 72.1193 11.223 74.1491 8.71554 74.1491ZM4.29763 12.8954C3.93942 12.5372 3.93942 12.0595 4.29763 11.7013L10.029 5.97C10.3872 5.61179 10.8648 5.61179 11.223 5.97C11.5812 6.32821 11.5812 6.80582 11.223 7.16403L5.37226 13.0148C5.13345 13.2536 4.53644 13.1342 4.29763 12.8954ZM9.31256 12.179L10.626 10.8655L18.9842 19.2237L17.6708 20.5372L9.31256 12.179ZM16.3573 25.0745L23.5215 17.9103C24.1185 17.3133 25.0737 17.3133 25.5514 17.9103C27.5812 20.0595 29.7305 22.0894 30.4469 22.8058C30.0887 23.0446 29.6111 23.164 29.2529 23.5222C25.0738 20.5372 18.9842 22.4476 17.3126 27.3431C16.9543 27.2237 16.7155 27.2237 16.3573 27.2237L16.2379 27.1043C15.7603 26.6267 15.7603 25.6715 16.3573 25.0745ZM17.7902 29.8506C18.5066 30.0894 19.223 29.7312 19.3424 29.0148C20.0588 24.5969 25.432 22.9252 28.5364 25.7909C30.0887 27.2237 31.1633 23.164 35.5812 24.5969C37.4917 25.3133 38.9245 26.8655 39.2827 28.8954C39.4021 29.6118 40.1185 29.97 40.8349 29.7312C44.2976 28.4178 48.3573 30.9252 48.3573 34.9849C48.3573 35.1043 48.3573 35.1043 48.3573 35.2237H10.2678C10.029 31.4028 14.0887 28.4178 17.7902 29.8506ZM38.3275 62.8058H48.1185V73.7909L38.3275 62.8058ZM48.4767 60.6566H15.1633C14.5663 60.6566 14.0887 60.2984 13.8499 59.8207C5.01405 38.6864 4.41704 39.164 5.13345 38.2088C5.73047 37.373 2.50659 37.6118 54.6857 37.6118C55.7603 37.6118 54.6857 38.4476 48.4767 60.6566ZM74.9842 24.1193L70.4469 24.9551C67.5812 25.5521 66.3872 26.8655 62.8051 30.8058C61.3723 32.3581 59.5812 34.5073 57.0737 37.1342C56.8349 36.4178 56.3573 35.8207 55.5215 35.4625C58.029 32.8357 59.82 30.8058 61.3723 29.0148C64.8349 25.0745 66.3872 23.4028 69.2529 22.8058L74.626 21.7312C74.9842 21.7312 75.223 21.7312 75.4618 21.97C75.7006 22.2088 75.82 22.4476 75.9394 22.8058C76.0588 23.5222 75.5812 23.9998 74.9842 24.1193Z" fill="#1AC954"/>
<path id="Vector_2" d="M49.5519 43.4629H31.6414C31.0444 43.4629 30.5668 43.9405 30.5668 44.5375C30.5668 45.1345 31.0444 45.6121 31.6414 45.6121H49.5519C50.1489 45.6121 50.6265 45.1345 50.6265 44.5375C50.6265 43.9405 50.1489 43.4629 49.5519 43.4629ZM33.5519 51.9405H16.3578C15.7608 51.9405 15.2832 52.4181 15.2832 53.0151C15.2832 53.6121 15.7608 54.0898 16.3578 54.0898H33.6713C34.2683 54.0898 34.7459 53.6121 34.7459 53.0151C34.7459 52.4181 34.1489 51.9405 33.5519 51.9405Z" fill="#1AC954"/>
</g>
</svg>
