<svg width="51" height="51" viewBox="0 0 51 51" fill="none" xmlns="http://www.w3.org/2000/svg">
<path d="M19.9087 39.0001C21.3145 39.0001 22.4542 37.8604 22.4542 36.4546C22.4542 35.0488 21.3145 33.9092 19.9087 33.9092C18.5029 33.9092 17.3633 35.0488 17.3633 36.4546C17.3633 37.8604 18.5029 39.0001 19.9087 39.0001Z" stroke="#1AC954" stroke-width="1.5" stroke-linecap="round" stroke-linejoin="round"/>
<path d="M35.1822 39.0001C36.588 39.0001 37.7276 37.8604 37.7276 36.4546C37.7276 35.0488 36.588 33.9092 35.1822 33.9092C33.7764 33.9092 32.6367 35.0488 32.6367 36.4546C32.6367 37.8604 33.7764 39.0001 35.1822 39.0001Z" stroke="#1AC954" stroke-width="1.5" stroke-linecap="round" stroke-linejoin="round"/>
<path d="M16.9436 17.3636H39L36.8618 28.0418C36.7454 28.6278 36.4266 29.1541 35.9613 29.5287C35.4959 29.9033 34.9136 30.1023 34.3163 30.0909H20.8636C20.2421 30.0962 19.6402 29.8739 19.1713 29.4659C18.7024 29.058 18.399 28.4926 18.3182 27.8764L16.3836 13.2145C16.3034 12.6027 16.0036 12.0408 15.5401 11.6334C15.0765 11.226 14.4808 11.0009 13.8636 11H11" stroke="#1AC954" stroke-width="1.5" stroke-linecap="round" stroke-linejoin="round"/>
</svg>
