<svg width="55" height="55" viewBox="0 0 55 55" fill="none" xmlns="http://www.w3.org/2000/svg">
<path d="M52.25 9H2.75C2.02065 9 1.32118 9.28973 0.805456 9.80546C0.289731 10.3212 0 11.0207 0 11.75L0 42.9167C0 43.646 0.289731 44.3455 0.805456 44.8612C1.32118 45.3769 2.02065 45.6667 2.75 45.6667H52.25C52.9793 45.6667 53.6788 45.3769 54.1945 44.8612C54.7103 44.3455 55 43.646 55 42.9167V11.75C55 11.0207 54.7103 10.3212 54.1945 9.80546C53.6788 9.28973 52.9793 9 52.25 9ZM2.75 10.8333H52.25C52.4931 10.8333 52.7263 10.9299 52.8982 11.1018C53.0701 11.2737 53.1667 11.5069 53.1667 11.75V19.0622C51.7621 19.0062 50.3761 18.7207 49.0637 18.2171C47.2722 17.5362 45.366 17.2078 43.45 17.25C41.5327 17.2073 39.6253 17.5356 37.8327 18.2171C36.2306 18.8302 34.5242 19.1244 32.8093 19.0833C31.0969 19.124 29.393 18.8298 27.7933 18.2171C26.0031 17.5363 24.0982 17.2079 22.1833 17.25C20.2667 17.2075 18.3599 17.5359 16.5678 18.2171C14.9676 18.83 13.2631 19.1242 11.55 19.0833C9.83753 19.1241 8.13359 18.8299 6.534 18.2171C5.03009 17.6443 3.44173 17.3243 1.83333 17.2702V11.75C1.83333 11.5069 1.92991 11.2737 2.10182 11.1018C2.27373 10.9299 2.50688 10.8333 2.75 10.8333ZM52.25 43.8333H2.75C2.50688 43.8333 2.27373 43.7368 2.10182 43.5648C1.92991 43.3929 1.83333 43.1598 1.83333 42.9167V19.1044C3.2367 19.1609 4.62139 19.4464 5.93267 19.9496C7.72517 20.6314 9.6327 20.9598 11.55 20.9167C13.4667 20.9592 15.3735 20.6308 17.1655 19.9496C18.7657 19.3367 20.4703 19.0424 22.1833 19.0833C23.8961 19.0425 25.6003 19.3368 27.2003 19.9496C28.9902 20.6302 30.8948 20.9586 32.8093 20.9167C34.7266 20.9592 36.634 20.6308 38.4267 19.9496C40.0287 19.3363 41.7351 19.042 43.45 19.0833C45.1637 19.0425 46.8688 19.3368 48.4697 19.9496C49.9725 20.5216 51.5596 20.8415 53.1667 20.8965V42.9167C53.1667 43.1598 53.0701 43.3929 52.8982 43.5648C52.7263 43.7368 52.4931 43.8333 52.25 43.8333Z" fill="#9CA5AC"/>
</svg>
