<svg width="55" height="55" viewBox="0 0 55 55" fill="none" xmlns="http://www.w3.org/2000/svg">
<path d="M41.5535 24.4185H37.1125V19.6235H38.5775C40.9333 19.6209 43.1918 18.6839 44.8576 17.018C46.5235 15.3522 47.4605 13.0937 47.4631 10.7378V7.59831H49.3564C49.5684 7.59831 49.7717 7.51411 49.9215 7.36424C50.0714 7.21437 50.1556 7.0111 50.1556 6.79915C50.1556 6.58721 50.0714 6.38394 49.9215 6.23407C49.7717 6.0842 49.5684 6 49.3564 6H5.00382C4.79187 6 4.58861 6.0842 4.43874 6.23407C4.28887 6.38394 4.20467 6.58721 4.20467 6.79915C4.20467 7.0111 4.28887 7.21437 4.43874 7.36424C4.58861 7.51411 4.79187 7.59831 5.00382 7.59831H6.89668V10.7378C6.89946 13.0937 7.83658 15.3523 9.50247 17.0181C11.1684 18.6839 13.427 19.6209 15.7828 19.6235H17.2478V24.4185H12.8068C10.2068 24.4215 7.71414 25.4557 5.87567 27.2941C4.0372 29.1326 3.00302 31.6252 3 34.2252V46.5094C3.00073 47.1697 3.26336 47.8028 3.73029 48.2697C4.19721 48.7366 4.83029 48.9993 5.49062 49H48.8715C49.5318 48.9993 50.1649 48.7366 50.6318 48.2697C51.0987 47.8028 51.3614 47.1697 51.3621 46.5094V34.2252C51.3591 31.6249 50.3246 29.132 48.4858 27.2935C46.6469 25.455 44.1538 24.421 41.5535 24.4185ZM8.49499 10.7378V7.59831H45.8648V10.7378C45.8627 12.6699 45.0942 14.5222 43.728 15.8884C42.3618 17.2546 40.5095 18.023 38.5775 18.0252H15.7828C13.8507 18.023 11.9984 17.2546 10.6321 15.8884C9.26586 14.5223 8.49728 12.67 8.49499 10.7378ZM18.8461 19.6235H35.5142V24.4185H18.8461V19.6235ZM49.762 46.5112C49.7617 46.7478 49.6676 46.9746 49.5003 47.1419C49.3331 47.3092 49.1062 47.4033 48.8697 47.4035H5.4888C5.25221 47.4033 5.02539 47.3092 4.8581 47.1419C4.69081 46.9746 4.59672 46.7478 4.59648 46.5112V34.2271C4.59902 32.0503 5.46485 29.9635 7.00402 28.4243C8.5432 26.8851 10.63 26.0193 12.8068 26.0168H41.5535C43.7296 26.0198 45.8157 26.8856 47.3544 28.4243C48.8932 29.963 49.7589 32.0491 49.762 34.2252V46.5112Z" fill="#9CA5AC"/>
<path d="M27.1796 29.8887C24.4404 29.8917 21.8142 30.9811 19.8773 32.918C17.9404 34.8549 16.8508 37.481 16.8477 40.2201V42.0687C16.8478 42.2806 16.932 42.4838 17.0819 42.6337C17.2317 42.7835 17.4349 42.8677 17.6468 42.8679H36.7124C36.9243 42.8677 37.1275 42.7835 37.2773 42.6337C37.4272 42.4838 37.5114 42.2806 37.5115 42.0687V40.2201C37.5084 37.481 36.4188 34.8549 34.4819 32.918C32.5449 30.9811 29.9188 29.8917 27.1796 29.8887ZM35.9132 41.2686H27.9787V37.5478C27.9787 37.3358 27.8945 37.1326 27.7447 36.9827C27.5948 36.8328 27.3915 36.7486 27.1796 36.7486C26.9676 36.7486 26.7644 36.8328 26.6145 36.9827C26.4646 37.1326 26.3804 37.3358 26.3804 37.5478V41.2686H18.446V40.2183C18.446 37.902 19.3661 35.6806 21.004 34.0427C22.6419 32.4048 24.8633 31.4847 27.1796 31.4847C29.4959 31.4847 31.7173 32.4048 33.3552 34.0427C34.9931 35.6806 35.9132 37.902 35.9132 40.2183V41.2686Z" fill="#9CA5AC"/>
</svg>
