<svg width="50" height="50" viewBox="0 0 50 50" fill="none" xmlns="http://www.w3.org/2000/svg">
<path d="M16.2917 14H6.20834C4.43917 14 3 12.5608 3 10.7917V6.20834C3 4.43917 4.43917 3 6.20834 3H16.2917C18.0608 3 19.5 4.43917 19.5 6.20834V10.7917C19.5 12.5608 18.0608 14 16.2917 14ZM6.20834 5.75C5.95534 5.75 5.75 5.95534 5.75 6.20834V10.7917C5.75 11.0447 5.95534 11.25 6.20834 11.25H16.2917C16.5447 11.25 16.75 11.0447 16.75 10.7917V6.20834C16.75 5.95534 16.5447 5.75 16.2917 5.75H6.20834Z" fill="#CECFD0"/>
<path d="M16.2917 30.5H6.20834C4.43917 30.5 3 29.0608 3 27.2917V22.7083C3 20.9392 4.43917 19.5 6.20834 19.5H16.2917C18.0608 19.5 19.5 20.9392 19.5 22.7083V27.2917C19.5 29.0608 18.0608 30.5 16.2917 30.5ZM6.20834 22.25C5.95534 22.25 5.75 22.4553 5.75 22.7083V27.2917C5.75 27.5447 5.95534 27.75 6.20834 27.75H16.2917C16.5447 27.75 16.75 27.5447 16.75 27.2917V22.7083C16.75 22.4553 16.5447 22.25 16.2917 22.25H6.20834Z" fill="#CECFD0"/>
<path d="M16.2917 47H6.20834C4.43917 47 3 45.5608 3 43.7917V39.2083C3 37.4392 4.43917 36 6.20834 36H16.2917C18.0608 36 19.5 37.4392 19.5 39.2083V43.7917C19.5 45.5608 18.0608 47 16.2917 47ZM6.20834 38.75C5.95534 38.75 5.75 38.9553 5.75 39.2083V43.7917C5.75 44.0447 5.95534 44.25 6.20834 44.25H16.2917C16.5447 44.25 16.75 44.0447 16.75 43.7917V39.2083C16.75 38.9553 16.5447 38.75 16.2917 38.75H6.20834Z" fill="#CECFD0"/>
<path d="M45.625 6.66665H24.5416C23.7826 6.66665 23.1666 6.05065 23.1666 5.29165C23.1666 4.53265 23.7826 3.91665 24.5416 3.91665H45.625C46.384 3.91665 47 4.53265 47 5.29165C47 6.05065 46.384 6.66665 45.625 6.66665Z" fill="#CECFD0"/>
<path d="M45.625 12.1667H24.5416C23.7826 12.1667 23.1666 11.5507 23.1666 10.7917C23.1666 10.0327 23.7826 9.41666 24.5416 9.41666H45.625C46.384 9.41666 47 10.0327 47 10.7917C47 11.5507 46.384 12.1667 45.625 12.1667Z" fill="#CECFD0"/>
<path d="M45.625 23.1667H24.5416C23.7826 23.1667 23.1666 22.5507 23.1666 21.7917C23.1666 21.0327 23.7826 20.4167 24.5416 20.4167H45.625C46.384 20.4167 47 21.0327 47 21.7917C47 22.5507 46.384 23.1667 45.625 23.1667Z" fill="#CECFD0"/>
<path d="M45.625 28.6667H24.5416C23.7826 28.6667 23.1666 28.0507 23.1666 27.2917C23.1666 26.5327 23.7826 25.9167 24.5416 25.9167H45.625C46.384 25.9167 47 26.5327 47 27.2917C47 28.0507 46.384 28.6667 45.625 28.6667Z" fill="#CECFD0"/>
<path d="M45.625 39.6667H24.5416C23.7826 39.6667 23.1666 39.0507 23.1666 38.2917C23.1666 37.5327 23.7826 36.9167 24.5416 36.9167H45.625C46.384 36.9167 47 37.5327 47 38.2917C47 39.0507 46.384 39.6667 45.625 39.6667Z" fill="#CECFD0"/>
<path d="M45.625 45.1667H24.5416C23.7826 45.1667 23.1666 44.5507 23.1666 43.7917C23.1666 43.0327 23.7826 42.4167 24.5416 42.4167H45.625C46.384 42.4167 47 43.0327 47 43.7917C47 44.5507 46.384 45.1667 45.625 45.1667Z" fill="#CECFD0"/>
</svg>
