<svg width="70" height="70" viewBox="0 0 70 70" fill="none" xmlns="http://www.w3.org/2000/svg">
<circle cx="35" cy="35" r="35" fill="white"/>
<path d="M39.2421 20.751H23.7285" stroke="#1AC954" stroke-width="1.8" stroke-miterlimit="10" stroke-linecap="round" stroke-linejoin="round"/>
<path d="M36.7146 40.0854C37.0463 41.0855 37.2237 42.1525 37.2237 43.2632C37.2237 48.8475 32.6961 53.375 27.1118 53.375C21.5276 53.375 17 48.8475 17 43.2632C17 38.4734 20.332 34.46 24.8056 33.4162C25.5461 33.2439 26.3174 33.1514 27.1118 33.1514C31.588 33.1514 35.3828 36.0592 36.7146 40.0854Z" stroke="#1AC954" stroke-width="1.8" stroke-miterlimit="10" stroke-linecap="round" stroke-linejoin="round"/>
<path d="M26.9238 25.5283H26.9976" stroke="#1AC954" stroke-width="1.8" stroke-miterlimit="10" stroke-linecap="round" stroke-linejoin="round"/>
<path d="M17.0039 34.0611C18.999 31.8243 21.7269 30.2534 24.8095 29.7238C25.3803 29.6261 25.9614 29.5644 26.5527 29.5387C26.5784 29.5387 26.6041 29.5361 26.6298 29.5361" stroke="#1AC954" stroke-width="1.8" stroke-miterlimit="10" stroke-linecap="round" stroke-linejoin="round"/>
<path d="M31.6767 43.2631C31.6767 45.7827 29.6353 47.8241 27.1157 47.8241C24.5961 47.8241 22.5547 45.7827 22.5547 43.2631C22.5547 40.7435 24.5961 38.7021 27.1157 38.7021C29.6353 38.7021 31.6767 40.7435 31.6767 43.2631Z" stroke="#1AC954" stroke-width="1.8" stroke-miterlimit="10" stroke-linecap="round" stroke-linejoin="round"/>
<path d="M52.4283 40.3652C52.4566 40.3807 52.4849 40.3961 52.5106 40.4115C52.5389 40.4269 52.5646 40.4424 52.5929 40.4604C52.6212 40.4758 52.6469 40.4912 52.6751 40.5092C52.7291 40.5426 52.7831 40.5761 52.8345 40.6095C52.8603 40.6275 52.886 40.6429 52.9142 40.6609C53.0711 40.7663 53.2253 40.8769 53.3719 40.9951C53.5441 41.1314 53.7113 41.2779 53.8681 41.4296C54.0712 41.625 54.264 41.8333 54.444 42.0544C55.4159 43.2499 55.9995 44.7745 55.9995 46.4328C55.9995 50.2662 52.8937 53.372 49.0603 53.372C45.2269 53.372 42.1211 50.2637 42.1211 46.4328C42.1211 44.772 42.7047 43.2474 43.6766 42.0544C43.8565 41.8333 44.0468 41.625 44.2525 41.4296C44.4119 41.2779 44.5764 41.1314 44.7487 40.9951C44.8978 40.8769 45.0495 40.7663 45.2063 40.6609C45.232 40.6429 45.2577 40.6249 45.286 40.6095C45.34 40.5761 45.3914 40.5401 45.4454 40.5092C45.4737 40.4912 45.4994 40.4758 45.5277 40.4604C45.556 40.4449 45.5817 40.4295 45.61 40.4115C45.6383 40.3961 45.664 40.3807 45.6922 40.3652" stroke="#1AC954" stroke-width="1.8" stroke-miterlimit="10" stroke-linecap="round" stroke-linejoin="round"/>
<path d="M52.2676 36.2783C52.2879 36.2885 52.3083 36.2987 52.3286 36.3114" stroke="#1AC954" stroke-width="1.8" stroke-miterlimit="10" stroke-linecap="round" stroke-linejoin="round"/>
<path d="M52.1875 36.2368C52.2104 36.247 52.2333 36.2597 52.2537 36.2699" stroke="#1AC954" stroke-width="1.8" stroke-miterlimit="10" stroke-linecap="round" stroke-linejoin="round"/>
<path d="M51.75 36.0361C51.7757 36.0464 51.804 36.0593 51.8297 36.0696C51.8888 36.0953 51.9454 36.121 52.0045 36.1493C52.0328 36.1621 52.0585 36.175 52.0868 36.1878" stroke="#1AC954" stroke-width="1.8" stroke-miterlimit="10" stroke-linecap="round" stroke-linejoin="round"/>
<path d="M51.5781 35.9673C51.6038 35.9776 51.627 35.9879 51.6527 35.9981C51.6758 36.0084 51.699 36.0161 51.7221 36.0264" stroke="#1AC954" stroke-width="1.8" stroke-miterlimit="10" stroke-linecap="round" stroke-linejoin="round"/>
<path d="M51.4902 35.9331C51.508 35.9407 51.5259 35.9458 51.5437 35.9535" stroke="#1AC954" stroke-width="1.8" stroke-miterlimit="10" stroke-linecap="round" stroke-linejoin="round"/>
<path d="M51.1094 35.8027L51.1857 35.8256" stroke="#1AC954" stroke-width="1.8" stroke-miterlimit="10" stroke-linecap="round" stroke-linejoin="round"/>
<path d="M50.9785 35.7642C50.9989 35.7692 51.0192 35.7769 51.0396 35.782" stroke="#1AC954" stroke-width="1.8" stroke-miterlimit="10" stroke-linecap="round" stroke-linejoin="round"/>
<path d="M50.8047 35.7153L50.8581 35.7306" stroke="#1AC954" stroke-width="1.8" stroke-miterlimit="10" stroke-linecap="round" stroke-linejoin="round"/>
<path d="M50.6562 35.6787C50.6817 35.6838 50.7071 35.6914 50.7326 35.6965" stroke="#1AC954" stroke-width="1.8" stroke-miterlimit="10" stroke-linecap="round" stroke-linejoin="round"/>
<path d="M50.082 35.5708L50.136 35.5785L50.1823 35.5862C50.1977 35.5888 50.2132 35.5914 50.226 35.5939C50.2466 35.5965 50.2671 35.6017 50.2877 35.6042C50.316 35.6094 50.3417 35.6145 50.37 35.6197" stroke="#1AC954" stroke-width="1.8" stroke-miterlimit="10" stroke-linecap="round" stroke-linejoin="round"/>
<path d="M49.7715 35.5298C49.8023 35.5324 49.8332 35.5375 49.864 35.5401C49.8975 35.5426 49.9309 35.5478 49.9617 35.5529C49.9926 35.5581 50.0209 35.5606 50.0517 35.5658" stroke="#1AC954" stroke-width="1.8" stroke-miterlimit="10" stroke-linecap="round" stroke-linejoin="round"/>
<path d="M49.5215 35.5117C49.5444 35.5117 49.5673 35.5143 49.5927 35.5168" stroke="#1AC954" stroke-width="1.8" stroke-miterlimit="10" stroke-linecap="round" stroke-linejoin="round"/>
<path d="M49.3301 35.5015C49.3532 35.5015 49.3764 35.504 49.3995 35.504C49.4123 35.504 49.4278 35.5066 49.4406 35.5066C49.4586 35.5066 49.4766 35.5092 49.4946 35.5092" stroke="#1AC954" stroke-width="1.8" stroke-miterlimit="10" stroke-linecap="round" stroke-linejoin="round"/>
<path d="M49.2422 35.4995C49.2702 35.4995 49.2982 35.5021 49.3236 35.5021" stroke="#1AC954" stroke-width="1.8" stroke-miterlimit="10" stroke-linecap="round" stroke-linejoin="round"/>
<path d="M48.959 35.4966H49.1621" stroke="#1AC954" stroke-width="1.8" stroke-miterlimit="10" stroke-linecap="round" stroke-linejoin="round"/>
<path d="M48.7949 35.5021C48.8229 35.4995 48.8509 35.4995 48.8763 35.4995" stroke="#1AC954" stroke-width="1.8" stroke-miterlimit="10" stroke-linecap="round" stroke-linejoin="round"/>
<path d="M48.6289 35.5092C48.6469 35.5092 48.6649 35.5066 48.6829 35.5066C48.6958 35.5066 48.7112 35.504 48.724 35.504C48.7472 35.5015 48.7703 35.5015 48.7935 35.5015" stroke="#1AC954" stroke-width="1.8" stroke-miterlimit="10" stroke-linecap="round" stroke-linejoin="round"/>
<path d="M48.5312 35.5144C48.5542 35.5118 48.577 35.5118 48.6025 35.5093" stroke="#1AC954" stroke-width="1.8" stroke-miterlimit="10" stroke-linecap="round" stroke-linejoin="round"/>
<path d="M48.0703 35.5658C48.1012 35.5606 48.1294 35.5581 48.1603 35.5529C48.1937 35.5478 48.2271 35.5452 48.258 35.5401C48.2889 35.5375 48.3197 35.5324 48.3506 35.5298" stroke="#1AC954" stroke-width="1.8" stroke-miterlimit="10" stroke-linecap="round" stroke-linejoin="round"/>
<path d="M47.752 35.6197C47.7802 35.6145 47.8059 35.6094 47.8342 35.6042C47.8548 35.5991 47.8754 35.5965 47.8959 35.5939C47.9114 35.5914 47.9242 35.5888 47.9396 35.5862L47.9859 35.5785L48.0399 35.5708" stroke="#1AC954" stroke-width="1.8" stroke-miterlimit="10" stroke-linecap="round" stroke-linejoin="round"/>
<path d="M47.3867 35.6999C47.4122 35.6949 47.4376 35.6872 47.4631 35.6821" stroke="#1AC954" stroke-width="1.8" stroke-miterlimit="10" stroke-linecap="round" stroke-linejoin="round"/>
<path d="M47.2637 35.7306L47.3171 35.7153" stroke="#1AC954" stroke-width="1.8" stroke-miterlimit="10" stroke-linecap="round" stroke-linejoin="round"/>
<path d="M47.082 35.782C47.1024 35.7769 47.1227 35.7692 47.1431 35.7642" stroke="#1AC954" stroke-width="1.8" stroke-miterlimit="10" stroke-linecap="round" stroke-linejoin="round"/>
<path d="M46.9375 35.8256L47.0138 35.8027" stroke="#1AC954" stroke-width="1.8" stroke-miterlimit="10" stroke-linecap="round" stroke-linejoin="round"/>
<path d="M46.5762 35.9535C46.594 35.9458 46.6118 35.9407 46.6296 35.9331" stroke="#1AC954" stroke-width="1.8" stroke-miterlimit="10" stroke-linecap="round" stroke-linejoin="round"/>
<path d="M46.4004 36.0235C46.4235 36.0132 46.4467 36.0029 46.4698 35.9952C46.4955 35.9849 46.5187 35.9746 46.5444 35.9644" stroke="#1AC954" stroke-width="1.8" stroke-miterlimit="10" stroke-linecap="round" stroke-linejoin="round"/>
<path d="M46.0371 36.1878C46.0654 36.175 46.0911 36.1621 46.1194 36.1493C46.1759 36.121 46.2351 36.0953 46.2942 36.0696C46.3199 36.0567 46.3482 36.0464 46.3739 36.0361" stroke="#1AC954" stroke-width="1.8" stroke-miterlimit="10" stroke-linecap="round" stroke-linejoin="round"/>
<path d="M45.8672 36.2723C45.8901 36.2596 45.913 36.2494 45.9333 36.2393" stroke="#1AC954" stroke-width="1.8" stroke-miterlimit="10" stroke-linecap="round" stroke-linejoin="round"/>
<path d="M45.7949 36.3114C45.8153 36.3012 45.8356 36.2885 45.856 36.2783" stroke="#1AC954" stroke-width="1.8" stroke-miterlimit="10" stroke-linecap="round" stroke-linejoin="round"/>
<path d="M54.4441 42.0546H55.9995V33.0046C55.9995 32.0328 55.2102 31.2435 54.2384 31.2435H42.2009L39.2416 20.7511C39.9949 20.7511 40.6094 20.1341 40.6094 19.3833V18.3678C40.6094 17.6145 39.9923 17 39.2416 17H23.7281C22.9747 17 22.3603 17.617 22.3603 18.3678V19.3833C22.3603 20.1366 22.9773 20.7511 23.7281 20.7511L21.7227 30.6084L21.7381 30.6187C22.7099 30.2048 23.7358 29.9014 24.8079 29.7189C25.3787 29.6212 25.9597 29.562 26.551 29.5389C26.5767 29.5389 26.6025 29.5363 26.6282 29.5363C26.7259 29.5337 26.8261 29.5312 26.9264 29.5286H27.1141C33.6059 29.5286 39.0462 34.033 40.4808 40.0852C40.6325 40.7254 40.7405 41.3836 40.7971 42.0546H43.6792C43.8592 41.8361 44.0494 41.6253 44.2551 41.4299C44.4145 41.2782 44.5791 41.1316 44.7513 40.9954C44.9004 40.8771 45.0521 40.7665 45.209 40.6611C45.2347 40.6431 45.2604 40.6251 45.2887 40.6097C45.3426 40.5763 45.3941 40.5403 45.4481 40.5094C45.4763 40.494 45.502 40.476 45.5303 40.4606C45.5586 40.4452 45.5843 40.4297 45.6126 40.4117C45.6409 40.3963 45.6692 40.3809 45.6949 40.3655L45.7951 40.3115C45.8157 40.3012 45.8363 40.2909 45.8569 40.278C45.862 40.2755 45.8646 40.2729 45.8671 40.2729C45.8903 40.2601 45.9108 40.2498 45.934 40.2395C45.9674 40.2215 46.0008 40.2061 46.0343 40.1881C46.0625 40.1752 46.0882 40.1624 46.1165 40.1495C46.1731 40.1238 46.2322 40.0955 46.2914 40.0698C46.3171 40.0569 46.3453 40.0467 46.3711 40.0364C46.3788 40.0338 46.3891 40.0287 46.3968 40.0261C46.4199 40.0158 46.443 40.0055 46.4662 39.9978C46.4919 39.9875 46.515 39.9772 46.5407 39.967C46.551 39.9618 46.5613 39.9592 46.5716 39.9541C46.5896 39.9464 46.6076 39.9412 46.6256 39.9335C46.7259 39.895 46.8287 39.8615 46.9315 39.8281L47.0087 39.805C47.0318 39.7973 47.0524 39.7921 47.0755 39.7844C47.0961 39.7793 47.1166 39.7716 47.1372 39.7664C47.1784 39.7561 47.2169 39.7433 47.2581 39.733L47.312 39.7176C47.3352 39.7124 47.3583 39.7047 47.3815 39.6996C47.4072 39.6944 47.4329 39.6867 47.4586 39.6816C47.5537 39.6584 47.6489 39.6379 47.744 39.6199C47.7723 39.6147 47.798 39.6096 47.8263 39.6044C47.8468 39.5993 47.8674 39.5967 47.888 39.5942C47.9034 39.5916 47.9162 39.589 47.9317 39.5864L47.9779 39.5787L48.0319 39.571C48.0422 39.5684 48.0525 39.5684 48.0602 39.5659C48.0911 39.5607 48.1193 39.5582 48.1502 39.553C48.1836 39.5479 48.217 39.5453 48.2479 39.5402C48.2788 39.5376 48.3096 39.5325 48.3405 39.5299L48.5179 39.5145C48.541 39.5119 48.5641 39.5119 48.5898 39.5093C48.6001 39.5093 48.6078 39.5067 48.6181 39.5067C48.6361 39.5067 48.6541 39.5042 48.6721 39.5042C48.685 39.5042 48.7004 39.5016 48.7133 39.5016C48.7364 39.499 48.7595 39.499 48.7827 39.499H48.7878C48.8161 39.4965 48.8418 39.4965 48.8701 39.4965C48.8958 39.4965 48.9241 39.4939 48.9498 39.4939H49.1529C49.1812 39.4939 49.2069 39.4939 49.2326 39.4965C49.2609 39.4965 49.2892 39.499 49.3149 39.499H49.32C49.3432 39.499 49.3663 39.5016 49.3894 39.5016C49.4023 39.5016 49.4177 39.5042 49.4306 39.5042C49.4486 39.5042 49.4666 39.5067 49.4846 39.5067C49.4948 39.5067 49.5026 39.5067 49.5128 39.5093C49.536 39.5093 49.5591 39.5119 49.5848 39.5145L49.7622 39.5299C49.7931 39.5325 49.8239 39.5376 49.8548 39.5402C49.8882 39.5427 49.9216 39.5479 49.9525 39.553C49.9833 39.5582 50.0116 39.5607 50.0425 39.5659C50.0528 39.5659 50.063 39.5684 50.0708 39.571L50.1247 39.5787L50.171 39.5864C50.1865 39.589 50.2019 39.5916 50.2147 39.5942C50.2353 39.5967 50.2559 39.6019 50.2764 39.6044C50.3047 39.6096 50.3304 39.6147 50.3587 39.6199C50.4538 39.6379 50.5515 39.6584 50.6441 39.6816C50.6698 39.6867 50.6955 39.6944 50.7212 39.6996C50.7444 39.7047 50.7675 39.7124 50.7906 39.7176L50.8446 39.733C50.8858 39.7433 50.9243 39.7561 50.9655 39.7664C50.986 39.7716 51.0066 39.7793 51.0272 39.7844C51.0503 39.7921 51.0735 39.7973 51.094 39.805L51.1712 39.8281C51.274 39.8615 51.3768 39.8975 51.4771 39.9335C51.4951 39.9412 51.5131 39.9464 51.5311 39.9541C51.5414 39.9592 51.5517 39.9618 51.562 39.967C51.5877 39.9772 51.6108 39.9875 51.6365 39.9978C51.6596 40.0081 51.6828 40.0158 51.7059 40.0261C51.7136 40.0287 51.7239 40.0338 51.7316 40.0364C51.7573 40.0467 51.7856 40.0595 51.8113 40.0698C51.8705 40.0955 51.927 40.1212 51.9862 40.1495C52.0145 40.1624 52.0402 40.1752 52.0684 40.1881C52.1019 40.2061 52.1353 40.2215 52.1687 40.2395C52.1918 40.2498 52.215 40.2626 52.2356 40.2729C52.2407 40.2755 52.2433 40.278 52.2458 40.278C52.2664 40.2883 52.287 40.2986 52.3075 40.3115L52.4078 40.3655C52.4361 40.3809 52.4644 40.3963 52.4901 40.4117C52.5184 40.4272 52.5441 40.4426 52.5724 40.4606C52.6006 40.476 52.6264 40.494 52.6546 40.5094C52.7086 40.5429 52.7626 40.5763 52.814 40.6097C52.8397 40.6277 52.8655 40.6431 52.8937 40.6611C53.0506 40.7665 53.2048 40.8771 53.3514 40.9954C53.5236 41.1316 53.6908 41.2782 53.8476 41.4299C54.0738 41.6278 54.2641 41.8361 54.4441 42.0546Z" stroke="#1AC954" stroke-width="1.8" stroke-miterlimit="10" stroke-linecap="round" stroke-linejoin="round"/>
<path d="M49.0612 49.5667C50.7907 49.5667 52.1927 48.1647 52.1927 46.4352C52.1927 44.7057 50.7907 43.3037 49.0612 43.3037C47.3317 43.3037 45.9297 44.7057 45.9297 46.4352C45.9297 48.1647 47.3317 49.5667 49.0612 49.5667Z" stroke="#1AC954" stroke-width="1.8" stroke-miterlimit="10" stroke-linecap="round" stroke-linejoin="round"/>
<path d="M24.8086 29.7217V33.4162" stroke="#1AC954" stroke-width="1.8" stroke-miterlimit="10" stroke-linecap="round" stroke-linejoin="round"/>
<path d="M40.4788 40.0854H36.7148" stroke="#1AC954" stroke-width="1.8" stroke-miterlimit="10" stroke-linecap="round" stroke-linejoin="round"/>
<path d="M27.0137 25.0346C27.0137 26.099 27.875 26.9603 28.9394 26.9603H34.4079C35.4723 26.9603 36.3336 26.099 36.3336 25.0346C36.3336 24.5024 36.1177 24.0216 35.7706 23.6719C35.4235 23.3223 34.9401 23.1089 34.4079 23.1089H28.9394C27.875 23.1089 27.0137 23.9702 27.0137 25.0346Z" stroke="#1AC954" stroke-width="1.8" stroke-miterlimit="10" stroke-linecap="round" stroke-linejoin="round"/>
</svg>
