<svg viewBox="0 0 36 36" fill="none" xmlns="http://www.w3.org/2000/svg">
<g id="q">
<path d="M15.4568 9.67662C14.5168 9.67662 13.5978 9.95406 12.8161 10.4739C12.0345 10.9937 11.4253 11.7325 11.0655 12.5969C10.7058 13.4612 10.6117 14.4124 10.7951 15.33C10.9785 16.2477 11.4311 17.0905 12.0959 17.7521C12.7606 18.4137 13.6075 18.8642 14.5295 19.0468C15.4516 19.2293 16.4072 19.1356 17.2758 18.7776C18.1443 18.4195 18.8866 17.8132 19.4089 17.0353C19.9312 16.2573 20.2099 15.3428 20.2099 14.4071C20.2099 13.1525 19.7092 11.9493 18.8178 11.0622C17.9264 10.175 16.7174 9.67662 15.4568 9.67662ZM15.4568 17.2455C14.8928 17.2455 14.3414 17.079 13.8724 16.7671C13.4034 16.4552 13.0379 16.012 12.8221 15.4933C12.6062 14.9747 12.5497 14.404 12.6598 13.8534C12.7698 13.3028 13.0414 12.7971 13.4403 12.4002C13.8391 12.0032 14.3473 11.7329 14.9005 11.6234C15.4537 11.5139 16.0271 11.5701 16.5482 11.7849C17.0693 11.9997 17.5147 12.3635 17.8281 12.8303C18.1414 13.297 18.3087 13.8458 18.3087 14.4071C18.3087 15.1599 18.0082 15.8818 17.4734 16.4141C16.9386 16.9464 16.2132 17.2455 15.4568 17.2455ZM15.4568 4C12.6845 4.00313 10.0266 5.1006 8.06621 7.05164C6.10585 9.00268 5.00315 11.648 5 14.4071C5 18.1206 6.72419 22.0564 9.99076 25.79C11.4585 27.4771 13.1105 28.9962 14.9162 30.3194C15.076 30.4309 15.2664 30.4906 15.4616 30.4906C15.6567 30.4906 15.8472 30.4309 16.007 30.3194C17.8093 28.9957 19.4581 27.4765 20.9229 25.79C24.1847 22.0564 25.9137 18.1206 25.9137 14.4071C25.9105 11.648 24.8078 9.00268 22.8475 7.05164C20.8871 5.1006 18.2292 4.00313 15.4568 4ZM15.4568 28.3622C13.4926 26.8248 6.90124 21.1777 6.90124 14.4071C6.90124 12.1488 7.80263 9.98303 9.40712 8.38617C11.0116 6.78931 13.1877 5.89221 15.4568 5.89221C17.7259 5.89221 19.9021 6.78931 21.5065 8.38617C23.111 9.98303 24.0124 12.1488 24.0124 14.4071C24.0124 21.1753 17.4211 26.8248 15.4568 28.3622Z" fill="#1AC954"/>
<path d="M8.4856 30.4907H28.7021" stroke="#1AC954" stroke-width="2" stroke-linecap="round"/>
</g>
</svg>
