<svg id="q" viewBox="0 0 44 44" xmlns="http://www.w3.org/2000/svg">
<path d="M42.8338 23.2961C43.1775 22.9523 43.3706 22.4861 43.3706 22C43.3706 21.5138 43.1775 21.0476 42.8338 20.7038L32.4627 10.3326C32.2935 10.1575 32.0912 10.0179 31.8676 9.92179C31.6439 9.82571 31.4033 9.77513 31.1599 9.77302C30.9165 9.7709 30.6751 9.81729 30.4497 9.90947C30.2244 10.0017 30.0197 10.1378 29.8476 10.3099C29.6755 10.4821 29.5393 10.6868 29.4472 10.9121C29.355 11.1374 29.3086 11.3788 29.3107 11.6222C29.3128 11.8656 29.3634 12.1062 29.4595 12.3299C29.5556 12.5536 29.6952 12.7559 29.8703 12.925L37.112 20.1666H12.8332C12.3469 20.1666 11.8806 20.3598 11.5368 20.7036C11.193 21.0474 10.9998 21.5137 10.9998 22C10.9998 22.4862 11.193 22.9525 11.5368 23.2963C11.8806 23.6402 12.3469 23.8333 12.8332 23.8333H37.112L29.8703 31.075C29.5364 31.4208 29.3516 31.8839 29.3558 32.3645C29.3599 32.8452 29.5527 33.3051 29.8927 33.645C30.2326 33.9849 30.6924 34.1777 31.1731 34.1819C31.6538 34.1861 32.1169 34.0013 32.4627 33.6673L42.8338 23.2961Z"/>
</svg>
