<svg viewBox="0 0 36 36" fill="none" xmlns="http://www.w3.org/2000/svg">
<g id="q">
<path d="M33.8216 18.2408L33.822 18.2416C33.8728 18.3634 33.8993 18.4936 33.9 18.6251C33.9 20.2208 33.0503 21.317 31.9205 22.0188C30.7872 22.7227 29.3777 23.025 28.2857 23.025C27.1937 23.025 25.7842 22.7227 24.651 22.0188C23.5211 21.317 22.6715 20.2208 22.6714 18.6251C22.6721 18.4936 22.6986 18.3634 22.7494 18.2416L22.7498 18.2407L26.507 8.97351L26.5782 8.79775L26.3929 8.83824L19.1215 10.4273L19.0429 10.4445V10.525V28.75V28.85H19.1429H21.4286C21.7057 28.85 21.9711 28.9584 22.1665 29.1508C22.3619 29.3431 22.4714 29.6037 22.4714 29.875C22.4714 30.1463 22.3619 30.4069 22.1665 30.5992C21.9711 30.7916 21.7057 30.9 21.4286 30.9H14.5714C14.2943 30.9 14.0289 30.7916 13.8335 30.5992C13.6381 30.4069 13.5286 30.1463 13.5286 29.875C13.5286 29.6037 13.6381 29.3431 13.8335 29.1508C14.0289 28.9584 14.2943 28.85 14.5714 28.85H16.8571H16.9571V28.75V11.0312V10.907L16.8358 10.9336L9.25006 12.5929L9.13407 12.6183L9.17879 12.7283L13.2502 22.7408L13.2506 22.7416C13.3014 22.8634 13.3279 22.9936 13.3286 23.1251C13.3285 24.7208 12.4789 25.817 11.349 26.5188C10.2158 27.2227 8.80626 27.525 7.71429 27.525C6.62231 27.525 5.21278 27.2227 4.07955 26.5188C2.94973 25.817 2.10009 24.7209 2.1 23.1253C2.1007 22.9937 2.12717 22.8634 2.178 22.7416L2.17801 22.7416L2.17846 22.7405L6.71037 11.4969H6.72171L6.74828 11.438L6.79774 11.3285L6.81301 11.3135L6.82847 11.2982L6.83624 11.278C6.84484 11.2555 6.85685 11.2345 6.87185 11.2156H6.88838L6.91827 11.1813L6.98924 11.0998C6.99624 11.0954 7.00282 11.0902 7.00882 11.0843L7.00883 11.0843C7.01391 11.0793 7.01849 11.0739 7.02252 11.0681L7.11859 10.9945C7.1308 10.989 7.14203 10.9813 7.15169 10.9718C7.15308 10.9705 7.15444 10.969 7.15576 10.9676L7.22328 10.9344H7.22857H7.24755L7.26521 10.9274L7.39041 10.8781H7.47143H7.48224L7.4928 10.8758L16.8785 8.82269L16.9571 8.80549V8.725V5.125C16.9571 4.85367 17.0666 4.59312 17.262 4.40077C17.4575 4.20837 17.7229 4.1 18 4.1C18.2771 4.1 18.5425 4.20837 18.738 4.40077C18.9334 4.59312 19.0429 4.85367 19.0429 5.125V8.21875V8.34214L19.1636 8.31658L28.0533 6.43437H28.4617L28.595 6.46062L28.6045 6.4625H28.6143H28.6269L28.7403 6.4997L28.7554 6.50469H28.7602L28.8541 6.55605L28.8727 6.57439L28.8786 6.58018L28.8853 6.58493L28.9853 6.65524L29.0112 6.67344H29.0162L29.0799 6.73618C29.0811 6.73917 29.0825 6.74221 29.0841 6.7453C29.091 6.75888 29.0993 6.76841 29.1037 6.77319C29.1058 6.77559 29.1082 6.77803 29.1104 6.78021L29.1877 6.8817L29.2526 6.9967L33.8216 18.2408ZM4.20732 23.2843L4.198 23.3073L4.20051 23.332C4.28436 24.1574 4.90925 24.6934 5.62272 25.0195C6.33778 25.3463 7.16662 25.475 7.71429 25.475C8.26195 25.475 9.09079 25.3463 9.80585 25.0195C10.5193 24.6934 11.1442 24.1574 11.2281 23.332L11.2306 23.3073L11.2212 23.2843L7.80696 14.8609L7.71429 14.6322L7.62161 14.8609L4.20732 23.2843ZM24.7788 18.7843L24.7694 18.8073L24.7719 18.832C24.8558 19.6574 25.4807 20.1934 26.1941 20.5195C26.9092 20.8463 27.7381 20.975 28.2857 20.975C28.8334 20.975 29.6622 20.8463 30.3773 20.5195C31.0907 20.1934 31.7156 19.6574 31.7995 18.832L31.802 18.8073L31.7927 18.7843L28.3784 10.3609L28.2857 10.1322L28.193 10.3609L24.7788 18.7843Z" fill="#1AC954" stroke="#FDFDFF" stroke-width="0.2"/>
</g>
</svg>
