<svg id="q" viewBox="0 0 36 36" fill="none" xmlns="http://www.w3.org/2000/svg">
<path d="M18.0271 10.1274H11.006C10.474 10.1274 9.96376 10.3388 9.58755 10.715C9.21135 11.0912 9 11.6014 9 12.1335V26.1757C9 26.7077 9.21135 27.218 9.58755 27.5942C9.96376 27.9704 10.474 28.1817 11.006 28.1817H25.0482C25.5803 28.1817 26.0905 27.9704 26.4667 27.5942C26.8429 27.218 27.0543 26.7077 27.0543 26.1757V19.1546" stroke-width="2" stroke-linecap="round" stroke-linejoin="round"/>
<path d="M25.5497 8.62319C25.9487 8.22417 26.4899 8 27.0542 8C27.6185 8 28.1597 8.22417 28.5588 8.62319C28.9578 9.02222 29.182 9.56341 29.182 10.1277C29.182 10.692 28.9578 11.2332 28.5588 11.6322L19.0301 21.1609L15.0181 22.1639L16.0211 18.1518L25.5497 8.62319Z" stroke-width="2" stroke-linecap="round" stroke-linejoin="round"/>
</svg>
