<svg id="q" viewBox="0 0 30 30" fill="none" xmlns="http://www.w3.org/2000/svg">
<path d="M4.5 8C3.57174 8 2.6815 8.35821 2.02513 8.99584C1.36875 9.63346 1 10.4983 1 11.4V11.7417L11.5 17.2344L22 11.7434V11.4C22 10.4983 21.6313 9.63346 20.9749 8.99584C20.3185 8.35821 19.4283 8 18.5 8H4.5ZM22 13.6729L11.9148 18.948C11.7873 19.0147 11.6448 19.0496 11.5 19.0496C11.3552 19.0496 11.2127 19.0147 11.0852 18.948L1 13.6729V21.6C1 22.5017 1.36875 23.3665 2.02513 24.0042C2.6815 24.6418 3.57174 25 4.5 25H18.5C19.4283 25 20.3185 24.6418 20.9749 24.0042C21.6313 23.3665 22 22.5017 22 21.6V13.6729Z" fill="#CCDDE2"/>
</svg>
