<svg viewBox="0 0 36 36" fill="none" xmlns="http://www.w3.org/2000/svg">
<g id="q">
<path d="M23.85 7C21.575 7 19.4301 8.08997 18 9.86113C16.5698 8.08997 14.425 7 12.15 7C8.11987 7 5 10.2696 5 14.4932C5 19.67 9.41988 23.8257 16.1147 30.2284L18 32L19.8853 30.2284C26.5801 23.8257 31 19.6699 31 14.4932C31 10.2696 27.8801 7 23.85 7ZM18.8022 28.436L18.5386 28.6882L18 29.1942L17.4615 28.6882L17.1981 28.4363C14.047 25.4232 11.3256 22.8208 9.5265 20.494C7.77919 18.234 7 16.3833 7 14.4932C7 13.0046 7.52637 11.6331 8.48219 10.6314C9.43481 9.63314 10.7374 9.08333 12.15 9.08333C13.7834 9.08333 15.3981 9.87546 16.4694 11.2021L18 13.0977L19.5306 11.2021C20.6019 9.87546 22.2166 9.08333 23.85 9.08333C25.2627 9.08333 26.5652 9.63314 27.5179 10.6314C28.4736 11.6331 29 13.0045 29 14.4932C29 16.3833 28.2208 18.234 26.4736 20.4939C24.6746 22.8207 21.9533 25.4228 18.8022 28.436Z" fill="#1AC954"/>
</g>
</svg>
