<svg viewBox="0 0 47 47" fill="none" xmlns="http://www.w3.org/2000/svg">
<path d="M34.5725 15.415C34.5725 15.9786 34.3497 16.5191 33.9532 16.9176C33.5567 17.3161 33.0189 17.54 32.4581 17.54C31.8974 17.54 31.3596 17.3161 30.9631 16.9176C30.5666 16.5191 30.3438 15.9786 30.3438 15.415C30.3438 14.8514 30.5666 14.3109 30.9631 13.9124C31.3596 13.5139 31.8974 13.29 32.4581 13.29C33.0189 13.29 33.5567 13.5139 33.9532 13.9124C34.3497 14.3109 34.5725 14.8514 34.5725 15.415ZM29.9209 7C26.9832 7.0018 24.1662 8.17553 22.0889 10.2634C20.0115 12.3512 18.8437 15.1824 18.8419 18.135C18.8419 18.7929 18.9265 19.427 19.028 20.0118C19.0428 20.0854 19.0398 20.1615 19.0192 20.2338C18.9986 20.306 18.961 20.3721 18.9096 20.4266L8.36332 31.0278C7.49088 31.9042 7.00049 33.0929 7 34.3326V38.025C7 39.6672 8.3261 41 9.96005 41H14.1887C14.9738 41 15.7267 40.6866 16.2818 40.1286C16.8369 39.5707 17.1487 38.814 17.1487 38.025V35.9H20.1105C21.2776 35.9 22.2248 34.948 22.2248 33.775V30.8H25.1849C25.7324 30.8004 26.2587 30.5873 26.6531 30.2055C27.0474 29.8237 27.279 29.3031 27.2992 28.7532C28.1382 28.9708 29.0245 29.1 29.9209 29.1C32.8587 29.0982 35.6757 27.9245 37.753 25.8366C39.8304 23.7488 40.9982 20.9176 41 17.965C41 11.7923 36.0051 7 29.9209 7ZM21.3791 18.135C21.3809 15.8587 22.2814 13.6761 23.8829 12.0665C25.4844 10.4569 27.6561 9.5518 29.9209 9.55C34.6604 9.55 38.4628 13.2577 38.4628 17.965C38.461 20.2413 37.5605 22.4239 35.959 24.0335C34.3575 25.6431 32.1858 26.5482 29.9209 26.55C28.7708 26.55 27.5867 26.2593 26.5296 25.802C26.3365 25.7186 26.1258 25.6848 25.9165 25.7035C25.7072 25.7222 25.5058 25.7929 25.3304 25.9092C25.1549 26.0255 25.011 26.1838 24.9115 26.3698C24.812 26.5558 24.7601 26.7638 24.7603 26.975V28.25H21.8019C20.6348 28.25 19.6876 29.202 19.6876 30.375V33.35H16.7276C15.5605 33.35 14.6133 34.302 14.6133 35.475V38.025C14.6133 38.1377 14.5687 38.2458 14.4894 38.3255C14.4101 38.4052 14.3025 38.45 14.1904 38.45H9.96174C9.84959 38.45 9.74204 38.4052 9.66273 38.3255C9.58343 38.2458 9.53888 38.1377 9.53888 38.025V34.3326C9.53888 33.7699 9.76215 33.2276 10.158 32.8298L20.7059 22.2303C21.0454 21.8861 21.2974 21.4648 21.4405 21.0019C21.5836 20.5391 21.6136 20.0485 21.5279 19.5715C21.4372 19.0979 21.3874 18.6173 21.3791 18.135Z" fill="black"/>
</svg>
