<svg id="q" viewBox="0 0 21 20" fill="none" xmlns="http://www.w3.org/2000/svg">
<path d="M7.5 8.22222H5.75C5.28587 8.22222 4.84075 8.40952 4.51256 8.74292C4.18437 9.07632 4 9.5285 4 10V16.2222C4 16.6937 4.18437 17.1459 4.51256 17.4793C4.84075 17.8127 5.28587 18 5.75 18H16.25C16.7141 18 17.1592 17.8127 17.4874 17.4793C17.8156 17.1459 18 16.6937 18 16.2222V10C18 9.5285 17.8156 9.07632 17.4874 8.74292C17.1592 8.40952 16.7141 8.22222 16.25 8.22222H14.5M7.5 8.22222V5.55556C7.5 4.61256 7.86875 3.70819 8.52513 3.0414C9.1815 2.3746 10.0717 2 11 2C11.9283 2 12.8185 2.3746 13.4749 3.0414C14.1313 3.70819 14.5 4.61256 14.5 5.55556V8.22222M7.5 8.22222H14.5M11 11.7778V14.4444" stroke-width="2" stroke-linecap="round" stroke-linejoin="round"/>
</svg>
