<svg id="q" viewBox="0 0 22 22" fill="none" xmlns="http://www.w3.org/2000/svg">
<path d="M7 11L10.4286 13.8571L15 8.14286M11 19C9.94943 19 8.90914 18.7931 7.93853 18.391C6.96793 17.989 6.08601 17.3997 5.34315 16.6569C4.60028 15.914 4.011 15.0321 3.60896 14.0615C3.20693 13.0909 3 12.0506 3 11C3 9.94943 3.20693 8.90914 3.60896 7.93853C4.011 6.96793 4.60028 6.08601 5.34315 5.34315C6.08601 4.60028 6.96793 4.011 7.93853 3.60896C8.90914 3.20693 9.94943 3 11 3C13.1217 3 15.1566 3.84285 16.6569 5.34315C18.1571 6.84344 19 8.87827 19 11C19 13.1217 18.1571 15.1566 16.6569 16.6569C15.1566 18.1571 13.1217 19 11 19Z" stroke="white"/>
</svg>
