<svg viewBox="0 0 36 36" fill="none" xmlns="http://www.w3.org/2000/svg">
<g id="q">
<path d="M29.1427 5.25L29.1427 5.25C29.7827 5.24979 30.4001 5.49709 30.871 5.94397C31.3408 6.38986 31.6301 7.00172 31.6796 7.65786L31.6863 7.86307V13.3269H30.5395H30.2895V13.5769V27.8718V27.8719C30.2897 28.5318 30.0461 29.1665 29.609 29.6488C29.1733 30.1297 28.5776 30.4236 27.9414 30.474L27.7416 30.4808H8.19044H8.19036C7.5504 30.481 6.93299 30.2337 6.4621 29.7868C5.99224 29.3409 5.70295 28.729 5.6535 28.0729L5.64681 27.8677V13.5769V13.3269H5.39681H4.25V7.85898L4.25 7.8589C4.2498 7.19896 4.49339 6.5643 4.93045 6.08196C5.36618 5.60108 5.96184 5.30713 6.59809 5.25682L6.79789 5.25H29.1427ZM27.9958 13.5769V13.3269H27.7458H8.19044H7.94044V13.5769V27.8718V28.1218H8.19044H27.7458H27.9958V27.8718V13.5769ZM29.3927 7.85898V7.60898H29.1427H6.79363H6.54363V7.85898V10.718V10.968H6.79363H29.1427H29.3927V10.718V7.85898ZM20.7618 19.5449C21.064 19.5449 21.3551 19.6677 21.5707 19.8883C21.7864 20.1091 21.9086 20.4097 21.9086 20.7244C21.9086 21.039 21.7864 21.3397 21.5707 21.5604C21.3551 21.781 21.064 21.9039 20.7618 21.9039H15.1745C14.8722 21.9039 14.5812 21.781 14.3656 21.5604C14.1499 21.3397 14.0277 21.039 14.0277 20.7244C14.0277 20.4097 14.1499 20.1091 14.3656 19.8883C14.5812 19.6677 14.8722 19.5449 15.1745 19.5449H20.7618Z" fill="#1AC954" stroke="#FDFDFF" stroke-width="0.5"/>
</g>
</svg>
