<svg id="q" viewBox="0 0 24 24" xmlns="http://www.w3.org/2000/svg">
<path d="M2.10996 8.76552H1.05L1.05 4.27184L1.05 4.27182C1.04983 3.71094 1.25683 3.1709 1.62921 2.75994C2.00132 2.34928 2.51104 2.09785 3.0562 2.05561L3.22076 2.05H20.9792C21.5263 2.04982 22.0535 2.26127 22.4549 2.64228C22.8562 3.02309 23.1023 3.54517 23.1436 4.10409L23.1491 4.27184V4.27271V8.76552H22.0892H22.0392V8.81552V20.1747C22.0393 20.7356 21.8323 21.2757 21.46 21.6866C21.0878 22.0973 20.5781 22.3487 20.033 22.3909L19.8693 22.3966H19.8684H4.32987C3.78276 22.3967 3.25562 22.1853 2.85414 21.8043C2.45287 21.4235 2.20677 20.9014 2.16545 20.3425L2.15996 20.1747V20.1739V8.81552V8.76552H2.10996ZM19.9193 8.81552V8.76552H19.8693H4.32987H4.27987V8.81552V20.1747V20.2247H4.32987H19.8693H19.9193V20.1747V8.81552ZM21.0292 4.27184V4.22184H20.9792H3.21991H3.16991V4.27184V6.54368V6.59368H3.21991H20.9792H21.0292V6.54368V4.27184ZM14.3195 13.4092C14.6002 13.4092 14.8697 13.5233 15.0686 13.7268C15.2675 13.9304 15.3794 14.2067 15.3794 14.4951C15.3794 14.7835 15.2675 15.0598 15.0686 15.2634C14.8697 15.4669 14.6002 15.581 14.3195 15.581H9.87965C9.59891 15.581 9.32943 15.4669 9.13055 15.2634C8.93164 15.0598 8.81969 14.7835 8.81969 14.4951C8.81969 14.2067 8.93164 13.9304 9.13055 13.7268C9.32943 13.5233 9.59891 13.4092 9.87965 13.4092H14.3195Z"/>
</svg>
