<svg viewBox="0 0 36 36" fill="none" xmlns="http://www.w3.org/2000/svg">
<path d="M29.1427 5C29.8475 4.99977 30.5263 5.27218 31.0431 5.76263C31.5599 6.25307 31.8764 6.9253 31.9293 7.64455L31.9363 7.85898V13.5769H30.5395V27.8718C30.5397 28.5931 30.2735 29.2878 29.7943 29.8167C29.315 30.3456 28.6582 30.6695 27.9554 30.7236L27.7458 30.7308H8.19044C7.48564 30.731 6.8068 30.4586 6.29001 29.9682C5.77321 29.4777 5.45666 28.8055 5.4038 28.0862L5.39681 27.8718V13.5769H4V7.85898C3.99978 7.13769 4.26596 6.44297 4.7452 5.91409C5.22443 5.38521 5.88129 5.06124 6.58411 5.00715L6.79363 5H29.1427Z" fill="#1AC954"/>
<path d="M21.9718 19.9183C21.7098 19.6502 21.3545 19.4996 20.9841 19.4996H15.3968C15.0264 19.4996 14.6711 19.6502 14.4091 19.9183C14.1472 20.1863 14 20.5499 14 20.9291C14 21.3082 14.1472 21.6718 14.4091 21.9399C14.6711 22.2079 15.0264 22.3585 15.3968 22.3585H20.9841C21.3545 22.3585 21.7098 22.2079 21.9718 21.9399C22.2337 21.6718 22.3809 21.3082 22.3809 20.9291C22.3809 20.5499 22.2337 20.1863 21.9718 19.9183Z" fill="#D1F4D8"/>
<rect x="4" y="12" width="28" height="2" fill="#D1F4D8"/>
</svg>
