<svg viewBox="0 0 34 34" fill="none" xmlns="http://www.w3.org/2000/svg">
<path d="M11 8.97149C10.0111 8.97149 9.04439 9.26334 8.22215 9.81014C7.3999 10.3569 6.75904 11.1341 6.3806 12.0434C6.00216 12.9527 5.90315 13.9532 6.09607 14.9185C6.289 15.8838 6.7652 16.7705 7.46447 17.4665C8.16373 18.1624 9.05464 18.6363 10.0245 18.8284C10.9945 19.0204 11.9998 18.9218 12.9134 18.5452C13.827 18.1685 14.6079 17.5307 15.1573 16.7124C15.7068 15.894 16 14.9319 16 13.9477C16 12.6279 15.4732 11.3622 14.5355 10.429C13.5979 9.49577 12.3261 8.97149 11 8.97149ZM11 16.9335C10.4067 16.9335 9.82664 16.7584 9.33329 16.4303C8.83994 16.1022 8.45542 15.6359 8.22836 15.0903C8.0013 14.5448 7.94189 13.9444 8.05764 13.3652C8.1734 12.7861 8.45912 12.2541 8.87868 11.8365C9.29824 11.4189 9.83279 11.1346 10.4147 11.0194C10.9967 10.9041 11.5999 10.9633 12.1481 11.1893C12.6962 11.4152 13.1648 11.7979 13.4944 12.2889C13.8241 12.7799 14 13.3572 14 13.9477C14 14.7396 13.6839 15.499 13.1213 16.059C12.5587 16.6189 11.7956 16.9335 11 16.9335ZM11 3C8.08363 3.00329 5.28766 4.15777 3.22548 6.21015C1.1633 8.26254 0.00330842 11.0452 0 13.9477C0 17.8541 1.81375 21.9943 5.25 25.9218C6.79403 27.6965 8.53182 29.2946 10.4312 30.6866C10.5994 30.8038 10.7997 30.8667 11.005 30.8667C11.2103 30.8667 11.4106 30.8038 11.5788 30.6866C13.4747 29.2941 15.2091 27.696 16.75 25.9218C20.1812 21.9943 22 17.8541 22 13.9477C21.9967 11.0452 20.8367 8.26254 18.7745 6.21015C16.7123 4.15777 13.9164 3.00329 11 3ZM11 28.6276C8.93375 27.0104 2 21.07 2 13.9477C2 11.5721 2.94821 9.29382 4.63604 7.61401C6.32387 5.9342 8.61305 4.9905 11 4.9905C13.3869 4.9905 15.6761 5.9342 17.364 7.61401C19.0518 9.29382 20 11.5721 20 13.9477C20 21.0675 13.0662 27.0104 11 28.6276Z" fill="#1AC954"/>
</svg>
