<svg viewBox="0 0 47 47" fill="none" xmlns="http://www.w3.org/2000/svg">
<path d="M23.7895 12.5715C22.37 12.5715 20.9824 12.9904 19.8021 13.7753C18.6219 14.5602 17.702 15.6758 17.1588 16.981C16.6155 18.2862 16.4734 19.7224 16.7503 21.108C17.0273 22.4936 17.7108 23.7663 18.7145 24.7653C19.7183 25.7642 20.9971 26.4445 22.3893 26.7201C23.7815 26.9957 25.2246 26.8543 26.536 26.3137C27.8474 25.773 28.9683 24.8575 29.757 23.6828C30.5456 22.5082 30.9665 21.1272 30.9665 19.7144C30.9665 17.82 30.2104 16.0032 28.8644 14.6636C27.5184 13.3241 25.6929 12.5715 23.7895 12.5715ZM23.7895 24.0002C22.9378 24.0002 22.1052 23.7488 21.3971 23.2779C20.6889 22.807 20.137 22.1377 19.811 21.3545C19.4851 20.5714 19.3998 19.7097 19.566 18.8783C19.7322 18.047 20.1423 17.2833 20.7445 16.684C21.3468 16.0846 22.114 15.6764 22.9494 15.511C23.7847 15.3457 24.6505 15.4305 25.4374 15.7549C26.2243 16.0793 26.8968 16.6286 27.37 17.3334C27.8431 18.0382 28.0957 18.8668 28.0957 19.7144C28.0957 20.8511 27.642 21.9412 26.8344 22.7449C26.0269 23.5487 24.9316 24.0002 23.7895 24.0002ZM23.7895 4C19.6033 4.00473 15.5899 5.66187 12.6299 8.60787C9.6698 11.5539 8.00475 15.5482 8 19.7144C8 25.3216 10.6035 31.2646 15.5359 36.9021C17.7522 39.4496 20.2466 41.7435 22.9731 43.7415C23.2144 43.9097 23.502 44 23.7967 44C24.0913 44 24.3789 43.9097 24.6202 43.7415C27.3417 41.7427 29.8312 39.4488 32.0431 36.9021C36.9683 31.2646 39.5789 25.3216 39.5789 19.7144C39.5742 15.5482 37.9091 11.5539 34.9491 8.60787C31.989 5.66187 27.9756 4.00473 23.7895 4ZM23.7895 40.7861C20.8236 38.4646 10.8708 29.9378 10.8708 19.7144C10.8708 16.3045 12.2319 13.0342 14.6546 10.623C17.0773 8.21177 20.3632 6.85717 23.7895 6.85717C27.2157 6.85717 30.5016 8.21177 32.9243 10.623C35.3471 13.0342 36.7081 16.3045 36.7081 19.7144C36.7081 29.9342 26.7554 38.4646 23.7895 40.7861Z" fill="#1AC954"/>
</svg>
