<svg viewBox="0 0 36 36" fill="none" xmlns="http://www.w3.org/2000/svg">
<g id="q">
<path d="M23.7974 10.8358C23.7974 13.9679 21.1995 16.5211 18 16.5211C14.8005 16.5211 12.2026 13.9679 12.2026 10.8358C12.2026 7.7036 14.8005 5.15 18 5.15C21.1995 5.15 23.7974 7.7036 23.7974 10.8358ZM21.5331 10.8358C21.5331 8.91966 19.9458 7.36613 18 7.36613C16.0542 7.36613 14.4669 8.91966 14.4669 10.8358C14.4669 12.7514 16.0543 14.305 18 14.305C19.9457 14.305 21.5331 12.7514 21.5331 10.8358ZM5.15 24.7515C5.15 21.3916 7.93659 18.6529 11.3681 18.6529H24.6319C28.0634 18.6529 30.85 21.3916 30.85 24.7514C30.85 28.1113 28.0634 30.85 24.6319 30.85H11.3681C7.93659 30.85 5.15 28.1113 5.15 24.7515ZM11.3681 28.6339H24.6319C26.8097 28.6339 28.5857 26.8948 28.5857 24.7514C28.5857 22.6081 26.8097 20.869 24.6319 20.869H11.3681C9.19029 20.869 7.41427 22.6081 7.41427 24.7514C7.41427 26.8948 9.19029 28.6339 11.3681 28.6339Z" fill="#1AC954" stroke="#D1F4D8" stroke-width="0.3"/>
</g>
</svg>
