<svg id="q" viewBox="0 0 36 36" fill="none" xmlns="http://www.w3.org/2000/svg">
<path d="M9 12.6667H27M15.75 17.3333V24.3333M20.25 17.3333V24.3333M10.125 12.6667L11.25 26.6667C11.25 27.2855 11.4871 27.879 11.909 28.3166C12.331 28.7542 12.9033 29 13.5 29H22.5C23.0967 29 23.669 28.7542 24.091 28.3166C24.5129 27.879 24.75 27.2855 24.75 26.6667L25.875 12.6667M14.625 12.6667V9.16667C14.625 8.85725 14.7435 8.5605 14.9545 8.34171C15.1655 8.12292 15.4516 8 15.75 8H20.25C20.5484 8 20.8345 8.12292 21.0455 8.34171C21.2565 8.5605 21.375 8.85725 21.375 9.16667V12.6667" stroke-width="2" stroke-linecap="round" stroke-linejoin="round"/>
</svg>
