<svg viewBox="0 0 36 36" fill="none" xmlns="http://www.w3.org/2000/svg">
<g id="q">
<path d="M18 11.5312C16.7206 11.5312 15.4699 11.9106 14.4061 12.6214C13.3424 13.3322 12.5133 14.3425 12.0236 15.5245C11.534 16.7065 11.4059 18.0072 11.6555 19.262C11.9051 20.5168 12.5212 21.6694 13.4259 22.5741C14.3306 23.4788 15.4832 24.0948 16.738 24.3444C17.9928 24.594 19.2935 24.4659 20.4755 23.9763C21.6575 23.4867 22.6678 22.6576 23.3786 21.5938C24.0894 20.5301 24.4687 19.2794 24.4687 18C24.4665 16.2851 23.7843 14.641 22.5716 13.4284C21.359 12.2157 19.7149 11.5335 18 11.5312ZM18 22.7812C17.0544 22.7812 16.1299 22.5008 15.3437 21.9755C14.5574 21.4501 13.9446 20.7034 13.5827 19.8297C13.2208 18.956 13.1261 17.9947 13.3106 17.0672C13.4951 16.1397 13.9505 15.2878 14.6191 14.6191C15.2878 13.9505 16.1397 13.4951 17.0672 13.3106C17.9947 13.1261 18.956 13.2208 19.8297 13.5827C20.7034 13.9446 21.4501 14.5574 21.9755 15.3437C22.5008 16.1299 22.7812 17.0544 22.7812 18C22.7812 19.2681 22.2775 20.4842 21.3808 21.3808C20.4842 22.2775 19.2681 22.7812 18 22.7812ZM30.0937 18.3994C30.1022 18.1336 30.1022 17.8664 30.0937 17.6006L32.2495 14.9062C32.3319 14.8031 32.389 14.6821 32.4161 14.5529C32.4432 14.4237 32.4396 14.2899 32.4056 14.1623C32.0683 12.8912 31.5633 11.6706 30.9037 10.5328C30.8382 10.4173 30.7464 10.3189 30.6357 10.2456C30.525 10.1723 30.3986 10.1262 30.2667 10.1109L26.8284 9.72984C26.6475 9.53577 26.46 9.34827 26.2659 9.16734L25.8834 5.72765C25.8682 5.59576 25.822 5.46933 25.7487 5.35864C25.6754 5.24795 25.577 5.15612 25.4616 5.09062C24.3251 4.433 23.1066 3.92892 21.8377 3.59156C21.7098 3.55814 21.5758 3.55524 21.4466 3.58308C21.3174 3.61093 21.1965 3.66874 21.0937 3.75187L18.3937 5.91327C18.1276 5.90484 17.8612 5.90484 17.595 5.91327L14.9062 3.75046C14.8031 3.66806 14.6821 3.61101 14.5529 3.5839C14.4237 3.55679 14.2899 3.56038 14.1623 3.59437C12.8912 3.93166 11.6706 4.43672 10.5328 5.09624C10.4173 5.16175 10.3189 5.25358 10.2456 5.36427C10.1723 5.47496 10.1262 5.60139 10.1109 5.73327L9.73546 9.17156C9.5414 9.35343 9.3539 9.54093 9.17296 9.73406L5.73187 10.125C5.59998 10.1402 5.47355 10.1864 5.36286 10.2597C5.25217 10.333 5.16034 10.4314 5.09484 10.5469C4.43721 11.6833 3.93314 12.9019 3.59577 14.1708C3.56316 14.2971 3.56029 14.4292 3.58737 14.5569C3.61446 14.6845 3.67076 14.8041 3.75187 14.9062L5.91327 17.6062C5.90484 17.8724 5.90484 18.1388 5.91327 18.405L3.75046 21.1008C3.66806 21.2039 3.61101 21.325 3.5839 21.4542C3.55679 21.5834 3.56038 21.7171 3.59437 21.8447C3.93225 23.1134 4.4373 24.3316 5.09624 25.4672C5.16175 25.5827 5.25358 25.6811 5.36427 25.7544C5.47496 25.8277 5.60139 25.8738 5.73327 25.8891L9.17156 26.2701C9.35343 26.4642 9.54093 26.6517 9.73406 26.8326L10.125 30.2681C10.1402 30.4 10.1864 30.5264 10.2597 30.6371C10.333 30.7478 10.4314 30.8396 10.5469 30.9051C11.6833 31.5628 12.9019 32.0668 14.1708 32.4042C14.2983 32.4382 14.4321 32.4418 14.5613 32.4147C14.6905 32.3876 14.8115 32.3305 14.9147 32.2481L17.6006 30.0937C17.8664 30.1022 18.1336 30.1022 18.3994 30.0937L21.1008 32.2566C21.2505 32.3761 21.4365 32.441 21.6281 32.4408C21.7012 32.4405 21.774 32.4311 21.8447 32.4126C23.1134 32.0748 24.3316 31.5697 25.4672 30.9108C25.5827 30.8453 25.6811 30.7534 25.7544 30.6427C25.8277 30.5321 25.8738 30.4056 25.8891 30.2737L26.2701 26.8355C26.4642 26.6545 26.6517 26.467 26.8326 26.273L30.2723 25.8905C30.4042 25.8752 30.5307 25.8291 30.6413 25.7558C30.752 25.6825 30.8439 25.5841 30.9094 25.4686C31.5672 24.3323 32.0713 23.1137 32.4084 21.8447C32.4424 21.7171 32.446 21.5834 32.4189 21.4542C32.3918 21.325 32.3347 21.2039 32.2523 21.1008L30.0937 18.3994ZM29.6578 24.2536L26.3334 24.6234C26.1257 24.6474 25.9343 24.7476 25.7962 24.9047C25.5183 25.2178 25.222 25.5141 24.9089 25.792C24.7518 25.93 24.6516 26.1215 24.6277 26.3292L24.2578 29.6522C23.4795 30.0672 22.6617 30.4036 21.8166 30.6562L19.2052 28.5666C19.0554 28.4471 18.8694 28.3821 18.6778 28.3823H18.6272C18.2094 28.4062 17.7906 28.4062 17.3728 28.3823C17.1642 28.3696 16.9582 28.4347 16.7948 28.5651L14.1848 30.6562C13.3405 30.4022 12.5236 30.0644 11.7464 29.648L11.3766 26.3264C11.3526 26.1187 11.2524 25.9272 11.0953 25.7892C10.7822 25.5113 10.4859 25.215 10.208 24.9019C10.0699 24.7448 9.8785 24.6446 9.67077 24.6206L6.34781 24.2508C5.93317 23.4747 5.59683 22.6593 5.34374 21.8166L7.43343 19.2052C7.56386 19.0418 7.62901 18.8358 7.61624 18.6272C7.59234 18.2094 7.59234 17.7906 7.61624 17.3728C7.62901 17.1642 7.56386 16.9582 7.43343 16.7948L5.34374 14.1848C5.59778 13.3405 5.93555 12.5236 6.35202 11.7464L9.67359 11.3766C9.88131 11.3526 10.0727 11.2524 10.2108 11.0953C10.4887 10.7822 10.785 10.4859 11.0981 10.208C11.2552 10.0699 11.3554 9.8785 11.3794 9.67077L11.7492 6.34781C12.5253 5.93317 13.3407 5.59683 14.1834 5.34374L16.7948 7.43343C16.9582 7.56386 17.1642 7.62901 17.3728 7.61624C17.7906 7.59234 18.2094 7.59234 18.6272 7.61624C18.8358 7.62901 19.0418 7.56386 19.2052 7.43343L21.8152 5.34374C22.6595 5.59778 23.4764 5.93555 24.2536 6.35202L24.6234 9.6764C24.6474 9.88413 24.7476 10.0756 24.9047 10.2136C25.2178 10.4915 25.5141 10.7878 25.792 11.1009C25.9301 11.258 26.1215 11.3582 26.3292 11.3822L29.6522 11.752C30.0666 12.5272 30.403 13.3417 30.6562 14.1834L28.5666 16.7948C28.4361 16.9582 28.371 17.1642 28.3837 17.3728C28.4076 17.7906 28.4076 18.2094 28.3837 18.6272C28.371 18.8358 28.4361 19.0418 28.5666 19.2052L30.6562 21.8151C30.4031 22.6594 30.0663 23.4763 29.6508 24.2536H29.6578Z" fill="#1AC954"/>
</g>
</svg>
