<svg viewBox="0 0 36 36" fill="none" xmlns="http://www.w3.org/2000/svg">
<path d="M30.0942 18.3994C30.1027 18.1336 30.1027 17.8664 30.0942 17.6006L32.25 14.9062C32.3324 14.8031 32.3895 14.6821 32.4166 14.5529C32.4437 14.4237 32.4401 14.2899 32.4061 14.1623C32.0688 12.8912 31.5638 11.6706 30.9042 10.5328C30.8387 10.4173 30.7469 10.3189 30.6362 10.2456C30.5255 10.1723 30.3991 10.1262 30.2672 10.1109L26.8289 9.72984C26.648 9.53577 26.4605 9.34827 26.2664 9.16734L25.8839 5.72765C25.8687 5.59576 25.8225 5.46933 25.7492 5.35864C25.6759 5.24795 25.5775 5.15612 25.462 5.09062C24.3256 4.433 23.107 3.92892 21.8381 3.59156C21.7102 3.55814 21.5763 3.55524 21.4471 3.58308C21.3179 3.61093 21.197 3.66874 21.0942 3.75187L18.3942 5.91327C18.128 5.90484 17.8617 5.90484 17.5955 5.91327L14.9067 3.75046C14.8036 3.66806 14.6826 3.61101 14.5534 3.5839C14.4241 3.55679 14.2904 3.56038 14.1628 3.59437C12.8917 3.93166 11.6711 4.43672 10.5333 5.09624C10.4178 5.16175 10.3194 5.25358 10.2461 5.36427C10.1728 5.47496 10.1267 5.60139 10.1114 5.73327L9.73595 9.17156C9.54189 9.35343 9.35439 9.54093 9.17345 9.73406L5.73236 10.125C5.60047 10.1402 5.47404 10.1864 5.36335 10.2597C5.25266 10.333 5.16083 10.4314 5.09532 10.5469C4.4377 11.6833 3.93362 12.9019 3.59626 14.1708C3.56365 14.2971 3.56078 14.4292 3.58786 14.5569C3.61495 14.6845 3.67125 14.8041 3.75236 14.9062L5.91376 17.6062C5.90532 17.8724 5.90532 18.1388 5.91376 18.405L3.75095 21.1008C3.66855 21.2039 3.6115 21.325 3.58439 21.4542C3.55728 21.5834 3.56086 21.7171 3.59486 21.8447C3.93273 23.1134 4.43778 24.3316 5.09673 25.4672C5.16224 25.5827 5.25407 25.6811 5.36476 25.7544C5.47545 25.8277 5.60188 25.8738 5.73376 25.8891L9.17204 26.2701C9.35392 26.4642 9.54142 26.6517 9.73454 26.8326L10.1255 30.2681C10.1407 30.4 10.1869 30.5264 10.2602 30.6371C10.3335 30.7478 10.4319 30.8396 10.5474 30.9051C11.6838 31.5628 12.9024 32.0668 14.1713 32.4042C14.2988 32.4382 14.4326 32.4418 14.5618 32.4147C14.691 32.3876 14.812 32.3305 14.9152 32.2481L17.6011 30.0937C17.8669 30.1022 18.1341 30.1022 18.3999 30.0937L21.1013 32.2566C21.251 32.3761 21.437 32.441 21.6286 32.4408C21.7017 32.4405 21.7744 32.4311 21.8452 32.4126C23.1139 32.0748 24.3321 31.5697 25.4677 30.9108C25.5831 30.8453 25.6815 30.7534 25.7548 30.6427C25.8282 30.5321 25.8743 30.4056 25.8895 30.2737L26.2706 26.8355C26.4647 26.6545 26.6522 26.467 26.8331 26.273L30.2728 25.8905C30.4047 25.8752 30.5311 25.8291 30.6418 25.7558C30.7525 25.6825 30.8444 25.5841 30.9099 25.4686C31.5677 24.3323 32.0718 23.1137 32.4089 21.8447C32.4429 21.7171 32.4465 21.5834 32.4194 21.4542C32.3923 21.325 32.3352 21.2039 32.2528 21.1008L30.0942 18.3994Z" fill="#1AC954"/>
<path d="M18 11.9668C16.7206 11.9668 15.4699 12.3462 14.4062 13.057C13.3424 13.7678 12.5133 14.7781 12.0237 15.9601C11.5341 17.1421 11.406 18.4427 11.6555 19.6975C11.9051 20.9524 12.5212 22.105 13.4259 23.0096C14.3306 23.9143 15.4832 24.5304 16.738 24.78C17.9928 25.0296 19.2935 24.9015 20.4755 24.4119C21.6575 23.9223 22.6678 23.0932 23.3786 22.0294C24.0894 20.9656 24.4688 19.7149 24.4688 18.4355C24.4665 16.7206 23.7843 15.0766 22.5716 13.8639C21.359 12.6513 19.7149 11.969 18 11.9668Z" fill="#D1F4D8"/>
</svg>
