<svg id="q" viewBox="0 0 24 24" xmlns="http://www.w3.org/2000/svg">
<path d="M12 1C18.0753 1 23 5.9247 23 12C23 18.0753 18.0753 23 12 23C5.9247 23 1 18.0753 1 12C1 5.9247 5.9247 1 12 1ZM12 3.2C9.66609 3.2 7.42778 4.12714 5.77746 5.77746C4.12714 7.42778 3.2 9.66609 3.2 12C3.2 14.3339 4.12714 16.5722 5.77746 18.2225C7.42778 19.8729 9.66609 20.8 12 20.8C14.3339 20.8 16.5722 19.8729 18.2225 18.2225C19.8729 16.5722 20.8 14.3339 20.8 12C20.8 9.66609 19.8729 7.42778 18.2225 5.77746C16.5722 4.12714 14.3339 3.2 12 3.2ZM12 5.4C12.2694 5.40004 12.5295 5.49895 12.7308 5.67799C12.9321 5.85702 13.0608 6.10372 13.0923 6.3713L13.1 6.5V11.5446L16.0777 14.5223C16.275 14.7203 16.3895 14.9859 16.3981 15.2652C16.4066 15.5446 16.3085 15.8167 16.1236 16.0263C15.9388 16.2359 15.6811 16.3673 15.4029 16.3938C15.1247 16.4203 14.8468 16.34 14.6257 16.169L14.5223 16.0777L11.2223 12.7777C11.0513 12.6066 10.9415 12.3839 10.9099 12.1441L10.9 12V6.5C10.9 6.20826 11.0159 5.92847 11.2222 5.72218C11.4285 5.51589 11.7083 5.4 12 5.4Z"/>
</svg>
