<svg width="47" height="47" viewBox="0 0 47 47" fill="none" xmlns="http://www.w3.org/2000/svg">
<path d="M18 12.1429C16.6515 12.1429 15.3333 12.5409 14.212 13.2865C13.0908 14.0322 12.2169 15.092 11.7008 16.3319C11.1848 17.5719 11.0497 18.9362 11.3128 20.2526C11.5759 21.5689 12.2253 22.778 13.1788 23.727C14.1324 24.676 15.3472 25.3223 16.6698 25.5841C17.9924 25.8459 19.3633 25.7116 20.6092 25.198C21.8551 24.6844 22.9199 23.8146 23.6691 22.6987C24.4183 21.5828 24.8182 20.2708 24.8182 18.9287C24.8182 17.129 24.0998 15.403 22.8212 14.1304C21.5425 12.8579 19.8083 12.1429 18 12.1429ZM18 23.0002C17.1909 23.0002 16.4 22.7614 15.7272 22.314C15.0545 21.8666 14.5301 21.2308 14.2205 20.4868C13.9109 19.7428 13.8298 18.9242 13.9877 18.1344C14.1455 17.3446 14.5352 16.6192 15.1073 16.0498C15.6794 15.4804 16.4083 15.0926 17.2019 14.9355C17.9955 14.7784 18.818 14.859 19.5655 15.1672C20.313 15.4753 20.952 15.9972 21.4015 16.6667C21.851 17.3363 22.0909 18.1235 22.0909 18.9287C22.0909 20.0085 21.6599 21.0441 20.8927 21.8077C20.1255 22.5712 19.085 23.0002 18 23.0002ZM18 4C14.0231 4.00449 10.2104 5.57877 7.39838 8.37748C4.58631 11.1762 3.00451 14.9708 3 18.9287C3 24.2556 5.4733 29.9013 10.1591 35.257C12.2646 37.6771 14.6343 39.8563 17.2244 41.7544C17.4537 41.9142 17.7269 42 18.0068 42C18.2868 42 18.5599 41.9142 18.7892 41.7544C21.3746 39.8555 23.7397 37.6763 25.8409 35.257C30.5199 29.9013 33 24.2556 33 18.9287C32.9955 14.9708 31.4137 11.1762 28.6016 8.37748C25.7896 5.57877 21.9769 4.00449 18 4ZM18 38.9468C15.1824 36.7414 5.72727 28.6409 5.72727 18.9287C5.72727 15.6893 7.02029 12.5825 9.32187 10.2918C11.6235 8.00118 14.7451 6.71431 18 6.71431C21.2549 6.71431 24.3765 8.00118 26.6781 10.2918C28.9797 12.5825 30.2727 15.6893 30.2727 18.9287C30.2727 28.6375 20.8176 36.7414 18 38.9468Z" fill="black"/>
<path d="M8 42H37" stroke="black" stroke-width="3" stroke-linecap="round"/>
</svg>
