<svg width="47" height="47" viewBox="0 0 47 47" fill="none" xmlns="http://www.w3.org/2000/svg">
<path d="M17.0157 41.9009C18.635 41.9009 19.9476 40.5587 19.9476 38.9029C19.9476 37.2472 18.635 35.9049 17.0157 35.9049C15.3965 35.9049 14.0839 37.2472 14.0839 38.9029C14.0839 40.5587 15.3965 41.9009 17.0157 41.9009Z" fill="black"/>
<path d="M35.7406 41.9009C37.3598 41.9009 38.6724 40.5587 38.6724 38.9029C38.6724 37.2472 37.3598 35.9049 35.7406 35.9049C34.1214 35.9049 32.8087 37.2472 32.8087 38.9029C32.8087 40.5587 34.1214 41.9009 35.7406 41.9009Z" fill="black"/>
<path d="M10.1734 13.1202H42.4807L37.7274 29.5672C37.5555 30.1623 37.1921 30.6858 36.6922 31.0586C36.1924 31.4313 35.5834 31.6329 34.9574 31.6329H17.6967C17.0707 31.6329 16.4616 31.4313 15.9618 31.0586C15.462 30.6858 15.0986 30.1623 14.9266 29.5672L8.41408 7.03283C8.32808 6.73528 8.14639 6.47352 7.89648 6.28716C7.64658 6.10081 7.34207 6 7.02905 6H4" stroke="black" stroke-width="3" stroke-linecap="round" stroke-linejoin="round"/>
</svg>
