<svg width="70" height="70" viewBox="0 0 70 70" fill="none" xmlns="http://www.w3.org/2000/svg">
<path d="M46.7083 33.9283V26.1111C46.7083 24.3953 45.4003 23 43.7916 23H21.9166C20.3081 23 19 24.3953 19 26.1111V41.6667C19 43.3825 20.3081 44.7778 21.9167 44.7778H38.2693C39.2247 48.3633 42.3155 51 45.9792 51C47.3891 51 48.7755 50.6043 49.9903 49.8546C50.3385 49.6397 50.4582 49.1642 50.2559 48.792C50.0544 48.4198 49.6079 48.2914 49.2597 48.5087C48.267 49.1209 47.1327 49.4445 45.9791 49.4445C42.3603 49.4445 39.4166 46.3045 39.4166 42.4445C39.4166 38.5845 42.3604 35.4445 45.9791 35.4445C49.5979 35.4445 52.5416 38.5845 52.5416 42.4445V43.2223C52.5416 44.0798 51.8872 44.7778 51.0833 44.7778C50.2794 44.7778 49.625 44.0798 49.625 43.2223V40.1111C49.625 39.6812 49.2989 39.3333 48.8958 39.3333C48.6997 39.3333 48.5235 39.418 48.3925 39.5521C47.7481 38.9395 46.9082 38.5555 45.9791 38.5555C43.9689 38.5555 42.3333 40.3002 42.3333 42.4444C42.3333 44.5886 43.9689 46.3333 45.9792 46.3333C47.0658 46.3333 48.032 45.8134 48.7006 45.0061C49.2288 45.8065 50.0978 46.3333 51.0834 46.3333C52.6919 46.3333 54 44.9381 54 43.2222V42.4444C54 37.9894 50.7901 34.3231 46.7083 33.9283ZM21.9167 24.5555H43.7917C43.822 24.5555 43.8475 24.5721 43.8774 24.5741L33.4538 33.7005C33.0828 33.9497 32.5451 33.898 32.3038 33.74L21.8319 24.5739C21.8615 24.572 21.8866 24.5555 21.9167 24.5555ZM45.25 33.9283C41.1682 34.3231 37.9583 37.9894 37.9583 42.4445C37.9583 42.707 37.9734 42.9657 37.9952 43.2223H21.9167C21.1128 43.2223 20.4584 42.5242 20.4584 41.6667V26.1111C20.4584 25.8909 20.504 25.6828 20.5818 25.4928L31.4429 34.9933C31.8673 35.2888 32.3551 35.4445 32.8543 35.4445C33.3342 35.4445 33.8034 35.3002 34.2165 35.0268C34.2577 35.0032 34.2969 34.9752 34.334 34.9425L45.1265 25.4927C45.2044 25.6828 45.2501 25.8909 45.2501 26.1112V33.9283H45.25ZM45.9792 44.7778C44.7729 44.7778 43.7917 43.7312 43.7917 42.4445C43.7917 41.1578 44.7729 40.1111 45.9792 40.1111C47.1855 40.1111 48.1667 41.1578 48.1667 42.4445C48.1667 43.7312 47.1855 44.7778 45.9792 44.7778Z" fill="#1AC954"/>
</svg>
